<?xml version="1.0" encoding="UTF-8" standalone="no"?>
<!-- generated by Grace-5.1.22 -->
<svg
   xmlns:dc="http://purl.org/dc/elements/1.1/"
   xmlns:cc="http://creativecommons.org/ns#"
   xmlns:rdf="http://www.w3.org/1999/02/22-rdf-syntax-ns#"
   xmlns:svg="http://www.w3.org/2000/svg"
   xmlns="http://www.w3.org/2000/svg"
   xmlns:xlink="http://www.w3.org/1999/xlink"
   xmlns:sodipodi="http://sodipodi.sourceforge.net/DTD/sodipodi-0.dtd"
   xmlns:inkscape="http://www.inkscape.org/namespaces/inkscape"
   xml:space="preserve"
   width="765"
   height="765"
   viewBox="0 0 792 612"
   id="svg2"
   sodipodi:version="0.32"
   inkscape:version="0.46"
   sodipodi:docname="deviation_control.svg"
   inkscape:output_extension="org.inkscape.output.svg.inkscape"
   version="1.0"
   style="display:inline"><metadata
   id="metadata279"><rdf:RDF><cc:Work
       rdf:about=""><dc:format>image/svg+xml</dc:format><dc:type
         rdf:resource="http://purl.org/dc/dcmitype/StillImage" /></cc:Work></rdf:RDF></metadata><defs
   id="defs277"><inkscape:perspective
   sodipodi:type="inkscape:persp3d"
   inkscape:vp_x="0 : 382.5 : 1"
   inkscape:vp_y="0 : 1000 : 0"
   inkscape:vp_z="990 : 382.5 : 1"
   inkscape:persp3d-origin="495 : 255 : 1"
   id="perspective281" />
  
  
  
  
  
  
  
  
  
  
  
  
  
  
  
  
  
  
  
  
  
  
  
  
  
  
  
  
  
  
  
  
  
  
  
  
  
  
  
  
  
  
  
  
  
  
  
  
  
  
  
  
  
  
  
  
  
  
  
  
  
  
  
 


   
  <clipPath
   clipPathUnits="userSpaceOnUse"
   id="clipPath12810"><g
     id="g12812"
     style="fill:none;fill-opacity:0.63865548;fill-rule:nonzero;display:inline"
     transform="matrix(1,0,0,-1.2941176,0,702)">
   <path
   id="path12814"
   d="M 0,0 L 0,612 L 792,612 L 792,0 L 0,0 z"
   style="fill:none;fill-opacity:0.63865548" />
  </g></clipPath></defs><sodipodi:namedview
   inkscape:window-height="1372"
   inkscape:window-width="1693"
   inkscape:pageshadow="2"
   inkscape:pageopacity="0.0"
   guidetolerance="10.0"
   gridtolerance="10.0"
   objecttolerance="10.0"
   borderopacity="1.0"
   bordercolor="#666666"
   pagecolor="#ffffff"
   id="base"
   showgrid="false"
   inkscape:zoom="1.0749872"
   inkscape:cx="399.58306"
   inkscape:cy="336.86258"
   inkscape:window-x="589"
   inkscape:window-y="18"
   inkscape:current-layer="layer4" />
 



<g
   inkscape:groupmode="layer"
   id="layer3"
   inkscape:label="em"
   style="display:inline"><image
     y="-1746.9084"
     x="-1272.7297"
     id="image4058"
     height="3247.0039"
     width="3247.0039"
     sodipodi:absref="/netapp/cnl/home/jkinney/src/mesh_tools/reconstruct2contourtiler/doc/figures/R34CA1-B_S12.199_zoom.png"
     xlink:href="R34CA1-B_S12.199_crop.png"
     clip-path="url(#clipPath12810)" /></g><g
   inkscape:groupmode="layer"
   id="layer4"
   inkscape:label="nonem"
   style="display:inline"><text
   xml:space="preserve"
   style="font-size:10px;font-style:normal;font-weight:normal;fill:#000000;fill-opacity:1;stroke:none;stroke-width:1px;stroke-linecap:butt;stroke-linejoin:miter;stroke-opacity:1;font-family:Bitstream Vera Sans"
   x="42.22184"
   y="-48.459156"
   id="text2920"><tspan
     sodipodi:role="line"
     id="tspan2922"
     x="42.22184"
     y="-48.459156"
     style="font-size:20px;fill:#ff0000">Original</tspan></text>


<text
   xml:space="preserve"
   style="font-size:10px;font-style:normal;font-weight:normal;fill:#000000;fill-opacity:1;stroke:none;stroke-width:1px;stroke-linecap:butt;stroke-linejoin:miter;stroke-opacity:1;font-family:Bitstream Vera Sans"
   x="41.381996"
   y="12.830611"
   id="text2924"><tspan
     sodipodi:role="line"
     id="tspan2926"
     x="41.381996"
     y="12.830611"
     style="font-size:20px;fill:#0000ff">Filtered without deviation control</tspan></text>


<text
   xml:space="preserve"
   style="font-size:10px;font-style:normal;font-weight:normal;fill:#000000;fill-opacity:1;stroke:none;stroke-width:1px;stroke-linecap:butt;stroke-linejoin:miter;stroke-opacity:1;font-family:Bitstream Vera Sans"
   x="41.381996"
   y="-17.133276"
   id="text2928"><tspan
     sodipodi:role="line"
     id="tspan2930"
     x="41.381996"
     y="-17.133276"
     style="font-size:20px;fill:#ffff00">Filtered</tspan></text>


<path
   style="fill:none;fill-rule:evenodd;stroke:#000000;stroke-width:16.74694252;stroke-linecap:butt;stroke-linejoin:miter;stroke-miterlimit:4;stroke-dasharray:none;stroke-opacity:1;display:inline"
   d="M 602.56801,615.35602 C 603.51982,615.35602 661.10439,615.35602 661.10439,615.35602"
   id="path2901" /></g><g
   inkscape:groupmode="layer"
   id="layer5"
   inkscape:label="newpoints"
   style="display:inline"><g
     id="g13698"
     transform="matrix(1.039016,0,0,1.039016,-667.23457,-215.97799)"><g
       transform="matrix(1.3848735,0,0,-1.4052047,571.49117,951.5489)"
       style="fill:none;stroke:#ff0000;stroke-width:1.37699997;stroke-linecap:butt;stroke-linejoin:miter;stroke-dasharray:none"
       id="g13158">
   <path
   d="M 228.162,61.1388 L 239.158,83.1308 L 239.158,105.7598 L 250.4725,128.4119 L 256.1298,309.5135 L 369.3212,484.9347 L 442.8886,569.8398 L 456.4548,581.4612"
   id="path13160" />
   <ellipse
   rx="6.1199999"
   ry="6.1199999"
   cx="239.158"
   cy="83.130798"
   id="ellipse13162"
   sodipodi:cx="239.158"
   sodipodi:cy="83.130798"
   sodipodi:rx="6.1199999"
   sodipodi:ry="6.1199999" />
   <ellipse
   rx="6.1199999"
   ry="6.1199999"
   cx="239.158"
   cy="105.7598"
   id="ellipse13164"
   sodipodi:cx="239.158"
   sodipodi:cy="105.7598"
   sodipodi:rx="6.1199999"
   sodipodi:ry="6.1199999" />
   <ellipse
   rx="6.1199999"
   ry="6.1199999"
   cx="250.4725"
   cy="128.4119"
   id="ellipse13166"
   sodipodi:cx="250.4725"
   sodipodi:cy="128.4119"
   sodipodi:rx="6.1199999"
   sodipodi:ry="6.1199999" />
   <ellipse
   rx="6.1199999"
   ry="6.1199999"
   cx="256.12979"
   cy="309.51349"
   id="ellipse13168"
   sodipodi:cx="256.12979"
   sodipodi:cy="309.51349"
   sodipodi:rx="6.1199999"
   sodipodi:ry="6.1199999" />
   <ellipse
   rx="6.1199999"
   ry="6.1199999"
   cx="369.3212"
   cy="484.93469"
   id="ellipse13170"
   sodipodi:cx="369.3212"
   sodipodi:cy="484.93469"
   sodipodi:rx="6.1199999"
   sodipodi:ry="6.1199999" />
   <ellipse
   rx="6.1199999"
   ry="6.1199999"
   cx="442.88861"
   cy="569.83978"
   id="ellipse13172"
   sodipodi:cx="442.88861"
   sodipodi:cy="569.83978"
   sodipodi:rx="6.1199999"
   sodipodi:ry="6.1199999" />
  </g><g
       transform="matrix(1.3848735,0,0,-1.4052047,571.49117,951.5489)"
       style="fill:#ffff00;fill-rule:nonzero"
       id="g13174">
   <path
   d="M 237.2646,85.1273 L 235.245,83.1077 L 237.2646,81.0881 L 239.2842,83.1077 L 237.2646,85.1273 z"
   id="path13176" />
  </g><g
       transform="matrix(1.3848735,0,0,-1.4052047,571.49117,951.5489)"
       style="fill:none;stroke:#ffff00;stroke-width:1.83599997;stroke-linecap:butt;stroke-linejoin:miter;stroke-dasharray:none"
       id="g13178">
   <path
   d="M 237.2646,85.1273 L 235.245,83.1077 L 237.2646,81.0881 L 239.2842,83.1077 L 237.2646,85.1273 z"
   id="path13180" />
  </g><g
       transform="matrix(1.3848735,0,0,-1.4052047,571.49117,951.5489)"
       style="fill:#ffff00;fill-rule:nonzero"
       id="g13182">
   <path
   d="M 245.8774,121.0105 L 243.8578,118.9909 L 245.8774,116.9713 L 247.897,118.9909 L 245.8774,121.0105 z"
   id="path13184" />
  </g><g
       transform="matrix(1.3848735,0,0,-1.4052047,571.49117,951.5489)"
       style="fill:none;stroke:#ffff00;stroke-width:1.83599997;stroke-linecap:butt;stroke-linejoin:miter;stroke-dasharray:none"
       id="g13186">
   <path
   d="M 245.8774,121.0105 L 243.8578,118.9909 L 245.8774,116.9713 L 247.897,118.9909 L 245.8774,121.0105 z"
   id="path13188" />
  </g><g
       transform="matrix(1.3848735,0,0,-1.4052047,571.49117,951.5489)"
       style="fill:#ffff00;fill-rule:nonzero"
       id="g13190">
   <path
   d="M 251.3269,157.4478 L 249.3073,155.4282 L 251.3269,153.4086 L 253.3465,155.4282 L 251.3269,157.4478 z"
   id="path13192" />
  </g><g
       transform="matrix(1.3848735,0,0,-1.4052047,571.49117,951.5489)"
       style="fill:none;stroke:#ffff00;stroke-width:1.83599997;stroke-linecap:butt;stroke-linejoin:miter;stroke-dasharray:none"
       id="g13194">
   <path
   d="M 251.3269,157.4478 L 249.3073,155.4282 L 251.3269,153.4086 L 253.3465,155.4282 L 251.3269,157.4478 z"
   id="path13196" />
  </g><g
       transform="matrix(1.3848735,0,0,-1.4052047,571.49117,951.5489)"
       style="fill:#ffff00;fill-rule:nonzero"
       id="g13198">
   <path
   d="M 252.4583,194.3008 L 250.4387,192.2812 L 252.4583,190.2616 L 254.4779,192.2812 L 252.4583,194.3008 z"
   id="path13200" />
  </g><g
       transform="matrix(1.3848735,0,0,-1.4052047,571.49117,951.5489)"
       style="fill:none;stroke:#ffff00;stroke-width:1.83599997;stroke-linecap:butt;stroke-linejoin:miter;stroke-dasharray:none"
       id="g13202">
   <path
   d="M 252.4583,194.3008 L 250.4387,192.2812 L 252.4583,190.2616 L 254.4779,192.2812 L 252.4583,194.3008 z"
   id="path13204" />
  </g><g
       transform="matrix(1.3848735,0,0,-1.4052047,571.49117,951.5489)"
       style="fill:#ffff00;fill-rule:nonzero"
       id="g13206">
   <path
   d="M 253.7283,234.3866 L 251.7087,232.367 L 253.7283,230.3474 L 255.7479,232.367 L 253.7283,234.3866 z"
   id="path13208" />
  </g><g
       transform="matrix(1.3848735,0,0,-1.4052047,571.49117,951.5489)"
       style="fill:none;stroke:#ffff00;stroke-width:1.83599997;stroke-linecap:butt;stroke-linejoin:miter;stroke-dasharray:none"
       id="g13210">
   <path
   d="M 253.7283,234.3866 L 251.7087,232.367 L 253.7283,230.3474 L 255.7479,232.367 L 253.7283,234.3866 z"
   id="path13212" />
  </g><g
       transform="matrix(1.3848735,0,0,-1.4052047,571.49117,951.5489)"
       style="fill:#ffff00;fill-rule:nonzero"
       id="g13214">
   <path
   d="M 254.9752,274.5416 L 252.9556,272.522 L 254.9752,270.5024 L 256.9948,272.522 L 254.9752,274.5416 z"
   id="path13216" />
  </g><g
       transform="matrix(1.3848735,0,0,-1.4052047,571.49117,951.5489)"
       style="fill:none;stroke:#ffff00;stroke-width:1.83599997;stroke-linecap:butt;stroke-linejoin:miter;stroke-dasharray:none"
       id="g13218">
   <path
   d="M 254.9752,274.5416 L 252.9556,272.522 L 254.9752,270.5024 L 256.9948,272.522 L 254.9752,274.5416 z"
   id="path13220" />
  </g><g
       transform="matrix(1.3848735,0,0,-1.4052047,571.49117,951.5489)"
       style="fill:#ffff00;fill-rule:nonzero"
       id="g13222">
   <path
   d="M 259.5703,314.5811 L 257.5507,312.5615 L 259.5703,310.5419 L 261.5899,312.5615 L 259.5703,314.5811 z"
   id="path13224" />
  </g><g
       transform="matrix(1.3848735,0,0,-1.4052047,571.49117,951.5489)"
       style="fill:none;stroke:#ffff00;stroke-width:1.83599997;stroke-linecap:butt;stroke-linejoin:miter;stroke-dasharray:none"
       id="g13226">
   <path
   d="M 259.5703,314.5811 L 257.5507,312.5615 L 259.5703,310.5419 L 261.5899,312.5615 L 259.5703,314.5811 z"
   id="path13228" />
  </g><g
       transform="matrix(1.3848735,0,0,-1.4052047,571.49117,951.5489)"
       style="fill:#ffff00;fill-rule:nonzero"
       id="g13230">
   <path
   d="M 280.3752,349.1019 L 278.3556,347.0823 L 280.3752,345.0627 L 282.3948,347.0823 L 280.3752,349.1019 z"
   id="path13232" />
  </g><g
       transform="matrix(1.3848735,0,0,-1.4052047,571.49117,951.5489)"
       style="fill:none;stroke:#ffff00;stroke-width:1.83599997;stroke-linecap:butt;stroke-linejoin:miter;stroke-dasharray:none"
       id="g13234">
   <path
   d="M 280.3752,349.1019 L 278.3556,347.0823 L 280.3752,345.0627 L 282.3948,347.0823 L 280.3752,349.1019 z"
   id="path13236" />
  </g><g
       transform="matrix(1.3848735,0,0,-1.4052047,571.49117,951.5489)"
       style="fill:#ffff00;fill-rule:nonzero"
       id="g13238">
   <path
   d="M 302.2653,383.0224 L 300.2457,381.0028 L 302.2653,378.9832 L 304.2849,381.0028 L 302.2653,383.0224 z"
   id="path13240" />
  </g><g
       transform="matrix(1.3848735,0,0,-1.4052047,571.49117,951.5489)"
       style="fill:none;stroke:#ffff00;stroke-width:1.83599997;stroke-linecap:butt;stroke-linejoin:miter;stroke-dasharray:none"
       id="g13242">
   <path
   d="M 302.2653,383.0224 L 300.2457,381.0028 L 302.2653,378.9832 L 304.2849,381.0028 L 302.2653,383.0224 z"
   id="path13244" />
  </g><g
       transform="matrix(1.3848735,0,0,-1.4052047,571.49117,951.5489)"
       style="fill:#ffff00;fill-rule:nonzero"
       id="g13246">
   <path
   d="M 324.2016,417.0121 L 322.182,414.9925 L 324.2016,412.9729 L 326.2212,414.9925 L 324.2016,417.0121 z"
   id="path13248" />
  </g><g
       transform="matrix(1.3848735,0,0,-1.4052047,571.49117,951.5489)"
       style="fill:none;stroke:#ffff00;stroke-width:1.83599997;stroke-linecap:butt;stroke-linejoin:miter;stroke-dasharray:none"
       id="g13250">
   <path
   d="M 324.2016,417.0121 L 322.182,414.9925 L 324.2016,412.9729 L 326.2212,414.9925 L 324.2016,417.0121 z"
   id="path13252" />
  </g><g
       transform="matrix(1.3848735,0,0,-1.4052047,571.49117,951.5489)"
       style="fill:#ffff00;fill-rule:nonzero"
       id="g13254">
   <path
   d="M 346.1841,451.0942 L 344.1645,449.0746 L 346.1841,447.055 L 348.2037,449.0746 L 346.1841,451.0942 z"
   id="path13256" />
  </g><g
       transform="matrix(1.3848735,0,0,-1.4052047,571.49117,951.5489)"
       style="fill:none;stroke:#ffff00;stroke-width:1.83599997;stroke-linecap:butt;stroke-linejoin:miter;stroke-dasharray:none"
       id="g13258">
   <path
   d="M 346.1841,451.0942 L 344.1645,449.0746 L 346.1841,447.055 L 348.2037,449.0746 L 346.1841,451.0942 z"
   id="path13260" />
  </g><g
       transform="matrix(1.3848735,0,0,-1.4052047,571.49117,951.5489)"
       style="fill:#ffff00;fill-rule:nonzero"
       id="g13262">
   <path
   d="M 368.513,485.084 L 366.4934,483.0644 L 368.513,481.0448 L 370.5326,483.0644 L 368.513,485.084 z"
   id="path13264" />
  </g><g
       transform="matrix(1.3848735,0,0,-1.4052047,571.49117,951.5489)"
       style="fill:none;stroke:#ffff00;stroke-width:1.83599997;stroke-linecap:butt;stroke-linejoin:miter;stroke-dasharray:none"
       id="g13266">
   <path
   d="M 368.513,485.084 L 366.4934,483.0644 L 368.513,481.0448 L 370.5326,483.0644 L 368.513,485.084 z"
   id="path13268" />
  </g><g
       transform="matrix(1.3848735,0,0,-1.4052047,571.49117,951.5489)"
       style="fill:#ffff00;fill-rule:nonzero"
       id="g13270">
   <path
   d="M 392.5506,513.7397 L 390.531,511.7201 L 392.5506,509.7005 L 394.5702,511.7201 L 392.5506,513.7397 z"
   id="path13272" />
  </g><g
       transform="matrix(1.3848735,0,0,-1.4052047,571.49117,951.5489)"
       style="fill:none;stroke:#ffff00;stroke-width:1.83599997;stroke-linecap:butt;stroke-linejoin:miter;stroke-dasharray:none"
       id="g13274">
   <path
   d="M 392.5506,513.7397 L 390.531,511.7201 L 392.5506,509.7005 L 394.5702,511.7201 L 392.5506,513.7397 z"
   id="path13276" />
  </g><g
       transform="matrix(1.3848735,0,0,-1.4052047,571.49117,951.5489)"
       style="fill:#ffff00;fill-rule:nonzero"
       id="g13278">
   <path
   d="M 417.327,541.772 L 415.3074,539.7524 L 417.327,537.7328 L 419.3466,539.7524 L 417.327,541.772 z"
   id="path13280" />
  </g><g
       transform="matrix(1.3848735,0,0,-1.4052047,571.49117,951.5489)"
       style="fill:none;stroke:#ffff00;stroke-width:1.83599997;stroke-linecap:butt;stroke-linejoin:miter;stroke-dasharray:none"
       id="g13282">
   <path
   d="M 417.327,541.772 L 415.3074,539.7524 L 417.327,537.7328 L 419.3466,539.7524 L 417.327,541.772 z"
   id="path13284" />
  </g><g
       transform="matrix(1.3848735,0,0,-1.4052047,571.49117,951.5489)"
       style="fill:#ffff00;fill-rule:nonzero"
       id="g13286">
   <path
   d="M 442.7963,569.1347 L 440.7767,567.1151 L 442.7963,565.0955 L 444.8159,567.1151 L 442.7963,569.1347 z"
   id="path13288" />
  </g><g
       transform="matrix(1.3848735,0,0,-1.4052047,571.49117,951.5489)"
       style="fill:none;stroke:#ffff00;stroke-width:1.83599997;stroke-linecap:butt;stroke-linejoin:miter;stroke-dasharray:none"
       id="g13290">
   <path
   d="M 442.7963,569.1347 L 440.7767,567.1151 L 442.7963,565.0955 L 444.8159,567.1151 L 442.7963,569.1347 z"
   id="path13292" />
  </g><g
       transform="matrix(1.3848735,0,0,-1.4052047,571.49117,951.5489)"
       style="fill:#0000ff;fill-rule:nonzero"
       id="g13294">
   <path
   d="M 234.9475,79.1512 L 234.9475,82.5845 L 238.3809,82.5845 L 238.3809,79.1512 L 234.9475,79.1512 z"
   id="path13296" />
  </g><g
       transform="matrix(1.3848735,0,0,-1.4052047,571.49117,951.5489)"
       style="fill:none;stroke:#0000ff;stroke-width:0.91799998;stroke-linecap:butt;stroke-linejoin:miter;stroke-dasharray:none"
       id="g13298">
   <path
   d="M 234.9475,79.1512 L 234.9475,82.5845 L 238.3809,82.5845 L 238.3809,79.1512 L 234.9475,79.1512 z"
   id="path13300" />
  </g><g
       transform="matrix(1.3848735,0,0,-1.4052047,571.49117,951.5489)"
       style="fill:#0000ff;fill-rule:nonzero"
       id="g13302">
   <path
   d="M 241.3899,111.3168 L 241.3899,114.7501 L 244.8232,114.7501 L 244.8232,111.3168 L 241.3899,111.3168 z"
   id="path13304" />
  </g><g
       transform="matrix(1.3848735,0,0,-1.4052047,571.49117,951.5489)"
       style="fill:none;stroke:#0000ff;stroke-width:0.91799998;stroke-linecap:butt;stroke-linejoin:miter;stroke-dasharray:none"
       id="g13306">
   <path
   d="M 241.3899,111.3168 L 241.3899,114.7501 L 244.8232,114.7501 L 244.8232,111.3168 L 241.3899,111.3168 z"
   id="path13308" />
  </g><g
       transform="matrix(1.3848735,0,0,-1.4052047,571.49117,951.5489)"
       style="fill:#0000ff;fill-rule:nonzero"
       id="g13310">
   <path
   d="M 246.9317,143.644 L 246.9317,147.0773 L 250.365,147.0773 L 250.365,143.644 L 246.9317,143.644 z"
   id="path13312" />
  </g><g
       transform="matrix(1.3848735,0,0,-1.4052047,571.49117,951.5489)"
       style="fill:none;stroke:#0000ff;stroke-width:0.91799998;stroke-linecap:butt;stroke-linejoin:miter;stroke-dasharray:none"
       id="g13314">
   <path
   d="M 246.9317,143.644 L 246.9317,147.0773 L 250.365,147.0773 L 250.365,143.644 L 246.9317,143.644 z"
   id="path13316" />
  </g><g
       transform="matrix(1.3848735,0,0,-1.4052047,571.49117,951.5489)"
       style="fill:#0000ff;fill-rule:nonzero"
       id="g13318">
   <path
   d="M 249.541,176.4099 L 249.541,179.8432 L 252.9743,179.8432 L 252.9743,176.4099 L 249.541,176.4099 z"
   id="path13320" />
  </g><g
       transform="matrix(1.3848735,0,0,-1.4052047,571.49117,951.5489)"
       style="fill:none;stroke:#0000ff;stroke-width:0.91799998;stroke-linecap:butt;stroke-linejoin:miter;stroke-dasharray:none"
       id="g13322">
   <path
   d="M 249.541,176.4099 L 249.541,179.8432 L 252.9743,179.8432 L 252.9743,176.4099 L 249.541,176.4099 z"
   id="path13324" />
  </g><g
       transform="matrix(1.3848735,0,0,-1.4052047,571.49117,951.5489)"
       style="fill:#0000ff;fill-rule:nonzero"
       id="g13326">
   <path
   d="M 253.6973,220.3749 L 253.6973,223.8082 L 257.1306,223.8082 L 257.1306,220.3749 L 253.6973,220.3749 z"
   id="path13328" />
  </g><g
       transform="matrix(1.3848735,0,0,-1.4052047,571.49117,951.5489)"
       style="fill:none;stroke:#0000ff;stroke-width:0.91799998;stroke-linecap:butt;stroke-linejoin:miter;stroke-dasharray:none"
       id="g13330">
   <path
   d="M 253.6973,220.3749 L 253.6973,223.8082 L 257.1306,223.8082 L 257.1306,220.3749 L 253.6973,220.3749 z"
   id="path13332" />
  </g><g
       transform="matrix(1.3848735,0,0,-1.4052047,571.49117,951.5489)"
       style="fill:#0000ff;fill-rule:nonzero"
       id="g13334">
   <path
   d="M 260.8786,264.0859 L 260.8786,267.5192 L 264.3119,267.5192 L 264.3119,264.0859 L 260.8786,264.0859 z"
   id="path13336" />
  </g><g
       transform="matrix(1.3848735,0,0,-1.4052047,571.49117,951.5489)"
       style="fill:none;stroke:#0000ff;stroke-width:0.91799998;stroke-linecap:butt;stroke-linejoin:miter;stroke-dasharray:none"
       id="g13338">
   <path
   d="M 260.8786,264.0859 L 260.8786,267.5192 L 264.3119,267.5192 L 264.3119,264.0859 L 260.8786,264.0859 z"
   id="path13340" />
  </g><g
       transform="matrix(1.3848735,0,0,-1.4052047,571.49117,951.5489)"
       style="fill:#0000ff;fill-rule:nonzero"
       id="g13342">
   <path
   d="M 272.3316,306.8732 L 272.3316,310.3065 L 275.765,310.3065 L 275.765,306.8732 L 272.3316,306.8732 z"
   id="path13344" />
  </g><g
       transform="matrix(1.3848735,0,0,-1.4052047,571.49117,951.5489)"
       style="fill:none;stroke:#0000ff;stroke-width:0.91799998;stroke-linecap:butt;stroke-linejoin:miter;stroke-dasharray:none"
       id="g13346">
   <path
   d="M 272.3316,306.8732 L 272.3316,310.3065 L 275.765,310.3065 L 275.765,306.8732 L 272.3316,306.8732 z"
   id="path13348" />
  </g><g
       transform="matrix(1.3848735,0,0,-1.4052047,571.49117,951.5489)"
       style="fill:#0000ff;fill-rule:nonzero"
       id="g13350">
   <path
   d="M 286.1861,342.2946 L 286.1861,345.7279 L 289.6195,345.7279 L 289.6195,342.2946 L 286.1861,342.2946 z"
   id="path13352" />
  </g><g
       transform="matrix(1.3848735,0,0,-1.4052047,571.49117,951.5489)"
       style="fill:none;stroke:#0000ff;stroke-width:0.91799998;stroke-linecap:butt;stroke-linejoin:miter;stroke-dasharray:none"
       id="g13354">
   <path
   d="M 286.1861,342.2946 L 286.1861,345.7279 L 289.6195,345.7279 L 289.6195,342.2946 L 286.1861,342.2946 z"
   id="path13356" />
  </g><g
       transform="matrix(1.3848735,0,0,-1.4052047,571.49117,951.5489)"
       style="fill:#0000ff;fill-rule:nonzero"
       id="g13358">
   <path
   d="M 302.7423,376.0534 L 302.7423,379.4867 L 306.1756,379.4867 L 306.1756,376.0534 L 302.7423,376.0534 z"
   id="path13360" />
  </g><g
       transform="matrix(1.3848735,0,0,-1.4052047,571.49117,951.5489)"
       style="fill:none;stroke:#0000ff;stroke-width:0.91799998;stroke-linecap:butt;stroke-linejoin:miter;stroke-dasharray:none"
       id="g13362">
   <path
   d="M 302.7423,376.0534 L 302.7423,379.4867 L 306.1756,379.4867 L 306.1756,376.0534 L 302.7423,376.0534 z"
   id="path13364" />
  </g><g
       transform="matrix(1.3848735,0,0,-1.4052047,571.49117,951.5489)"
       style="fill:#0000ff;fill-rule:nonzero"
       id="g13366">
   <path
   d="M 321.3997,408.6808 L 321.3997,412.1141 L 324.833,412.1141 L 324.833,408.6808 L 321.3997,408.6808 z"
   id="path13368" />
  </g><g
       transform="matrix(1.3848735,0,0,-1.4052047,571.49117,951.5489)"
       style="fill:none;stroke:#0000ff;stroke-width:0.91799998;stroke-linecap:butt;stroke-linejoin:miter;stroke-dasharray:none"
       id="g13370">
   <path
   d="M 321.3997,408.6808 L 321.3997,412.1141 L 324.833,412.1141 L 324.833,408.6808 L 321.3997,408.6808 z"
   id="path13372" />
  </g><g
       transform="matrix(1.3848735,0,0,-1.4052047,571.49117,951.5489)"
       style="fill:#0000ff;fill-rule:nonzero"
       id="g13374">
   <path
   d="M 341.7196,440.4076 L 341.7196,443.841 L 345.153,443.841 L 345.153,440.4076 L 341.7196,440.4076 z"
   id="path13376" />
  </g><g
       transform="matrix(1.3848735,0,0,-1.4052047,571.49117,951.5489)"
       style="fill:none;stroke:#0000ff;stroke-width:0.91799998;stroke-linecap:butt;stroke-linejoin:miter;stroke-dasharray:none"
       id="g13378">
   <path
   d="M 341.7196,440.4076 L 341.7196,443.841 L 345.153,443.841 L 345.153,440.4076 L 341.7196,440.4076 z"
   id="path13380" />
  </g><g
       transform="matrix(1.3848735,0,0,-1.4052047,571.49117,951.5489)"
       style="fill:#0000ff;fill-rule:nonzero"
       id="g13382">
   <path
   d="M 367.743,477.4454 L 367.743,480.8787 L 371.1764,480.8787 L 371.1764,477.4454 L 367.743,477.4454 z"
   id="path13384" />
  </g><g
       transform="matrix(1.3848735,0,0,-1.4052047,571.49117,951.5489)"
       style="fill:none;stroke:#0000ff;stroke-width:0.91799998;stroke-linecap:butt;stroke-linejoin:miter;stroke-dasharray:none"
       id="g13386">
   <path
   d="M 367.743,477.4454 L 367.743,480.8787 L 371.1764,480.8787 L 371.1764,477.4454 L 367.743,477.4454 z"
   id="path13388" />
  </g><g
       transform="matrix(1.3848735,0,0,-1.4052047,571.49117,951.5489)"
       style="fill:#0000ff;fill-rule:nonzero"
       id="g13390">
   <path
   d="M 395.2442,513.3747 L 395.2442,516.8081 L 398.6776,516.8081 L 398.6776,513.3747 L 395.2442,513.3747 z"
   id="path13392" />
  </g><g
       transform="matrix(1.3848735,0,0,-1.4052047,571.49117,951.5489)"
       style="fill:none;stroke:#0000ff;stroke-width:0.91799998;stroke-linecap:butt;stroke-linejoin:miter;stroke-dasharray:none"
       id="g13394">
   <path
   d="M 395.2442,513.3747 L 395.2442,516.8081 L 398.6776,516.8081 L 398.6776,513.3747 L 395.2442,513.3747 z"
   id="path13396" />
  </g><g
       transform="matrix(1.3848735,0,0,-1.4052047,571.49117,951.5489)"
       style="fill:#0000ff;fill-rule:nonzero"
       id="g13398">
   <path
   d="M 418.9816,541.5918 L 418.9816,545.0251 L 422.415,545.0251 L 422.415,541.5918 L 418.9816,541.5918 z"
   id="path13400" />
  </g><g
       transform="matrix(1.3848735,0,0,-1.4052047,571.49117,951.5489)"
       style="fill:none;stroke:#0000ff;stroke-width:0.91799998;stroke-linecap:butt;stroke-linejoin:miter;stroke-dasharray:none"
       id="g13402">
   <path
   d="M 418.9816,541.5918 L 418.9816,545.0251 L 422.415,545.0251 L 422.415,541.5918 L 418.9816,541.5918 z"
   id="path13404" />
  </g><g
       transform="matrix(1.3848735,0,0,-1.4052047,571.49117,951.5489)"
       style="fill:#0000ff;fill-rule:nonzero"
       id="g13406">
   <path
   d="M 444.1276,568.5157 L 444.1276,571.949 L 447.5609,571.949 L 447.5609,568.5157 L 444.1276,568.5157 z"
   id="path13408" />
  </g><g
       transform="matrix(1.3848735,0,0,-1.4052047,571.49117,951.5489)"
       style="fill:none;stroke:#0000ff;stroke-width:0.91799998;stroke-linecap:butt;stroke-linejoin:miter;stroke-dasharray:none"
       id="g13410">
   <path
   d="M 444.1276,568.5157 L 444.1276,571.949 L 447.5609,571.949 L 447.5609,568.5157 L 444.1276,568.5157 z"
   id="path13412" />
  </g></g></g></svg>