<?xml version="1.0" encoding="UTF-8" standalone="no"?>
<!-- generated by Grace-5.1.22 -->
<svg
   xmlns:dc="http://purl.org/dc/elements/1.1/"
   xmlns:cc="http://creativecommons.org/ns#"
   xmlns:rdf="http://www.w3.org/1999/02/22-rdf-syntax-ns#"
   xmlns:svg="http://www.w3.org/2000/svg"
   xmlns="http://www.w3.org/2000/svg"
   xmlns:xlink="http://www.w3.org/1999/xlink"
   xmlns:sodipodi="http://sodipodi.sourceforge.net/DTD/sodipodi-0.dtd"
   xmlns:inkscape="http://www.inkscape.org/namespaces/inkscape"
   xml:space="preserve"
   width="765"
   height="765"
   viewBox="0 0 792 612"
   id="svg2"
   sodipodi:version="0.32"
   inkscape:version="0.46"
   sodipodi:docname="sample_interval_concentrated.svg"
   inkscape:output_extension="org.inkscape.output.svg.inkscape"
   version="1.0"
   style="display:inline"><metadata
   id="metadata1077"><rdf:RDF><cc:Work
       rdf:about=""><dc:format>image/svg+xml</dc:format><dc:type
         rdf:resource="http://purl.org/dc/dcmitype/StillImage" /></cc:Work></rdf:RDF></metadata><defs
   id="defs1075"><inkscape:perspective
   sodipodi:type="inkscape:persp3d"
   inkscape:vp_x="0 : 382.5 : 1"
   inkscape:vp_y="0 : 1000 : 0"
   inkscape:vp_z="990 : 382.5 : 1"
   inkscape:persp3d-origin="495 : 255 : 1"
   id="perspective1079" />
  
  
  
  
  
  
  
  
  
  
  
  
  
  
  
  
  
  
  
  
  
  
  
  
  
  
  
  
  
  
  
  
  
  
  
  
  
  
  
  
  
  
  
  
  
  
  
  
  
  
  
  
  
  
  
  
  
  
  
  
  
  
  
  
  
  
  
  
  
  
  
  
  
  
  
  
  
  
  
  
  
  
  
  
  
  
  
  
  
  
  
  
  
  
  
  
  
  
  
  
  
  
  
  
  
  
  
  
  
  
  
  
  
  
  
  
  
  
  
  
  
  
  
  
  
  
  
  
  
  
  
  
  
  
  
  
  
  
  
  
  
  
  
  
  
  
  
  
  
  
  
  
  
  
  
  
  
  
  
  
  
  
  
  
  
  
  
  
  
  
  
  
  
  
  
  
  
  
  
  
  
  
  
  
  
  
  
  
  
  
  
  
  
  
  
  
  
  
  
  
  
  
  
  
  
  
  
  
  
  
  
  
  
  
  
  
  
  
  
  
  
  
  
  
  
 


   
  <clipPath
   clipPathUnits="userSpaceOnUse"
   id="clipPath19164"><path
     style="fill:none;fill-opacity:0.48739498;fill-rule:nonzero;display:inline"
     d="M 1.4210855e-14,702 L 1.4210855e-14,-90 L 792,-90 L 792,702 L 1.4210855e-14,702 z"
     id="path19166" /></clipPath></defs><sodipodi:namedview
   inkscape:window-height="1292"
   inkscape:window-width="1411"
   inkscape:pageshadow="2"
   inkscape:pageopacity="0.0"
   guidetolerance="10.0"
   gridtolerance="10.0"
   objecttolerance="10.0"
   borderopacity="1.0"
   bordercolor="#666666"
   pagecolor="#ffffff"
   id="base"
   showgrid="false"
   inkscape:zoom="1.0010414"
   inkscape:cx="428.82311"
   inkscape:cy="340.58141"
   inkscape:window-x="946"
   inkscape:window-y="80"
   inkscape:current-layer="layer7" />
 


<g
   inkscape:groupmode="layer"
   id="layer6"
   inkscape:label="em"
   style="display:inline"><image
     y="-179.29294"
     x="-68.65683"
     id="image4058"
     height="937.53918"
     width="937.53918"
     sodipodi:absref="/netapp/cnl/home/jkinney/src/mesh_tools/reconstruct2contourtiler/doc/figures/R34CA1-B_S12.199_zoom.png"
     xlink:href="R34CA1-B_S12.199_crop.png"
     clip-path="url(#clipPath19164)" /></g><g
   inkscape:groupmode="layer"
   id="layer7"
   inkscape:label="nonem"
   style="display:inline"><path
     style="fill:#dcdcdc;fill-opacity:0.66666669;fill-rule:nonzero"
     d="M -1.110223e-16,702 L -1.110223e-16,-90 L 792,-90 L 792,702 L -1.110223e-16,702 z"
     id="path8" /><g
     id="g10"
     style="fill:none;stroke:#ff0000;stroke-width:0.91799998;stroke-linecap:butt;stroke-linejoin:miter;stroke-dasharray:none"
     transform="matrix(1.8649113,0,0,-1.8649113,-155.73403,874.77146)">
   <ellipse
   sodipodi:ry="6.1199999"
   sodipodi:rx="6.1199999"
   sodipodi:cy="227.6801"
   sodipodi:cx="167.1355"
   id="ellipse12"
   cy="227.6801"
   cx="167.1355"
   ry="6.1199999"
   rx="6.1199999" />
   <ellipse
   sodipodi:ry="6.1199999"
   sodipodi:rx="6.1199999"
   sodipodi:cy="218.6207"
   sodipodi:cx="173.61169"
   id="ellipse14"
   cy="218.6207"
   cx="173.61169"
   ry="6.1199999"
   rx="6.1199999" />
   <ellipse
   sodipodi:ry="6.1199999"
   sodipodi:rx="6.1199999"
   sodipodi:cy="201.7908"
   sodipodi:cx="193.03"
   id="ellipse16"
   cy="201.7908"
   cx="193.03"
   ry="6.1199999"
   rx="6.1199999" />
   <ellipse
   sodipodi:ry="6.1199999"
   sodipodi:rx="6.1199999"
   sodipodi:cy="195.3145"
   sodipodi:cx="200.7952"
   id="ellipse18"
   cy="195.3145"
   cx="200.7952"
   ry="6.1199999"
   rx="6.1199999" />
   <ellipse
   sodipodi:ry="6.1199999"
   sodipodi:rx="6.1199999"
   sodipodi:cy="192.7261"
   sodipodi:cx="204.68311"
   id="ellipse20"
   cy="192.7261"
   cx="204.68311"
   ry="6.1199999"
   rx="6.1199999" />
   <ellipse
   sodipodi:ry="6.1199999"
   sodipodi:rx="6.1199999"
   sodipodi:cy="182.36729"
   sodipodi:cx="212.4483"
   id="ellipse22"
   cy="182.36729"
   cx="212.4483"
   ry="6.1199999"
   rx="6.1199999" />
   <ellipse
   sodipodi:ry="6.1199999"
   sodipodi:rx="6.1199999"
   sodipodi:cy="174.6021"
   sodipodi:cx="220.2188"
   id="ellipse24"
   cy="174.6021"
   cx="220.2188"
   ry="6.1199999"
   rx="6.1199999" />
   <ellipse
   sodipodi:ry="6.1199999"
   sodipodi:rx="6.1199999"
   sodipodi:cy="169.42"
   sodipodi:cx="222.80721"
   id="ellipse26"
   cy="169.42"
   cx="222.80721"
   ry="6.1199999"
   rx="6.1199999" />
   <ellipse
   sodipodi:ry="6.1199999"
   sodipodi:rx="6.1199999"
   sodipodi:cy="166.8316"
   sodipodi:cx="222.80721"
   id="ellipse28"
   cy="166.8316"
   cx="222.80721"
   ry="6.1199999"
   rx="6.1199999" />
   <ellipse
   sodipodi:ry="6.1199999"
   sodipodi:rx="6.1199999"
   sodipodi:cy="164.24319"
   sodipodi:cx="225.3956"
   id="ellipse30"
   cy="164.24319"
   cx="225.3956"
   ry="6.1199999"
   rx="6.1199999" />
   <ellipse
   sodipodi:ry="6.1199999"
   sodipodi:rx="6.1199999"
   sodipodi:cy="143.5307"
   sodipodi:cx="227.98399"
   id="ellipse32"
   cy="143.5307"
   cx="227.98399"
   ry="6.1199999"
   rx="6.1199999" />
   <ellipse
   sodipodi:ry="6.1199999"
   sodipodi:rx="6.1199999"
   sodipodi:cy="122.813"
   sodipodi:cx="233.16611"
   id="ellipse34"
   cy="122.813"
   cx="233.16611"
   ry="6.1199999"
   rx="6.1199999" />
   <ellipse
   sodipodi:ry="6.1199999"
   sodipodi:rx="6.1199999"
   sodipodi:cy="117.6362"
   sodipodi:cx="233.16611"
   id="ellipse36"
   cy="117.6362"
   cx="233.16611"
   ry="6.1199999"
   rx="6.1199999" />
   <ellipse
   sodipodi:ry="6.1199999"
   sodipodi:rx="6.1199999"
   sodipodi:cy="107.2773"
   sodipodi:cx="239.63699"
   id="ellipse38"
   cy="107.2773"
   cx="239.63699"
   ry="6.1199999"
   rx="6.1199999" />
   <ellipse
   sodipodi:ry="6.1199999"
   sodipodi:rx="6.1199999"
   sodipodi:cy="107.2773"
   sodipodi:cx="249.9959"
   id="ellipse40"
   cy="107.2773"
   cx="249.9959"
   ry="6.1199999"
   rx="6.1199999" />
   <ellipse
   sodipodi:ry="6.1199999"
   sodipodi:rx="6.1199999"
   sodipodi:cy="108.5715"
   sodipodi:cx="255.1727"
   id="ellipse42"
   cy="108.5715"
   cx="255.1727"
   ry="6.1199999"
   rx="6.1199999" />
   <ellipse
   sodipodi:ry="6.1199999"
   sodipodi:rx="6.1199999"
   sodipodi:cy="116.342"
   sodipodi:cx="264.2374"
   id="ellipse44"
   cy="116.342"
   cx="264.2374"
   ry="6.1199999"
   rx="6.1199999" />
   <ellipse
   sodipodi:ry="6.1199999"
   sodipodi:rx="6.1199999"
   sodipodi:cy="118.9304"
   sodipodi:cx="266.82581"
   id="ellipse46"
   cy="118.9304"
   cx="266.82581"
   ry="6.1199999"
   rx="6.1199999" />
   <ellipse
   sodipodi:ry="6.1199999"
   sodipodi:rx="6.1199999"
   sodipodi:cy="124.1072"
   sodipodi:cx="268.12"
   id="ellipse48"
   cy="124.1072"
   cx="268.12"
   ry="6.1199999"
   rx="6.1199999" />
   <ellipse
   sodipodi:ry="6.1199999"
   sodipodi:rx="6.1199999"
   sodipodi:cy="126.7008"
   sodipodi:cx="270.7084"
   id="ellipse50"
   cy="126.7008"
   cx="270.7084"
   ry="6.1199999"
   rx="6.1199999" />
   <ellipse
   sodipodi:ry="6.1199999"
   sodipodi:rx="6.1199999"
   sodipodi:cy="168.12579"
   sodipodi:cx="277.18469"
   id="ellipse52"
   cy="168.12579"
   cx="277.18469"
   ry="6.1199999"
   rx="6.1199999" />
   <ellipse
   sodipodi:ry="6.1199999"
   sodipodi:rx="6.1199999"
   sodipodi:cy="178.4847"
   sodipodi:cx="278.47891"
   id="ellipse54"
   cy="178.4847"
   cx="278.47891"
   ry="6.1199999"
   rx="6.1199999" />
   <ellipse
   sodipodi:ry="6.1199999"
   sodipodi:rx="6.1199999"
   sodipodi:cy="183.6615"
   sodipodi:cx="282.36151"
   id="ellipse56"
   cy="183.6615"
   cx="282.36151"
   ry="6.1199999"
   rx="6.1199999" />
   <ellipse
   sodipodi:ry="6.1199999"
   sodipodi:rx="6.1199999"
   sodipodi:cy="188.84351"
   sodipodi:cx="282.36151"
   id="ellipse58"
   cy="188.84351"
   cx="282.36151"
   ry="6.1199999"
   rx="6.1199999" />
   <ellipse
   sodipodi:ry="6.1199999"
   sodipodi:rx="6.1199999"
   sodipodi:cy="194.02029"
   sodipodi:cx="284.94989"
   id="ellipse60"
   cy="194.02029"
   cx="284.94989"
   ry="6.1199999"
   rx="6.1199999" />
   <ellipse
   sodipodi:ry="6.1199999"
   sodipodi:rx="6.1199999"
   sodipodi:cy="199.1971"
   sodipodi:cx="284.94989"
   id="ellipse62"
   cy="199.1971"
   cx="284.94989"
   ry="6.1199999"
   rx="6.1199999" />
   <ellipse
   sodipodi:ry="6.1199999"
   sodipodi:rx="6.1199999"
   sodipodi:cy="204.3792"
   sodipodi:cx="287.5383"
   id="ellipse64"
   cy="204.3792"
   cx="287.5383"
   ry="6.1199999"
   rx="6.1199999" />
   <ellipse
   sodipodi:ry="6.1199999"
   sodipodi:rx="6.1199999"
   sodipodi:cy="245.80949"
   sodipodi:cx="288.83249"
   id="ellipse66"
   cy="245.80949"
   cx="288.83249"
   ry="6.1199999"
   rx="6.1199999" />
   <ellipse
   sodipodi:ry="6.1199999"
   sodipodi:rx="6.1199999"
   sodipodi:cy="285.94019"
   sodipodi:cx="314.72699"
   id="ellipse68"
   cy="285.94019"
   cx="314.72699"
   ry="6.1199999"
   rx="6.1199999" />
   <ellipse
   sodipodi:ry="6.1199999"
   sodipodi:rx="6.1199999"
   sodipodi:cy="305.3638"
   sodipodi:cx="331.55688"
   id="ellipse70"
   cy="305.3638"
   cx="331.55688"
   ry="6.1199999"
   rx="6.1199999" />
   <ellipse
   sodipodi:ry="6.1199999"
   sodipodi:rx="6.1199999"
   sodipodi:cy="313.129"
   sodipodi:cx="340.62161"
   id="ellipse72"
   cy="313.129"
   cx="340.62161"
   ry="6.1199999"
   rx="6.1199999" />
   <ellipse
   sodipodi:ry="6.1199999"
   sodipodi:rx="6.1199999"
   sodipodi:cy="318.311"
   sodipodi:cx="343.20999"
   id="ellipse74"
   cy="318.311"
   cx="343.20999"
   ry="6.1199999"
   rx="6.1199999" />
   <ellipse
   sodipodi:ry="6.1199999"
   sodipodi:rx="6.1199999"
   sodipodi:cy="328.66461"
   sodipodi:cx="344.50421"
   id="ellipse76"
   cy="328.66461"
   cx="344.50421"
   ry="6.1199999"
   rx="6.1199999" />
   <ellipse
   sodipodi:ry="6.1199999"
   sodipodi:rx="6.1199999"
   sodipodi:cy="349.38239"
   sodipodi:cx="354.8631"
   id="ellipse78"
   cy="349.38239"
   cx="354.8631"
   ry="6.1199999"
   rx="6.1199999" />
   <ellipse
   sodipodi:ry="6.1199999"
   sodipodi:rx="6.1199999"
   sodipodi:cy="368.80069"
   sodipodi:cx="369.10449"
   id="ellipse80"
   cy="368.80069"
   cx="369.10449"
   ry="6.1199999"
   rx="6.1199999" />
   <ellipse
   sodipodi:ry="6.1199999"
   sodipodi:rx="6.1199999"
   sodipodi:cy="373.97751"
   sodipodi:cx="371.6929"
   id="ellipse82"
   cy="373.97751"
   cx="371.6929"
   ry="6.1199999"
   rx="6.1199999" />
   <ellipse
   sodipodi:ry="6.1199999"
   sodipodi:rx="6.1199999"
   sodipodi:cy="376.57111"
   sodipodi:cx="371.6929"
   id="ellipse84"
   cy="376.57111"
   cx="371.6929"
   ry="6.1199999"
   rx="6.1199999" />
   <ellipse
   sodipodi:ry="6.1199999"
   sodipodi:rx="6.1199999"
   sodipodi:cy="379.15948"
   sodipodi:cx="374.28131"
   id="ellipse86"
   cy="379.15948"
   cx="374.28131"
   ry="6.1199999"
   rx="6.1199999" />
   <ellipse
   sodipodi:ry="6.1199999"
   sodipodi:rx="6.1199999"
   sodipodi:cy="389.51309"
   sodipodi:cx="374.28131"
   id="ellipse88"
   cy="389.51309"
   cx="374.28131"
   ry="6.1199999"
   rx="6.1199999" />
   <ellipse
   sodipodi:ry="6.1199999"
   sodipodi:rx="6.1199999"
   sodipodi:cy="410.2309"
   sodipodi:cx="380.7576"
   id="ellipse90"
   cy="410.2309"
   cx="380.7576"
   ry="6.1199999"
   rx="6.1199999" />
   <ellipse
   sodipodi:ry="6.1199999"
   sodipodi:rx="6.1199999"
   sodipodi:cy="415.40771"
   sodipodi:cx="382.05179"
   id="ellipse92"
   cy="415.40771"
   cx="382.05179"
   ry="6.1199999"
   rx="6.1199999" />
   <ellipse
   sodipodi:ry="6.1199999"
   sodipodi:rx="6.1199999"
   sodipodi:cy="425.7666"
   sodipodi:cx="388.5228"
   id="ellipse94"
   cy="425.7666"
   cx="388.5228"
   ry="6.1199999"
   rx="6.1199999" />
   <ellipse
   sodipodi:ry="6.1199999"
   sodipodi:rx="6.1199999"
   sodipodi:cy="430.94339"
   sodipodi:cx="391.11121"
   id="ellipse96"
   cy="430.94339"
   cx="391.11121"
   ry="6.1199999"
   rx="6.1199999" />
   <ellipse
   sodipodi:ry="6.1199999"
   sodipodi:rx="6.1199999"
   sodipodi:cy="472.3736"
   sodipodi:cx="398.88171"
   id="ellipse98"
   cy="472.3736"
   cx="398.88171"
   ry="6.1199999"
   rx="6.1199999" />
   <ellipse
   sodipodi:ry="6.1199999"
   sodipodi:rx="6.1199999"
   sodipodi:cy="482.73251"
   sodipodi:cx="404.0585"
   id="ellipse100"
   cy="482.73251"
   cx="404.0585"
   ry="6.1199999"
   rx="6.1199999" />
   <ellipse
   sodipodi:ry="6.1199999"
   sodipodi:rx="6.1199999"
   sodipodi:cy="503.44501"
   sodipodi:cx="405.35269"
   id="ellipse102"
   cy="503.44501"
   cx="405.35269"
   ry="6.1199999"
   rx="6.1199999" />
   <ellipse
   sodipodi:ry="6.1199999"
   sodipodi:rx="6.1199999"
   sodipodi:cy="504.7392"
   sodipodi:cx="400.1759"
   id="ellipse104"
   cy="504.7392"
   cx="400.1759"
   ry="6.1199999"
   rx="6.1199999" />
   <ellipse
   sodipodi:ry="6.1199999"
   sodipodi:rx="6.1199999"
   sodipodi:cy="498.26819"
   sodipodi:cx="392.4054"
   id="ellipse106"
   cy="498.26819"
   cx="392.4054"
   ry="6.1199999"
   rx="6.1199999" />
   <ellipse
   sodipodi:ry="6.1199999"
   sodipodi:rx="6.1199999"
   sodipodi:cy="489.20349"
   sodipodi:cx="383.34601"
   id="ellipse108"
   cy="489.20349"
   cx="383.34601"
   ry="6.1199999"
   rx="6.1199999" />
   <ellipse
   sodipodi:ry="6.1199999"
   sodipodi:rx="6.1199999"
   sodipodi:cy="477.55042"
   sodipodi:cx="365.22189"
   id="ellipse110"
   cy="477.55042"
   cx="365.22189"
   ry="6.1199999"
   rx="6.1199999" />
   <ellipse
   sodipodi:ry="6.1199999"
   sodipodi:rx="6.1199999"
   sodipodi:cy="465.90259"
   sodipodi:cx="344.50421"
   id="ellipse112"
   cy="465.90259"
   cx="344.50421"
   ry="6.1199999"
   rx="6.1199999" />
   <ellipse
   sodipodi:ry="6.1199999"
   sodipodi:rx="6.1199999"
   sodipodi:cy="459.4263"
   sodipodi:cx="334.14529"
   id="ellipse114"
   cy="459.4263"
   cx="334.14529"
   ry="6.1199999"
   rx="6.1199999" />
   <ellipse
   sodipodi:ry="6.1199999"
   sodipodi:rx="6.1199999"
   sodipodi:cy="449.06741"
   sodipodi:cx="326.3801"
   id="ellipse116"
   cy="449.06741"
   cx="326.3801"
   ry="6.1199999"
   rx="6.1199999" />
   <ellipse
   sodipodi:ry="6.1199999"
   sodipodi:rx="6.1199999"
   sodipodi:cy="443.89059"
   sodipodi:cx="322.4975"
   id="ellipse118"
   cy="443.89059"
   cx="322.4975"
   ry="6.1199999"
   rx="6.1199999" />
   <ellipse
   sodipodi:ry="6.1199999"
   sodipodi:rx="6.1199999"
   sodipodi:cy="441.30219"
   sodipodi:cx="319.90381"
   id="ellipse120"
   cy="441.30219"
   cx="319.90381"
   ry="6.1199999"
   rx="6.1199999" />
   <ellipse
   sodipodi:ry="6.1199999"
   sodipodi:rx="6.1199999"
   sodipodi:cy="438.71381"
   sodipodi:cx="319.90381"
   id="ellipse122"
   cy="438.71381"
   cx="319.90381"
   ry="6.1199999"
   rx="6.1199999" />
   <ellipse
   sodipodi:ry="6.1199999"
   sodipodi:rx="6.1199999"
   sodipodi:cy="437.41959"
   sodipodi:cx="317.3154"
   id="ellipse124"
   cy="437.41959"
   cx="317.3154"
   ry="6.1199999"
   rx="6.1199999" />
   <ellipse
   sodipodi:ry="6.1199999"
   sodipodi:rx="6.1199999"
   sodipodi:cy="417.99609"
   sodipodi:cx="308.25601"
   id="ellipse126"
   cy="417.99609"
   cx="308.25601"
   ry="6.1199999"
   rx="6.1199999" />
   <ellipse
   sodipodi:ry="6.1199999"
   sodipodi:rx="6.1199999"
   sodipodi:cy="377.8653"
   sodipodi:cx="283.6557"
   id="ellipse128"
   cy="377.8653"
   cx="283.6557"
   ry="6.1199999"
   rx="6.1199999" />
   <ellipse
   sodipodi:ry="6.1199999"
   sodipodi:rx="6.1199999"
   sodipodi:cy="361.03021"
   sodipodi:cx="268.12"
   id="ellipse130"
   cy="361.03021"
   cx="268.12"
   ry="6.1199999"
   rx="6.1199999" />
   <ellipse
   sodipodi:ry="6.1199999"
   sodipodi:rx="6.1199999"
   sodipodi:cy="350.67661"
   sodipodi:cx="261.64371"
   id="ellipse132"
   cy="350.67661"
   cx="261.64371"
   ry="6.1199999"
   rx="6.1199999" />
   <ellipse
   sodipodi:ry="6.1199999"
   sodipodi:rx="6.1199999"
   sodipodi:cy="348.0882"
   sodipodi:cx="261.64371"
   id="ellipse134"
   cy="348.0882"
   cx="261.64371"
   ry="6.1199999"
   rx="6.1199999" />
   <ellipse
   sodipodi:ry="6.1199999"
   sodipodi:rx="6.1199999"
   sodipodi:cy="328.66461"
   sodipodi:cx="246.108"
   id="ellipse136"
   cy="328.66461"
   cx="246.108"
   ry="6.1199999"
   rx="6.1199999" />
   <ellipse
   sodipodi:ry="6.1199999"
   sodipodi:rx="6.1199999"
   sodipodi:cy="311.83481"
   sodipodi:cx="226.6898"
   id="ellipse138"
   cy="311.83481"
   cx="226.6898"
   ry="6.1199999"
   rx="6.1199999" />
   <ellipse
   sodipodi:ry="6.1199999"
   sodipodi:rx="6.1199999"
   sodipodi:cy="305.3638"
   sodipodi:cx="217.6304"
   id="ellipse140"
   cy="305.3638"
   cx="217.6304"
   ry="6.1199999"
   rx="6.1199999" />
   <ellipse
   sodipodi:ry="6.1199999"
   sodipodi:rx="6.1199999"
   sodipodi:cy="302.77011"
   sodipodi:cx="212.4483"
   id="ellipse142"
   cy="302.77011"
   cx="212.4483"
   ry="6.1199999"
   rx="6.1199999" />
   <ellipse
   sodipodi:ry="6.1199999"
   sodipodi:rx="6.1199999"
   sodipodi:cy="293.71069"
   sodipodi:cx="204.68311"
   id="ellipse144"
   cy="293.71069"
   cx="204.68311"
   ry="6.1199999"
   rx="6.1199999" />
   <ellipse
   sodipodi:ry="6.1199999"
   sodipodi:rx="6.1199999"
   sodipodi:cy="275.58661"
   sodipodi:cx="193.03"
   id="ellipse146"
   cy="275.58661"
   cx="193.03"
   ry="6.1199999"
   rx="6.1199999" />
   <ellipse
   sodipodi:ry="6.1199999"
   sodipodi:rx="6.1199999"
   sodipodi:cy="267.8161"
   sodipodi:cx="186.5537"
   id="ellipse148"
   cy="267.8161"
   cx="186.5537"
   ry="6.1199999"
   rx="6.1199999" />
   <ellipse
   sodipodi:ry="6.1199999"
   sodipodi:rx="6.1199999"
   sodipodi:cy="260.0509"
   sodipodi:cx="177.49429"
   id="ellipse150"
   cy="260.0509"
   cx="177.49429"
   ry="6.1199999"
   rx="6.1199999" />
   <ellipse
   sodipodi:ry="6.1199999"
   sodipodi:rx="6.1199999"
   sodipodi:cy="256.16299"
   sodipodi:cx="172.3123"
   id="ellipse152"
   cy="256.16299"
   cx="172.3123"
   ry="6.1199999"
   rx="6.1199999" />
   <ellipse
   sodipodi:ry="6.1199999"
   sodipodi:rx="6.1199999"
   sodipodi:cy="253.5746"
   sodipodi:cx="169.72391"
   id="ellipse154"
   cy="253.5746"
   cx="169.72391"
   ry="6.1199999"
   rx="6.1199999" />
   <ellipse
   sodipodi:ry="6.1199999"
   sodipodi:rx="6.1199999"
   sodipodi:cy="243.21581"
   sodipodi:cx="167.1355"
   id="ellipse156"
   cy="243.21581"
   cx="167.1355"
   ry="6.1199999"
   rx="6.1199999" />
   <ellipse
   sodipodi:ry="6.1199999"
   sodipodi:rx="6.1199999"
   sodipodi:cy="232.8622"
   sodipodi:cx="167.1355"
   id="ellipse158"
   cy="232.8622"
   cx="167.1355"
   ry="6.1199999"
   rx="6.1199999" />
   <ellipse
   sodipodi:ry="6.1199999"
   sodipodi:rx="6.1199999"
   sodipodi:cy="228.9743"
   sodipodi:cx="167.1355"
   id="ellipse160"
   cy="228.9743"
   cx="167.1355"
   ry="6.1199999"
   rx="6.1199999" />
  </g><g
     id="g162"
     style="fill:#ffff00;fill-rule:nonzero"
     transform="matrix(1.8649113,0,0,-1.8649113,-155.73403,874.77146)">
   <path
   id="path164"
   d="M 181.7203,213.7414 L 179.7007,211.7218 L 181.7203,209.7022 L 183.7399,211.7218 L 181.7203,213.7414 z" />
  </g><g
     id="g166"
     style="fill:none;stroke:#ffff00;stroke-width:1.83599997;stroke-linecap:butt;stroke-linejoin:miter;stroke-dasharray:none"
     transform="matrix(1.8649113,0,0,-1.8649113,-155.73403,874.77146)">
   <path
   id="path168"
   d="M 181.7203,213.7414 L 179.7007,211.7218 L 181.7203,209.7022 L 183.7399,211.7218 L 181.7203,213.7414 z" />
  </g><g
     id="g170"
     style="fill:#ffff00;fill-rule:nonzero"
     transform="matrix(1.8649113,0,0,-1.8649113,-155.73403,874.77146)">
   <path
   id="path172"
   d="M 189.1104,207.2387 L 187.0908,205.2191 L 189.1104,203.1995 L 191.13,205.2191 L 189.1104,207.2387 z" />
  </g><g
     id="g174"
     style="fill:none;stroke:#ffff00;stroke-width:1.83599997;stroke-linecap:butt;stroke-linejoin:miter;stroke-dasharray:none"
     transform="matrix(1.8649113,0,0,-1.8649113,-155.73403,874.77146)">
   <path
   id="path176"
   d="M 189.1104,207.2387 L 187.0908,205.2191 L 189.1104,203.1995 L 191.13,205.2191 L 189.1104,207.2387 z" />
  </g><g
     id="g178"
     style="fill:#ffff00;fill-rule:nonzero"
     transform="matrix(1.8649113,0,0,-1.8649113,-155.73403,874.77146)">
   <path
   id="path180"
   d="M 196.5957,200.8628 L 194.5761,198.8432 L 196.5957,196.8236 L 198.6153,198.8432 L 196.5957,200.8628 z" />
  </g><g
     id="g182"
     style="fill:none;stroke:#ffff00;stroke-width:1.83599997;stroke-linecap:butt;stroke-linejoin:miter;stroke-dasharray:none"
     transform="matrix(1.8649113,0,0,-1.8649113,-155.73403,874.77146)">
   <path
   id="path184"
   d="M 196.5957,200.8628 L 194.5761,198.8432 L 196.5957,196.8236 L 198.6153,198.8432 L 196.5957,200.8628 z" />
  </g><g
     id="g186"
     style="fill:#ffff00;fill-rule:nonzero"
     transform="matrix(1.8649113,0,0,-1.8649113,-155.73403,874.77146)">
   <path
   id="path188"
   d="M 203.3414,195.443 L 201.3218,193.4234 L 203.3414,191.4038 L 205.361,193.4234 L 203.3414,195.443 z" />
  </g><g
     id="g190"
     style="fill:none;stroke:#ffff00;stroke-width:1.83599997;stroke-linecap:butt;stroke-linejoin:miter;stroke-dasharray:none"
     transform="matrix(1.8649113,0,0,-1.8649113,-155.73403,874.77146)">
   <path
   id="path192"
   d="M 203.3414,195.443 L 201.3218,193.4234 L 203.3414,191.4038 L 205.361,193.4234 L 203.3414,195.443 z" />
  </g><g
     id="g194"
     style="fill:#ffff00;fill-rule:nonzero"
     transform="matrix(1.8649113,0,0,-1.8649113,-155.73403,874.77146)">
   <path
   id="path196"
   d="M 209.057,188.9509 L 207.0374,186.9313 L 209.057,184.9117 L 211.0766,186.9313 L 209.057,188.9509 z" />
  </g><g
     id="g198"
     style="fill:none;stroke:#ffff00;stroke-width:1.83599997;stroke-linecap:butt;stroke-linejoin:miter;stroke-dasharray:none"
     transform="matrix(1.8649113,0,0,-1.8649113,-155.73403,874.77146)">
   <path
   id="path200"
   d="M 209.057,188.9509 L 207.0374,186.9313 L 209.057,184.9117 L 211.0766,186.9313 L 209.057,188.9509 z" />
  </g><g
     id="g202"
     style="fill:#ffff00;fill-rule:nonzero"
     transform="matrix(1.8649113,0,0,-1.8649113,-155.73403,874.77146)">
   <path
   id="path204"
   d="M 214.6352,182.3478 L 212.6156,180.3282 L 214.6352,178.3086 L 216.6548,180.3282 L 214.6352,182.3478 z" />
  </g><g
     id="g206"
     style="fill:none;stroke:#ffff00;stroke-width:1.83599997;stroke-linecap:butt;stroke-linejoin:miter;stroke-dasharray:none"
     transform="matrix(1.8649113,0,0,-1.8649113,-155.73403,874.77146)">
   <path
   id="path208"
   d="M 214.6352,182.3478 L 212.6156,180.3282 L 214.6352,178.3086 L 216.6548,180.3282 L 214.6352,182.3478 z" />
  </g><g
     id="g210"
     style="fill:#ffff00;fill-rule:nonzero"
     transform="matrix(1.8649113,0,0,-1.8649113,-155.73403,874.77146)">
   <path
   id="path212"
   d="M 220.2927,175.8082 L 218.2731,173.7886 L 220.2927,171.769 L 222.3123,173.7886 L 220.2927,175.8082 z" />
  </g><g
     id="g214"
     style="fill:none;stroke:#ffff00;stroke-width:1.83599997;stroke-linecap:butt;stroke-linejoin:miter;stroke-dasharray:none"
     transform="matrix(1.8649113,0,0,-1.8649113,-155.73403,874.77146)">
   <path
   id="path216"
   d="M 220.2927,175.8082 L 218.2731,173.7886 L 220.2927,171.769 L 222.3123,173.7886 L 220.2927,175.8082 z" />
  </g><g
     id="g218"
     style="fill:#ffff00;fill-rule:nonzero"
     transform="matrix(1.8649113,0,0,-1.8649113,-155.73403,874.77146)">
   <path
   id="path220"
   d="M 223.383,168.5871 L 221.3634,166.5675 L 223.383,164.5479 L 225.4026,166.5675 L 223.383,168.5871 z" />
  </g><g
     id="g222"
     style="fill:none;stroke:#ffff00;stroke-width:1.83599997;stroke-linecap:butt;stroke-linejoin:miter;stroke-dasharray:none"
     transform="matrix(1.8649113,0,0,-1.8649113,-155.73403,874.77146)">
   <path
   id="path224"
   d="M 223.383,168.5871 L 221.3634,166.5675 L 223.383,164.5479 L 225.4026,166.5675 L 223.383,168.5871 z" />
  </g><g
     id="g226"
     style="fill:#ffff00;fill-rule:nonzero"
     transform="matrix(1.8649113,0,0,-1.8649113,-155.73403,874.77146)">
   <path
   id="path228"
   d="M 225.9133,160.5789 L 223.8937,158.5593 L 225.9133,156.5397 L 227.9329,158.5593 L 225.9133,160.5789 z" />
  </g><g
     id="g230"
     style="fill:none;stroke:#ffff00;stroke-width:1.83599997;stroke-linecap:butt;stroke-linejoin:miter;stroke-dasharray:none"
     transform="matrix(1.8649113,0,0,-1.8649113,-155.73403,874.77146)">
   <path
   id="path232"
   d="M 225.9133,160.5789 L 223.8937,158.5593 L 225.9133,156.5397 L 227.9329,158.5593 L 225.9133,160.5789 z" />
  </g><g
     id="g234"
     style="fill:#ffff00;fill-rule:nonzero"
     transform="matrix(1.8649113,0,0,-1.8649113,-155.73403,874.77146)">
   <path
   id="path236"
   d="M 227.3025,152.0213 L 225.2829,150.0017 L 227.3025,147.9821 L 229.3221,150.0017 L 227.3025,152.0213 z" />
  </g><g
     id="g238"
     style="fill:none;stroke:#ffff00;stroke-width:1.83599997;stroke-linecap:butt;stroke-linejoin:miter;stroke-dasharray:none"
     transform="matrix(1.8649113,0,0,-1.8649113,-155.73403,874.77146)">
   <path
   id="path240"
   d="M 227.3025,152.0213 L 225.2829,150.0017 L 227.3025,147.9821 L 229.3221,150.0017 L 227.3025,152.0213 z" />
  </g><g
     id="g242"
     style="fill:#ffff00;fill-rule:nonzero"
     transform="matrix(1.8649113,0,0,-1.8649113,-155.73403,874.77146)">
   <path
   id="path244"
   d="M 228.8186,143.4796 L 226.799,141.46 L 228.8186,139.4404 L 230.8382,141.46 L 228.8186,143.4796 z" />
  </g><g
     id="g246"
     style="fill:none;stroke:#ffff00;stroke-width:1.83599997;stroke-linecap:butt;stroke-linejoin:miter;stroke-dasharray:none"
     transform="matrix(1.8649113,0,0,-1.8649113,-155.73403,874.77146)">
   <path
   id="path248"
   d="M 228.8186,143.4796 L 226.799,141.46 L 228.8186,139.4404 L 230.8382,141.46 L 228.8186,143.4796 z" />
  </g><g
     id="g250"
     style="fill:#ffff00;fill-rule:nonzero"
     transform="matrix(1.8649113,0,0,-1.8649113,-155.73403,874.77146)">
   <path
   id="path252"
   d="M 230.9369,133.6754 L 228.9173,131.6558 L 230.9369,129.6362 L 232.9565,131.6558 L 230.9369,133.6754 z" />
  </g><g
     id="g254"
     style="fill:none;stroke:#ffff00;stroke-width:1.83599997;stroke-linecap:butt;stroke-linejoin:miter;stroke-dasharray:none"
     transform="matrix(1.8649113,0,0,-1.8649113,-155.73403,874.77146)">
   <path
   id="path256"
   d="M 230.9369,133.6754 L 228.9173,131.6558 L 230.9369,129.6362 L 232.9565,131.6558 L 230.9369,133.6754 z" />
  </g><g
     id="g258"
     style="fill:#ffff00;fill-rule:nonzero"
     transform="matrix(1.8649113,0,0,-1.8649113,-155.73403,874.77146)">
   <path
   id="path260"
   d="M 232.9019,124.1406 L 230.8823,122.121 L 232.9019,120.1014 L 234.9215,122.121 L 232.9019,124.1406 z" />
  </g><g
     id="g262"
     style="fill:none;stroke:#ffff00;stroke-width:1.83599997;stroke-linecap:butt;stroke-linejoin:miter;stroke-dasharray:none"
     transform="matrix(1.8649113,0,0,-1.8649113,-155.73403,874.77146)">
   <path
   id="path264"
   d="M 232.9019,124.1406 L 230.8823,122.121 L 232.9019,120.1014 L 234.9215,122.121 L 232.9019,124.1406 z" />
  </g><g
     id="g266"
     style="fill:#ffff00;fill-rule:nonzero"
     transform="matrix(1.8649113,0,0,-1.8649113,-155.73403,874.77146)">
   <path
   id="path268"
   d="M 235.6752,116.0003 L 233.6556,113.9807 L 235.6752,111.9611 L 237.6948,113.9807 L 235.6752,116.0003 z" />
  </g><g
     id="g270"
     style="fill:none;stroke:#ffff00;stroke-width:1.83599997;stroke-linecap:butt;stroke-linejoin:miter;stroke-dasharray:none"
     transform="matrix(1.8649113,0,0,-1.8649113,-155.73403,874.77146)">
   <path
   id="path272"
   d="M 235.6752,116.0003 L 233.6556,113.9807 L 235.6752,111.9611 L 237.6948,113.9807 L 235.6752,116.0003 z" />
  </g><g
     id="g274"
     style="fill:#ffff00;fill-rule:nonzero"
     transform="matrix(1.8649113,0,0,-1.8649113,-155.73403,874.77146)">
   <path
   id="path276"
   d="M 242.0036,110.1949 L 239.984,108.1753 L 242.0036,106.1557 L 244.0232,108.1753 L 242.0036,110.1949 z" />
  </g><g
     id="g278"
     style="fill:none;stroke:#ffff00;stroke-width:1.83599997;stroke-linecap:butt;stroke-linejoin:miter;stroke-dasharray:none"
     transform="matrix(1.8649113,0,0,-1.8649113,-155.73403,874.77146)">
   <path
   id="path280"
   d="M 242.0036,110.1949 L 239.984,108.1753 L 242.0036,106.1557 L 244.0232,108.1753 L 242.0036,110.1949 z" />
  </g><g
     id="g282"
     style="fill:#ffff00;fill-rule:nonzero"
     transform="matrix(1.8649113,0,0,-1.8649113,-155.73403,874.77146)">
   <path
   id="path284"
   d="M 250.5928,109.6772 L 248.5732,107.6576 L 250.5928,105.638 L 252.6124,107.6576 L 250.5928,109.6772 z" />
  </g><g
     id="g286"
     style="fill:none;stroke:#ffff00;stroke-width:1.83599997;stroke-linecap:butt;stroke-linejoin:miter;stroke-dasharray:none"
     transform="matrix(1.8649113,0,0,-1.8649113,-155.73403,874.77146)">
   <path
   id="path288"
   d="M 250.5928,109.6772 L 248.5732,107.6576 L 250.5928,105.638 L 252.6124,107.6576 L 250.5928,109.6772 z" />
  </g><g
     id="g290"
     style="fill:#ffff00;fill-rule:nonzero"
     transform="matrix(1.8649113,0,0,-1.8649113,-155.73403,874.77146)">
   <path
   id="path292"
   d="M 258.1362,113.3115 L 256.1166,111.2919 L 258.1362,109.2723 L 260.1558,111.2919 L 258.1362,113.3115 z" />
  </g><g
     id="g294"
     style="fill:none;stroke:#ffff00;stroke-width:1.83599997;stroke-linecap:butt;stroke-linejoin:miter;stroke-dasharray:none"
     transform="matrix(1.8649113,0,0,-1.8649113,-155.73403,874.77146)">
   <path
   id="path296"
   d="M 258.1362,113.3115 L 256.1166,111.2919 L 258.1362,109.2723 L 260.1558,111.2919 L 258.1362,113.3115 z" />
  </g><g
     id="g298"
     style="fill:#ffff00;fill-rule:nonzero"
     transform="matrix(1.8649113,0,0,-1.8649113,-155.73403,874.77146)">
   <path
   id="path300"
   d="M 264.5279,118.7472 L 262.5083,116.7276 L 264.5279,114.708 L 266.5475,116.7276 L 264.5279,118.7472 z" />
  </g><g
     id="g302"
     style="fill:none;stroke:#ffff00;stroke-width:1.83599997;stroke-linecap:butt;stroke-linejoin:miter;stroke-dasharray:none"
     transform="matrix(1.8649113,0,0,-1.8649113,-155.73403,874.77146)">
   <path
   id="path304"
   d="M 264.5279,118.7472 L 262.5083,116.7276 L 264.5279,114.708 L 266.5475,116.7276 L 264.5279,118.7472 z" />
  </g><g
     id="g306"
     style="fill:#ffff00;fill-rule:nonzero"
     transform="matrix(1.8649113,0,0,-1.8649113,-155.73403,874.77146)">
   <path
   id="path308"
   d="M 268.5373,126.0792 L 266.5177,124.0596 L 268.5373,122.04 L 270.5569,124.0596 L 268.5373,126.0792 z" />
  </g><g
     id="g310"
     style="fill:none;stroke:#ffff00;stroke-width:1.83599997;stroke-linecap:butt;stroke-linejoin:miter;stroke-dasharray:none"
     transform="matrix(1.8649113,0,0,-1.8649113,-155.73403,874.77146)">
   <path
   id="path312"
   d="M 268.5373,126.0792 L 266.5177,124.0596 L 268.5373,122.04 L 270.5569,124.0596 L 268.5373,126.0792 z" />
  </g><g
     id="g314"
     style="fill:#ffff00;fill-rule:nonzero"
     transform="matrix(1.8649113,0,0,-1.8649113,-155.73403,874.77146)">
   <path
   id="path316"
   d="M 271.2155,134.5206 L 269.1959,132.501 L 271.2155,130.4814 L 273.2351,132.501 L 271.2155,134.5206 z" />
  </g><g
     id="g318"
     style="fill:none;stroke:#ffff00;stroke-width:1.83599997;stroke-linecap:butt;stroke-linejoin:miter;stroke-dasharray:none"
     transform="matrix(1.8649113,0,0,-1.8649113,-155.73403,874.77146)">
   <path
   id="path320"
   d="M 271.2155,134.5206 L 269.1959,132.501 L 271.2155,130.4814 L 273.2351,132.501 L 271.2155,134.5206 z" />
  </g><g
     id="g322"
     style="fill:#ffff00;fill-rule:nonzero"
     transform="matrix(1.8649113,0,0,-1.8649113,-155.73403,874.77146)">
   <path
   id="path324"
   d="M 272.8478,143.226 L 270.8282,141.2064 L 272.8478,139.1868 L 274.8674,141.2064 L 272.8478,143.226 z" />
  </g><g
     id="g326"
     style="fill:none;stroke:#ffff00;stroke-width:1.83599997;stroke-linecap:butt;stroke-linejoin:miter;stroke-dasharray:none"
     transform="matrix(1.8649113,0,0,-1.8649113,-155.73403,874.77146)">
   <path
   id="path328"
   d="M 272.8478,143.226 L 270.8282,141.2064 L 272.8478,139.1868 L 274.8674,141.2064 L 272.8478,143.226 z" />
  </g><g
     id="g330"
     style="fill:#ffff00;fill-rule:nonzero"
     transform="matrix(1.8649113,0,0,-1.8649113,-155.73403,874.77146)">
   <path
   id="path332"
   d="M 274.4484,152.8718 L 272.4288,150.8522 L 274.4484,148.8326 L 276.468,150.8522 L 274.4484,152.8718 z" />
  </g><g
     id="g334"
     style="fill:none;stroke:#ffff00;stroke-width:1.83599997;stroke-linecap:butt;stroke-linejoin:miter;stroke-dasharray:none"
     transform="matrix(1.8649113,0,0,-1.8649113,-155.73403,874.77146)">
   <path
   id="path336"
   d="M 274.4484,152.8718 L 272.4288,150.8522 L 274.4484,148.8326 L 276.468,150.8522 L 274.4484,152.8718 z" />
  </g><g
     id="g338"
     style="fill:#ffff00;fill-rule:nonzero"
     transform="matrix(1.8649113,0,0,-1.8649113,-155.73403,874.77146)">
   <path
   id="path340"
   d="M 276.0225,162.9877 L 274.0029,160.9681 L 276.0225,158.9485 L 278.0421,160.9681 L 276.0225,162.9877 z" />
  </g><g
     id="g342"
     style="fill:none;stroke:#ffff00;stroke-width:1.83599997;stroke-linecap:butt;stroke-linejoin:miter;stroke-dasharray:none"
     transform="matrix(1.8649113,0,0,-1.8649113,-155.73403,874.77146)">
   <path
   id="path344"
   d="M 276.0225,162.9877 L 274.0029,160.9681 L 276.0225,158.9485 L 278.0421,160.9681 L 276.0225,162.9877 z" />
  </g><g
     id="g346"
     style="fill:#ffff00;fill-rule:nonzero"
     transform="matrix(1.8649113,0,0,-1.8649113,-155.73403,874.77146)">
   <path
   id="path348"
   d="M 277.5439,173.1141 L 275.5243,171.0945 L 277.5439,169.0749 L 279.5635,171.0945 L 277.5439,173.1141 z" />
  </g><g
     id="g350"
     style="fill:none;stroke:#ffff00;stroke-width:1.83599997;stroke-linecap:butt;stroke-linejoin:miter;stroke-dasharray:none"
     transform="matrix(1.8649113,0,0,-1.8649113,-155.73403,874.77146)">
   <path
   id="path352"
   d="M 277.5439,173.1141 L 275.5243,171.0945 L 277.5439,169.0749 L 279.5635,171.0945 L 277.5439,173.1141 z" />
  </g><g
     id="g354"
     style="fill:#ffff00;fill-rule:nonzero"
     transform="matrix(1.8649113,0,0,-1.8649113,-155.73403,874.77146)">
   <path
   id="path356"
   d="M 279.3822,180.8846 L 277.3626,178.865 L 279.3822,176.8454 L 281.4018,178.865 L 279.3822,180.8846 z" />
  </g><g
     id="g358"
     style="fill:none;stroke:#ffff00;stroke-width:1.83599997;stroke-linecap:butt;stroke-linejoin:miter;stroke-dasharray:none"
     transform="matrix(1.8649113,0,0,-1.8649113,-155.73403,874.77146)">
   <path
   id="path360"
   d="M 279.3822,180.8846 L 277.3626,178.865 L 279.3822,176.8454 L 281.4018,178.865 L 279.3822,180.8846 z" />
  </g><g
     id="g362"
     style="fill:#ffff00;fill-rule:nonzero"
     transform="matrix(1.8649113,0,0,-1.8649113,-155.73403,874.77146)">
   <path
   id="path364"
   d="M 282.3403,188.317 L 280.3207,186.2974 L 282.3403,184.2778 L 284.3599,186.2974 L 282.3403,188.317 z" />
  </g><g
     id="g366"
     style="fill:none;stroke:#ffff00;stroke-width:1.83599997;stroke-linecap:butt;stroke-linejoin:miter;stroke-dasharray:none"
     transform="matrix(1.8649113,0,0,-1.8649113,-155.73403,874.77146)">
   <path
   id="path368"
   d="M 282.3403,188.317 L 280.3207,186.2974 L 282.3403,184.2778 L 284.3599,186.2974 L 282.3403,188.317 z" />
  </g><g
     id="g370"
     style="fill:#ffff00;fill-rule:nonzero"
     transform="matrix(1.8649113,0,0,-1.8649113,-155.73403,874.77146)">
   <path
   id="path372"
   d="M 284.5167,196.0347 L 282.4971,194.0151 L 284.5167,191.9955 L 286.5363,194.0151 L 284.5167,196.0347 z" />
  </g><g
     id="g374"
     style="fill:none;stroke:#ffff00;stroke-width:1.83599997;stroke-linecap:butt;stroke-linejoin:miter;stroke-dasharray:none"
     transform="matrix(1.8649113,0,0,-1.8649113,-155.73403,874.77146)">
   <path
   id="path376"
   d="M 284.5167,196.0347 L 282.4971,194.0151 L 284.5167,191.9955 L 286.5363,194.0151 L 284.5167,196.0347 z" />
  </g><g
     id="g378"
     style="fill:#ffff00;fill-rule:nonzero"
     transform="matrix(1.8649113,0,0,-1.8649113,-155.73403,874.77146)">
   <path
   id="path380"
   d="M 286.4871,204.2436 L 284.4675,202.224 L 286.4871,200.2044 L 288.5067,202.224 L 286.4871,204.2436 z" />
  </g><g
     id="g382"
     style="fill:none;stroke:#ffff00;stroke-width:1.83599997;stroke-linecap:butt;stroke-linejoin:miter;stroke-dasharray:none"
     transform="matrix(1.8649113,0,0,-1.8649113,-155.73403,874.77146)">
   <path
   id="path384"
   d="M 286.4871,204.2436 L 284.4675,202.224 L 286.4871,200.2044 L 288.5067,202.224 L 286.4871,204.2436 z" />
  </g><g
     id="g386"
     style="fill:#ffff00;fill-rule:nonzero"
     transform="matrix(1.8649113,0,0,-1.8649113,-155.73403,874.77146)">
   <path
   id="path388"
   d="M 287.7337,212.5793 L 285.7141,210.5597 L 287.7337,208.5401 L 289.7533,210.5597 L 287.7337,212.5793 z" />
  </g><g
     id="g390"
     style="fill:none;stroke:#ffff00;stroke-width:1.83599997;stroke-linecap:butt;stroke-linejoin:miter;stroke-dasharray:none"
     transform="matrix(1.8649113,0,0,-1.8649113,-155.73403,874.77146)">
   <path
   id="path392"
   d="M 287.7337,212.5793 L 285.7141,210.5597 L 287.7337,208.5401 L 289.7533,210.5597 L 287.7337,212.5793 z" />
  </g><g
     id="g394"
     style="fill:#ffff00;fill-rule:nonzero"
     transform="matrix(1.8649113,0,0,-1.8649113,-155.73403,874.77146)">
   <path
   id="path396"
   d="M 287.9926,221.0101 L 285.973,218.9905 L 287.9926,216.9709 L 290.0122,218.9905 L 287.9926,221.0101 z" />
  </g><g
     id="g398"
     style="fill:none;stroke:#ffff00;stroke-width:1.83599997;stroke-linecap:butt;stroke-linejoin:miter;stroke-dasharray:none"
     transform="matrix(1.8649113,0,0,-1.8649113,-155.73403,874.77146)">
   <path
   id="path400"
   d="M 287.9926,221.0101 L 285.973,218.9905 L 287.9926,216.9709 L 290.0122,218.9905 L 287.9926,221.0101 z" />
  </g><g
     id="g402"
     style="fill:#ffff00;fill-rule:nonzero"
     transform="matrix(1.8649113,0,0,-1.8649113,-155.73403,874.77146)">
   <path
   id="path404"
   d="M 288.2831,230.1804 L 286.2635,228.1608 L 288.2831,226.1412 L 290.3027,228.1608 L 288.2831,230.1804 z" />
  </g><g
     id="g406"
     style="fill:none;stroke:#ffff00;stroke-width:1.83599997;stroke-linecap:butt;stroke-linejoin:miter;stroke-dasharray:none"
     transform="matrix(1.8649113,0,0,-1.8649113,-155.73403,874.77146)">
   <path
   id="path408"
   d="M 288.2831,230.1804 L 286.2635,228.1608 L 288.2831,226.1412 L 290.3027,228.1608 L 288.2831,230.1804 z" />
  </g><g
     id="g410"
     style="fill:#ffff00;fill-rule:nonzero"
     transform="matrix(1.8649113,0,0,-1.8649113,-155.73403,874.77146)">
   <path
   id="path412"
   d="M 288.5684,239.3666 L 286.5488,237.347 L 288.5684,235.3274 L 290.588,237.347 L 288.5684,239.3666 z" />
  </g><g
     id="g414"
     style="fill:none;stroke:#ffff00;stroke-width:1.83599997;stroke-linecap:butt;stroke-linejoin:miter;stroke-dasharray:none"
     transform="matrix(1.8649113,0,0,-1.8649113,-155.73403,874.77146)">
   <path
   id="path416"
   d="M 288.5684,239.3666 L 286.5488,237.347 L 288.5684,235.3274 L 290.588,237.347 L 288.5684,239.3666 z" />
  </g><g
     id="g418"
     style="fill:#ffff00;fill-rule:nonzero"
     transform="matrix(1.8649113,0,0,-1.8649113,-155.73403,874.77146)">
   <path
   id="path420"
   d="M 289.6196,248.5263 L 287.6,246.5067 L 289.6196,244.4871 L 291.6392,246.5067 L 289.6196,248.5263 z" />
  </g><g
     id="g422"
     style="fill:none;stroke:#ffff00;stroke-width:1.83599997;stroke-linecap:butt;stroke-linejoin:miter;stroke-dasharray:none"
     transform="matrix(1.8649113,0,0,-1.8649113,-155.73403,874.77146)">
   <path
   id="path424"
   d="M 289.6196,248.5263 L 287.6,246.5067 L 289.6196,244.4871 L 291.6392,246.5067 L 289.6196,248.5263 z" />
  </g><g
     id="g426"
     style="fill:#ffff00;fill-rule:nonzero"
     transform="matrix(1.8649113,0,0,-1.8649113,-155.73403,874.77146)">
   <path
   id="path428"
   d="M 294.379,256.4236 L 292.3594,254.404 L 294.379,252.3844 L 296.3986,254.404 L 294.379,256.4236 z" />
  </g><g
     id="g430"
     style="fill:none;stroke:#ffff00;stroke-width:1.83599997;stroke-linecap:butt;stroke-linejoin:miter;stroke-dasharray:none"
     transform="matrix(1.8649113,0,0,-1.8649113,-155.73403,874.77146)">
   <path
   id="path432"
   d="M 294.379,256.4236 L 292.3594,254.404 L 294.379,252.3844 L 296.3986,254.404 L 294.379,256.4236 z" />
  </g><g
     id="g434"
     style="fill:#ffff00;fill-rule:nonzero"
     transform="matrix(1.8649113,0,0,-1.8649113,-155.73403,874.77146)">
   <path
   id="path436"
   d="M 299.3868,264.1835 L 297.3672,262.1639 L 299.3868,260.1443 L 301.4064,262.1639 L 299.3868,264.1835 z" />
  </g><g
     id="g438"
     style="fill:none;stroke:#ffff00;stroke-width:1.83599997;stroke-linecap:butt;stroke-linejoin:miter;stroke-dasharray:none"
     transform="matrix(1.8649113,0,0,-1.8649113,-155.73403,874.77146)">
   <path
   id="path440"
   d="M 299.3868,264.1835 L 297.3672,262.1639 L 299.3868,260.1443 L 301.4064,262.1639 L 299.3868,264.1835 z" />
  </g><g
     id="g442"
     style="fill:#ffff00;fill-rule:nonzero"
     transform="matrix(1.8649113,0,0,-1.8649113,-155.73403,874.77146)">
   <path
   id="path444"
   d="M 304.4051,271.9593 L 302.3855,269.9397 L 304.4051,267.9201 L 306.4247,269.9397 L 304.4051,271.9593 z" />
  </g><g
     id="g446"
     style="fill:none;stroke:#ffff00;stroke-width:1.83599997;stroke-linecap:butt;stroke-linejoin:miter;stroke-dasharray:none"
     transform="matrix(1.8649113,0,0,-1.8649113,-155.73403,874.77146)">
   <path
   id="path448"
   d="M 304.4051,271.9593 L 302.3855,269.9397 L 304.4051,267.9201 L 306.4247,269.9397 L 304.4051,271.9593 z" />
  </g><g
     id="g450"
     style="fill:#ffff00;fill-rule:nonzero"
     transform="matrix(1.8649113,0,0,-1.8649113,-155.73403,874.77146)">
   <path
   id="path452"
   d="M 309.434,279.7562 L 307.4144,277.7366 L 309.434,275.717 L 311.4536,277.7366 L 309.434,279.7562 z" />
  </g><g
     id="g454"
     style="fill:none;stroke:#ffff00;stroke-width:1.83599997;stroke-linecap:butt;stroke-linejoin:miter;stroke-dasharray:none"
     transform="matrix(1.8649113,0,0,-1.8649113,-155.73403,874.77146)">
   <path
   id="path456"
   d="M 309.434,279.7562 L 307.4144,277.7366 L 309.434,275.717 L 311.4536,277.7366 L 309.434,279.7562 z" />
  </g><g
     id="g458"
     style="fill:#ffff00;fill-rule:nonzero"
     transform="matrix(1.8649113,0,0,-1.8649113,-155.73403,874.77146)">
   <path
   id="path460"
   d="M 314.5421,287.5319 L 312.5225,285.5123 L 314.5421,283.4927 L 316.5617,285.5123 L 314.5421,287.5319 z" />
  </g><g
     id="g462"
     style="fill:none;stroke:#ffff00;stroke-width:1.83599997;stroke-linecap:butt;stroke-linejoin:miter;stroke-dasharray:none"
     transform="matrix(1.8649113,0,0,-1.8649113,-155.73403,874.77146)">
   <path
   id="path464"
   d="M 314.5421,287.5319 L 312.5225,285.5123 L 314.5421,283.4927 L 316.5617,285.5123 L 314.5421,287.5319 z" />
  </g><g
     id="g466"
     style="fill:#ffff00;fill-rule:nonzero"
     transform="matrix(1.8649113,0,0,-1.8649113,-155.73403,874.77146)">
   <path
   id="path468"
   d="M 320.0412,294.0874 L 318.0216,292.0678 L 320.0412,290.0482 L 322.0608,292.0678 L 320.0412,294.0874 z" />
  </g><g
     id="g470"
     style="fill:none;stroke:#ffff00;stroke-width:1.83599997;stroke-linecap:butt;stroke-linejoin:miter;stroke-dasharray:none"
     transform="matrix(1.8649113,0,0,-1.8649113,-155.73403,874.77146)">
   <path
   id="path472"
   d="M 320.0412,294.0874 L 318.0216,292.0678 L 320.0412,290.0482 L 322.0608,292.0678 L 320.0412,294.0874 z" />
  </g><g
     id="g474"
     style="fill:#ffff00;fill-rule:nonzero"
     transform="matrix(1.8649113,0,0,-1.8649113,-155.73403,874.77146)">
   <path
   id="path476"
   d="M 325.7092,300.5003 L 323.6896,298.4807 L 325.7092,296.4611 L 327.7288,298.4807 L 325.7092,300.5003 z" />
  </g><g
     id="g478"
     style="fill:none;stroke:#ffff00;stroke-width:1.83599997;stroke-linecap:butt;stroke-linejoin:miter;stroke-dasharray:none"
     transform="matrix(1.8649113,0,0,-1.8649113,-155.73403,874.77146)">
   <path
   id="path480"
   d="M 325.7092,300.5003 L 323.6896,298.4807 L 325.7092,296.4611 L 327.7288,298.4807 L 325.7092,300.5003 z" />
  </g><g
     id="g482"
     style="fill:#ffff00;fill-rule:nonzero"
     transform="matrix(1.8649113,0,0,-1.8649113,-155.73403,874.77146)">
   <path
   id="path484"
   d="M 331.5358,306.76 L 329.5162,304.7404 L 331.5358,302.7208 L 333.5554,304.7404 L 331.5358,306.76 z" />
  </g><g
     id="g486"
     style="fill:none;stroke:#ffff00;stroke-width:1.83599997;stroke-linecap:butt;stroke-linejoin:miter;stroke-dasharray:none"
     transform="matrix(1.8649113,0,0,-1.8649113,-155.73403,874.77146)">
   <path
   id="path488"
   d="M 331.5358,306.76 L 329.5162,304.7404 L 331.5358,302.7208 L 333.5554,304.7404 L 331.5358,306.76 z" />
  </g><g
     id="g490"
     style="fill:#ffff00;fill-rule:nonzero"
     transform="matrix(1.8649113,0,0,-1.8649113,-155.73403,874.77146)">
   <path
   id="path492"
   d="M 337.637,312.7556 L 335.6174,310.736 L 337.637,308.7164 L 339.6566,310.736 L 337.637,312.7556 z" />
  </g><g
     id="g494"
     style="fill:none;stroke:#ffff00;stroke-width:1.83599997;stroke-linecap:butt;stroke-linejoin:miter;stroke-dasharray:none"
     transform="matrix(1.8649113,0,0,-1.8649113,-155.73403,874.77146)">
   <path
   id="path496"
   d="M 337.637,312.7556 L 335.6174,310.736 L 337.637,308.7164 L 339.6566,310.736 L 337.637,312.7556 z" />
  </g><g
     id="g498"
     style="fill:#ffff00;fill-rule:nonzero"
     transform="matrix(1.8649113,0,0,-1.8649113,-155.73403,874.77146)">
   <path
   id="path500"
   d="M 342.5708,319.7337 L 340.5512,317.7141 L 342.5708,315.6945 L 344.5904,317.7141 L 342.5708,319.7337 z" />
  </g><g
     id="g502"
     style="fill:none;stroke:#ffff00;stroke-width:1.83599997;stroke-linecap:butt;stroke-linejoin:miter;stroke-dasharray:none"
     transform="matrix(1.8649113,0,0,-1.8649113,-155.73403,874.77146)">
   <path
   id="path504"
   d="M 342.5708,319.7337 L 340.5512,317.7141 L 342.5708,315.6945 L 344.5904,317.7141 L 342.5708,319.7337 z" />
  </g><g
     id="g506"
     style="fill:#ffff00;fill-rule:nonzero"
     transform="matrix(1.8649113,0,0,-1.8649113,-155.73403,874.77146)">
   <path
   id="path508"
   d="M 344.2982,326.9707 L 342.2786,324.9511 L 344.2982,322.9315 L 346.3178,324.9511 L 344.2982,326.9707 z" />
  </g><g
     id="g510"
     style="fill:none;stroke:#ffff00;stroke-width:1.83599997;stroke-linecap:butt;stroke-linejoin:miter;stroke-dasharray:none"
     transform="matrix(1.8649113,0,0,-1.8649113,-155.73403,874.77146)">
   <path
   id="path512"
   d="M 344.2982,326.9707 L 342.2786,324.9511 L 344.2982,322.9315 L 346.3178,324.9511 L 344.2982,326.9707 z" />
  </g><g
     id="g514"
     style="fill:#ffff00;fill-rule:nonzero"
     transform="matrix(1.8649113,0,0,-1.8649113,-155.73403,874.77146)">
   <path
   id="path516"
   d="M 347.1613,335.2588 L 345.1417,333.2392 L 347.1613,331.2196 L 349.1809,333.2392 L 347.1613,335.2588 z" />
  </g><g
     id="g518"
     style="fill:none;stroke:#ffff00;stroke-width:1.83599997;stroke-linecap:butt;stroke-linejoin:miter;stroke-dasharray:none"
     transform="matrix(1.8649113,0,0,-1.8649113,-155.73403,874.77146)">
   <path
   id="path520"
   d="M 347.1613,335.2588 L 345.1417,333.2392 L 347.1613,331.2196 L 349.1809,333.2392 L 347.1613,335.2588 z" />
  </g><g
     id="g522"
     style="fill:#ffff00;fill-rule:nonzero"
     transform="matrix(1.8649113,0,0,-1.8649113,-155.73403,874.77146)">
   <path
   id="path524"
   d="M 350.9541,343.1772 L 348.9345,341.1576 L 350.9541,339.138 L 352.9737,341.1576 L 350.9541,343.1772 z" />
  </g><g
     id="g526"
     style="fill:none;stroke:#ffff00;stroke-width:1.83599997;stroke-linecap:butt;stroke-linejoin:miter;stroke-dasharray:none"
     transform="matrix(1.8649113,0,0,-1.8649113,-155.73403,874.77146)">
   <path
   id="path528"
   d="M 350.9541,343.1772 L 348.9345,341.1576 L 350.9541,339.138 L 352.9737,341.1576 L 350.9541,343.1772 z" />
  </g><g
     id="g530"
     style="fill:#ffff00;fill-rule:nonzero"
     transform="matrix(1.8649113,0,0,-1.8649113,-155.73403,874.77146)">
   <path
   id="path532"
   d="M 355.5075,351.1854 L 353.4879,349.1658 L 355.5075,347.1462 L 357.5271,349.1658 L 355.5075,351.1854 z" />
  </g><g
     id="g534"
     style="fill:none;stroke:#ffff00;stroke-width:1.83599997;stroke-linecap:butt;stroke-linejoin:miter;stroke-dasharray:none"
     transform="matrix(1.8649113,0,0,-1.8649113,-155.73403,874.77146)">
   <path
   id="path536"
   d="M 355.5075,351.1854 L 353.4879,349.1658 L 355.5075,347.1462 L 357.5271,349.1658 L 355.5075,351.1854 z" />
  </g><g
     id="g538"
     style="fill:#ffff00;fill-rule:nonzero"
     transform="matrix(1.8649113,0,0,-1.8649113,-155.73403,874.77146)">
   <path
   id="path540"
   d="M 360.7636,359.2464 L 358.744,357.2268 L 360.7636,355.2072 L 362.7832,357.2268 L 360.7636,359.2464 z" />
  </g><g
     id="g542"
     style="fill:none;stroke:#ffff00;stroke-width:1.83599997;stroke-linecap:butt;stroke-linejoin:miter;stroke-dasharray:none"
     transform="matrix(1.8649113,0,0,-1.8649113,-155.73403,874.77146)">
   <path
   id="path544"
   d="M 360.7636,359.2464 L 358.744,357.2268 L 360.7636,355.2072 L 362.7832,357.2268 L 360.7636,359.2464 z" />
  </g><g
     id="g546"
     style="fill:#ffff00;fill-rule:nonzero"
     transform="matrix(1.8649113,0,0,-1.8649113,-155.73403,874.77146)">
   <path
   id="path548"
   d="M 366.2679,367.149 L 364.2483,365.1294 L 366.2679,363.1098 L 368.2875,365.1294 L 366.2679,367.149 z" />
  </g><g
     id="g550"
     style="fill:none;stroke:#ffff00;stroke-width:1.83599997;stroke-linecap:butt;stroke-linejoin:miter;stroke-dasharray:none"
     transform="matrix(1.8649113,0,0,-1.8649113,-155.73403,874.77146)">
   <path
   id="path552"
   d="M 366.2679,367.149 L 364.2483,365.1294 L 366.2679,363.1098 L 368.2875,365.1294 L 366.2679,367.149 z" />
  </g><g
     id="g554"
     style="fill:#ffff00;fill-rule:nonzero"
     transform="matrix(1.8649113,0,0,-1.8649113,-155.73403,874.77146)">
   <path
   id="path556"
   d="M 370.9375,374.724 L 368.9179,372.7044 L 370.9375,370.6848 L 372.9571,372.7044 L 370.9375,374.724 z" />
  </g><g
     id="g558"
     style="fill:none;stroke:#ffff00;stroke-width:1.83599997;stroke-linecap:butt;stroke-linejoin:miter;stroke-dasharray:none"
     transform="matrix(1.8649113,0,0,-1.8649113,-155.73403,874.77146)">
   <path
   id="path560"
   d="M 370.9375,374.724 L 368.9179,372.7044 L 370.9375,370.6848 L 372.9571,372.7044 L 370.9375,374.724 z" />
  </g><g
     id="g562"
     style="fill:#ffff00;fill-rule:nonzero"
     transform="matrix(1.8649113,0,0,-1.8649113,-155.73403,874.77146)">
   <path
   id="path564"
   d="M 373.8482,382.4733 L 371.8286,380.4537 L 373.8482,378.4341 L 375.8678,380.4537 L 373.8482,382.4733 z" />
  </g><g
     id="g566"
     style="fill:none;stroke:#ffff00;stroke-width:1.83599997;stroke-linecap:butt;stroke-linejoin:miter;stroke-dasharray:none"
     transform="matrix(1.8649113,0,0,-1.8649113,-155.73403,874.77146)">
   <path
   id="path568"
   d="M 373.8482,382.4733 L 371.8286,380.4537 L 373.8482,378.4341 L 375.8678,380.4537 L 373.8482,382.4733 z" />
  </g><g
     id="g570"
     style="fill:#ffff00;fill-rule:nonzero"
     transform="matrix(1.8649113,0,0,-1.8649113,-155.73403,874.77146)">
   <path
   id="path572"
   d="M 374.8307,390.3548 L 372.8111,388.3352 L 374.8307,386.3156 L 376.8503,388.3352 L 374.8307,390.3548 z" />
  </g><g
     id="g574"
     style="fill:none;stroke:#ffff00;stroke-width:1.83599997;stroke-linecap:butt;stroke-linejoin:miter;stroke-dasharray:none"
     transform="matrix(1.8649113,0,0,-1.8649113,-155.73403,874.77146)">
   <path
   id="path576"
   d="M 374.8307,390.3548 L 372.8111,388.3352 L 374.8307,386.3156 L 376.8503,388.3352 L 374.8307,390.3548 z" />
  </g><g
     id="g578"
     style="fill:#ffff00;fill-rule:nonzero"
     transform="matrix(1.8649113,0,0,-1.8649113,-155.73403,874.77146)">
   <path
   id="path580"
   d="M 376.7007,398.7591 L 374.6811,396.7395 L 376.7007,394.7199 L 378.7203,396.7395 L 376.7007,398.7591 z" />
  </g><g
     id="g582"
     style="fill:none;stroke:#ffff00;stroke-width:1.83599997;stroke-linecap:butt;stroke-linejoin:miter;stroke-dasharray:none"
     transform="matrix(1.8649113,0,0,-1.8649113,-155.73403,874.77146)">
   <path
   id="path584"
   d="M 376.7007,398.7591 L 374.6811,396.7395 L 376.7007,394.7199 L 378.7203,396.7395 L 376.7007,398.7591 z" />
  </g><g
     id="g586"
     style="fill:#ffff00;fill-rule:nonzero"
     transform="matrix(1.8649113,0,0,-1.8649113,-155.73403,874.77146)">
   <path
   id="path588"
   d="M 379.0989,407.0314 L 377.0793,405.0118 L 379.0989,402.9922 L 381.1185,405.0118 L 379.0989,407.0314 z" />
  </g><g
     id="g590"
     style="fill:none;stroke:#ffff00;stroke-width:1.83599997;stroke-linecap:butt;stroke-linejoin:miter;stroke-dasharray:none"
     transform="matrix(1.8649113,0,0,-1.8649113,-155.73403,874.77146)">
   <path
   id="path592"
   d="M 379.0989,407.0314 L 377.0793,405.0118 L 379.0989,402.9922 L 381.1185,405.0118 L 379.0989,407.0314 z" />
  </g><g
     id="g594"
     style="fill:#ffff00;fill-rule:nonzero"
     transform="matrix(1.8649113,0,0,-1.8649113,-155.73403,874.77146)">
   <path
   id="path596"
   d="M 381.6292,415.2773 L 379.6096,413.2577 L 381.6292,411.2381 L 383.6488,413.2577 L 381.6292,415.2773 z" />
  </g><g
     id="g598"
     style="fill:none;stroke:#ffff00;stroke-width:1.83599997;stroke-linecap:butt;stroke-linejoin:miter;stroke-dasharray:none"
     transform="matrix(1.8649113,0,0,-1.8649113,-155.73403,874.77146)">
   <path
   id="path600"
   d="M 381.6292,415.2773 L 379.6096,413.2577 L 381.6292,411.2381 L 383.6488,413.2577 L 381.6292,415.2773 z" />
  </g><g
     id="g602"
     style="fill:#ffff00;fill-rule:nonzero"
     transform="matrix(1.8649113,0,0,-1.8649113,-155.73403,874.77146)">
   <path
   id="path604"
   d="M 385.5277,422.9686 L 383.5081,420.949 L 385.5277,418.9294 L 387.5473,420.949 L 385.5277,422.9686 z" />
  </g><g
     id="g606"
     style="fill:none;stroke:#ffff00;stroke-width:1.83599997;stroke-linecap:butt;stroke-linejoin:miter;stroke-dasharray:none"
     transform="matrix(1.8649113,0,0,-1.8649113,-155.73403,874.77146)">
   <path
   id="path608"
   d="M 385.5277,422.9686 L 383.5081,420.949 L 385.5277,418.9294 L 387.5473,420.949 L 385.5277,422.9686 z" />
  </g><g
     id="g610"
     style="fill:#ffff00;fill-rule:nonzero"
     transform="matrix(1.8649113,0,0,-1.8649113,-155.73403,874.77146)">
   <path
   id="path612"
   d="M 389.6691,430.5436 L 387.6495,428.524 L 389.6691,426.5044 L 391.6887,428.524 L 389.6691,430.5436 z" />
  </g><g
     id="g614"
     style="fill:none;stroke:#ffff00;stroke-width:1.83599997;stroke-linecap:butt;stroke-linejoin:miter;stroke-dasharray:none"
     transform="matrix(1.8649113,0,0,-1.8649113,-155.73403,874.77146)">
   <path
   id="path616"
   d="M 389.6691,430.5436 L 387.6495,428.524 L 389.6691,426.5044 L 391.6887,428.524 L 389.6691,430.5436 z" />
  </g><g
     id="g618"
     style="fill:#ffff00;fill-rule:nonzero"
     transform="matrix(1.8649113,0,0,-1.8649113,-155.73403,874.77146)">
   <path
   id="path620"
   d="M 391.9458,438.8687 L 389.9262,436.8491 L 391.9458,434.8295 L 393.9654,436.8491 L 391.9458,438.8687 z" />
  </g><g
     id="g622"
     style="fill:none;stroke:#ffff00;stroke-width:1.83599997;stroke-linecap:butt;stroke-linejoin:miter;stroke-dasharray:none"
     transform="matrix(1.8649113,0,0,-1.8649113,-155.73403,874.77146)">
   <path
   id="path624"
   d="M 391.9458,438.8687 L 389.9262,436.8491 L 391.9458,434.8295 L 393.9654,436.8491 L 391.9458,438.8687 z" />
  </g><g
     id="g626"
     style="fill:#ffff00;fill-rule:nonzero"
     transform="matrix(1.8649113,0,0,-1.8649113,-155.73403,874.77146)">
   <path
   id="path628"
   d="M 393.726,447.3259 L 391.7064,445.3063 L 393.726,443.2867 L 395.7456,445.3063 L 393.726,447.3259 z" />
  </g><g
     id="g630"
     style="fill:none;stroke:#ffff00;stroke-width:1.83599997;stroke-linecap:butt;stroke-linejoin:miter;stroke-dasharray:none"
     transform="matrix(1.8649113,0,0,-1.8649113,-155.73403,874.77146)">
   <path
   id="path632"
   d="M 393.726,447.3259 L 391.7064,445.3063 L 393.726,443.2867 L 395.7456,445.3063 L 393.726,447.3259 z" />
  </g><g
     id="g634"
     style="fill:#ffff00;fill-rule:nonzero"
     transform="matrix(1.8649113,0,0,-1.8649113,-155.73403,874.77146)">
   <path
   id="path636"
   d="M 395.8126,457.4577 L 393.793,455.4381 L 395.8126,453.4185 L 397.8322,455.4381 L 395.8126,457.4577 z" />
  </g><g
     id="g638"
     style="fill:none;stroke:#ffff00;stroke-width:1.83599997;stroke-linecap:butt;stroke-linejoin:miter;stroke-dasharray:none"
     transform="matrix(1.8649113,0,0,-1.8649113,-155.73403,874.77146)">
   <path
   id="path640"
   d="M 395.8126,457.4577 L 393.793,455.4381 L 395.8126,453.4185 L 397.8322,455.4381 L 395.8126,457.4577 z" />
  </g><g
     id="g642"
     style="fill:#ffff00;fill-rule:nonzero"
     transform="matrix(1.8649113,0,0,-1.8649113,-155.73403,874.77146)">
   <path
   id="path644"
   d="M 398.0471,467.5577 L 396.0275,465.5381 L 398.0471,463.5185 L 400.0667,465.5381 L 398.0471,467.5577 z" />
  </g><g
     id="g646"
     style="fill:none;stroke:#ffff00;stroke-width:1.83599997;stroke-linecap:butt;stroke-linejoin:miter;stroke-dasharray:none"
     transform="matrix(1.8649113,0,0,-1.8649113,-155.73403,874.77146)">
   <path
   id="path648"
   d="M 398.0471,467.5577 L 396.0275,465.5381 L 398.0471,463.5185 L 400.0667,465.5381 L 398.0471,467.5577 z" />
  </g><g
     id="g650"
     style="fill:#ffff00;fill-rule:nonzero"
     transform="matrix(1.8649113,0,0,-1.8649113,-155.73403,874.77146)">
   <path
   id="path652"
   d="M 400.8203,477.531 L 398.8007,475.5114 L 400.8203,473.4918 L 402.8399,475.5114 L 400.8203,477.531 z" />
  </g><g
     id="g654"
     style="fill:none;stroke:#ffff00;stroke-width:1.83599997;stroke-linecap:butt;stroke-linejoin:miter;stroke-dasharray:none"
     transform="matrix(1.8649113,0,0,-1.8649113,-155.73403,874.77146)">
   <path
   id="path656"
   d="M 400.8203,477.531 L 398.8007,475.5114 L 400.8203,473.4918 L 402.8399,475.5114 L 400.8203,477.531 z" />
  </g><g
     id="g658"
     style="fill:#ffff00;fill-rule:nonzero"
     transform="matrix(1.8649113,0,0,-1.8649113,-155.73403,874.77146)">
   <path
   id="path660"
   d="M 403.208,485.5603 L 401.1884,483.5407 L 403.208,481.5211 L 405.2276,483.5407 L 403.208,485.5603 z" />
  </g><g
     id="g662"
     style="fill:none;stroke:#ffff00;stroke-width:1.83599997;stroke-linecap:butt;stroke-linejoin:miter;stroke-dasharray:none"
     transform="matrix(1.8649113,0,0,-1.8649113,-155.73403,874.77146)">
   <path
   id="path664"
   d="M 403.208,485.5603 L 401.1884,483.5407 L 403.208,481.5211 L 405.2276,483.5407 L 403.208,485.5603 z" />
  </g><g
     id="g666"
     style="fill:#ffff00;fill-rule:nonzero"
     transform="matrix(1.8649113,0,0,-1.8649113,-155.73403,874.77146)">
   <path
   id="path668"
   d="M 404.4177,493.8537 L 402.3981,491.8341 L 404.4177,489.8145 L 406.4373,491.8341 L 404.4177,493.8537 z" />
  </g><g
     id="g670"
     style="fill:none;stroke:#ffff00;stroke-width:1.83599997;stroke-linecap:butt;stroke-linejoin:miter;stroke-dasharray:none"
     transform="matrix(1.8649113,0,0,-1.8649113,-155.73403,874.77146)">
   <path
   id="path672"
   d="M 404.4177,493.8537 L 402.3981,491.8341 L 404.4177,489.8145 L 406.4373,491.8341 L 404.4177,493.8537 z" />
  </g><g
     id="g674"
     style="fill:#ffff00;fill-rule:nonzero"
     transform="matrix(1.8649113,0,0,-1.8649113,-155.73403,874.77146)">
   <path
   id="path676"
   d="M 404.2751,502.2317 L 402.2555,500.2121 L 404.2751,498.1925 L 406.2947,500.2121 L 404.2751,502.2317 z" />
  </g><g
     id="g678"
     style="fill:none;stroke:#ffff00;stroke-width:1.83599997;stroke-linecap:butt;stroke-linejoin:miter;stroke-dasharray:none"
     transform="matrix(1.8649113,0,0,-1.8649113,-155.73403,874.77146)">
   <path
   id="path680"
   d="M 404.2751,502.2317 L 402.2555,500.2121 L 404.2751,498.1925 L 406.2947,500.2121 L 404.2751,502.2317 z" />
  </g><g
     id="g682"
     style="fill:#ffff00;fill-rule:nonzero"
     transform="matrix(1.8649113,0,0,-1.8649113,-155.73403,874.77146)">
   <path
   id="path684"
   d="M 398.401,504.799 L 396.3814,502.7794 L 398.401,500.7598 L 400.4206,502.7794 L 398.401,504.799 z" />
  </g><g
     id="g686"
     style="fill:none;stroke:#ffff00;stroke-width:1.83599997;stroke-linecap:butt;stroke-linejoin:miter;stroke-dasharray:none"
     transform="matrix(1.8649113,0,0,-1.8649113,-155.73403,874.77146)">
   <path
   id="path688"
   d="M 398.401,504.799 L 396.3814,502.7794 L 398.401,500.7598 L 400.4206,502.7794 L 398.401,504.799 z" />
  </g><g
     id="g690"
     style="fill:#ffff00;fill-rule:nonzero"
     transform="matrix(1.8649113,0,0,-1.8649113,-155.73403,874.77146)">
   <path
   id="path692"
   d="M 391.8296,499.5218 L 389.81,497.5022 L 391.8296,495.4826 L 393.8492,497.5022 L 391.8296,499.5218 z" />
  </g><g
     id="g694"
     style="fill:none;stroke:#ffff00;stroke-width:1.83599997;stroke-linecap:butt;stroke-linejoin:miter;stroke-dasharray:none"
     transform="matrix(1.8649113,0,0,-1.8649113,-155.73403,874.77146)">
   <path
   id="path696"
   d="M 391.8296,499.5218 L 389.81,497.5022 L 391.8296,495.4826 L 393.8492,497.5022 L 391.8296,499.5218 z" />
  </g><g
     id="g698"
     style="fill:#ffff00;fill-rule:nonzero"
     transform="matrix(1.8649113,0,0,-1.8649113,-155.73403,874.77146)">
   <path
   id="path700"
   d="M 385.6069,493.8379 L 383.5873,491.8183 L 385.6069,489.7987 L 387.6265,491.8183 L 385.6069,493.8379 z" />
  </g><g
     id="g702"
     style="fill:none;stroke:#ffff00;stroke-width:1.83599997;stroke-linecap:butt;stroke-linejoin:miter;stroke-dasharray:none"
     transform="matrix(1.8649113,0,0,-1.8649113,-155.73403,874.77146)">
   <path
   id="path704"
   d="M 385.6069,493.8379 L 383.5873,491.8183 L 385.6069,489.7987 L 387.6265,491.8183 L 385.6069,493.8379 z" />
  </g><g
     id="g706"
     style="fill:#ffff00;fill-rule:nonzero"
     transform="matrix(1.8649113,0,0,-1.8649113,-155.73403,874.77146)">
   <path
   id="path708"
   d="M 378.9457,488.6717 L 376.9261,486.6521 L 378.9457,484.6325 L 380.9653,486.6521 L 378.9457,488.6717 z" />
  </g><g
     id="g710"
     style="fill:none;stroke:#ffff00;stroke-width:1.83599997;stroke-linecap:butt;stroke-linejoin:miter;stroke-dasharray:none"
     transform="matrix(1.8649113,0,0,-1.8649113,-155.73403,874.77146)">
   <path
   id="path712"
   d="M 378.9457,488.6717 L 376.9261,486.6521 L 378.9457,484.6325 L 380.9653,486.6521 L 378.9457,488.6717 z" />
  </g><g
     id="g714"
     style="fill:#ffff00;fill-rule:nonzero"
     transform="matrix(1.8649113,0,0,-1.8649113,-155.73403,874.77146)">
   <path
   id="path716"
   d="M 371.1277,483.4684 L 369.1081,481.4488 L 371.1277,479.4292 L 373.1473,481.4488 L 371.1277,483.4684 z" />
  </g><g
     id="g718"
     style="fill:none;stroke:#ffff00;stroke-width:1.83599997;stroke-linecap:butt;stroke-linejoin:miter;stroke-dasharray:none"
     transform="matrix(1.8649113,0,0,-1.8649113,-155.73403,874.77146)">
   <path
   id="path720"
   d="M 371.1277,483.4684 L 369.1081,481.4488 L 371.1277,479.4292 L 373.1473,481.4488 L 371.1277,483.4684 z" />
  </g><g
     id="g722"
     style="fill:#ffff00;fill-rule:nonzero"
     transform="matrix(1.8649113,0,0,-1.8649113,-155.73403,874.77146)">
   <path
   id="path724"
   d="M 363.1248,478.5769 L 361.1052,476.5573 L 363.1248,474.5377 L 365.1444,476.5573 L 363.1248,478.5769 z" />
  </g><g
     id="g726"
     style="fill:none;stroke:#ffff00;stroke-width:1.83599997;stroke-linecap:butt;stroke-linejoin:miter;stroke-dasharray:none"
     transform="matrix(1.8649113,0,0,-1.8649113,-155.73403,874.77146)">
   <path
   id="path728"
   d="M 363.1248,478.5769 L 361.1052,476.5573 L 363.1248,474.5377 L 365.1444,476.5573 L 363.1248,478.5769 z" />
  </g><g
     id="g730"
     style="fill:#ffff00;fill-rule:nonzero"
     transform="matrix(1.8649113,0,0,-1.8649113,-155.73403,874.77146)">
   <path
   id="path732"
   d="M 355.0215,473.8544 L 353.0019,471.8348 L 355.0215,469.8152 L 357.0411,471.8348 L 355.0215,473.8544 z" />
  </g><g
     id="g734"
     style="fill:none;stroke:#ffff00;stroke-width:1.83599997;stroke-linecap:butt;stroke-linejoin:miter;stroke-dasharray:none"
     transform="matrix(1.8649113,0,0,-1.8649113,-155.73403,874.77146)">
   <path
   id="path736"
   d="M 355.0215,473.8544 L 353.0019,471.8348 L 355.0215,469.8152 L 357.0411,471.8348 L 355.0215,473.8544 z" />
  </g><g
     id="g738"
     style="fill:#ffff00;fill-rule:nonzero"
     transform="matrix(1.8649113,0,0,-1.8649113,-155.73403,874.77146)">
   <path
   id="path740"
   d="M 347.2352,469.3696 L 345.2156,467.35 L 347.2352,465.3304 L 349.2548,467.35 L 347.2352,469.3696 z" />
  </g><g
     id="g742"
     style="fill:none;stroke:#ffff00;stroke-width:1.83599997;stroke-linecap:butt;stroke-linejoin:miter;stroke-dasharray:none"
     transform="matrix(1.8649113,0,0,-1.8649113,-155.73403,874.77146)">
   <path
   id="path744"
   d="M 347.2352,469.3696 L 345.2156,467.35 L 347.2352,465.3304 L 349.2548,467.35 L 347.2352,469.3696 z" />
  </g><g
     id="g746"
     style="fill:#ffff00;fill-rule:nonzero"
     transform="matrix(1.8649113,0,0,-1.8649113,-155.73403,874.77146)">
   <path
   id="path748"
   d="M 339.5651,464.6893 L 337.5455,462.6697 L 339.5651,460.6501 L 341.5847,462.6697 L 339.5651,464.6893 z" />
  </g><g
     id="g750"
     style="fill:none;stroke:#ffff00;stroke-width:1.83599997;stroke-linecap:butt;stroke-linejoin:miter;stroke-dasharray:none"
     transform="matrix(1.8649113,0,0,-1.8649113,-155.73403,874.77146)">
   <path
   id="path752"
   d="M 339.5651,464.6893 L 337.5455,462.6697 L 339.5651,460.6501 L 341.5847,462.6697 L 339.5651,464.6893 z" />
  </g><g
     id="g754"
     style="fill:#ffff00;fill-rule:nonzero"
     transform="matrix(1.8649113,0,0,-1.8649113,-155.73403,874.77146)">
   <path
   id="path756"
   d="M 332.6873,458.9103 L 330.6677,456.8907 L 332.6873,454.8711 L 334.7069,456.8907 L 332.6873,458.9103 z" />
  </g><g
     id="g758"
     style="fill:none;stroke:#ffff00;stroke-width:1.83599997;stroke-linecap:butt;stroke-linejoin:miter;stroke-dasharray:none"
     transform="matrix(1.8649113,0,0,-1.8649113,-155.73403,874.77146)">
   <path
   id="path760"
   d="M 332.6873,458.9103 L 330.6677,456.8907 L 332.6873,454.8711 L 334.7069,456.8907 L 332.6873,458.9103 z" />
  </g><g
     id="g762"
     style="fill:#ffff00;fill-rule:nonzero"
     transform="matrix(1.8649113,0,0,-1.8649113,-155.73403,874.77146)">
   <path
   id="path764"
   d="M 327.0246,451.9481 L 325.005,449.9285 L 327.0246,447.9089 L 329.0442,449.9285 L 327.0246,451.9481 z" />
  </g><g
     id="g766"
     style="fill:none;stroke:#ffff00;stroke-width:1.83599997;stroke-linecap:butt;stroke-linejoin:miter;stroke-dasharray:none"
     transform="matrix(1.8649113,0,0,-1.8649113,-155.73403,874.77146)">
   <path
   id="path768"
   d="M 327.0246,451.9481 L 325.005,449.9285 L 327.0246,447.9089 L 329.0442,449.9285 L 327.0246,451.9481 z" />
  </g><g
     id="g770"
     style="fill:#ffff00;fill-rule:nonzero"
     transform="matrix(1.8649113,0,0,-1.8649113,-155.73403,874.77146)">
   <path
   id="path772"
   d="M 322.244,445.7888 L 320.2244,443.7692 L 322.244,441.7496 L 324.2636,443.7692 L 322.244,445.7888 z" />
  </g><g
     id="g774"
     style="fill:none;stroke:#ffff00;stroke-width:1.83599997;stroke-linecap:butt;stroke-linejoin:miter;stroke-dasharray:none"
     transform="matrix(1.8649113,0,0,-1.8649113,-155.73403,874.77146)">
   <path
   id="path776"
   d="M 322.244,445.7888 L 320.2244,443.7692 L 322.244,441.7496 L 324.2636,443.7692 L 322.244,445.7888 z" />
  </g><g
     id="g778"
     style="fill:#ffff00;fill-rule:nonzero"
     transform="matrix(1.8649113,0,0,-1.8649113,-155.73403,874.77146)">
   <path
   id="path780"
   d="M 318.0286,439.2385 L 316.009,437.2189 L 318.0286,435.1993 L 320.0482,437.2189 L 318.0286,439.2385 z" />
  </g><g
     id="g782"
     style="fill:none;stroke:#ffff00;stroke-width:1.83599997;stroke-linecap:butt;stroke-linejoin:miter;stroke-dasharray:none"
     transform="matrix(1.8649113,0,0,-1.8649113,-155.73403,874.77146)">
   <path
   id="path784"
   d="M 318.0286,439.2385 L 316.009,437.2189 L 318.0286,435.1993 L 320.0482,437.2189 L 318.0286,439.2385 z" />
  </g><g
     id="g786"
     style="fill:#ffff00;fill-rule:nonzero"
     transform="matrix(1.8649113,0,0,-1.8649113,-155.73403,874.77146)">
   <path
   id="path788"
   d="M 314.1565,432.4823 L 312.1369,430.4627 L 314.1565,428.4431 L 316.1761,430.4627 L 314.1565,432.4823 z" />
  </g><g
     id="g790"
     style="fill:none;stroke:#ffff00;stroke-width:1.83599997;stroke-linecap:butt;stroke-linejoin:miter;stroke-dasharray:none"
     transform="matrix(1.8649113,0,0,-1.8649113,-155.73403,874.77146)">
   <path
   id="path792"
   d="M 314.1565,432.4823 L 312.1369,430.4627 L 314.1565,428.4431 L 316.1761,430.4627 L 314.1565,432.4823 z" />
  </g><g
     id="g794"
     style="fill:#ffff00;fill-rule:nonzero"
     transform="matrix(1.8649113,0,0,-1.8649113,-155.73403,874.77146)">
   <path
   id="path796"
   d="M 310.0573,424.5797 L 308.0377,422.5601 L 310.0573,420.5405 L 312.0769,422.5601 L 310.0573,424.5797 z" />
  </g><g
     id="g798"
     style="fill:none;stroke:#ffff00;stroke-width:1.83599997;stroke-linecap:butt;stroke-linejoin:miter;stroke-dasharray:none"
     transform="matrix(1.8649113,0,0,-1.8649113,-155.73403,874.77146)">
   <path
   id="path800"
   d="M 310.0573,424.5797 L 308.0377,422.5601 L 310.0573,420.5405 L 312.0769,422.5601 L 310.0573,424.5797 z" />
  </g><g
     id="g802"
     style="fill:#ffff00;fill-rule:nonzero"
     transform="matrix(1.8649113,0,0,-1.8649113,-155.73403,874.77146)">
   <path
   id="path804"
   d="M 305.6676,416.5663 L 303.648,414.5467 L 305.6676,412.5271 L 307.6872,414.5467 L 305.6676,416.5663 z" />
  </g><g
     id="g806"
     style="fill:none;stroke:#ffff00;stroke-width:1.83599997;stroke-linecap:butt;stroke-linejoin:miter;stroke-dasharray:none"
     transform="matrix(1.8649113,0,0,-1.8649113,-155.73403,874.77146)">
   <path
   id="path808"
   d="M 305.6676,416.5663 L 303.648,414.5467 L 305.6676,412.5271 L 307.6872,414.5467 L 305.6676,416.5663 z" />
  </g><g
     id="g810"
     style="fill:#ffff00;fill-rule:nonzero"
     transform="matrix(1.8649113,0,0,-1.8649113,-155.73403,874.77146)">
   <path
   id="path812"
   d="M 300.7972,408.1883 L 298.7776,406.1687 L 300.7972,404.1491 L 302.8168,406.1687 L 300.7972,408.1883 z" />
  </g><g
     id="g814"
     style="fill:none;stroke:#ffff00;stroke-width:1.83599997;stroke-linecap:butt;stroke-linejoin:miter;stroke-dasharray:none"
     transform="matrix(1.8649113,0,0,-1.8649113,-155.73403,874.77146)">
   <path
   id="path816"
   d="M 300.7972,408.1883 L 298.7776,406.1687 L 300.7972,404.1491 L 302.8168,406.1687 L 300.7972,408.1883 z" />
  </g><g
     id="g818"
     style="fill:#ffff00;fill-rule:nonzero"
     transform="matrix(1.8649113,0,0,-1.8649113,-155.73403,874.77146)">
   <path
   id="path820"
   d="M 295.7789,399.9371 L 293.7593,397.9175 L 295.7789,395.8979 L 297.7985,397.9175 L 295.7789,399.9371 z" />
  </g><g
     id="g822"
     style="fill:none;stroke:#ffff00;stroke-width:1.83599997;stroke-linecap:butt;stroke-linejoin:miter;stroke-dasharray:none"
     transform="matrix(1.8649113,0,0,-1.8649113,-155.73403,874.77146)">
   <path
   id="path824"
   d="M 295.7789,399.9371 L 293.7593,397.9175 L 295.7789,395.8979 L 297.7985,397.9175 L 295.7789,399.9371 z" />
  </g><g
     id="g826"
     style="fill:#ffff00;fill-rule:nonzero"
     transform="matrix(1.8649113,0,0,-1.8649113,-155.73403,874.77146)">
   <path
   id="path828"
   d="M 290.5862,391.781 L 288.5666,389.7614 L 290.5862,387.7418 L 292.6058,389.7614 L 290.5862,391.781 z" />
  </g><g
     id="g830"
     style="fill:none;stroke:#ffff00;stroke-width:1.83599997;stroke-linecap:butt;stroke-linejoin:miter;stroke-dasharray:none"
     transform="matrix(1.8649113,0,0,-1.8649113,-155.73403,874.77146)">
   <path
   id="path832"
   d="M 290.5862,391.781 L 288.5666,389.7614 L 290.5862,387.7418 L 292.6058,389.7614 L 290.5862,391.781 z" />
  </g><g
     id="g834"
     style="fill:#ffff00;fill-rule:nonzero"
     transform="matrix(1.8649113,0,0,-1.8649113,-155.73403,874.77146)">
   <path
   id="path836"
   d="M 285.1665,383.7675 L 283.1469,381.7479 L 285.1665,379.7283 L 287.1861,381.7479 L 285.1665,383.7675 z" />
  </g><g
     id="g838"
     style="fill:none;stroke:#ffff00;stroke-width:1.83599997;stroke-linecap:butt;stroke-linejoin:miter;stroke-dasharray:none"
     transform="matrix(1.8649113,0,0,-1.8649113,-155.73403,874.77146)">
   <path
   id="path840"
   d="M 285.1665,383.7675 L 283.1469,381.7479 L 285.1665,379.7283 L 287.1861,381.7479 L 285.1665,383.7675 z" />
  </g><g
     id="g842"
     style="fill:#ffff00;fill-rule:nonzero"
     transform="matrix(1.8649113,0,0,-1.8649113,-155.73403,874.77146)">
   <path
   id="path844"
   d="M 279.4297,376.034 L 277.4101,374.0144 L 279.4297,371.9948 L 281.4493,374.0144 L 279.4297,376.034 z" />
  </g><g
     id="g846"
     style="fill:none;stroke:#ffff00;stroke-width:1.83599997;stroke-linecap:butt;stroke-linejoin:miter;stroke-dasharray:none"
     transform="matrix(1.8649113,0,0,-1.8649113,-155.73403,874.77146)">
   <path
   id="path848"
   d="M 279.4297,376.034 L 277.4101,374.0144 L 279.4297,371.9948 L 281.4493,374.0144 L 279.4297,376.034 z" />
  </g><g
     id="g850"
     style="fill:#ffff00;fill-rule:nonzero"
     transform="matrix(1.8649113,0,0,-1.8649113,-155.73403,874.77146)">
   <path
   id="path852"
   d="M 273.3391,368.5752 L 271.3195,366.5556 L 273.3391,364.536 L 275.3587,366.5556 L 273.3391,368.5752 z" />
  </g><g
     id="g854"
     style="fill:none;stroke:#ffff00;stroke-width:1.83599997;stroke-linecap:butt;stroke-linejoin:miter;stroke-dasharray:none"
     transform="matrix(1.8649113,0,0,-1.8649113,-155.73403,874.77146)">
   <path
   id="path856"
   d="M 273.3391,368.5752 L 271.3195,366.5556 L 273.3391,364.536 L 275.3587,366.5556 L 273.3391,368.5752 z" />
  </g><g
     id="g858"
     style="fill:#ffff00;fill-rule:nonzero"
     transform="matrix(1.8649113,0,0,-1.8649113,-155.73403,874.77146)">
   <path
   id="path860"
   d="M 268.0302,362.1042 L 266.0106,360.0846 L 268.0302,358.065 L 270.0498,360.0846 L 268.0302,362.1042 z" />
  </g><g
     id="g862"
     style="fill:none;stroke:#ffff00;stroke-width:1.83599997;stroke-linecap:butt;stroke-linejoin:miter;stroke-dasharray:none"
     transform="matrix(1.8649113,0,0,-1.8649113,-155.73403,874.77146)">
   <path
   id="path864"
   d="M 268.0302,362.1042 L 266.0106,360.0846 L 268.0302,358.065 L 270.0498,360.0846 L 268.0302,362.1042 z" />
  </g><g
     id="g866"
     style="fill:#ffff00;fill-rule:nonzero"
     transform="matrix(1.8649113,0,0,-1.8649113,-155.73403,874.77146)">
   <path
   id="path868"
   d="M 263.35,355.1684 L 261.3304,353.1488 L 263.35,351.1292 L 265.3696,353.1488 L 263.35,355.1684 z" />
  </g><g
     id="g870"
     style="fill:none;stroke:#ffff00;stroke-width:1.83599997;stroke-linecap:butt;stroke-linejoin:miter;stroke-dasharray:none"
     transform="matrix(1.8649113,0,0,-1.8649113,-155.73403,874.77146)">
   <path
   id="path872"
   d="M 263.35,355.1684 L 261.3304,353.1488 L 263.35,351.1292 L 265.3696,353.1488 L 263.35,355.1684 z" />
  </g><g
     id="g874"
     style="fill:#ffff00;fill-rule:nonzero"
     transform="matrix(1.8649113,0,0,-1.8649113,-155.73403,874.77146)">
   <path
   id="path876"
   d="M 259.3934,347.7888 L 257.3738,345.7692 L 259.3934,343.7496 L 261.413,345.7692 L 259.3934,347.7888 z" />
  </g><g
     id="g878"
     style="fill:none;stroke:#ffff00;stroke-width:1.83599997;stroke-linecap:butt;stroke-linejoin:miter;stroke-dasharray:none"
     transform="matrix(1.8649113,0,0,-1.8649113,-155.73403,874.77146)">
   <path
   id="path880"
   d="M 259.3934,347.7888 L 257.3738,345.7692 L 259.3934,343.7496 L 261.413,345.7692 L 259.3934,347.7888 z" />
  </g><g
     id="g882"
     style="fill:#ffff00;fill-rule:nonzero"
     transform="matrix(1.8649113,0,0,-1.8649113,-155.73403,874.77146)">
   <path
   id="path884"
   d="M 254.317,341.1276 L 252.2974,339.108 L 254.317,337.0884 L 256.3366,339.108 L 254.317,341.1276 z" />
  </g><g
     id="g886"
     style="fill:none;stroke:#ffff00;stroke-width:1.83599997;stroke-linecap:butt;stroke-linejoin:miter;stroke-dasharray:none"
     transform="matrix(1.8649113,0,0,-1.8649113,-155.73403,874.77146)">
   <path
   id="path888"
   d="M 254.317,341.1276 L 252.2974,339.108 L 254.317,337.0884 L 256.3366,339.108 L 254.317,341.1276 z" />
  </g><g
     id="g890"
     style="fill:#ffff00;fill-rule:nonzero"
     transform="matrix(1.8649113,0,0,-1.8649113,-155.73403,874.77146)">
   <path
   id="path892"
   d="M 248.8655,334.7676 L 246.8459,332.748 L 248.8655,330.7284 L 250.8851,332.748 L 248.8655,334.7676 z" />
  </g><g
     id="g894"
     style="fill:none;stroke:#ffff00;stroke-width:1.83599997;stroke-linecap:butt;stroke-linejoin:miter;stroke-dasharray:none"
     transform="matrix(1.8649113,0,0,-1.8649113,-155.73403,874.77146)">
   <path
   id="path896"
   d="M 248.8655,334.7676 L 246.8459,332.748 L 248.8655,330.7284 L 250.8851,332.748 L 248.8655,334.7676 z" />
  </g><g
     id="g898"
     style="fill:#ffff00;fill-rule:nonzero"
     transform="matrix(1.8649113,0,0,-1.8649113,-155.73403,874.77146)">
   <path
   id="path900"
   d="M 242.0247,327.668 L 240.0051,325.6484 L 242.0247,323.6288 L 244.0443,325.6484 L 242.0247,327.668 z" />
  </g><g
     id="g902"
     style="fill:none;stroke:#ffff00;stroke-width:1.83599997;stroke-linecap:butt;stroke-linejoin:miter;stroke-dasharray:none"
     transform="matrix(1.8649113,0,0,-1.8649113,-155.73403,874.77146)">
   <path
   id="path904"
   d="M 242.0247,327.668 L 240.0051,325.6484 L 242.0247,323.6288 L 244.0443,325.6484 L 242.0247,327.668 z" />
  </g><g
     id="g906"
     style="fill:#ffff00;fill-rule:nonzero"
     transform="matrix(1.8649113,0,0,-1.8649113,-155.73403,874.77146)">
   <path
   id="path908"
   d="M 234.7825,320.9857 L 232.7629,318.9661 L 234.7825,316.9465 L 236.8021,318.9661 L 234.7825,320.9857 z" />
  </g><g
     id="g910"
     style="fill:none;stroke:#ffff00;stroke-width:1.83599997;stroke-linecap:butt;stroke-linejoin:miter;stroke-dasharray:none"
     transform="matrix(1.8649113,0,0,-1.8649113,-155.73403,874.77146)">
   <path
   id="path912"
   d="M 234.7825,320.9857 L 232.7629,318.9661 L 234.7825,316.9465 L 236.8021,318.9661 L 234.7825,320.9857 z" />
  </g><g
     id="g914"
     style="fill:#ffff00;fill-rule:nonzero"
     transform="matrix(1.8649113,0,0,-1.8649113,-155.73403,874.77146)">
   <path
   id="path916"
   d="M 228.2639,315.4549 L 226.2443,313.4353 L 228.2639,311.4157 L 230.2835,313.4353 L 228.2639,315.4549 z" />
  </g><g
     id="g918"
     style="fill:none;stroke:#ffff00;stroke-width:1.83599997;stroke-linecap:butt;stroke-linejoin:miter;stroke-dasharray:none"
     transform="matrix(1.8649113,0,0,-1.8649113,-155.73403,874.77146)">
   <path
   id="path920"
   d="M 228.2639,315.4549 L 226.2443,313.4353 L 228.2639,311.4157 L 230.2835,313.4353 L 228.2639,315.4549 z" />
  </g><g
     id="g922"
     style="fill:#ffff00;fill-rule:nonzero"
     transform="matrix(1.8649113,0,0,-1.8649113,-155.73403,874.77146)">
   <path
   id="path924"
   d="M 221.5024,310.22 L 219.4828,308.2004 L 221.5024,306.1808 L 223.522,308.2004 L 221.5024,310.22 z" />
  </g><g
     id="g926"
     style="fill:none;stroke:#ffff00;stroke-width:1.83599997;stroke-linecap:butt;stroke-linejoin:miter;stroke-dasharray:none"
     transform="matrix(1.8649113,0,0,-1.8649113,-155.73403,874.77146)">
   <path
   id="path928"
   d="M 221.5024,310.22 L 219.4828,308.2004 L 221.5024,306.1808 L 223.522,308.2004 L 221.5024,310.22 z" />
  </g><g
     id="g930"
     style="fill:#ffff00;fill-rule:nonzero"
     transform="matrix(1.8649113,0,0,-1.8649113,-155.73403,874.77146)">
   <path
   id="path932"
   d="M 214.4662,305.6349 L 212.4466,303.6153 L 214.4662,301.5957 L 216.4858,303.6153 L 214.4662,305.6349 z" />
  </g><g
     id="g934"
     style="fill:none;stroke:#ffff00;stroke-width:1.83599997;stroke-linecap:butt;stroke-linejoin:miter;stroke-dasharray:none"
     transform="matrix(1.8649113,0,0,-1.8649113,-155.73403,874.77146)">
   <path
   id="path936"
   d="M 214.4662,305.6349 L 212.4466,303.6153 L 214.4662,301.5957 L 216.4858,303.6153 L 214.4662,305.6349 z" />
  </g><g
     id="g938"
     style="fill:#ffff00;fill-rule:nonzero"
     transform="matrix(1.8649113,0,0,-1.8649113,-155.73403,874.77146)">
   <path
   id="path940"
   d="M 209.2102,300.8384 L 207.1906,298.8188 L 209.2102,296.7992 L 211.2298,298.8188 L 209.2102,300.8384 z" />
  </g><g
     id="g942"
     style="fill:none;stroke:#ffff00;stroke-width:1.83599997;stroke-linecap:butt;stroke-linejoin:miter;stroke-dasharray:none"
     transform="matrix(1.8649113,0,0,-1.8649113,-155.73403,874.77146)">
   <path
   id="path944"
   d="M 209.2102,300.8384 L 207.1906,298.8188 L 209.2102,296.7992 L 211.2298,298.8188 L 209.2102,300.8384 z" />
  </g><g
     id="g946"
     style="fill:#ffff00;fill-rule:nonzero"
     transform="matrix(1.8649113,0,0,-1.8649113,-155.73403,874.77146)">
   <path
   id="path948"
   d="M 203.4629,293.4113 L 201.4433,291.3917 L 203.4629,289.3721 L 205.4825,291.3917 L 203.4629,293.4113 z" />
  </g><g
     id="g950"
     style="fill:none;stroke:#ffff00;stroke-width:1.83599997;stroke-linecap:butt;stroke-linejoin:miter;stroke-dasharray:none"
     transform="matrix(1.8649113,0,0,-1.8649113,-155.73403,874.77146)">
   <path
   id="path952"
   d="M 203.4629,293.4113 L 201.4433,291.3917 L 203.4629,289.3721 L 205.4825,291.3917 L 203.4629,293.4113 z" />
  </g><g
     id="g954"
     style="fill:#ffff00;fill-rule:nonzero"
     transform="matrix(1.8649113,0,0,-1.8649113,-155.73403,874.77146)">
   <path
   id="path956"
   d="M 198.1698,285.625 L 196.1502,283.6054 L 198.1698,281.5858 L 200.1894,283.6054 L 198.1698,285.625 z" />
  </g><g
     id="g958"
     style="fill:none;stroke:#ffff00;stroke-width:1.83599997;stroke-linecap:butt;stroke-linejoin:miter;stroke-dasharray:none"
     transform="matrix(1.8649113,0,0,-1.8649113,-155.73403,874.77146)">
   <path
   id="path960"
   d="M 198.1698,285.625 L 196.1502,283.6054 L 198.1698,281.5858 L 200.1894,283.6054 L 198.1698,285.625 z" />
  </g><g
     id="g962"
     style="fill:#ffff00;fill-rule:nonzero"
     transform="matrix(1.8649113,0,0,-1.8649113,-155.73403,874.77146)">
   <path
   id="path964"
   d="M 192.8557,277.8756 L 190.8361,275.856 L 192.8557,273.8364 L 194.8753,275.856 L 192.8557,277.8756 z" />
  </g><g
     id="g966"
     style="fill:none;stroke:#ffff00;stroke-width:1.83599997;stroke-linecap:butt;stroke-linejoin:miter;stroke-dasharray:none"
     transform="matrix(1.8649113,0,0,-1.8649113,-155.73403,874.77146)">
   <path
   id="path968"
   d="M 192.8557,277.8756 L 190.8361,275.856 L 192.8557,273.8364 L 194.8753,275.856 L 192.8557,277.8756 z" />
  </g><g
     id="g970"
     style="fill:#ffff00;fill-rule:nonzero"
     transform="matrix(1.8649113,0,0,-1.8649113,-155.73403,874.77146)">
   <path
   id="path972"
   d="M 186.8865,270.6175 L 184.8669,268.5979 L 186.8865,266.5783 L 188.9061,268.5979 L 186.8865,270.6175 z" />
  </g><g
     id="g974"
     style="fill:none;stroke:#ffff00;stroke-width:1.83599997;stroke-linecap:butt;stroke-linejoin:miter;stroke-dasharray:none"
     transform="matrix(1.8649113,0,0,-1.8649113,-155.73403,874.77146)">
   <path
   id="path976"
   d="M 186.8865,270.6175 L 184.8669,268.5979 L 186.8865,266.5783 L 188.9061,268.5979 L 186.8865,270.6175 z" />
  </g><g
     id="g978"
     style="fill:#ffff00;fill-rule:nonzero"
     transform="matrix(1.8649113,0,0,-1.8649113,-155.73403,874.77146)">
   <path
   id="path980"
   d="M 180.4208,264.622 L 178.4012,262.6024 L 180.4208,260.5828 L 182.4404,262.6024 L 180.4208,264.622 z" />
  </g><g
     id="g982"
     style="fill:none;stroke:#ffff00;stroke-width:1.83599997;stroke-linecap:butt;stroke-linejoin:miter;stroke-dasharray:none"
     transform="matrix(1.8649113,0,0,-1.8649113,-155.73403,874.77146)">
   <path
   id="path984"
   d="M 180.4208,264.622 L 178.4012,262.6024 L 180.4208,260.5828 L 182.4404,262.6024 L 180.4208,264.622 z" />
  </g><g
     id="g986"
     style="fill:#ffff00;fill-rule:nonzero"
     transform="matrix(1.8649113,0,0,-1.8649113,-155.73403,874.77146)">
   <path
   id="path988"
   d="M 173.5748,259.0754 L 171.5552,257.0558 L 173.5748,255.0362 L 175.5944,257.0558 L 173.5748,259.0754 z" />
  </g><g
     id="g990"
     style="fill:none;stroke:#ffff00;stroke-width:1.83599997;stroke-linecap:butt;stroke-linejoin:miter;stroke-dasharray:none"
     transform="matrix(1.8649113,0,0,-1.8649113,-155.73403,874.77146)">
   <path
   id="path992"
   d="M 173.5748,259.0754 L 171.5552,257.0558 L 173.5748,255.0362 L 175.5944,257.0558 L 173.5748,259.0754 z" />
  </g><g
     id="g994"
     style="fill:#ffff00;fill-rule:nonzero"
     transform="matrix(1.8649113,0,0,-1.8649113,-155.73403,874.77146)">
   <path
   id="path996"
   d="M 169.2115,252.8632 L 167.1919,250.8436 L 169.2115,248.824 L 171.2311,250.8436 L 169.2115,252.8632 z" />
  </g><g
     id="g998"
     style="fill:none;stroke:#ffff00;stroke-width:1.83599997;stroke-linecap:butt;stroke-linejoin:miter;stroke-dasharray:none"
     transform="matrix(1.8649113,0,0,-1.8649113,-155.73403,874.77146)">
   <path
   id="path1000"
   d="M 169.2115,252.8632 L 167.1919,250.8436 L 169.2115,248.824 L 171.2311,250.8436 L 169.2115,252.8632 z" />
  </g><g
     id="g1002"
     style="fill:#ffff00;fill-rule:nonzero"
     transform="matrix(1.8649113,0,0,-1.8649113,-155.73403,874.77146)">
   <path
   id="path1004"
   d="M 167.4683,244.3585 L 165.4487,242.3389 L 167.4683,240.3193 L 169.4879,242.3389 L 167.4683,244.3585 z" />
  </g><g
     id="g1006"
     style="fill:none;stroke:#ffff00;stroke-width:1.83599997;stroke-linecap:butt;stroke-linejoin:miter;stroke-dasharray:none"
     transform="matrix(1.8649113,0,0,-1.8649113,-155.73403,874.77146)">
   <path
   id="path1008"
   d="M 167.4683,244.3585 L 165.4487,242.3389 L 167.4683,240.3193 L 169.4879,242.3389 L 167.4683,244.3585 z" />
  </g><g
     id="g1010"
     style="fill:#ffff00;fill-rule:nonzero"
     transform="matrix(1.8649113,0,0,-1.8649113,-155.73403,874.77146)">
   <path
   id="path1012"
   d="M 167.1355,235.6847 L 165.1159,233.6651 L 167.1355,231.6455 L 169.1551,233.6651 L 167.1355,235.6847 z" />
  </g><g
     id="g1014"
     style="fill:none;stroke:#ffff00;stroke-width:1.83599997;stroke-linecap:butt;stroke-linejoin:miter;stroke-dasharray:none"
     transform="matrix(1.8649113,0,0,-1.8649113,-155.73403,874.77146)">
   <path
   id="path1016"
   d="M 167.1355,235.6847 L 165.1159,233.6651 L 167.1355,231.6455 L 169.1551,233.6651 L 167.1355,235.6847 z" />
  </g><g
     id="g1018"
     style="fill:#ffff00;fill-rule:nonzero"
     transform="matrix(1.8649113,0,0,-1.8649113,-155.73403,874.77146)">
   <path
   id="path1020"
   d="M 169.0002,227.2169 L 166.9806,225.1973 L 169.0002,223.1777 L 171.0198,225.1973 L 169.0002,227.2169 z" />
  </g><g
     id="g1022"
     style="fill:none;stroke:#ffff00;stroke-width:1.83599997;stroke-linecap:butt;stroke-linejoin:miter;stroke-dasharray:none"
     transform="matrix(1.8649113,0,0,-1.8649113,-155.73403,874.77146)">
   <path
   id="path1024"
   d="M 169.0002,227.2169 L 166.9806,225.1973 L 169.0002,223.1777 L 171.0198,225.1973 L 169.0002,227.2169 z" />
  </g><g
     id="g1026"
     style="fill:#ffff00;fill-rule:nonzero"
     transform="matrix(1.8649113,0,0,-1.8649113,-155.73403,874.77146)">
   <path
   id="path1028"
   d="M 175.767,219.3461 L 173.7474,217.3265 L 175.767,215.3069 L 177.7866,217.3265 L 175.767,219.3461 z" />
  </g><g
     id="g1030"
     style="fill:none;stroke:#ffff00;stroke-width:1.83599997;stroke-linecap:butt;stroke-linejoin:miter;stroke-dasharray:none"
     transform="matrix(1.8649113,0,0,-1.8649113,-155.73403,874.77146)">
   <path
   id="path1032"
   d="M 175.767,219.3461 L 173.7474,217.3265 L 175.767,215.3069 L 177.7866,217.3265 L 175.767,219.3461 z" />
  </g><text
     xml:space="preserve"
     style="font-size:10px;font-style:normal;font-weight:normal;fill:#000000;fill-opacity:1;stroke:none;stroke-width:1px;stroke-linecap:butt;stroke-linejoin:miter;stroke-opacity:1;display:inline;font-family:Bitstream Vera Sans"
     x="46.072021"
     y="-46.853188"
     id="text2893"><tspan
       sodipodi:role="line"
       id="tspan2895"
       x="46.072021"
       y="-46.853188"
       style="font-size:20px;fill:#ff0000">Original</tspan></text>
<text
     xml:space="preserve"
     style="font-size:10px;font-style:normal;font-weight:normal;fill:#000000;fill-opacity:1;stroke:none;stroke-width:1px;stroke-linecap:butt;stroke-linejoin:miter;stroke-opacity:1;display:inline;font-family:Bitstream Vera Sans"
     x="47.534626"
     y="-11.019391"
     id="text2897"><tspan
       sodipodi:role="line"
       id="tspan2899"
       x="47.534626"
       y="-11.019391"
       style="font-size:20px;fill:#ffff00">Filtered</tspan></text>
<path
     style="fill:none;fill-rule:evenodd;stroke:#000000;stroke-width:18.75078392;stroke-linecap:butt;stroke-linejoin:miter;stroke-miterlimit:4;stroke-dasharray:none;stroke-opacity:1;display:inline"
     d="M 506.00549,637.1335 C 510.13797,637.1335 760.15381,637.1335 760.15381,637.1335"
     id="path2901" /></g></svg>