<?xml version="1.0" encoding="ISO-8859-1"?>
<!DOCTYPE svg PUBLIC "-//W3C//DTD SVG 1.0//EN" "http://www.w3.org/TR/2001/REC-SVG-20010904/DTD/svg10.dtd">
<!-- generated by Grace-5.1.22 -->
<svg xml:space="preserve" width="11.0000in" height="8.5000in" viewBox="0.0000 0.0000 792.0000 612.0000">
 <g transform="translate(0,612.0000) scale(1,-1)">
  <g style="fill:#DCDCDC; fill-rule:nonzero">
   <path  d="M0.0000,0.0000L0.0000,612.0000L792.0000,612.0000L792.0000,0.0000z"/>
  </g>
  <g style="fill:#FFFF00; fill-rule:nonzero">
   <path  d="M138.6058,218.3004L136.5862,216.2808L138.6058,214.2612L140.6254,216.2808z"/>
  </g>
  <g style="fill:none; stroke:#FFFF00; stroke-width:  0.9180; stroke-linecap:butt; stroke-linejoin:miter; stroke-dasharray:none">
   <path d="M138.6058,218.3004L136.5862,216.2808L138.6058,214.2612L140.6254,216.2808z"/>
  </g>
  <g style="fill:#FFFF00; fill-rule:nonzero">
   <path  d="M146.3659,211.4827L144.3463,209.4631L146.3659,207.4435L148.3855,209.4631z"/>
  </g>
  <g style="fill:none; stroke:#FFFF00; stroke-width:  0.9180; stroke-linecap:butt; stroke-linejoin:miter; stroke-dasharray:none">
   <path d="M146.3659,211.4827L144.3463,209.4631L146.3659,207.4435L148.3855,209.4631z"/>
  </g>
  <g style="fill:#FFFF00; fill-rule:nonzero">
   <path  d="M154.2118,204.7874L152.1922,202.7678L154.2118,200.7482L156.2314,202.7678z"/>
  </g>
  <g style="fill:none; stroke:#FFFF00; stroke-width:  0.9180; stroke-linecap:butt; stroke-linejoin:miter; stroke-dasharray:none">
   <path d="M154.2118,204.7874L152.1922,202.7678L154.2118,200.7482L156.2314,202.7678z"/>
  </g>
  <g style="fill:#FFFF00; fill-rule:nonzero">
   <path  d="M162.2534,198.3308L160.2338,196.3112L162.2534,194.2916L164.2730,196.3112z"/>
  </g>
  <g style="fill:none; stroke:#FFFF00; stroke-width:  0.9180; stroke-linecap:butt; stroke-linejoin:miter; stroke-dasharray:none">
   <path d="M162.2534,198.3308L160.2338,196.3112L162.2534,194.2916L164.2730,196.3112z"/>
  </g>
  <g style="fill:#FFFF00; fill-rule:nonzero">
   <path  d="M169.1813,190.7176L167.1617,188.6980L169.1813,186.6784L171.2009,188.6980z"/>
  </g>
  <g style="fill:none; stroke:#FFFF00; stroke-width:  0.9180; stroke-linecap:butt; stroke-linejoin:miter; stroke-dasharray:none">
   <path d="M169.1813,190.7176L167.1617,188.6980L169.1813,186.6784L171.2009,188.6980z"/>
  </g>
  <g style="fill:#FFFF00; fill-rule:nonzero">
   <path  d="M175.7909,182.8534L173.7713,180.8338L175.7909,178.8142L177.8105,180.8338z"/>
  </g>
  <g style="fill:none; stroke:#FFFF00; stroke-width:  0.9180; stroke-linecap:butt; stroke-linejoin:miter; stroke-dasharray:none">
   <path d="M175.7909,182.8534L173.7713,180.8338L175.7909,178.8142L177.8105,180.8338z"/>
  </g>
  <g style="fill:#FFFF00; fill-rule:nonzero">
   <path  d="M182.5412,175.0810L180.5216,173.0614L182.5412,171.0418L184.5608,173.0614z"/>
  </g>
  <g style="fill:none; stroke:#FFFF00; stroke-width:  0.9180; stroke-linecap:butt; stroke-linejoin:miter; stroke-dasharray:none">
   <path d="M182.5412,175.0810L180.5216,173.0614L182.5412,171.0418L184.5608,173.0614z"/>
  </g>
  <g style="fill:#FFFF00; fill-rule:nonzero">
   <path  d="M186.7273,165.7112L184.7077,163.6916L186.7273,161.6720L188.7469,163.6916z"/>
  </g>
  <g style="fill:none; stroke:#FFFF00; stroke-width:  0.9180; stroke-linecap:butt; stroke-linejoin:miter; stroke-dasharray:none">
   <path d="M186.7273,165.7112L184.7077,163.6916L186.7273,161.6720L188.7469,163.6916z"/>
  </g>
  <g style="fill:#FFFF00; fill-rule:nonzero">
   <path  d="M189.4140,155.8091L187.3944,153.7895L189.4140,151.7699L191.4336,153.7895z"/>
  </g>
  <g style="fill:none; stroke:#FFFF00; stroke-width:  0.9180; stroke-linecap:butt; stroke-linejoin:miter; stroke-dasharray:none">
   <path d="M189.4140,155.8091L187.3944,153.7895L189.4140,151.7699L191.4336,153.7895z"/>
  </g>
  <g style="fill:#FFFF00; fill-rule:nonzero">
   <path  d="M191.0419,145.6988L189.0223,143.6792L191.0419,141.6596L193.0615,143.6792z"/>
  </g>
  <g style="fill:none; stroke:#FFFF00; stroke-width:  0.9180; stroke-linecap:butt; stroke-linejoin:miter; stroke-dasharray:none">
   <path d="M191.0419,145.6988L189.0223,143.6792L191.0419,141.6596L193.0615,143.6792z"/>
  </g>
  <g style="fill:#FFFF00; fill-rule:nonzero">
   <path  d="M192.8963,135.6437L190.8767,133.6241L192.8963,131.6045L194.9159,133.6241z"/>
  </g>
  <g style="fill:none; stroke:#FFFF00; stroke-width:  0.9180; stroke-linecap:butt; stroke-linejoin:miter; stroke-dasharray:none">
   <path d="M192.8963,135.6437L190.8767,133.6241L192.8963,131.6045L194.9159,133.6241z"/>
  </g>
  <g style="fill:#FFFF00; fill-rule:nonzero">
   <path  d="M195.0811,125.6681L193.0615,123.6485L195.0811,121.6289L197.1007,123.6485z"/>
  </g>
  <g style="fill:none; stroke:#FFFF00; stroke-width:  0.9180; stroke-linecap:butt; stroke-linejoin:miter; stroke-dasharray:none">
   <path d="M195.0811,125.6681L193.0615,123.6485L195.0811,121.6289L197.1007,123.6485z"/>
  </g>
  <g style="fill:#FFFF00; fill-rule:nonzero">
   <path  d="M197.1497,115.6802L195.1301,113.6606L197.1497,111.6410L199.1693,113.6606z"/>
  </g>
  <g style="fill:none; stroke:#FFFF00; stroke-width:  0.9180; stroke-linecap:butt; stroke-linejoin:miter; stroke-dasharray:none">
   <path d="M197.1497,115.6802L195.1301,113.6606L197.1497,111.6410L199.1693,113.6606z"/>
  </g>
  <g style="fill:#FFFF00; fill-rule:nonzero">
   <path  d="M200.2648,105.9800L198.2452,103.9604L200.2648,101.9408L202.2844,103.9604z"/>
  </g>
  <g style="fill:none; stroke:#FFFF00; stroke-width:  0.9180; stroke-linecap:butt; stroke-linejoin:miter; stroke-dasharray:none">
   <path d="M200.2648,105.9800L198.2452,103.9604L200.2648,101.9408L202.2844,103.9604z"/>
  </g>
  <g style="fill:#FFFF00; fill-rule:nonzero">
   <path  d="M207.6577,98.9726L205.6381,96.9530L207.6577,94.9334L209.6773,96.9530z"/>
  </g>
  <g style="fill:none; stroke:#FFFF00; stroke-width:  0.9180; stroke-linecap:butt; stroke-linejoin:miter; stroke-dasharray:none">
   <path d="M207.6577,98.9726L205.6381,96.9530L207.6577,94.9334L209.6773,96.9530z"/>
  </g>
  <g style="fill:#FFFF00; fill-rule:nonzero">
   <path  d="M217.8353,98.3362L215.8157,96.3166L217.8353,94.2970L219.8549,96.3166z"/>
  </g>
  <g style="fill:none; stroke:#FFFF00; stroke-width:  0.9180; stroke-linecap:butt; stroke-linejoin:miter; stroke-dasharray:none">
   <path d="M217.8353,98.3362L215.8157,96.3166L217.8353,94.2970L219.8549,96.3166z"/>
  </g>
  <g style="fill:#FFFF00; fill-rule:nonzero">
   <path  d="M226.9541,102.8894L224.9345,100.8698L226.9541,98.8502L228.9737,100.8698z"/>
  </g>
  <g style="fill:none; stroke:#FFFF00; stroke-width:  0.9180; stroke-linecap:butt; stroke-linejoin:miter; stroke-dasharray:none">
   <path d="M226.9541,102.8894L224.9345,100.8698L226.9541,98.8502L228.9737,100.8698z"/>
  </g>
  <g style="fill:#FFFF00; fill-rule:nonzero">
   <path  d="M234.6469,109.5847L232.6273,107.5651L234.6469,105.5455L236.6665,107.5651z"/>
  </g>
  <g style="fill:none; stroke:#FFFF00; stroke-width:  0.9180; stroke-linecap:butt; stroke-linejoin:miter; stroke-dasharray:none">
   <path d="M234.6469,109.5847L232.6273,107.5651L234.6469,105.5455L236.6665,107.5651z"/>
  </g>
  <g style="fill:#FFFF00; fill-rule:nonzero">
   <path  d="M239.2430,118.6913L237.2234,116.6717L239.2430,114.6521L241.2626,116.6717z"/>
  </g>
  <g style="fill:none; stroke:#FFFF00; stroke-width:  0.9180; stroke-linecap:butt; stroke-linejoin:miter; stroke-dasharray:none">
   <path d="M239.2430,118.6913L237.2234,116.6717L239.2430,114.6521L241.2626,116.6717z"/>
  </g>
  <g style="fill:#FFFF00; fill-rule:nonzero">
   <path  d="M241.9358,128.5322L239.9162,126.5126L241.9358,124.4930L243.9554,126.5126z"/>
  </g>
  <g style="fill:none; stroke:#FFFF00; stroke-width:  0.9180; stroke-linecap:butt; stroke-linejoin:miter; stroke-dasharray:none">
   <path d="M241.9358,128.5322L239.9162,126.5126L241.9358,124.4930L243.9554,126.5126z"/>
  </g>
  <g style="fill:#FFFF00; fill-rule:nonzero">
   <path  d="M243.7718,138.5813L241.7522,136.5617L243.7718,134.5421L245.7914,136.5617z"/>
  </g>
  <g style="fill:none; stroke:#FFFF00; stroke-width:  0.9180; stroke-linecap:butt; stroke-linejoin:miter; stroke-dasharray:none">
   <path d="M243.7718,138.5813L241.7522,136.5617L243.7718,134.5421L245.7914,136.5617z"/>
  </g>
  <g style="fill:#FFFF00; fill-rule:nonzero">
   <path  d="M245.4365,148.6793L243.4169,146.6597L245.4365,144.6401L247.4561,146.6597z"/>
  </g>
  <g style="fill:none; stroke:#FFFF00; stroke-width:  0.9180; stroke-linecap:butt; stroke-linejoin:miter; stroke-dasharray:none">
   <path d="M245.4365,148.6793L243.4169,146.6597L245.4365,144.6401L247.4561,146.6597z"/>
  </g>
  <g style="fill:#FFFF00; fill-rule:nonzero">
   <path  d="M247.0154,158.8079L244.9958,156.7883L247.0154,154.7687L249.0350,156.7883z"/>
  </g>
  <g style="fill:none; stroke:#FFFF00; stroke-width:  0.9180; stroke-linecap:butt; stroke-linejoin:miter; stroke-dasharray:none">
   <path d="M247.0154,158.8079L244.9958,156.7883L247.0154,154.7687L249.0350,156.7883z"/>
  </g>
  <g style="fill:#FFFF00; fill-rule:nonzero">
   <path  d="M248.5393,168.9793L246.5197,166.9597L248.5393,164.9401L250.5589,166.9597z"/>
  </g>
  <g style="fill:none; stroke:#FFFF00; stroke-width:  0.9180; stroke-linecap:butt; stroke-linejoin:miter; stroke-dasharray:none">
   <path d="M248.5393,168.9793L246.5197,166.9597L248.5393,164.9401L250.5589,166.9597z"/>
  </g>
  <g style="fill:#FFFF00; fill-rule:nonzero">
   <path  d="M250.4610,179.0896L248.4414,177.0700L250.4610,175.0504L252.4806,177.0700z"/>
  </g>
  <g style="fill:none; stroke:#FFFF00; stroke-width:  0.9180; stroke-linecap:butt; stroke-linejoin:miter; stroke-dasharray:none">
   <path d="M250.4610,179.0896L248.4414,177.0700L250.4610,175.0504L252.4806,177.0700z"/>
  </g>
  <g style="fill:#FFFF00; fill-rule:nonzero">
   <path  d="M254.3962,188.6123L252.3766,186.5927L254.3962,184.5731L256.4158,186.5927z"/>
  </g>
  <g style="fill:none; stroke:#FFFF00; stroke-width:  0.9180; stroke-linecap:butt; stroke-linejoin:miter; stroke-dasharray:none">
   <path d="M254.3962,188.6123L252.3766,186.5927L254.3962,184.5731L256.4158,186.5927z"/>
  </g>
  <g style="fill:#FFFF00; fill-rule:nonzero">
   <path  d="M257.0951,198.5573L255.0755,196.5377L257.0951,194.5181L259.1147,196.5377z"/>
  </g>
  <g style="fill:none; stroke:#FFFF00; stroke-width:  0.9180; stroke-linecap:butt; stroke-linejoin:miter; stroke-dasharray:none">
   <path d="M257.0951,198.5573L255.0755,196.5377L257.0951,194.5181L259.1147,196.5377z"/>
  </g>
  <g style="fill:#FFFF00; fill-rule:nonzero">
   <path  d="M259.6471,208.5512L257.6275,206.5316L259.6471,204.5120L261.6667,206.5316z"/>
  </g>
  <g style="fill:none; stroke:#FFFF00; stroke-width:  0.9180; stroke-linecap:butt; stroke-linejoin:miter; stroke-dasharray:none">
   <path d="M259.6471,208.5512L257.6275,206.5316L259.6471,204.5120L261.6667,206.5316z"/>
  </g>
  <g style="fill:#FFFF00; fill-rule:nonzero">
   <path  d="M260.8160,218.7839L258.7964,216.7643L260.8160,214.7447L262.8356,216.7643z"/>
  </g>
  <g style="fill:none; stroke:#FFFF00; stroke-width:  0.9180; stroke-linecap:butt; stroke-linejoin:miter; stroke-dasharray:none">
   <path d="M260.8160,218.7839L258.7964,216.7643L260.8160,214.7447L262.8356,216.7643z"/>
  </g>
  <g style="fill:#FFFF00; fill-rule:nonzero">
   <path  d="M261.1343,229.0777L259.1147,227.0581L261.1343,225.0385L263.1539,227.0581z"/>
  </g>
  <g style="fill:none; stroke:#FFFF00; stroke-width:  0.9180; stroke-linecap:butt; stroke-linejoin:miter; stroke-dasharray:none">
   <path d="M261.1343,229.0777L259.1147,227.0581L261.1343,225.0385L263.1539,227.0581z"/>
  </g>
  <g style="fill:#FFFF00; fill-rule:nonzero">
   <path  d="M261.4586,239.3410L259.4390,237.3214L261.4586,235.3018L263.4782,237.3214z"/>
  </g>
  <g style="fill:none; stroke:#FFFF00; stroke-width:  0.9180; stroke-linecap:butt; stroke-linejoin:miter; stroke-dasharray:none">
   <path d="M261.4586,239.3410L259.4390,237.3214L261.4586,235.3018L263.4782,237.3214z"/>
  </g>
  <g style="fill:#FFFF00; fill-rule:nonzero">
   <path  d="M261.7769,249.5920L259.7573,247.5724L261.7769,245.5528L263.7965,247.5724z"/>
  </g>
  <g style="fill:none; stroke:#FFFF00; stroke-width:  0.9180; stroke-linecap:butt; stroke-linejoin:miter; stroke-dasharray:none">
   <path d="M261.7769,249.5920L259.7573,247.5724L261.7769,245.5528L263.7965,247.5724z"/>
  </g>
  <g style="fill:#FFFF00; fill-rule:nonzero">
   <path  d="M263.2151,259.7512L261.1955,257.7316L263.2151,255.7120L265.2347,257.7316z"/>
  </g>
  <g style="fill:none; stroke:#FFFF00; stroke-width:  0.9180; stroke-linecap:butt; stroke-linejoin:miter; stroke-dasharray:none">
   <path d="M263.2151,259.7512L261.1955,257.7316L263.2151,255.7120L265.2347,257.7316z"/>
  </g>
  <g style="fill:#FFFF00; fill-rule:nonzero">
   <path  d="M268.5946,268.5150L266.5750,266.4954L268.5946,264.4758L270.6142,266.4954z"/>
  </g>
  <g style="fill:none; stroke:#FFFF00; stroke-width:  0.9180; stroke-linecap:butt; stroke-linejoin:miter; stroke-dasharray:none">
   <path d="M268.5946,268.5150L266.5750,266.4954L268.5946,264.4758L270.6142,266.4954z"/>
  </g>
  <g style="fill:#FFFF00; fill-rule:nonzero">
   <path  d="M274.1576,277.1442L272.1380,275.1246L274.1576,273.1050L276.1772,275.1246z"/>
  </g>
  <g style="fill:none; stroke:#FFFF00; stroke-width:  0.9180; stroke-linecap:butt; stroke-linejoin:miter; stroke-dasharray:none">
   <path d="M274.1576,277.1442L272.1380,275.1246L274.1576,273.1050L276.1772,275.1246z"/>
  </g>
  <g style="fill:#FFFF00; fill-rule:nonzero">
   <path  d="M279.7207,285.7612L277.7011,283.7416L279.7207,281.7220L281.7403,283.7416z"/>
  </g>
  <g style="fill:none; stroke:#FFFF00; stroke-width:  0.9180; stroke-linecap:butt; stroke-linejoin:miter; stroke-dasharray:none">
   <path d="M279.7207,285.7612L277.7011,283.7416L279.7207,281.7220L281.7403,283.7416z"/>
  </g>
  <g style="fill:#FFFF00; fill-rule:nonzero">
   <path  d="M285.2838,294.3781L283.2642,292.3585L285.2838,290.3389L287.3034,292.3585z"/>
  </g>
  <g style="fill:none; stroke:#FFFF00; stroke-width:  0.9180; stroke-linecap:butt; stroke-linejoin:miter; stroke-dasharray:none">
   <path d="M285.2838,294.3781L283.2642,292.3585L285.2838,290.3389L287.3034,292.3585z"/>
  </g>
  <g style="fill:#FFFF00; fill-rule:nonzero">
   <path  d="M290.8714,302.9890L288.8518,300.9694L290.8714,298.9498L292.8910,300.9694z"/>
  </g>
  <g style="fill:none; stroke:#FFFF00; stroke-width:  0.9180; stroke-linecap:butt; stroke-linejoin:miter; stroke-dasharray:none">
   <path d="M290.8714,302.9890L288.8518,300.9694L290.8714,298.9498L292.8910,300.9694z"/>
  </g>
  <g style="fill:#FFFF00; fill-rule:nonzero">
   <path  d="M297.3280,310.9633L295.3084,308.9437L297.3280,306.9241L299.3476,308.9437z"/>
  </g>
  <g style="fill:none; stroke:#FFFF00; stroke-width:  0.9180; stroke-linecap:butt; stroke-linejoin:miter; stroke-dasharray:none">
   <path d="M297.3280,310.9633L295.3084,308.9437L297.3280,306.9241L299.3476,308.9437z"/>
  </g>
  <g style="fill:#FFFF00; fill-rule:nonzero">
   <path  d="M304.1150,318.6684L302.0954,316.6488L304.1150,314.6292L306.1346,316.6488z"/>
  </g>
  <g style="fill:none; stroke:#FFFF00; stroke-width:  0.9180; stroke-linecap:butt; stroke-linejoin:miter; stroke-dasharray:none">
   <path d="M304.1150,318.6684L302.0954,316.6488L304.1150,314.6292L306.1346,316.6488z"/>
  </g>
  <g style="fill:#FFFF00; fill-rule:nonzero">
   <path  d="M311.0857,326.2021L309.0661,324.1825L311.0857,322.1629L313.1053,324.1825z"/>
  </g>
  <g style="fill:none; stroke:#FFFF00; stroke-width:  0.9180; stroke-linecap:butt; stroke-linejoin:miter; stroke-dasharray:none">
   <path d="M311.0857,326.2021L309.0661,324.1825L311.0857,322.1629L313.1053,324.1825z"/>
  </g>
  <g style="fill:#FFFF00; fill-rule:nonzero">
   <path  d="M318.4052,333.4115L316.3856,331.3919L318.4052,329.3723L320.4248,331.3919z"/>
  </g>
  <g style="fill:none; stroke:#FFFF00; stroke-width:  0.9180; stroke-linecap:butt; stroke-linejoin:miter; stroke-dasharray:none">
   <path d="M318.4052,333.4115L316.3856,331.3919L318.4052,329.3723L320.4248,331.3919z"/>
  </g>
  <g style="fill:#FFFF00; fill-rule:nonzero">
   <path  d="M324.3478,341.7836L322.3282,339.7640L324.3478,337.7444L326.3674,339.7640z"/>
  </g>
  <g style="fill:none; stroke:#FFFF00; stroke-width:  0.9180; stroke-linecap:butt; stroke-linejoin:miter; stroke-dasharray:none">
   <path d="M324.3478,341.7836L322.3282,339.7640L324.3478,337.7444L326.3674,339.7640z"/>
  </g>
  <g style="fill:#FFFF00; fill-rule:nonzero">
   <path  d="M326.7774,351.7776L324.7578,349.7580L326.7774,347.7384L328.7970,349.7580z"/>
  </g>
  <g style="fill:none; stroke:#FFFF00; stroke-width:  0.9180; stroke-linecap:butt; stroke-linejoin:miter; stroke-dasharray:none">
   <path d="M326.7774,351.7776L324.7578,349.7580L326.7774,347.7384L328.7970,349.7580z"/>
  </g>
  <g style="fill:#FFFF00; fill-rule:nonzero">
   <path  d="M330.3882,361.4044L328.3686,359.3848L330.3882,357.3652L332.4078,359.3848z"/>
  </g>
  <g style="fill:none; stroke:#FFFF00; stroke-width:  0.9180; stroke-linecap:butt; stroke-linejoin:miter; stroke-dasharray:none">
   <path d="M330.3882,361.4044L328.3686,359.3848L330.3882,357.3652L332.4078,359.3848z"/>
  </g>
  <g style="fill:#FFFF00; fill-rule:nonzero">
   <path  d="M334.9660,370.6088L332.9464,368.5892L334.9660,366.5696L336.9856,368.5892z"/>
  </g>
  <g style="fill:none; stroke:#FFFF00; stroke-width:  0.9180; stroke-linecap:butt; stroke-linejoin:miter; stroke-dasharray:none">
   <path d="M334.9660,370.6088L332.9464,368.5892L334.9660,366.5696L336.9856,368.5892z"/>
  </g>
  <g style="fill:#FFFF00; fill-rule:nonzero">
   <path  d="M340.1435,379.4767L338.1239,377.4571L340.1435,375.4375L342.1631,377.4571z"/>
  </g>
  <g style="fill:none; stroke:#FFFF00; stroke-width:  0.9180; stroke-linecap:butt; stroke-linejoin:miter; stroke-dasharray:none">
   <path d="M340.1435,379.4767L338.1239,377.4571L340.1435,375.4375L342.1631,377.4571z"/>
  </g>
  <g style="fill:#FFFF00; fill-rule:nonzero">
   <path  d="M345.7861,388.0508L343.7665,386.0312L345.7861,384.0116L347.8057,386.0312z"/>
  </g>
  <g style="fill:none; stroke:#FFFF00; stroke-width:  0.9180; stroke-linecap:butt; stroke-linejoin:miter; stroke-dasharray:none">
   <path d="M345.7861,388.0508L343.7665,386.0312L345.7861,384.0116L347.8057,386.0312z"/>
  </g>
  <g style="fill:#FFFF00; fill-rule:nonzero">
   <path  d="M351.6552,396.4597L349.6356,394.4401L351.6552,392.4205L353.6748,394.4401z"/>
  </g>
  <g style="fill:none; stroke:#FFFF00; stroke-width:  0.9180; stroke-linecap:butt; stroke-linejoin:miter; stroke-dasharray:none">
   <path d="M351.6552,396.4597L349.6356,394.4401L351.6552,392.4205L353.6748,394.4401z"/>
  </g>
  <g style="fill:#FFFF00; fill-rule:nonzero">
   <path  d="M357.0714,405.1501L355.0518,403.1305L357.0714,401.1109L359.0910,403.1305z"/>
  </g>
  <g style="fill:none; stroke:#FFFF00; stroke-width:  0.9180; stroke-linecap:butt; stroke-linejoin:miter; stroke-dasharray:none">
   <path d="M357.0714,405.1501L355.0518,403.1305L357.0714,401.1109L359.0910,403.1305z"/>
  </g>
  <g style="fill:#FFFF00; fill-rule:nonzero">
   <path  d="M360.6210,414.7524L358.6014,412.7328L360.6210,410.7132L362.6406,412.7328z"/>
  </g>
  <g style="fill:none; stroke:#FFFF00; stroke-width:  0.9180; stroke-linecap:butt; stroke-linejoin:miter; stroke-dasharray:none">
   <path d="M360.6210,414.7524L358.6014,412.7328L360.6210,410.7132L362.6406,412.7328z"/>
  </g>
  <g style="fill:#FFFF00; fill-rule:nonzero">
   <path  d="M361.9246,424.9238L359.9050,422.9042L361.9246,420.8846L363.9442,422.9042z"/>
  </g>
  <g style="fill:none; stroke:#FFFF00; stroke-width:  0.9180; stroke-linecap:butt; stroke-linejoin:miter; stroke-dasharray:none">
   <path d="M361.9246,424.9238L359.9050,422.9042L361.9246,420.8846L363.9442,422.9042z"/>
  </g>
  <g style="fill:#FFFF00; fill-rule:nonzero">
   <path  d="M364.3052,434.8872L362.2856,432.8676L364.3052,430.8480L366.3248,432.8676z"/>
  </g>
  <g style="fill:none; stroke:#FFFF00; stroke-width:  0.9180; stroke-linecap:butt; stroke-linejoin:miter; stroke-dasharray:none">
   <path d="M364.3052,434.8872L362.2856,432.8676L364.3052,430.8480L366.3248,432.8676z"/>
  </g>
  <g style="fill:#FFFF00; fill-rule:nonzero">
   <path  d="M367.2061,444.7159L365.1865,442.6963L367.2061,440.6767L369.2257,442.6963z"/>
  </g>
  <g style="fill:none; stroke:#FFFF00; stroke-width:  0.9180; stroke-linecap:butt; stroke-linejoin:miter; stroke-dasharray:none">
   <path d="M367.2061,444.7159L365.1865,442.6963L367.2061,440.6767L369.2257,442.6963z"/>
  </g>
  <g style="fill:#FFFF00; fill-rule:nonzero">
   <path  d="M370.3885,454.4590L368.3689,452.4394L370.3885,450.4198L372.4081,452.4394z"/>
  </g>
  <g style="fill:none; stroke:#FFFF00; stroke-width:  0.9180; stroke-linecap:butt; stroke-linejoin:miter; stroke-dasharray:none">
   <path d="M370.3885,454.4590L368.3689,452.4394L370.3885,450.4198L372.4081,452.4394z"/>
  </g>
  <g style="fill:#FFFF00; fill-rule:nonzero">
   <path  d="M375.3518,463.4248L373.3322,461.4052L375.3518,459.3856L377.3714,461.4052z"/>
  </g>
  <g style="fill:none; stroke:#FFFF00; stroke-width:  0.9180; stroke-linecap:butt; stroke-linejoin:miter; stroke-dasharray:none">
   <path d="M375.3518,463.4248L373.3322,461.4052L375.3518,459.3856L377.3714,461.4052z"/>
  </g>
  <g style="fill:#FFFF00; fill-rule:nonzero">
   <path  d="M379.7521,472.6904L377.7325,470.6708L379.7521,468.6512L381.7717,470.6708z"/>
  </g>
  <g style="fill:none; stroke:#FFFF00; stroke-width:  0.9180; stroke-linecap:butt; stroke-linejoin:miter; stroke-dasharray:none">
   <path d="M379.7521,472.6904L377.7325,470.6708L379.7521,468.6512L381.7717,470.6708z"/>
  </g>
  <g style="fill:#FFFF00; fill-rule:nonzero">
   <path  d="M382.1573,482.6783L380.1377,480.6587L382.1573,478.6391L384.1769,480.6587z"/>
  </g>
  <g style="fill:none; stroke:#FFFF00; stroke-width:  0.9180; stroke-linecap:butt; stroke-linejoin:miter; stroke-dasharray:none">
   <path d="M382.1573,482.6783L380.1377,480.6587L382.1573,478.6391L384.1769,480.6587z"/>
  </g>
  <g style="fill:#FFFF00; fill-rule:nonzero">
   <path  d="M384.2381,492.7396L382.2185,490.7200L384.2381,488.7004L386.2577,490.7200z"/>
  </g>
  <g style="fill:none; stroke:#FFFF00; stroke-width:  0.9180; stroke-linecap:butt; stroke-linejoin:miter; stroke-dasharray:none">
   <path d="M384.2381,492.7396L382.2185,490.7200L384.2381,488.7004L386.2577,490.7200z"/>
  </g>
  <g style="fill:#FFFF00; fill-rule:nonzero">
   <path  d="M386.3250,502.8192L384.3054,500.7996L386.3250,498.7800L388.3446,500.7996z"/>
  </g>
  <g style="fill:none; stroke:#FFFF00; stroke-width:  0.9180; stroke-linecap:butt; stroke-linejoin:miter; stroke-dasharray:none">
   <path d="M386.3250,502.8192L384.3054,500.7996L386.3250,498.7800L388.3446,500.7996z"/>
  </g>
  <g style="fill:#FFFF00; fill-rule:nonzero">
   <path  d="M388.5710,512.9172L386.5514,510.8976L388.5710,508.8780L390.5906,510.8976z"/>
  </g>
  <g style="fill:none; stroke:#FFFF00; stroke-width:  0.9180; stroke-linecap:butt; stroke-linejoin:miter; stroke-dasharray:none">
   <path d="M388.5710,512.9172L386.5514,510.8976L388.5710,508.8780L390.5906,510.8976z"/>
  </g>
  <g style="fill:#FFFF00; fill-rule:nonzero">
   <path  d="M391.2883,522.8867L389.2687,520.8671L391.2883,518.8475L393.3079,520.8671z"/>
  </g>
  <g style="fill:none; stroke:#FFFF00; stroke-width:  0.9180; stroke-linecap:butt; stroke-linejoin:miter; stroke-dasharray:none">
   <path d="M391.2883,522.8867L389.2687,520.8671L391.2883,518.8475L393.3079,520.8671z"/>
  </g>
  <g style="fill:#FFFF00; fill-rule:nonzero">
   <path  d="M394.3116,532.7644L392.2920,530.7448L394.3116,528.7252L396.3312,530.7448z"/>
  </g>
  <g style="fill:none; stroke:#FFFF00; stroke-width:  0.9180; stroke-linecap:butt; stroke-linejoin:miter; stroke-dasharray:none">
   <path d="M394.3116,532.7644L392.2920,530.7448L394.3116,528.7252L396.3312,530.7448z"/>
  </g>
  <g style="fill:#FFFF00; fill-rule:nonzero">
   <path  d="M395.9334,542.9786L393.9138,540.9590L395.9334,538.9394L397.9530,540.9590z"/>
  </g>
  <g style="fill:none; stroke:#FFFF00; stroke-width:  0.9180; stroke-linecap:butt; stroke-linejoin:miter; stroke-dasharray:none">
   <path d="M395.9334,542.9786L393.9138,540.9590L395.9334,538.9394L397.9530,540.9590z"/>
  </g>
  <g style="fill:#FFFF00; fill-rule:nonzero">
   <path  d="M395.7559,553.3276L393.7363,551.3080L395.7559,549.2884L397.7755,551.3080z"/>
  </g>
  <g style="fill:none; stroke:#FFFF00; stroke-width:  0.9180; stroke-linecap:butt; stroke-linejoin:miter; stroke-dasharray:none">
   <path d="M395.7559,553.3276L393.7363,551.3080L395.7559,549.2884L397.7755,551.3080z"/>
  </g>
  <g style="fill:#FFFF00; fill-rule:nonzero">
   <path  d="M386.0435,554.0436L384.0239,552.0240L386.0435,550.0044L388.0631,552.0240z"/>
  </g>
  <g style="fill:none; stroke:#FFFF00; stroke-width:  0.9180; stroke-linecap:butt; stroke-linejoin:miter; stroke-dasharray:none">
   <path d="M386.0435,554.0436L384.0239,552.0240L386.0435,550.0044L388.0631,552.0240z"/>
  </g>
  <g style="fill:#FFFF00; fill-rule:nonzero">
   <path  d="M378.6322,547.4034L376.6126,545.3838L378.6322,543.3642L380.6518,545.3838z"/>
  </g>
  <g style="fill:none; stroke:#FFFF00; stroke-width:  0.9180; stroke-linecap:butt; stroke-linejoin:miter; stroke-dasharray:none">
   <path d="M378.6322,547.4034L376.6126,545.3838L378.6322,543.3642L380.6518,545.3838z"/>
  </g>
  <g style="fill:#FFFF00; fill-rule:nonzero">
   <path  d="M371.0862,540.8611L369.0666,538.8415L371.0862,536.8219L373.1058,538.8415z"/>
  </g>
  <g style="fill:none; stroke:#FFFF00; stroke-width:  0.9180; stroke-linecap:butt; stroke-linejoin:miter; stroke-dasharray:none">
   <path d="M371.0862,540.8611L369.0666,538.8415L371.0862,536.8219L373.1058,538.8415z"/>
  </g>
  <g style="fill:#FFFF00; fill-rule:nonzero">
   <path  d="M362.9833,535.0165L360.9637,532.9969L362.9833,530.9773L365.0029,532.9969z"/>
  </g>
  <g style="fill:none; stroke:#FFFF00; stroke-width:  0.9180; stroke-linecap:butt; stroke-linejoin:miter; stroke-dasharray:none">
   <path d="M362.9833,535.0165L360.9637,532.9969L362.9833,530.9773L365.0029,532.9969z"/>
  </g>
  <g style="fill:#FFFF00; fill-rule:nonzero">
   <path  d="M354.5622,529.6064L352.5426,527.5868L354.5622,525.5672L356.5818,527.5868z"/>
  </g>
  <g style="fill:none; stroke:#FFFF00; stroke-width:  0.9180; stroke-linecap:butt; stroke-linejoin:miter; stroke-dasharray:none">
   <path d="M354.5622,529.6064L352.5426,527.5868L354.5622,525.5672L356.5818,527.5868z"/>
  </g>
  <g style="fill:#FFFF00; fill-rule:nonzero">
   <path  d="M345.9697,524.4412L343.9501,522.4216L345.9697,520.4020L347.9893,522.4216z"/>
  </g>
  <g style="fill:none; stroke:#FFFF00; stroke-width:  0.9180; stroke-linecap:butt; stroke-linejoin:miter; stroke-dasharray:none">
   <path d="M345.9697,524.4412L343.9501,522.4216L345.9697,520.4020L347.9893,522.4216z"/>
  </g>
  <g style="fill:#FFFF00; fill-rule:nonzero">
   <path  d="M337.2181,519.3677L335.1985,517.3481L337.2181,515.3285L339.2377,517.3481z"/>
  </g>
  <g style="fill:none; stroke:#FFFF00; stroke-width:  0.9180; stroke-linecap:butt; stroke-linejoin:miter; stroke-dasharray:none">
   <path d="M337.2181,519.3677L335.1985,517.3481L337.2181,515.3285L339.2377,517.3481z"/>
  </g>
  <g style="fill:#FFFF00; fill-rule:nonzero">
   <path  d="M328.4420,514.3064L326.4224,512.2868L328.4420,510.2672L330.4616,512.2868z"/>
  </g>
  <g style="fill:none; stroke:#FFFF00; stroke-width:  0.9180; stroke-linecap:butt; stroke-linejoin:miter; stroke-dasharray:none">
   <path d="M328.4420,514.3064L326.4224,512.2868L328.4420,510.2672L330.4616,512.2868z"/>
  </g>
  <g style="fill:#FFFF00; fill-rule:nonzero">
   <path  d="M319.8679,508.9637L317.8483,506.9441L319.8679,504.9245L321.8875,506.9441z"/>
  </g>
  <g style="fill:none; stroke:#FFFF00; stroke-width:  0.9180; stroke-linecap:butt; stroke-linejoin:miter; stroke-dasharray:none">
   <path d="M319.8679,508.9637L317.8483,506.9441L319.8679,504.9245L321.8875,506.9441z"/>
  </g>
  <g style="fill:#FFFF00; fill-rule:nonzero">
   <path  d="M312.2363,502.2500L310.2167,500.2304L312.2363,498.2108L314.2559,500.2304z"/>
  </g>
  <g style="fill:none; stroke:#FFFF00; stroke-width:  0.9180; stroke-linecap:butt; stroke-linejoin:miter; stroke-dasharray:none">
   <path d="M312.2363,502.2500L310.2167,500.2304L312.2363,498.2108L314.2559,500.2304z"/>
  </g>
  <g style="fill:#FFFF00; fill-rule:nonzero">
   <path  d="M305.8960,494.3246L303.8764,492.3050L305.8960,490.2854L307.9156,492.3050z"/>
  </g>
  <g style="fill:none; stroke:#FFFF00; stroke-width:  0.9180; stroke-linecap:butt; stroke-linejoin:miter; stroke-dasharray:none">
   <path d="M305.8960,494.3246L303.8764,492.3050L305.8960,490.2854L307.9156,492.3050z"/>
  </g>
  <g style="fill:#FFFF00; fill-rule:nonzero">
   <path  d="M299.5985,486.3686L297.5789,484.3490L299.5985,482.3294L301.6181,484.3490z"/>
  </g>
  <g style="fill:none; stroke:#FFFF00; stroke-width:  0.9180; stroke-linecap:butt; stroke-linejoin:miter; stroke-dasharray:none">
   <path d="M299.5985,486.3686L297.5789,484.3490L299.5985,482.3294L301.6181,484.3490z"/>
  </g>
  <g style="fill:#FFFF00; fill-rule:nonzero">
   <path  d="M294.2618,477.6721L292.2422,475.6525L294.2618,473.6329L296.2814,475.6525z"/>
  </g>
  <g style="fill:none; stroke:#FFFF00; stroke-width:  0.9180; stroke-linecap:butt; stroke-linejoin:miter; stroke-dasharray:none">
   <path d="M294.2618,477.6721L292.2422,475.6525L294.2618,473.6329L296.2814,475.6525z"/>
  </g>
  <g style="fill:#FFFF00; fill-rule:nonzero">
   <path  d="M289.5188,468.6635L287.4992,466.6439L289.5188,464.6243L291.5384,466.6439z"/>
  </g>
  <g style="fill:none; stroke:#FFFF00; stroke-width:  0.9180; stroke-linecap:butt; stroke-linejoin:miter; stroke-dasharray:none">
   <path d="M289.5188,468.6635L287.4992,466.6439L289.5188,464.6243L291.5384,466.6439z"/>
  </g>
  <g style="fill:#FFFF00; fill-rule:nonzero">
   <path  d="M284.7208,459.5814L282.7012,457.5618L284.7208,455.5422L286.7404,457.5618z"/>
  </g>
  <g style="fill:none; stroke:#FFFF00; stroke-width:  0.9180; stroke-linecap:butt; stroke-linejoin:miter; stroke-dasharray:none">
   <path d="M284.7208,459.5814L282.7012,457.5618L284.7208,455.5422L286.7404,457.5618z"/>
  </g>
  <g style="fill:#FFFF00; fill-rule:nonzero">
   <path  d="M279.6962,450.6217L277.6766,448.6021L279.6962,446.5825L281.7158,448.6021z"/>
  </g>
  <g style="fill:none; stroke:#FFFF00; stroke-width:  0.9180; stroke-linecap:butt; stroke-linejoin:miter; stroke-dasharray:none">
   <path d="M279.6962,450.6217L277.6766,448.6021L279.6962,446.5825L281.7158,448.6021z"/>
  </g>
  <g style="fill:#FFFF00; fill-rule:nonzero">
   <path  d="M274.4636,441.7416L272.4440,439.7220L274.4636,437.7024L276.4832,439.7220z"/>
  </g>
  <g style="fill:none; stroke:#FFFF00; stroke-width:  0.9180; stroke-linecap:butt; stroke-linejoin:miter; stroke-dasharray:none">
   <path d="M274.4636,441.7416L272.4440,439.7220L274.4636,437.7024L276.4832,439.7220z"/>
  </g>
  <g style="fill:#FFFF00; fill-rule:nonzero">
   <path  d="M269.0658,432.9472L267.0462,430.9276L269.0658,428.9080L271.0854,430.9276z"/>
  </g>
  <g style="fill:none; stroke:#FFFF00; stroke-width:  0.9180; stroke-linecap:butt; stroke-linejoin:miter; stroke-dasharray:none">
   <path d="M269.0658,432.9472L267.0462,430.9276L269.0658,428.9080L271.0854,430.9276z"/>
  </g>
  <g style="fill:#FFFF00; fill-rule:nonzero">
   <path  d="M263.4844,424.2384L261.4648,422.2188L263.4844,420.1992L265.5040,422.2188z"/>
  </g>
  <g style="fill:none; stroke:#FFFF00; stroke-width:  0.9180; stroke-linecap:butt; stroke-linejoin:miter; stroke-dasharray:none">
   <path d="M263.4844,424.2384L261.4648,422.2188L263.4844,420.1992L265.5040,422.2188z"/>
  </g>
  <g style="fill:#FFFF00; fill-rule:nonzero">
   <path  d="M257.6704,415.6826L255.6508,413.6630L257.6704,411.6434L259.6900,413.6630z"/>
  </g>
  <g style="fill:none; stroke:#FFFF00; stroke-width:  0.9180; stroke-linecap:butt; stroke-linejoin:miter; stroke-dasharray:none">
   <path d="M257.6704,415.6826L255.6508,413.6630L257.6704,411.6434L259.6900,413.6630z"/>
  </g>
  <g style="fill:#FFFF00; fill-rule:nonzero">
   <path  d="M251.5320,407.3962L249.5124,405.3766L251.5320,403.3570L253.5516,405.3766z"/>
  </g>
  <g style="fill:none; stroke:#FFFF00; stroke-width:  0.9180; stroke-linecap:butt; stroke-linejoin:miter; stroke-dasharray:none">
   <path d="M251.5320,407.3962L249.5124,405.3766L251.5320,403.3570L253.5516,405.3766z"/>
  </g>
  <g style="fill:#FFFF00; fill-rule:nonzero">
   <path  d="M245.0387,399.3851L243.0191,397.3655L245.0387,395.3459L247.0583,397.3655z"/>
  </g>
  <g style="fill:none; stroke:#FFFF00; stroke-width:  0.9180; stroke-linecap:butt; stroke-linejoin:miter; stroke-dasharray:none">
   <path d="M245.0387,399.3851L243.0191,397.3655L245.0387,395.3459L247.0583,397.3655z"/>
  </g>
  <g style="fill:#FFFF00; fill-rule:nonzero">
   <path  d="M238.4842,391.4597L236.4646,389.4401L238.4842,387.4205L240.5038,389.4401z"/>
  </g>
  <g style="fill:none; stroke:#FFFF00; stroke-width:  0.9180; stroke-linecap:butt; stroke-linejoin:miter; stroke-dasharray:none">
   <path d="M238.4842,391.4597L236.4646,389.4401L238.4842,387.4205L240.5038,389.4401z"/>
  </g>
  <g style="fill:#FFFF00; fill-rule:nonzero">
   <path  d="M232.6702,382.9835L230.6506,380.9639L232.6702,378.9443L234.6898,380.9639z"/>
  </g>
  <g style="fill:none; stroke:#FFFF00; stroke-width:  0.9180; stroke-linecap:butt; stroke-linejoin:miter; stroke-dasharray:none">
   <path d="M232.6702,382.9835L230.6506,380.9639L232.6702,378.9443L234.6898,380.9639z"/>
  </g>
  <g style="fill:#FFFF00; fill-rule:nonzero">
   <path  d="M227.7803,373.9442L225.7607,371.9246L227.7803,369.9050L229.7999,371.9246z"/>
  </g>
  <g style="fill:none; stroke:#FFFF00; stroke-width:  0.9180; stroke-linecap:butt; stroke-linejoin:miter; stroke-dasharray:none">
   <path d="M227.7803,373.9442L225.7607,371.9246L227.7803,369.9050L229.7999,371.9246z"/>
  </g>
  <g style="fill:#FFFF00; fill-rule:nonzero">
   <path  d="M221.5134,365.7985L219.4938,363.7789L221.5134,361.7593L223.5330,363.7789z"/>
  </g>
  <g style="fill:none; stroke:#FFFF00; stroke-width:  0.9180; stroke-linecap:butt; stroke-linejoin:miter; stroke-dasharray:none">
   <path d="M221.5134,365.7985L219.4938,363.7789L221.5134,361.7593L223.5330,363.7789z"/>
  </g>
  <g style="fill:#FFFF00; fill-rule:nonzero">
   <path  d="M214.7936,358.0567L212.7740,356.0371L214.7936,354.0175L216.8132,356.0371z"/>
  </g>
  <g style="fill:none; stroke:#FFFF00; stroke-width:  0.9180; stroke-linecap:butt; stroke-linejoin:miter; stroke-dasharray:none">
   <path d="M214.7936,358.0567L212.7740,356.0371L214.7936,354.0175L216.8132,356.0371z"/>
  </g>
  <g style="fill:#FFFF00; fill-rule:nonzero">
   <path  d="M207.6516,350.7127L205.6320,348.6931L207.6516,346.6735L209.6712,348.6931z"/>
  </g>
  <g style="fill:none; stroke:#FFFF00; stroke-width:  0.9180; stroke-linecap:butt; stroke-linejoin:miter; stroke-dasharray:none">
   <path d="M207.6516,350.7127L205.6320,348.6931L207.6516,346.6735L209.6712,348.6931z"/>
  </g>
  <g style="fill:#FFFF00; fill-rule:nonzero">
   <path  d="M200.1301,343.7482L198.1105,341.7286L200.1301,339.7090L202.1497,341.7286z"/>
  </g>
  <g style="fill:none; stroke:#FFFF00; stroke-width:  0.9180; stroke-linecap:butt; stroke-linejoin:miter; stroke-dasharray:none">
   <path d="M200.1301,343.7482L198.1105,341.7286L200.1301,339.7090L202.1497,341.7286z"/>
  </g>
  <g style="fill:#FFFF00; fill-rule:nonzero">
   <path  d="M192.3271,337.0957L190.3075,335.0761L192.3271,333.0565L194.3467,335.0761z"/>
  </g>
  <g style="fill:none; stroke:#FFFF00; stroke-width:  0.9180; stroke-linecap:butt; stroke-linejoin:miter; stroke-dasharray:none">
   <path d="M192.3271,337.0957L190.3075,335.0761L192.3271,333.0565L194.3467,335.0761z"/>
  </g>
  <g style="fill:#FFFF00; fill-rule:nonzero">
   <path  d="M184.2304,330.7921L182.2108,328.7725L184.2304,326.7529L186.2500,328.7725z"/>
  </g>
  <g style="fill:none; stroke:#FFFF00; stroke-width:  0.9180; stroke-linecap:butt; stroke-linejoin:miter; stroke-dasharray:none">
   <path d="M184.2304,330.7921L182.2108,328.7725L184.2304,326.7529L186.2500,328.7725z"/>
  </g>
  <g style="fill:#FFFF00; fill-rule:nonzero">
   <path  d="M175.6318,325.1678L173.6122,323.1482L175.6318,321.1286L177.6514,323.1482z"/>
  </g>
  <g style="fill:none; stroke:#FFFF00; stroke-width:  0.9180; stroke-linecap:butt; stroke-linejoin:miter; stroke-dasharray:none">
   <path d="M175.6318,325.1678L173.6122,323.1482L175.6318,321.1286L177.6514,323.1482z"/>
  </g>
  <g style="fill:#FFFF00; fill-rule:nonzero">
   <path  d="M168.2816,318.0074L166.2620,315.9878L168.2816,313.9682L170.3012,315.9878z"/>
  </g>
  <g style="fill:none; stroke:#FFFF00; stroke-width:  0.9180; stroke-linecap:butt; stroke-linejoin:miter; stroke-dasharray:none">
   <path d="M168.2816,318.0074L166.2620,315.9878L168.2816,313.9682L170.3012,315.9878z"/>
  </g>
  <g style="fill:#FFFF00; fill-rule:nonzero">
   <path  d="M162.1494,309.7638L160.1298,307.7442L162.1494,305.7246L164.1690,307.7442z"/>
  </g>
  <g style="fill:none; stroke:#FFFF00; stroke-width:  0.9180; stroke-linecap:butt; stroke-linejoin:miter; stroke-dasharray:none">
   <path d="M162.1494,309.7638L160.1298,307.7442L162.1494,305.7246L164.1690,307.7442z"/>
  </g>
  <g style="fill:#FFFF00; fill-rule:nonzero">
   <path  d="M156.4027,301.2631L154.3831,299.2435L156.4027,297.2239L158.4223,299.2435z"/>
  </g>
  <g style="fill:none; stroke:#FFFF00; stroke-width:  0.9180; stroke-linecap:butt; stroke-linejoin:miter; stroke-dasharray:none">
   <path d="M156.4027,301.2631L154.3831,299.2435L156.4027,297.2239L158.4223,299.2435z"/>
  </g>
  <g style="fill:#FFFF00; fill-rule:nonzero">
   <path  d="M150.5887,292.8175L148.5691,290.7979L150.5887,288.7783L152.6083,290.7979z"/>
  </g>
  <g style="fill:none; stroke:#FFFF00; stroke-width:  0.9180; stroke-linecap:butt; stroke-linejoin:miter; stroke-dasharray:none">
   <path d="M150.5887,292.8175L148.5691,290.7979L150.5887,288.7783L152.6083,290.7979z"/>
  </g>
  <g style="fill:#FFFF00; fill-rule:nonzero">
   <path  d="M144.0709,284.9105L142.0513,282.8909L144.0709,280.8713L146.0905,282.8909z"/>
  </g>
  <g style="fill:none; stroke:#FFFF00; stroke-width:  0.9180; stroke-linecap:butt; stroke-linejoin:miter; stroke-dasharray:none">
   <path d="M144.0709,284.9105L142.0513,282.8909L144.0709,280.8713L146.0905,282.8909z"/>
  </g>
  <g style="fill:#FFFF00; fill-rule:nonzero">
   <path  d="M136.5678,277.9337L134.5482,275.9141L136.5678,273.8945L138.5874,275.9141z"/>
  </g>
  <g style="fill:none; stroke:#FFFF00; stroke-width:  0.9180; stroke-linecap:butt; stroke-linejoin:miter; stroke-dasharray:none">
   <path d="M136.5678,277.9337L134.5482,275.9141L136.5678,273.8945L138.5874,275.9141z"/>
  </g>
  <g style="fill:#FFFF00; fill-rule:nonzero">
   <path  d="M128.6179,271.4893L126.5983,269.4697L128.6179,267.4501L130.6375,269.4697z"/>
  </g>
  <g style="fill:none; stroke:#FFFF00; stroke-width:  0.9180; stroke-linecap:butt; stroke-linejoin:miter; stroke-dasharray:none">
   <path d="M128.6179,271.4893L126.5983,269.4697L128.6179,267.4501L130.6375,269.4697z"/>
  </g>
  <g style="fill:#FFFF00; fill-rule:nonzero">
   <path  d="M123.0732,262.9274L121.0536,260.9078L123.0732,258.8882L125.0928,260.9078z"/>
  </g>
  <g style="fill:none; stroke:#FFFF00; stroke-width:  0.9180; stroke-linecap:butt; stroke-linejoin:miter; stroke-dasharray:none">
   <path d="M123.0732,262.9274L121.0536,260.9078L123.0732,258.8882L125.0928,260.9078z"/>
  </g>
  <g style="fill:#FFFF00; fill-rule:nonzero">
   <path  d="M121.3045,252.8600L119.2849,250.8404L121.3045,248.8208L123.3241,250.8404z"/>
  </g>
  <g style="fill:none; stroke:#FFFF00; stroke-width:  0.9180; stroke-linecap:butt; stroke-linejoin:miter; stroke-dasharray:none">
   <path d="M121.3045,252.8600L119.2849,250.8404L121.3045,248.8208L123.3241,250.8404z"/>
  </g>
  <g style="fill:#FFFF00; fill-rule:nonzero">
   <path  d="M121.0597,242.6580L119.0401,240.6384L121.0597,238.6188L123.0793,240.6384z"/>
  </g>
  <g style="fill:none; stroke:#FFFF00; stroke-width:  0.9180; stroke-linecap:butt; stroke-linejoin:miter; stroke-dasharray:none">
   <path d="M121.0597,242.6580L119.0401,240.6384L121.0597,238.6188L123.0793,240.6384z"/>
  </g>
  <g style="fill:#FFFF00; fill-rule:nonzero">
   <path  d="M124.2972,233.0129L122.2776,230.9933L124.2972,228.9737L126.3168,230.9933z"/>
  </g>
  <g style="fill:none; stroke:#FFFF00; stroke-width:  0.9180; stroke-linecap:butt; stroke-linejoin:miter; stroke-dasharray:none">
   <path d="M124.2972,233.0129L122.2776,230.9933L124.2972,228.9737L126.3168,230.9933z"/>
  </g>
  <g style="fill:#FFFF00; fill-rule:nonzero">
   <path  d="M131.0598,225.3812L129.0402,223.3616L131.0598,221.3420L133.0794,223.3616z"/>
  </g>
  <g style="fill:none; stroke:#FFFF00; stroke-width:  0.9180; stroke-linecap:butt; stroke-linejoin:miter; stroke-dasharray:none">
   <path d="M131.0598,225.3812L129.0402,223.3616L131.0598,221.3420L133.0794,223.3616z"/>
  </g>
  <g style="fill:none; stroke:#000000; stroke-width:  0.9180; stroke-linecap:butt; stroke-linejoin:miter; stroke-dasharray:none">
   <path d="M61.2000,61.2000L581.4000,61.2000"/>
   <path d="M214.2000,61.2000L214.2000,55.0800"/>
   <path d="M520.2000,61.2000L520.2000,55.0800"/>
   <path d="M61.2000,61.2000L61.2000,48.9600"/>
   <path d="M367.2000,61.2000L367.2000,48.9600"/>
  </g>
  <g style="fill:#000000; fill-rule:nonzero">
   <text   style="font-family:'Helvetica','Nimbus Sans L'; font-style:normal; font-weight:normal; font-size:612.0000" transform="matrix(0.0277,0.0000,-0.0000,-0.0277,49.7000,30.8400)">5.5</text>
   <text   style="font-family:'Helvetica','Nimbus Sans L'; font-style:normal; font-weight:normal; font-size:612.0000" transform="matrix(0.0277,0.0000,-0.0000,-0.0277,362.7000,30.8400)">6</text>
  </g>
  <g style="fill:none; stroke:#000000; stroke-width:  0.9180; stroke-linecap:butt; stroke-linejoin:miter; stroke-dasharray:none">
   <path d="M61.2000,61.2000L61.2000,581.4000"/>
   <path d="M61.2000,306.0000L55.0800,306.0000"/>
   <path d="M61.2000,153.0000L48.9600,153.0000"/>
   <path d="M61.2000,459.0000L48.9600,459.0000"/>
  </g>
  <g style="fill:#000000; fill-rule:nonzero">
   <text   style="font-family:'Helvetica','Nimbus Sans L'; font-style:normal; font-weight:normal; font-size:612.0000" transform="matrix(0.0280,0.0000,-0.0000,-0.0280,19.8400,147.0000)">5.5</text>
   <text   style="font-family:'Helvetica','Nimbus Sans L'; font-style:normal; font-weight:normal; font-size:612.0000" transform="matrix(0.0280,0.0000,-0.0000,-0.0280,33.8400,453.0000)">6</text>
  </g>
  <g style="fill:none; stroke:#000000; stroke-width:  0.9180; stroke-linecap:butt; stroke-linejoin:miter; stroke-dasharray:none">
   <path d="M61.2000,61.2000L61.2000,581.4000L581.4000,581.4000L581.4000,61.2000z"/>
  </g>
 </g>
</svg>
