solid
  facet normal 1 0 0
  outer loop
    vertex 4 0.0075878221541643143 -0.5
    vertex 4 0.19892953336238861 -0.46193975210189819
    vertex 4 0.36114120483398438 0.35355338454246521
  endloop
  endfacet
  facet normal 1 0 0
  outer loop
    vertex 4 0.36114120483398438 0.35355338454246521
    vertex 4 0.19892953336238861 0.46193975210189819
    vertex 4 0.0075878221541643143 -0.5
  endloop
  endfacet
  facet normal 1 0 0
  outer loop
    vertex 4 0.19892953336238861 0.46193975210189819
    vertex 4 -0.45435193181037903 0.19134171307086945
    vertex 4 0.0075878221541643143 -0.5
  endloop
  endfacet
  facet normal 1 0 0
  outer loop
    vertex 4 0.19892953336238861 0.46193975210189819
    vertex 4 -0.34596556425094604 0.35355338454246521
    vertex 4 -0.45435193181037903 0.19134171307086945
  endloop
  endfacet
  facet normal 1 0 0
  outer loop
    vertex 4 -0.45435193181037903 0.19134171307086945
    vertex 4 -0.45435193181037903 -0.19134171307086945
    vertex 4 0.0075878221541643143 -0.5
  endloop
  endfacet
  facet normal 1 0 0
  outer loop
    vertex 4 0.19892953336238861 -0.46193975210189819
    vertex 4 0.46952760219573975 -0.19134171307086945
    vertex 4 0.36114120483398438 0.35355338454246521
  endloop
  endfacet
  facet normal 1 0 0
  outer loop
    vertex 4 -0.45435193181037903 -0.19134171307086945
    vertex 4 -0.34596556425094604 -0.35355338454246521
    vertex 4 0.0075878221541643143 -0.5
  endloop
  endfacet
  facet normal 1 0 -0
  outer loop
    vertex 4 0.46952760219573975 -0.19134171307086945
    vertex 4 0.50758785009384155 1.8415556387981537e-16
    vertex 4 0.36114120483398438 0.35355338454246521
  endloop
  endfacet
  facet normal 1 0 0
  outer loop
    vertex 4 0.19892953336238861 -0.46193975210189819
    vertex 4 0.36114120483398438 -0.35355338454246521
    vertex 4 0.46952760219573975 -0.19134171307086945
  endloop
  endfacet
  facet normal 1 0 0
  outer loop
    vertex 4 -0.45435193181037903 0.19134171307086945
    vertex 4 -0.49241217970848083 6.1694921880132747e-17
    vertex 4 -0.45435193181037903 -0.19134171307086945
  endloop
  endfacet
  facet normal 1 0 0
  outer loop
    vertex 4 0.19892953336238861 0.46193975210189819
    vertex 4 0.0075878221541643143 0.5
    vertex 4 -0.34596556425094604 0.35355338454246521
  endloop
  endfacet
  facet normal 1 0 0
  outer loop
    vertex 4 0.50758785009384155 1.8415556387981537e-16
    vertex 4 0.46952760219573975 0.19134171307086945
    vertex 4 0.36114120483398438 0.35355338454246521
  endloop
  endfacet
  facet normal 1 0 0
  outer loop
    vertex 4 -0.34596556425094604 -0.35355338454246521
    vertex 4 -0.18375389277935028 -0.46193975210189819
    vertex 4 0.0075878221541643143 -0.5
  endloop
  endfacet
  facet normal 1 0 0
  outer loop
    vertex 4 0.0075878221541643143 0.5
    vertex 4 -0.18375389277935028 0.46193975210189819
    vertex 4 -0.34596556425094604 0.35355338454246521
  endloop
  endfacet
  facet normal 0 0.19509032368659973 0.98078525066375732
  outer loop
    vertex 4 0.0075878221541643143 0.5
    vertex 4 0.19892953336238861 0.46193975210189819
    vertex 0 0.19892953336238861 0.46193975210189819
  endloop
  endfacet
  facet normal -4.4459497950944081e-18 0.55557024478912354 0.83146959543228149
  outer loop
    vertex 4 0.19892953336238861 0.46193975210189819
    vertex 4 0.36114120483398438 0.35355338454246521
    vertex 0 0.36114120483398438 0.35355338454246521
  endloop
  endfacet
  facet normal -1.7783799180377633e-17 0.83146959543228149 0.55557024478912354
  outer loop
    vertex 4 0.36114120483398438 0.35355338454246521
    vertex 4 0.46952760219573975 0.19134171307086945
    vertex 0 0.46952760219573975 0.19134171307086945
  endloop
  endfacet
  facet normal -4.4459497950944081e-18 0.98078525066375732 0.19509032368659973
  outer loop
    vertex 4 0.46952760219573975 0.19134171307086945
    vertex 4 0.50758785009384155 1.8415556387981537e-16
    vertex 0 0.50758785009384155 9.8029247185553214e-17
  endloop
  endfacet
  facet normal 5.5574369336752805e-18 0.98078525066375732 -0.19509032368659973
  outer loop
    vertex 4 0.50758785009384155 1.8415556387981537e-16
    vertex 4 0.46952760219573975 -0.19134171307086945
    vertex 0 0.46952760219573975 -0.19134171307086945
  endloop
  endfacet
  facet normal -4.4459497950944081e-18 0.83146959543228149 -0.55557024478912354
  outer loop
    vertex 4 0.46952760219573975 -0.19134171307086945
    vertex 4 0.36114120483398438 -0.35355338454246521
    vertex 0 0.36114120483398438 -0.35355338454246521
  endloop
  endfacet
  facet normal -1.7783799180377633e-17 0.55557024478912354 -0.83146959543228149
  outer loop
    vertex 4 0.36114120483398438 -0.35355338454246521
    vertex 4 0.19892953336238861 -0.46193975210189819
    vertex 0 0.19892953336238861 -0.46193975210189819
  endloop
  endfacet
  facet normal -6.6689244858464591e-18 0.19509032368659973 -0.98078525066375732
  outer loop
    vertex 4 0.19892953336238861 -0.46193975210189819
    vertex 4 0.0075878221541643143 -0.5
    vertex 0 0.0075878221541643143 -0.5
  endloop
  endfacet
  facet normal -2.0006772630358765e-17 -0.19509032368659973 -0.98078525066375732
  outer loop
    vertex 4 0.0075878221541643143 -0.5
    vertex 4 -0.18375389277935028 -0.46193975210189819
    vertex 0 -0.18375389277935028 -0.46193975210189819
  endloop
  endfacet
  facet normal -1.3337848971692918e-17 -0.55557024478912354 -0.83146959543228149
  outer loop
    vertex 4 -0.18375389277935028 -0.46193975210189819
    vertex 4 -0.34596556425094604 -0.35355338454246521
    vertex 0 -0.34596556425094604 -0.35355338454246521
  endloop
  endfacet
  facet normal -2.2229747734701122e-17 -0.83146959543228149 -0.55557024478912354
  outer loop
    vertex 4 -0.34596556425094604 -0.35355338454246521
    vertex 4 -0.45435193181037903 -0.19134171307086945
    vertex 0 -0.45435193181037903 -0.19134171307086945
  endloop
  endfacet
  facet normal -1.222636141952174e-17 -0.98078525066375732 -0.19509032368659973
  outer loop
    vertex 4 -0.45435193181037903 -0.19134171307086945
    vertex 4 -0.49241217970848083 6.1694921880132747e-17
    vertex 0 -0.49241217970848083 2.9231826987751071e-16
  endloop
  endfacet
  facet normal 2.2229748975472041e-18 -0.98078525066375732 0.19509032368659973
  outer loop
    vertex 4 -0.49241217970848083 6.1694921880132747e-17
    vertex 4 -0.45435193181037903 0.19134171307086945
    vertex 0 -0.45435193181037903 0.19134171307086945
  endloop
  endfacet
  facet normal -8.8918995901888163e-18 -0.83146959543228149 0.55557024478912354
  outer loop
    vertex 4 -0.45435193181037903 0.19134171307086945
    vertex 4 -0.34596556425094604 0.35355338454246521
    vertex 0 -0.34596556425094604 0.35355338454246521
  endloop
  endfacet
  facet normal 8.8918995901888163e-18 -0.55557024478912354 0.83146959543228149
  outer loop
    vertex 4 -0.34596556425094604 0.35355338454246521
    vertex 4 -0.18375389277935028 0.46193975210189819
    vertex 0 -0.18375389277935028 0.46193975210189819
  endloop
  endfacet
  facet normal -6.6689244858464591e-18 -0.19509032368659973 0.98078525066375732
  outer loop
    vertex 4 -0.18375389277935028 0.46193975210189819
    vertex 4 0.0075878221541643143 0.5
    vertex 0 0.0075878221541643143 0.5
  endloop
  endfacet
  facet normal -2.6675697943385836e-17 -0.19509032368659973 0.98078525066375732
  outer loop
    vertex 0 0.0075878221541643143 0.5
    vertex 0 -0.18375389277935028 0.46193975210189819
    vertex 4 -0.18375389277935028 0.46193975210189819
  endloop
  endfacet
  facet normal -3.1121648152070551e-17 -0.55557024478912354 0.83146959543228149
  outer loop
    vertex 0 -0.18375389277935028 0.46193975210189819
    vertex 0 -0.34596556425094604 0.35355338454246521
    vertex 4 -0.34596556425094604 0.35355338454246521
  endloop
  endfacet
  facet normal 4.4459497950944081e-18 -0.83146959543228149 0.55557024478912354
  outer loop
    vertex 0 -0.34596556425094604 0.35355338454246521
    vertex 0 -0.45435193181037903 0.19134171307086945
    vertex 4 -0.45435193181037903 0.19134171307086945
  endloop
  endfacet
  facet normal 1.222636141952174e-17 -0.98078525066375732 0.19509032368659973
  outer loop
    vertex 0 -0.45435193181037903 0.19134171307086945
    vertex 0 -0.49241217970848083 2.9231826987751071e-16
    vertex 4 -0.49241217970848083 6.1694921880132747e-17
  endloop
  endfacet
  facet normal 2.1118260182529943e-17 -0.98078525066375732 -0.19509032368659973
  outer loop
    vertex 0 -0.49241217970848083 2.9231826987751071e-16
    vertex 0 -0.45435193181037903 -0.19134171307086945
    vertex 4 -0.45435193181037903 -0.19134171307086945
  endloop
  endfacet
  facet normal -4.4459497950944081e-18 -0.83146959543228149 -0.55557024478912354
  outer loop
    vertex 0 -0.45435193181037903 -0.19134171307086945
    vertex 0 -0.34596556425094604 -0.35355338454246521
    vertex 4 -0.34596556425094604 -0.35355338454246521
  endloop
  endfacet
  facet normal -4.4459497950944081e-18 -0.55557024478912354 -0.83146959543228149
  outer loop
    vertex 0 -0.34596556425094604 -0.35355338454246521
    vertex 0 -0.18375389277935028 -0.46193975210189819
    vertex 4 -0.18375389277935028 -0.46193975210189819
  endloop
  endfacet
  facet normal 6.6689244858464591e-18 -0.19509032368659973 -0.98078525066375732
  outer loop
    vertex 0 -0.18375389277935028 -0.46193975210189819
    vertex 0 0.0075878221541643143 -0.5
    vertex 4 0.0075878221541643143 -0.5
  endloop
  endfacet
  facet normal -6.6689244858464591e-18 0.19509032368659973 -0.98078525066375732
  outer loop
    vertex 0 0.0075878221541643143 -0.5
    vertex 0 0.19892953336238861 -0.46193975210189819
    vertex 4 0.19892953336238861 -0.46193975210189819
  endloop
  endfacet
  facet normal 4.4459497950944081e-18 0.55557024478912354 -0.83146959543228149
  outer loop
    vertex 0 0.19892953336238861 -0.46193975210189819
    vertex 0 0.36114120483398438 -0.35355338454246521
    vertex 4 0.36114120483398438 -0.35355338454246521
  endloop
  endfacet
  facet normal 1.3337848971692918e-17 0.83146959543228149 -0.55557024478912354
  outer loop
    vertex 0 0.36114120483398438 -0.35355338454246521
    vertex 0 0.46952760219573975 -0.19134171307086945
    vertex 4 0.46952760219573975 -0.19134171307086945
  endloop
  endfacet
  facet normal 4.4459497950944081e-18 0.98078525066375732 -0.19509032368659973
  outer loop
    vertex 0 0.46952760219573975 -0.19134171307086945
    vertex 0 0.50758785009384155 9.8029247185553214e-17
    vertex 4 0.50758785009384155 1.8415556387981537e-16
  endloop
  endfacet
  facet normal -5.5574369336752805e-18 0.98078525066375732 0.19509032368659973
  outer loop
    vertex 0 0.50758785009384155 9.8029247185553214e-17
    vertex 0 0.46952760219573975 0.19134171307086945
    vertex 4 0.46952760219573975 0.19134171307086945
  endloop
  endfacet
  facet normal 4.4459497950944081e-18 0.83146959543228149 0.55557024478912354
  outer loop
    vertex 0 0.46952760219573975 0.19134171307086945
    vertex 0 0.36114120483398438 0.35355338454246521
    vertex 4 0.36114120483398438 0.35355338454246521
  endloop
  endfacet
  facet normal 0 0.55557024478912354 0.83146959543228149
  outer loop
    vertex 0 0.36114120483398438 0.35355338454246521
    vertex 0 0.19892953336238861 0.46193975210189819
    vertex 4 0.19892953336238861 0.46193975210189819
  endloop
  endfacet
  facet normal 6.6689244858464591e-18 0.19509032368659973 0.98078525066375732
  outer loop
    vertex 0 0.19892953336238861 0.46193975210189819
    vertex 0 0.0075878221541643143 0.5
    vertex 4 0.0075878221541643143 0.5
  endloop
  endfacet
  facet normal -1 1.7958574172003962e-17 1.1999535260669899e-17
  outer loop
    vertex 0 0.36114120483398438 0.35355338454246521
    vertex 0 0.46952760219573975 0.19134171307086945
    vertex -2.1183580981142031e-17 -0.34596556425094604 -0.35355338454246521
  endloop
  endfacet
  facet normal -1 -6.0325739443010474e-17 9.0283845566961884e-17
  outer loop
    vertex -2.1183580981142031e-17 -0.34596556425094604 -0.35355338454246521
    vertex 0 -0.45435193181037903 -0.19134171307086945
    vertex 0 0.36114120483398438 0.35355338454246521
  endloop
  endfacet
  facet normal -1 6.1230317691118863e-17 -5.2761205828437538e-17
  outer loop
    vertex 0 0.46952760219573975 0.19134171307086945
    vertex 2.2112791013531024e-17 0.36114120483398438 -0.35355338454246521
    vertex -2.1183580981142031e-17 -0.34596556425094604 -0.35355338454246521
  endloop
  endfacet
  facet normal -1 0 0
  outer loop
    vertex 0 -0.45435193181037903 -0.19134171307086945
    vertex 0 -0.34596556425094604 0.35355338454246521
    vertex 0 0.36114120483398438 0.35355338454246521
  endloop
  endfacet
  facet normal -1 6.1230317691118863e-17 1.1238053302832773e-16
  outer loop
    vertex 2.2112791013531024e-17 0.36114120483398438 -0.35355338454246521
    vertex 0 0.19892953336238861 -0.46193975210189819
    vertex -2.1183580981142031e-17 -0.34596556425094604 -0.35355338454246521
  endloop
  endfacet
  facet normal -1 0 0
  outer loop
    vertex 0 -0.45435193181037903 -0.19134171307086945
    vertex 0 -0.45435193181037903 0.19134171307086945
    vertex 0 -0.34596556425094604 0.35355338454246521
  endloop
  endfacet
  facet normal -1 0 0
  outer loop
    vertex 0 -0.34596556425094604 0.35355338454246521
    vertex 0 -0.18375389277935028 0.46193975210189819
    vertex 0 0.36114120483398438 0.35355338454246521
  endloop
  endfacet
  facet normal -1 0 0
  outer loop
    vertex 0 -0.45435193181037903 -0.19134171307086945
    vertex 0 -0.49241217970848083 2.9231826987751071e-16
    vertex 0 -0.45435193181037903 0.19134171307086945
  endloop
  endfacet
  facet normal -1 1.9438219962487792e-17 -9.7722528614418552e-17
  outer loop
    vertex 0 0.19892953336238861 -0.46193975210189819
    vertex 0 0.0075878221541643143 -0.5
    vertex -2.1183580981142031e-17 -0.34596556425094604 -0.35355338454246521
  endloop
  endfacet
  facet normal -1 -1.0200909104523165e-16 -2.0290869466101327e-17
  outer loop
    vertex 0 0.46952760219573975 0.19134171307086945
    vertex 0 0.50758785009384155 9.8029247185553214e-17
    vertex 2.2112791013531024e-17 0.36114120483398438 -0.35355338454246521
  endloop
  endfacet
  facet normal -1 0 0
  outer loop
    vertex 0 -0.18375389277935028 0.46193975210189819
    vertex 0 0.0075878221541643143 0.5
    vertex 0 0.36114120483398438 0.35355338454246521
  endloop
  endfacet
  facet normal -1 -5.535536665213449e-17 -2.7829021313089742e-16
  outer loop
    vertex 0 0.0075878221541643143 -0.5
    vertex 0 -0.18375389277935028 -0.46193975210189819
    vertex -2.1183580981142031e-17 -0.34596556425094604 -0.35355338454246521
  endloop
  endfacet
  facet normal -1 -2.9049730785959157e-16 5.77835090181696e-17
  outer loop
    vertex 0 0.50758785009384155 9.8029247185553214e-17
    vertex 0 0.46952760219573975 -0.19134171307086945
    vertex 2.2112791013531024e-17 0.36114120483398438 -0.35355338454246521
  endloop
  endfacet
  facet normal -1 0 0
  outer loop
    vertex 0 0.0075878221541643143 0.5
    vertex 0 0.19892953336238861 0.46193975210189819
    vertex 0 0.36114120483398438 0.35355338454246521
  endloop
  endfacet
endsolid
