<?xml version="1.0" encoding="ISO-8859-1"?>
<!DOCTYPE svg PUBLIC "-//W3C//DTD SVG 1.0//EN" "http://www.w3.org/TR/2001/REC-SVG-20010904/DTD/svg10.dtd">
<!-- generated by Grace-5.1.22 -->
<svg xml:space="preserve" width="11.0000in" height="8.5000in" viewBox="0.0000 0.0000 792.0000 612.0000">
 <g transform="translate(0,612.0000) scale(1,-1)">
  <g style="fill:#DCDCDC; fill-rule:nonzero">
   <path  d="M0.0000,0.0000L0.0000,612.0000L792.0000,612.0000L792.0000,0.0000z"/>
  </g>
  <g style="fill:#FFFF00; fill-rule:nonzero">
   <path  d="M137.9509,218.8879L135.9313,216.8683L137.9509,214.8487L139.9705,216.8683z"/>
  </g>
  <g style="fill:none; stroke:#FFFF00; stroke-width:  0.9180; stroke-linecap:butt; stroke-linejoin:miter; stroke-dasharray:none">
   <path d="M137.9509,218.8879L135.9313,216.8683L137.9509,214.8487L139.9705,216.8683z"/>
  </g>
  <g style="fill:#FFFF00; fill-rule:nonzero">
   <path  d="M146.5067,211.3603L144.4871,209.3407L146.5067,207.3211L148.5263,209.3407z"/>
  </g>
  <g style="fill:none; stroke:#FFFF00; stroke-width:  0.9180; stroke-linecap:butt; stroke-linejoin:miter; stroke-dasharray:none">
   <path d="M146.5067,211.3603L144.4871,209.3407L146.5067,207.3211L148.5263,209.3407z"/>
  </g>
  <g style="fill:#FFFF00; fill-rule:nonzero">
   <path  d="M155.1848,203.9735L153.1652,201.9539L155.1848,199.9343L157.2044,201.9539z"/>
  </g>
  <g style="fill:none; stroke:#FFFF00; stroke-width:  0.9180; stroke-linecap:butt; stroke-linejoin:miter; stroke-dasharray:none">
   <path d="M155.1848,203.9735L153.1652,201.9539L155.1848,199.9343L157.2044,201.9539z"/>
  </g>
  <g style="fill:#FFFF00; fill-rule:nonzero">
   <path  d="M162.8348,197.8351L160.8152,195.8155L162.8348,193.7959L164.8544,195.8155z"/>
  </g>
  <g style="fill:none; stroke:#FFFF00; stroke-width:  0.9180; stroke-linecap:butt; stroke-linejoin:miter; stroke-dasharray:none">
   <path d="M162.8348,197.8351L160.8152,195.8155L162.8348,193.7959L164.8544,195.8155z"/>
  </g>
  <g style="fill:#FFFF00; fill-rule:nonzero">
   <path  d="M169.3465,190.5095L167.3269,188.4899L169.3465,186.4703L171.3661,188.4899z"/>
  </g>
  <g style="fill:none; stroke:#FFFF00; stroke-width:  0.9180; stroke-linecap:butt; stroke-linejoin:miter; stroke-dasharray:none">
   <path d="M169.3465,190.5095L167.3269,188.4899L169.3465,186.4703L171.3661,188.4899z"/>
  </g>
  <g style="fill:#FFFF00; fill-rule:nonzero">
   <path  d="M175.6501,183.0064L173.6305,180.9868L175.6501,178.9672L177.6697,180.9868z"/>
  </g>
  <g style="fill:none; stroke:#FFFF00; stroke-width:  0.9180; stroke-linecap:butt; stroke-linejoin:miter; stroke-dasharray:none">
   <path d="M175.6501,183.0064L173.6305,180.9868L175.6501,178.9672L177.6697,180.9868z"/>
  </g>
  <g style="fill:#FFFF00; fill-rule:nonzero">
   <path  d="M182.1312,175.6440L180.1116,173.6244L182.1312,171.6048L184.1508,173.6244z"/>
  </g>
  <g style="fill:none; stroke:#FFFF00; stroke-width:  0.9180; stroke-linecap:butt; stroke-linejoin:miter; stroke-dasharray:none">
   <path d="M182.1312,175.6440L180.1116,173.6244L182.1312,171.6048L184.1508,173.6244z"/>
  </g>
  <g style="fill:#FFFF00; fill-rule:nonzero">
   <path  d="M185.9195,167.1862L183.8999,165.1666L185.9195,163.1470L187.9391,165.1666z"/>
  </g>
  <g style="fill:none; stroke:#FFFF00; stroke-width:  0.9180; stroke-linecap:butt; stroke-linejoin:miter; stroke-dasharray:none">
   <path d="M185.9195,167.1862L183.8999,165.1666L185.9195,163.1470L187.9391,165.1666z"/>
  </g>
  <g style="fill:#FFFF00; fill-rule:nonzero">
   <path  d="M188.9550,158.4284L186.9354,156.4088L188.9550,154.3892L190.9746,156.4088z"/>
  </g>
  <g style="fill:none; stroke:#FFFF00; stroke-width:  0.9180; stroke-linecap:butt; stroke-linejoin:miter; stroke-dasharray:none">
   <path d="M188.9550,158.4284L186.9354,156.4088L188.9550,154.3892L190.9746,156.4088z"/>
  </g>
  <g style="fill:#FFFF00; fill-rule:nonzero">
   <path  d="M190.4666,149.2668L188.4470,147.2472L190.4666,145.2276L192.4862,147.2472z"/>
  </g>
  <g style="fill:none; stroke:#FFFF00; stroke-width:  0.9180; stroke-linecap:butt; stroke-linejoin:miter; stroke-dasharray:none">
   <path d="M190.4666,149.2668L188.4470,147.2472L190.4666,145.2276L192.4862,147.2472z"/>
  </g>
  <g style="fill:#FFFF00; fill-rule:nonzero">
   <path  d="M192.4862,137.6510L190.4666,135.6314L192.4862,133.6118L194.5058,135.6314z"/>
  </g>
  <g style="fill:none; stroke:#FFFF00; stroke-width:  0.9180; stroke-linecap:butt; stroke-linejoin:miter; stroke-dasharray:none">
   <path d="M192.4862,137.6510L190.4666,135.6314L192.4862,133.6118L194.5058,135.6314z"/>
  </g>
  <g style="fill:#FFFF00; fill-rule:nonzero">
   <path  d="M194.9771,126.1332L192.9575,124.1136L194.9771,122.0940L196.9967,124.1136z"/>
  </g>
  <g style="fill:none; stroke:#FFFF00; stroke-width:  0.9180; stroke-linecap:butt; stroke-linejoin:miter; stroke-dasharray:none">
   <path d="M194.9771,126.1332L192.9575,124.1136L194.9771,122.0940L196.9967,124.1136z"/>
  </g>
  <g style="fill:#FFFF00; fill-rule:nonzero">
   <path  d="M197.2476,115.0866L195.2280,113.0670L197.2476,111.0474L199.2672,113.0670z"/>
  </g>
  <g style="fill:none; stroke:#FFFF00; stroke-width:  0.9180; stroke-linecap:butt; stroke-linejoin:miter; stroke-dasharray:none">
   <path d="M197.2476,115.0866L195.2280,113.0670L197.2476,111.0474L199.2672,113.0670z"/>
  </g>
  <g style="fill:#FFFF00; fill-rule:nonzero">
   <path  d="M200.4239,105.7169L198.4043,103.6973L200.4239,101.6777L202.4435,103.6973z"/>
  </g>
  <g style="fill:none; stroke:#FFFF00; stroke-width:  0.9180; stroke-linecap:butt; stroke-linejoin:miter; stroke-dasharray:none">
   <path d="M200.4239,105.7169L198.4043,103.6973L200.4239,101.6777L202.4435,103.6973z"/>
  </g>
  <g style="fill:#FFFF00; fill-rule:nonzero">
   <path  d="M207.6394,98.9849L205.6198,96.9653L207.6394,94.9457L209.6590,96.9653z"/>
  </g>
  <g style="fill:none; stroke:#FFFF00; stroke-width:  0.9180; stroke-linecap:butt; stroke-linejoin:miter; stroke-dasharray:none">
   <path d="M207.6394,98.9849L205.6198,96.9653L207.6394,94.9457L209.6590,96.9653z"/>
  </g>
  <g style="fill:#FFFF00; fill-rule:nonzero">
   <path  d="M217.5048,98.2872L215.4852,96.2676L217.5048,94.2480L219.5244,96.2676z"/>
  </g>
  <g style="fill:none; stroke:#FFFF00; stroke-width:  0.9180; stroke-linecap:butt; stroke-linejoin:miter; stroke-dasharray:none">
   <path d="M217.5048,98.2872L215.4852,96.2676L217.5048,94.2480L219.5244,96.2676z"/>
  </g>
  <g style="fill:#FFFF00; fill-rule:nonzero">
   <path  d="M226.4278,102.4855L224.4082,100.4659L226.4278,98.4463L228.4474,100.4659z"/>
  </g>
  <g style="fill:none; stroke:#FFFF00; stroke-width:  0.9180; stroke-linecap:butt; stroke-linejoin:miter; stroke-dasharray:none">
   <path d="M226.4278,102.4855L224.4082,100.4659L226.4278,98.4463L228.4474,100.4659z"/>
  </g>
  <g style="fill:#FFFF00; fill-rule:nonzero">
   <path  d="M233.8636,108.8075L231.8440,106.7879L233.8636,104.7683L235.8832,106.7879z"/>
  </g>
  <g style="fill:none; stroke:#FFFF00; stroke-width:  0.9180; stroke-linecap:butt; stroke-linejoin:miter; stroke-dasharray:none">
   <path d="M233.8636,108.8075L231.8440,106.7879L233.8636,104.7683L235.8832,106.7879z"/>
  </g>
  <g style="fill:#FFFF00; fill-rule:nonzero">
   <path  d="M238.5392,117.3265L236.5196,115.3069L238.5392,113.2873L240.5588,115.3069z"/>
  </g>
  <g style="fill:none; stroke:#FFFF00; stroke-width:  0.9180; stroke-linecap:butt; stroke-linejoin:miter; stroke-dasharray:none">
   <path d="M238.5392,117.3265L236.5196,115.3069L238.5392,113.2873L240.5588,115.3069z"/>
  </g>
  <g style="fill:#FFFF00; fill-rule:nonzero">
   <path  d="M241.6421,127.1063L239.6225,125.0867L241.6421,123.0671L243.6617,125.0867z"/>
  </g>
  <g style="fill:none; stroke:#FFFF00; stroke-width:  0.9180; stroke-linecap:butt; stroke-linejoin:miter; stroke-dasharray:none">
   <path d="M241.6421,127.1063L239.6225,125.0867L241.6421,123.0671L243.6617,125.0867z"/>
  </g>
  <g style="fill:#FFFF00; fill-rule:nonzero">
   <path  d="M243.5332,137.1920L241.5136,135.1724L243.5332,133.1528L245.5528,135.1724z"/>
  </g>
  <g style="fill:none; stroke:#FFFF00; stroke-width:  0.9180; stroke-linecap:butt; stroke-linejoin:miter; stroke-dasharray:none">
   <path d="M243.5332,137.1920L241.5136,135.1724L243.5332,133.1528L245.5528,135.1724z"/>
  </g>
  <g style="fill:#FFFF00; fill-rule:nonzero">
   <path  d="M245.3447,148.0795L243.3251,146.0599L245.3447,144.0403L247.3643,146.0599z"/>
  </g>
  <g style="fill:none; stroke:#FFFF00; stroke-width:  0.9180; stroke-linecap:butt; stroke-linejoin:miter; stroke-dasharray:none">
   <path d="M245.3447,148.0795L243.3251,146.0599L245.3447,144.0403L247.3643,146.0599z"/>
  </g>
  <g style="fill:#FFFF00; fill-rule:nonzero">
   <path  d="M247.0460,158.9976L245.0264,156.9780L247.0460,154.9584L249.0656,156.9780z"/>
  </g>
  <g style="fill:none; stroke:#FFFF00; stroke-width:  0.9180; stroke-linecap:butt; stroke-linejoin:miter; stroke-dasharray:none">
   <path d="M247.0460,158.9976L245.0264,156.9780L247.0460,154.9584L249.0656,156.9780z"/>
  </g>
  <g style="fill:#FFFF00; fill-rule:nonzero">
   <path  d="M248.6801,169.8973L246.6605,167.8777L248.6801,165.8581L250.6997,167.8777z"/>
  </g>
  <g style="fill:none; stroke:#FFFF00; stroke-width:  0.9180; stroke-linecap:butt; stroke-linejoin:miter; stroke-dasharray:none">
   <path d="M248.6801,169.8973L246.6605,167.8777L248.6801,165.8581L250.6997,167.8777z"/>
  </g>
  <g style="fill:#FFFF00; fill-rule:nonzero">
   <path  d="M250.5712,179.4262L248.5516,177.4066L250.5712,175.3870L252.5908,177.4066z"/>
  </g>
  <g style="fill:none; stroke:#FFFF00; stroke-width:  0.9180; stroke-linecap:butt; stroke-linejoin:miter; stroke-dasharray:none">
   <path d="M250.5712,179.4262L248.5516,177.4066L250.5712,175.3870L252.5908,177.4066z"/>
  </g>
  <g style="fill:#FFFF00; fill-rule:nonzero">
   <path  d="M254.3533,188.3797L252.3337,186.3601L254.3533,184.3405L256.3729,186.3601z"/>
  </g>
  <g style="fill:none; stroke:#FFFF00; stroke-width:  0.9180; stroke-linecap:butt; stroke-linejoin:miter; stroke-dasharray:none">
   <path d="M254.3533,188.3797L252.3337,186.3601L254.3533,184.3405L256.3729,186.3601z"/>
  </g>
  <g style="fill:#FFFF00; fill-rule:nonzero">
   <path  d="M256.8931,197.7800L254.8735,195.7604L256.8931,193.7408L258.9127,195.7604z"/>
  </g>
  <g style="fill:none; stroke:#FFFF00; stroke-width:  0.9180; stroke-linecap:butt; stroke-linejoin:miter; stroke-dasharray:none">
   <path d="M256.8931,197.7800L254.8735,195.7604L256.8931,193.7408L258.9127,195.7604z"/>
  </g>
  <g style="fill:#FFFF00; fill-rule:nonzero">
   <path  d="M258.6006,206.3052L256.5810,204.2856L258.6006,202.2660L260.6202,204.2856z"/>
  </g>
  <g style="fill:none; stroke:#FFFF00; stroke-width:  0.9180; stroke-linecap:butt; stroke-linejoin:miter; stroke-dasharray:none">
   <path d="M258.6006,206.3052L256.5810,204.2856L258.6006,202.2660L260.6202,204.2856z"/>
  </g>
  <g style="fill:#FFFF00; fill-rule:nonzero">
   <path  d="M260.0694,214.8732L258.0498,212.8536L260.0694,210.8340L262.0890,212.8536z"/>
  </g>
  <g style="fill:none; stroke:#FFFF00; stroke-width:  0.9180; stroke-linecap:butt; stroke-linejoin:miter; stroke-dasharray:none">
   <path d="M260.0694,214.8732L258.0498,212.8536L260.0694,210.8340L262.0890,212.8536z"/>
  </g>
  <g style="fill:#FFFF00; fill-rule:nonzero">
   <path  d="M260.7610,223.5575L258.7414,221.5379L260.7610,219.5183L262.7806,221.5379z"/>
  </g>
  <g style="fill:none; stroke:#FFFF00; stroke-width:  0.9180; stroke-linecap:butt; stroke-linejoin:miter; stroke-dasharray:none">
   <path d="M260.7610,223.5575L258.7414,221.5379L260.7610,219.5183L262.7806,221.5379z"/>
  </g>
  <g style="fill:#FFFF00; fill-rule:nonzero">
   <path  d="M261.8626,235.2100L259.8430,233.1904L261.8626,231.1708L263.8822,233.1904z"/>
  </g>
  <g style="fill:none; stroke:#FFFF00; stroke-width:  0.9180; stroke-linecap:butt; stroke-linejoin:miter; stroke-dasharray:none">
   <path d="M261.8626,235.2100L259.8430,233.1904L261.8626,231.1708L263.8822,233.1904z"/>
  </g>
  <g style="fill:#FFFF00; fill-rule:nonzero">
   <path  d="M263.7659,246.7951L261.7463,244.7755L263.7659,242.7559L265.7855,244.7755z"/>
  </g>
  <g style="fill:none; stroke:#FFFF00; stroke-width:  0.9180; stroke-linecap:butt; stroke-linejoin:miter; stroke-dasharray:none">
   <path d="M263.7659,246.7951L261.7463,244.7755L263.7659,242.7559L265.7855,244.7755z"/>
  </g>
  <g style="fill:#FFFF00; fill-rule:nonzero">
   <path  d="M266.8014,258.1355L264.7818,256.1159L266.8014,254.0963L268.8210,256.1159z"/>
  </g>
  <g style="fill:none; stroke:#FFFF00; stroke-width:  0.9180; stroke-linecap:butt; stroke-linejoin:miter; stroke-dasharray:none">
   <path d="M266.8014,258.1355L264.7818,256.1159L266.8014,254.0963L268.8210,256.1159z"/>
  </g>
  <g style="fill:#FFFF00; fill-rule:nonzero">
   <path  d="M270.4734,267.5236L268.4538,265.5040L270.4734,263.4844L272.4930,265.5040z"/>
  </g>
  <g style="fill:none; stroke:#FFFF00; stroke-width:  0.9180; stroke-linecap:butt; stroke-linejoin:miter; stroke-dasharray:none">
   <path d="M270.4734,267.5236L268.4538,265.5040L270.4734,263.4844L272.4930,265.5040z"/>
  </g>
  <g style="fill:#FFFF00; fill-rule:nonzero">
   <path  d="M274.8614,276.4710L272.8418,274.4514L274.8614,272.4318L276.8810,274.4514z"/>
  </g>
  <g style="fill:none; stroke:#FFFF00; stroke-width:  0.9180; stroke-linecap:butt; stroke-linejoin:miter; stroke-dasharray:none">
   <path d="M274.8614,276.4710L272.8418,274.4514L274.8614,272.4318L276.8810,274.4514z"/>
  </g>
  <g style="fill:#FFFF00; fill-rule:nonzero">
   <path  d="M279.8064,285.1186L277.7868,283.0990L279.8064,281.0794L281.8260,283.0990z"/>
  </g>
  <g style="fill:none; stroke:#FFFF00; stroke-width:  0.9180; stroke-linecap:butt; stroke-linejoin:miter; stroke-dasharray:none">
   <path d="M279.8064,285.1186L277.7868,283.0990L279.8064,281.0794L281.8260,283.0990z"/>
  </g>
  <g style="fill:#FFFF00; fill-rule:nonzero">
   <path  d="M285.1920,293.5274L283.1724,291.5078L285.1920,289.4882L287.2116,291.5078z"/>
  </g>
  <g style="fill:none; stroke:#FFFF00; stroke-width:  0.9180; stroke-linecap:butt; stroke-linejoin:miter; stroke-dasharray:none">
   <path d="M285.1920,293.5274L283.1724,291.5078L285.1920,289.4882L287.2116,291.5078z"/>
  </g>
  <g style="fill:#FFFF00; fill-rule:nonzero">
   <path  d="M292.0892,303.3439L290.0696,301.3243L292.0892,299.3047L294.1088,301.3243z"/>
  </g>
  <g style="fill:none; stroke:#FFFF00; stroke-width:  0.9180; stroke-linecap:butt; stroke-linejoin:miter; stroke-dasharray:none">
   <path d="M292.0892,303.3439L290.0696,301.3243L292.0892,299.3047L294.1088,301.3243z"/>
  </g>
  <g style="fill:#FFFF00; fill-rule:nonzero">
   <path  d="M299.3782,312.8666L297.3586,310.8470L299.3782,308.8274L301.3978,310.8470z"/>
  </g>
  <g style="fill:none; stroke:#FFFF00; stroke-width:  0.9180; stroke-linecap:butt; stroke-linejoin:miter; stroke-dasharray:none">
   <path d="M299.3782,312.8666L297.3586,310.8470L299.3782,308.8274L301.3978,310.8470z"/>
  </g>
  <g style="fill:#FFFF00; fill-rule:nonzero">
   <path  d="M305.6695,320.3453L303.6499,318.3257L305.6695,316.3061L307.6891,318.3257z"/>
  </g>
  <g style="fill:none; stroke:#FFFF00; stroke-width:  0.9180; stroke-linecap:butt; stroke-linejoin:miter; stroke-dasharray:none">
   <path d="M305.6695,320.3453L303.6499,318.3257L305.6695,316.3061L307.6891,318.3257z"/>
  </g>
  <g style="fill:#FFFF00; fill-rule:nonzero">
   <path  d="M312.3342,327.4812L310.3146,325.4616L312.3342,323.4420L314.3538,325.4616z"/>
  </g>
  <g style="fill:none; stroke:#FFFF00; stroke-width:  0.9180; stroke-linecap:butt; stroke-linejoin:miter; stroke-dasharray:none">
   <path d="M312.3342,327.4812L310.3146,325.4616L312.3342,323.4420L314.3538,325.4616z"/>
  </g>
  <g style="fill:#FFFF00; fill-rule:nonzero">
   <path  d="M319.3110,334.3111L317.2914,332.2915L319.3110,330.2719L321.3306,332.2915z"/>
  </g>
  <g style="fill:none; stroke:#FFFF00; stroke-width:  0.9180; stroke-linecap:butt; stroke-linejoin:miter; stroke-dasharray:none">
   <path d="M319.3110,334.3111L317.2914,332.2915L319.3110,330.2719L321.3306,332.2915z"/>
  </g>
  <g style="fill:#FFFF00; fill-rule:nonzero">
   <path  d="M324.5681,342.5058L322.5485,340.4862L324.5681,338.4666L326.5877,340.4862z"/>
  </g>
  <g style="fill:none; stroke:#FFFF00; stroke-width:  0.9180; stroke-linecap:butt; stroke-linejoin:miter; stroke-dasharray:none">
   <path d="M324.5681,342.5058L322.5485,340.4862L324.5681,338.4666L326.5877,340.4862z"/>
  </g>
  <g style="fill:#FFFF00; fill-rule:nonzero">
   <path  d="M326.6917,351.4838L324.6721,349.4642L326.6917,347.4446L328.7113,349.4642z"/>
  </g>
  <g style="fill:none; stroke:#FFFF00; stroke-width:  0.9180; stroke-linecap:butt; stroke-linejoin:miter; stroke-dasharray:none">
   <path d="M326.6917,351.4838L324.6721,349.4642L326.6917,347.4446L328.7113,349.4642z"/>
  </g>
  <g style="fill:#FFFF00; fill-rule:nonzero">
   <path  d="M329.8496,360.1865L327.8300,358.1669L329.8496,356.1473L331.8692,358.1669z"/>
  </g>
  <g style="fill:none; stroke:#FFFF00; stroke-width:  0.9180; stroke-linecap:butt; stroke-linejoin:miter; stroke-dasharray:none">
   <path d="M329.8496,360.1865L327.8300,358.1669L329.8496,356.1473L331.8692,358.1669z"/>
  </g>
  <g style="fill:#FFFF00; fill-rule:nonzero">
   <path  d="M334.0235,368.8402L332.0039,366.8206L334.0235,364.8010L336.0431,366.8206z"/>
  </g>
  <g style="fill:none; stroke:#FFFF00; stroke-width:  0.9180; stroke-linecap:butt; stroke-linejoin:miter; stroke-dasharray:none">
   <path d="M334.0235,368.8402L332.0039,366.8206L334.0235,364.8010L336.0431,366.8206z"/>
  </g>
  <g style="fill:#FFFF00; fill-rule:nonzero">
   <path  d="M339.9966,379.2442L337.9770,377.2246L339.9966,375.2050L342.0162,377.2246z"/>
  </g>
  <g style="fill:none; stroke:#FFFF00; stroke-width:  0.9180; stroke-linecap:butt; stroke-linejoin:miter; stroke-dasharray:none">
   <path d="M339.9966,379.2442L337.9770,377.2246L339.9966,375.2050L342.0162,377.2246z"/>
  </g>
  <g style="fill:#FFFF00; fill-rule:nonzero">
   <path  d="M346.6184,389.2504L344.5988,387.2308L346.6184,385.2112L348.6380,387.2308z"/>
  </g>
  <g style="fill:none; stroke:#FFFF00; stroke-width:  0.9180; stroke-linecap:butt; stroke-linejoin:miter; stroke-dasharray:none">
   <path d="M346.6184,389.2504L344.5988,387.2308L346.6184,385.2112L348.6380,387.2308z"/>
  </g>
  <g style="fill:#FFFF00; fill-rule:nonzero">
   <path  d="M352.2978,397.3900L350.2782,395.3704L352.2978,393.3508L354.3174,395.3704z"/>
  </g>
  <g style="fill:none; stroke:#FFFF00; stroke-width:  0.9180; stroke-linecap:butt; stroke-linejoin:miter; stroke-dasharray:none">
   <path d="M352.2978,397.3900L350.2782,395.3704L352.2978,393.3508L354.3174,395.3704z"/>
  </g>
  <g style="fill:#FFFF00; fill-rule:nonzero">
   <path  d="M357.3835,405.9029L355.3639,403.8833L357.3835,401.8637L359.4031,403.8833z"/>
  </g>
  <g style="fill:none; stroke:#FFFF00; stroke-width:  0.9180; stroke-linecap:butt; stroke-linejoin:miter; stroke-dasharray:none">
   <path d="M357.3835,405.9029L355.3639,403.8833L357.3835,401.8637L359.4031,403.8833z"/>
  </g>
  <g style="fill:#FFFF00; fill-rule:nonzero">
   <path  d="M360.6883,415.1686L358.6687,413.1490L360.6883,411.1294L362.7079,413.1490z"/>
  </g>
  <g style="fill:none; stroke:#FFFF00; stroke-width:  0.9180; stroke-linecap:butt; stroke-linejoin:miter; stroke-dasharray:none">
   <path d="M360.6883,415.1686L358.6687,413.1490L360.6883,411.1294L362.7079,413.1490z"/>
  </g>
  <g style="fill:#FFFF00; fill-rule:nonzero">
   <path  d="M361.9184,424.8994L359.8988,422.8798L361.9184,420.8602L363.9380,422.8798z"/>
  </g>
  <g style="fill:none; stroke:#FFFF00; stroke-width:  0.9180; stroke-linecap:butt; stroke-linejoin:miter; stroke-dasharray:none">
   <path d="M361.9184,424.8994L359.8988,422.8798L361.9184,420.8602L363.9380,422.8798z"/>
  </g>
  <g style="fill:#FFFF00; fill-rule:nonzero">
   <path  d="M364.1828,434.4343L362.1632,432.4147L364.1828,430.3951L366.2024,432.4147z"/>
  </g>
  <g style="fill:none; stroke:#FFFF00; stroke-width:  0.9180; stroke-linecap:butt; stroke-linejoin:miter; stroke-dasharray:none">
   <path d="M364.1828,434.4343L362.1632,432.4147L364.1828,430.3951L366.2024,432.4147z"/>
  </g>
  <g style="fill:#FFFF00; fill-rule:nonzero">
   <path  d="M366.9491,443.8652L364.9295,441.8456L366.9491,439.8260L368.9687,441.8456z"/>
  </g>
  <g style="fill:none; stroke:#FFFF00; stroke-width:  0.9180; stroke-linecap:butt; stroke-linejoin:miter; stroke-dasharray:none">
   <path d="M366.9491,443.8652L364.9295,441.8456L366.9491,439.8260L368.9687,441.8456z"/>
  </g>
  <g style="fill:#FFFF00; fill-rule:nonzero">
   <path  d="M369.8867,453.2472L367.8671,451.2276L369.8867,449.2080L371.9063,451.2276z"/>
  </g>
  <g style="fill:none; stroke:#FFFF00; stroke-width:  0.9180; stroke-linecap:butt; stroke-linejoin:miter; stroke-dasharray:none">
   <path d="M369.8867,453.2472L367.8671,451.2276L369.8867,449.2080L371.9063,451.2276z"/>
  </g>
  <g style="fill:#FFFF00; fill-rule:nonzero">
   <path  d="M374.4644,461.9437L372.4448,459.9241L374.4644,457.9045L376.4840,459.9241z"/>
  </g>
  <g style="fill:none; stroke:#FFFF00; stroke-width:  0.9180; stroke-linecap:butt; stroke-linejoin:miter; stroke-dasharray:none">
   <path d="M374.4644,461.9437L372.4448,459.9241L374.4644,457.9045L376.4840,459.9241z"/>
  </g>
  <g style="fill:#FFFF00; fill-rule:nonzero">
   <path  d="M379.0789,470.6219L377.0593,468.6023L379.0789,466.5827L381.0985,468.6023z"/>
  </g>
  <g style="fill:none; stroke:#FFFF00; stroke-width:  0.9180; stroke-linecap:butt; stroke-linejoin:miter; stroke-dasharray:none">
   <path d="M379.0789,470.6219L377.0593,468.6023L379.0789,466.5827L381.0985,468.6023z"/>
  </g>
  <g style="fill:#FFFF00; fill-rule:nonzero">
   <path  d="M381.8696,481.3441L379.8500,479.3245L381.8696,477.3049L383.8892,479.3245z"/>
  </g>
  <g style="fill:none; stroke:#FFFF00; stroke-width:  0.9180; stroke-linecap:butt; stroke-linejoin:miter; stroke-dasharray:none">
   <path d="M381.8696,481.3441L379.8500,479.3245L381.8696,477.3049L383.8892,479.3245z"/>
  </g>
  <g style="fill:#FFFF00; fill-rule:nonzero">
   <path  d="M384.1279,492.1949L382.1083,490.1753L384.1279,488.1557L386.1475,490.1753z"/>
  </g>
  <g style="fill:none; stroke:#FFFF00; stroke-width:  0.9180; stroke-linecap:butt; stroke-linejoin:miter; stroke-dasharray:none">
   <path d="M384.1279,492.1949L382.1083,490.1753L384.1279,488.1557L386.1475,490.1753z"/>
  </g>
  <g style="fill:#FFFF00; fill-rule:nonzero">
   <path  d="M386.3740,503.0334L384.3544,501.0138L386.3740,498.9942L388.3936,501.0138z"/>
  </g>
  <g style="fill:none; stroke:#FFFF00; stroke-width:  0.9180; stroke-linecap:butt; stroke-linejoin:miter; stroke-dasharray:none">
   <path d="M386.3740,503.0334L384.3544,501.0138L386.3740,498.9942L388.3936,501.0138z"/>
  </g>
  <g style="fill:#FFFF00; fill-rule:nonzero">
   <path  d="M388.7975,513.8352L386.7779,511.8156L388.7975,509.7960L390.8171,511.8156z"/>
  </g>
  <g style="fill:none; stroke:#FFFF00; stroke-width:  0.9180; stroke-linecap:butt; stroke-linejoin:miter; stroke-dasharray:none">
   <path d="M388.7975,513.8352L386.7779,511.8156L388.7975,509.7960L390.8171,511.8156z"/>
  </g>
  <g style="fill:#FFFF00; fill-rule:nonzero">
   <path  d="M391.7963,524.5024L389.7767,522.4828L391.7963,520.4632L393.8159,522.4828z"/>
  </g>
  <g style="fill:none; stroke:#FFFF00; stroke-width:  0.9180; stroke-linecap:butt; stroke-linejoin:miter; stroke-dasharray:none">
   <path d="M391.7963,524.5024L389.7767,522.4828L391.7963,520.4632L393.8159,522.4828z"/>
  </g>
  <g style="fill:#FFFF00; fill-rule:nonzero">
   <path  d="M394.7033,534.4106L392.6837,532.3910L394.7033,530.3714L396.7229,532.3910z"/>
  </g>
  <g style="fill:none; stroke:#FFFF00; stroke-width:  0.9180; stroke-linecap:butt; stroke-linejoin:miter; stroke-dasharray:none">
   <path d="M394.7033,534.4106L392.6837,532.3910L394.7033,530.3714L396.7229,532.3910z"/>
  </g>
  <g style="fill:#FFFF00; fill-rule:nonzero">
   <path  d="M396.0497,544.6494L394.0301,542.6298L396.0497,540.6102L398.0693,542.6298z"/>
  </g>
  <g style="fill:none; stroke:#FFFF00; stroke-width:  0.9180; stroke-linecap:butt; stroke-linejoin:miter; stroke-dasharray:none">
   <path d="M396.0497,544.6494L394.0301,542.6298L396.0497,540.6102L398.0693,542.6298z"/>
  </g>
  <g style="fill:#FFFF00; fill-rule:nonzero">
   <path  d="M395.5356,554.2823L393.5160,552.2627L395.5356,550.2431L397.5552,552.2627z"/>
  </g>
  <g style="fill:none; stroke:#FFFF00; stroke-width:  0.9180; stroke-linecap:butt; stroke-linejoin:miter; stroke-dasharray:none">
   <path d="M395.5356,554.2823L393.5160,552.2627L395.5356,550.2431L397.5552,552.2627z"/>
  </g>
  <g style="fill:#FFFF00; fill-rule:nonzero">
   <path  d="M388.1732,555.5858L386.1536,553.5662L388.1732,551.5466L390.1928,553.5662z"/>
  </g>
  <g style="fill:none; stroke:#FFFF00; stroke-width:  0.9180; stroke-linecap:butt; stroke-linejoin:miter; stroke-dasharray:none">
   <path d="M388.1732,555.5858L386.1536,553.5662L388.1732,551.5466L390.1928,553.5662z"/>
  </g>
  <g style="fill:#FFFF00; fill-rule:nonzero">
   <path  d="M380.8170,549.4536L378.7974,547.4340L380.8170,545.4144L382.8366,547.4340z"/>
  </g>
  <g style="fill:none; stroke:#FFFF00; stroke-width:  0.9180; stroke-linecap:butt; stroke-linejoin:miter; stroke-dasharray:none">
   <path d="M380.8170,549.4536L378.7974,547.4340L380.8170,545.4144L382.8366,547.4340z"/>
  </g>
  <g style="fill:#FFFF00; fill-rule:nonzero">
   <path  d="M373.2588,542.6298L371.2392,540.6102L373.2588,538.5906L375.2784,540.6102z"/>
  </g>
  <g style="fill:none; stroke:#FFFF00; stroke-width:  0.9180; stroke-linecap:butt; stroke-linejoin:miter; stroke-dasharray:none">
   <path d="M373.2588,542.6298L371.2392,540.6102L373.2588,538.5906L375.2784,540.6102z"/>
  </g>
  <g style="fill:#FFFF00; fill-rule:nonzero">
   <path  d="M365.1498,536.4976L363.1302,534.4780L365.1498,532.4584L367.1694,534.4780z"/>
  </g>
  <g style="fill:none; stroke:#FFFF00; stroke-width:  0.9180; stroke-linecap:butt; stroke-linejoin:miter; stroke-dasharray:none">
   <path d="M365.1498,536.4976L363.1302,534.4780L365.1498,532.4584L367.1694,534.4780z"/>
  </g>
  <g style="fill:#FFFF00; fill-rule:nonzero">
   <path  d="M356.6369,530.9039L354.6173,528.8843L356.6369,526.8647L358.6565,528.8843z"/>
  </g>
  <g style="fill:none; stroke:#FFFF00; stroke-width:  0.9180; stroke-linecap:butt; stroke-linejoin:miter; stroke-dasharray:none">
   <path d="M356.6369,530.9039L354.6173,528.8843L356.6369,526.8647L358.6565,528.8843z"/>
  </g>
  <g style="fill:#FFFF00; fill-rule:nonzero">
   <path  d="M347.7935,525.5183L345.7739,523.4987L347.7935,521.4791L349.8131,523.4987z"/>
  </g>
  <g style="fill:none; stroke:#FFFF00; stroke-width:  0.9180; stroke-linecap:butt; stroke-linejoin:miter; stroke-dasharray:none">
   <path d="M347.7935,525.5183L345.7739,523.4987L347.7935,521.4791L349.8131,523.4987z"/>
  </g>
  <g style="fill:#FFFF00; fill-rule:nonzero">
   <path  d="M338.1851,519.9246L336.1655,517.9050L338.1851,515.8854L340.2047,517.9050z"/>
  </g>
  <g style="fill:none; stroke:#FFFF00; stroke-width:  0.9180; stroke-linecap:butt; stroke-linejoin:miter; stroke-dasharray:none">
   <path d="M338.1851,519.9246L336.1655,517.9050L338.1851,515.8854L340.2047,517.9050z"/>
  </g>
  <g style="fill:#FFFF00; fill-rule:nonzero">
   <path  d="M328.5522,514.3676L326.5326,512.3480L328.5522,510.3284L330.5718,512.3480z"/>
  </g>
  <g style="fill:none; stroke:#FFFF00; stroke-width:  0.9180; stroke-linecap:butt; stroke-linejoin:miter; stroke-dasharray:none">
   <path d="M328.5522,514.3676L326.5326,512.3480L328.5522,510.3284L330.5718,512.3480z"/>
  </g>
  <g style="fill:#FFFF00; fill-rule:nonzero">
   <path  d="M319.5803,508.7678L317.5607,506.7482L319.5803,504.7286L321.5999,506.7482z"/>
  </g>
  <g style="fill:none; stroke:#FFFF00; stroke-width:  0.9180; stroke-linecap:butt; stroke-linejoin:miter; stroke-dasharray:none">
   <path d="M319.5803,508.7678L317.5607,506.7482L319.5803,504.7286L321.5999,506.7482z"/>
  </g>
  <g style="fill:#FFFF00; fill-rule:nonzero">
   <path  d="M311.9854,501.9746L309.9658,499.9550L311.9854,497.9354L314.0050,499.9550z"/>
  </g>
  <g style="fill:none; stroke:#FFFF00; stroke-width:  0.9180; stroke-linecap:butt; stroke-linejoin:miter; stroke-dasharray:none">
   <path d="M311.9854,501.9746L309.9658,499.9550L311.9854,497.9354L314.0050,499.9550z"/>
  </g>
  <g style="fill:#FFFF00; fill-rule:nonzero">
   <path  d="M305.6512,493.9942L303.6316,491.9746L305.6512,489.9550L307.6708,491.9746z"/>
  </g>
  <g style="fill:none; stroke:#FFFF00; stroke-width:  0.9180; stroke-linecap:butt; stroke-linejoin:miter; stroke-dasharray:none">
   <path d="M305.6512,493.9942L303.6316,491.9746L305.6512,489.9550L307.6708,491.9746z"/>
  </g>
  <g style="fill:#FFFF00; fill-rule:nonzero">
   <path  d="M300.2839,487.1765L298.2643,485.1569L300.2839,483.1373L302.3035,485.1569z"/>
  </g>
  <g style="fill:none; stroke:#FFFF00; stroke-width:  0.9180; stroke-linecap:butt; stroke-linejoin:miter; stroke-dasharray:none">
   <path d="M300.2839,487.1765L298.2643,485.1569L300.2839,483.1373L302.3035,485.1569z"/>
  </g>
  <g style="fill:#FFFF00; fill-rule:nonzero">
   <path  d="M295.6633,479.8447L293.6437,477.8251L295.6633,475.8055L297.6829,477.8251z"/>
  </g>
  <g style="fill:none; stroke:#FFFF00; stroke-width:  0.9180; stroke-linecap:butt; stroke-linejoin:miter; stroke-dasharray:none">
   <path d="M295.6633,479.8447L293.6437,477.8251L295.6633,475.8055L297.6829,477.8251z"/>
  </g>
  <g style="fill:#FFFF00; fill-rule:nonzero">
   <path  d="M291.3977,472.3171L289.3781,470.2975L291.3977,468.2779L293.4173,470.2975z"/>
  </g>
  <g style="fill:none; stroke:#FFFF00; stroke-width:  0.9180; stroke-linecap:butt; stroke-linejoin:miter; stroke-dasharray:none">
   <path d="M291.3977,472.3171L289.3781,470.2975L291.3977,468.2779L293.4173,470.2975z"/>
  </g>
  <g style="fill:#FFFF00; fill-rule:nonzero">
   <path  d="M286.6424,463.1555L284.6228,461.1359L286.6424,459.1163L288.6620,461.1359z"/>
  </g>
  <g style="fill:none; stroke:#FFFF00; stroke-width:  0.9180; stroke-linecap:butt; stroke-linejoin:miter; stroke-dasharray:none">
   <path d="M286.6424,463.1555L284.6228,461.1359L286.6424,459.1163L288.6620,461.1359z"/>
  </g>
  <g style="fill:#FFFF00; fill-rule:nonzero">
   <path  d="M281.5567,453.8714L279.5371,451.8518L281.5567,449.8322L283.5763,451.8518z"/>
  </g>
  <g style="fill:none; stroke:#FFFF00; stroke-width:  0.9180; stroke-linecap:butt; stroke-linejoin:miter; stroke-dasharray:none">
   <path d="M281.5567,453.8714L279.5371,451.8518L281.5567,449.8322L283.5763,451.8518z"/>
  </g>
  <g style="fill:#FFFF00; fill-rule:nonzero">
   <path  d="M275.9324,444.1957L273.9128,442.1761L275.9324,440.1565L277.9520,442.1761z"/>
  </g>
  <g style="fill:none; stroke:#FFFF00; stroke-width:  0.9180; stroke-linecap:butt; stroke-linejoin:miter; stroke-dasharray:none">
   <path d="M275.9324,444.1957L273.9128,442.1761L275.9324,440.1565L277.9520,442.1761z"/>
  </g>
  <g style="fill:#FFFF00; fill-rule:nonzero">
   <path  d="M270.1062,434.6118L268.0866,432.5922L270.1062,430.5726L272.1258,432.5922z"/>
  </g>
  <g style="fill:none; stroke:#FFFF00; stroke-width:  0.9180; stroke-linecap:butt; stroke-linejoin:miter; stroke-dasharray:none">
   <path d="M270.1062,434.6118L268.0866,432.5922L270.1062,430.5726L272.1258,432.5922z"/>
  </g>
  <g style="fill:#FFFF00; fill-rule:nonzero">
   <path  d="M264.0841,425.1564L262.0645,423.1368L264.0841,421.1172L266.1037,423.1368z"/>
  </g>
  <g style="fill:none; stroke:#FFFF00; stroke-width:  0.9180; stroke-linecap:butt; stroke-linejoin:miter; stroke-dasharray:none">
   <path d="M264.0841,425.1564L262.0645,423.1368L264.0841,421.1172L266.1037,423.1368z"/>
  </g>
  <g style="fill:#FFFF00; fill-rule:nonzero">
   <path  d="M257.8050,415.8724L255.7854,413.8528L257.8050,411.8332L259.8246,413.8528z"/>
  </g>
  <g style="fill:none; stroke:#FFFF00; stroke-width:  0.9180; stroke-linecap:butt; stroke-linejoin:miter; stroke-dasharray:none">
   <path d="M257.8050,415.8724L255.7854,413.8528L257.8050,411.8332L259.8246,413.8528z"/>
  </g>
  <g style="fill:#FFFF00; fill-rule:nonzero">
   <path  d="M251.1587,406.9127L249.1391,404.8931L251.1587,402.8735L253.1783,404.8931z"/>
  </g>
  <g style="fill:none; stroke:#FFFF00; stroke-width:  0.9180; stroke-linecap:butt; stroke-linejoin:miter; stroke-dasharray:none">
   <path d="M251.1587,406.9127L249.1391,404.8931L251.1587,402.8735L253.1783,404.8931z"/>
  </g>
  <g style="fill:#FFFF00; fill-rule:nonzero">
   <path  d="M244.1023,398.2712L242.0827,396.2516L244.1023,394.2320L246.1219,396.2516z"/>
  </g>
  <g style="fill:none; stroke:#FFFF00; stroke-width:  0.9180; stroke-linecap:butt; stroke-linejoin:miter; stroke-dasharray:none">
   <path d="M244.1023,398.2712L242.0827,396.2516L244.1023,394.2320L246.1219,396.2516z"/>
  </g>
  <g style="fill:#FFFF00; fill-rule:nonzero">
   <path  d="M238.0619,390.9150L236.0423,388.8954L238.0619,386.8758L240.0815,388.8954z"/>
  </g>
  <g style="fill:none; stroke:#FFFF00; stroke-width:  0.9180; stroke-linecap:butt; stroke-linejoin:miter; stroke-dasharray:none">
   <path d="M238.0619,390.9150L236.0423,388.8954L238.0619,386.8758L240.0815,388.8954z"/>
  </g>
  <g style="fill:#FFFF00; fill-rule:nonzero">
   <path  d="M232.7069,383.0508L230.6873,381.0312L232.7069,379.0116L234.7265,381.0312z"/>
  </g>
  <g style="fill:none; stroke:#FFFF00; stroke-width:  0.9180; stroke-linecap:butt; stroke-linejoin:miter; stroke-dasharray:none">
   <path d="M232.7069,383.0508L230.6873,381.0312L232.7069,379.0116L234.7265,381.0312z"/>
  </g>
  <g style="fill:#FFFF00; fill-rule:nonzero">
   <path  d="M228.3127,374.7276L226.2931,372.7080L228.3127,370.6884L230.3323,372.7080z"/>
  </g>
  <g style="fill:none; stroke:#FFFF00; stroke-width:  0.9180; stroke-linecap:butt; stroke-linejoin:miter; stroke-dasharray:none">
   <path d="M228.3127,374.7276L226.2931,372.7080L228.3127,370.6884L230.3323,372.7080z"/>
  </g>
  <g style="fill:#FFFF00; fill-rule:nonzero">
   <path  d="M222.6578,367.2061L220.6382,365.1865L222.6578,363.1669L224.6774,365.1865z"/>
  </g>
  <g style="fill:none; stroke:#FFFF00; stroke-width:  0.9180; stroke-linecap:butt; stroke-linejoin:miter; stroke-dasharray:none">
   <path d="M222.6578,367.2061L220.6382,365.1865L222.6578,363.1669L224.6774,365.1865z"/>
  </g>
  <g style="fill:#FFFF00; fill-rule:nonzero">
   <path  d="M215.7484,359.1032L213.7288,357.0836L215.7484,355.0640L217.7680,357.0836z"/>
  </g>
  <g style="fill:none; stroke:#FFFF00; stroke-width:  0.9180; stroke-linecap:butt; stroke-linejoin:miter; stroke-dasharray:none">
   <path d="M215.7484,359.1032L213.7288,357.0836L215.7484,355.0640L217.7680,357.0836z"/>
  </g>
  <g style="fill:#FFFF00; fill-rule:nonzero">
   <path  d="M207.8291,350.8841L205.8095,348.8645L207.8291,346.8449L209.8487,348.8645z"/>
  </g>
  <g style="fill:none; stroke:#FFFF00; stroke-width:  0.9180; stroke-linecap:butt; stroke-linejoin:miter; stroke-dasharray:none">
   <path d="M207.8291,350.8841L205.8095,348.8645L207.8291,346.8449L209.8487,348.8645z"/>
  </g>
  <g style="fill:#FFFF00; fill-rule:nonzero">
   <path  d="M199.4386,343.1362L197.4190,341.1166L199.4386,339.0970L201.4582,341.1166z"/>
  </g>
  <g style="fill:none; stroke:#FFFF00; stroke-width:  0.9180; stroke-linecap:butt; stroke-linejoin:miter; stroke-dasharray:none">
   <path d="M199.4386,343.1362L197.4190,341.1166L199.4386,339.0970L201.4582,341.1166z"/>
  </g>
  <g style="fill:#FFFF00; fill-rule:nonzero">
   <path  d="M191.8742,336.7285L189.8546,334.7089L191.8742,332.6893L193.8938,334.7089z"/>
  </g>
  <g style="fill:none; stroke:#FFFF00; stroke-width:  0.9180; stroke-linecap:butt; stroke-linejoin:miter; stroke-dasharray:none">
   <path d="M191.8742,336.7285L189.8546,334.7089L191.8742,332.6893L193.8938,334.7089z"/>
  </g>
  <g style="fill:#FFFF00; fill-rule:nonzero">
   <path  d="M184.0468,330.6636L182.0272,328.6440L184.0468,326.6244L186.0664,328.6440z"/>
  </g>
  <g style="fill:none; stroke:#FFFF00; stroke-width:  0.9180; stroke-linecap:butt; stroke-linejoin:miter; stroke-dasharray:none">
   <path d="M184.0468,330.6636L182.0272,328.6440L184.0468,326.6244L186.0664,328.6440z"/>
  </g>
  <g style="fill:#FFFF00; fill-rule:nonzero">
   <path  d="M175.8949,325.3514L173.8753,323.3318L175.8949,321.3122L177.9145,323.3318z"/>
  </g>
  <g style="fill:none; stroke:#FFFF00; stroke-width:  0.9180; stroke-linecap:butt; stroke-linejoin:miter; stroke-dasharray:none">
   <path d="M175.8949,325.3514L173.8753,323.3318L175.8949,321.3122L177.9145,323.3318z"/>
  </g>
  <g style="fill:#FFFF00; fill-rule:nonzero">
   <path  d="M169.8055,319.7945L167.7859,317.7749L169.8055,315.7553L171.8251,317.7749z"/>
  </g>
  <g style="fill:none; stroke:#FFFF00; stroke-width:  0.9180; stroke-linecap:butt; stroke-linejoin:miter; stroke-dasharray:none">
   <path d="M169.8055,319.7945L167.7859,317.7749L169.8055,315.7553L171.8251,317.7749z"/>
  </g>
  <g style="fill:#FFFF00; fill-rule:nonzero">
   <path  d="M163.1347,311.1775L161.1151,309.1579L163.1347,307.1383L165.1543,309.1579z"/>
  </g>
  <g style="fill:none; stroke:#FFFF00; stroke-width:  0.9180; stroke-linecap:butt; stroke-linejoin:miter; stroke-dasharray:none">
   <path d="M163.1347,311.1775L161.1151,309.1579L163.1347,307.1383L165.1543,309.1579z"/>
  </g>
  <g style="fill:#FFFF00; fill-rule:nonzero">
   <path  d="M157.0086,302.1689L154.9890,300.1493L157.0086,298.1297L159.0282,300.1493z"/>
  </g>
  <g style="fill:none; stroke:#FFFF00; stroke-width:  0.9180; stroke-linecap:butt; stroke-linejoin:miter; stroke-dasharray:none">
   <path d="M157.0086,302.1689L154.9890,300.1493L157.0086,298.1297L159.0282,300.1493z"/>
  </g>
  <g style="fill:#FFFF00; fill-rule:nonzero">
   <path  d="M150.8580,293.1847L148.8384,291.1651L150.8580,289.1455L152.8776,291.1651z"/>
  </g>
  <g style="fill:none; stroke:#FFFF00; stroke-width:  0.9180; stroke-linecap:butt; stroke-linejoin:miter; stroke-dasharray:none">
   <path d="M150.8580,293.1847L148.8384,291.1651L150.8580,289.1455L152.8776,291.1651z"/>
  </g>
  <g style="fill:#FFFF00; fill-rule:nonzero">
   <path  d="M143.9424,284.7758L141.9228,282.7562L143.9424,280.7366L145.9620,282.7562z"/>
  </g>
  <g style="fill:none; stroke:#FFFF00; stroke-width:  0.9180; stroke-linecap:butt; stroke-linejoin:miter; stroke-dasharray:none">
   <path d="M143.9424,284.7758L141.9228,282.7562L143.9424,280.7366L145.9620,282.7562z"/>
  </g>
  <g style="fill:#FFFF00; fill-rule:nonzero">
   <path  d="M136.4515,277.8358L134.4319,275.8162L136.4515,273.7966L138.4711,275.8162z"/>
  </g>
  <g style="fill:none; stroke:#FFFF00; stroke-width:  0.9180; stroke-linecap:butt; stroke-linejoin:miter; stroke-dasharray:none">
   <path d="M136.4515,277.8358L134.4319,275.8162L136.4515,273.7966L138.4711,275.8162z"/>
  </g>
  <g style="fill:#FFFF00; fill-rule:nonzero">
   <path  d="M128.5200,271.4098L126.5004,269.3902L128.5200,267.3706L130.5396,269.3902z"/>
  </g>
  <g style="fill:none; stroke:#FFFF00; stroke-width:  0.9180; stroke-linecap:butt; stroke-linejoin:miter; stroke-dasharray:none">
   <path d="M128.5200,271.4098L126.5004,269.3902L128.5200,267.3706L130.5396,269.3902z"/>
  </g>
  <g style="fill:#FFFF00; fill-rule:nonzero">
   <path  d="M123.4649,264.2065L121.4453,262.1869L123.4649,260.1673L125.4845,262.1869z"/>
  </g>
  <g style="fill:none; stroke:#FFFF00; stroke-width:  0.9180; stroke-linecap:butt; stroke-linejoin:miter; stroke-dasharray:none">
   <path d="M123.4649,264.2065L121.4453,262.1869L123.4649,260.1673L125.4845,262.1869z"/>
  </g>
  <g style="fill:#FFFF00; fill-rule:nonzero">
   <path  d="M121.4453,254.3594L119.4257,252.3398L121.4453,250.3202L123.4649,252.3398z"/>
  </g>
  <g style="fill:none; stroke:#FFFF00; stroke-width:  0.9180; stroke-linecap:butt; stroke-linejoin:miter; stroke-dasharray:none">
   <path d="M121.4453,254.3594L119.4257,252.3398L121.4453,250.3202L123.4649,252.3398z"/>
  </g>
  <g style="fill:#FFFF00; fill-rule:nonzero">
   <path  d="M121.0597,244.3104L119.0401,242.2908L121.0597,240.2712L123.0793,242.2908z"/>
  </g>
  <g style="fill:none; stroke:#FFFF00; stroke-width:  0.9180; stroke-linecap:butt; stroke-linejoin:miter; stroke-dasharray:none">
   <path d="M121.0597,244.3104L119.0401,242.2908L121.0597,240.2712L123.0793,242.2908z"/>
  </g>
  <g style="fill:#FFFF00; fill-rule:nonzero">
   <path  d="M123.2201,234.5000L121.2005,232.4804L123.2201,230.4608L125.2397,232.4804z"/>
  </g>
  <g style="fill:none; stroke:#FFFF00; stroke-width:  0.9180; stroke-linecap:butt; stroke-linejoin:miter; stroke-dasharray:none">
   <path d="M123.2201,234.5000L121.2005,232.4804L123.2201,230.4608L125.2397,232.4804z"/>
  </g>
  <g style="fill:#FFFF00; fill-rule:nonzero">
   <path  d="M131.0598,225.3812L129.0402,223.3616L131.0598,221.3420L133.0794,223.3616z"/>
  </g>
  <g style="fill:none; stroke:#FFFF00; stroke-width:  0.9180; stroke-linecap:butt; stroke-linejoin:miter; stroke-dasharray:none">
   <path d="M131.0598,225.3812L129.0402,223.3616L131.0598,221.3420L133.0794,223.3616z"/>
  </g>
  <g style="fill:none; stroke:#000000; stroke-width:  0.9180; stroke-linecap:butt; stroke-linejoin:miter; stroke-dasharray:none">
   <path d="M61.2000,61.2000L581.4000,61.2000"/>
   <path d="M91.8000,61.2000L91.8000,55.0800"/>
   <path d="M153.0000,61.2000L153.0000,55.0800"/>
   <path d="M214.2000,61.2000L214.2000,55.0800"/>
   <path d="M275.4000,61.2000L275.4000,55.0800"/>
   <path d="M336.6000,61.2000L336.6000,55.0800"/>
   <path d="M397.8000,61.2000L397.8000,55.0800"/>
   <path d="M459.0000,61.2000L459.0000,55.0800"/>
   <path d="M520.2000,61.2000L520.2000,55.0800"/>
   <path d="M581.4000,61.2000L581.4000,55.0800"/>
   <path d="M61.2000,61.2000L61.2000,48.9600"/>
   <path d="M122.4000,61.2000L122.4000,48.9600"/>
   <path d="M183.6000,61.2000L183.6000,48.9600"/>
   <path d="M244.8000,61.2000L244.8000,48.9600"/>
   <path d="M306.0000,61.2000L306.0000,48.9600"/>
   <path d="M367.2000,61.2000L367.2000,48.9600"/>
   <path d="M428.4000,61.2000L428.4000,48.9600"/>
   <path d="M489.6000,61.2000L489.6000,48.9600"/>
   <path d="M550.8000,61.2000L550.8000,48.9600"/>
  </g>
  <g style="fill:#000000; fill-rule:nonzero">
   <text   style="font-family:'Helvetica','Nimbus Sans L'; font-style:normal; font-weight:normal; font-size:612.0000" transform="matrix(0.0277,0.0000,-0.0000,-0.0277,49.7000,30.8400)">5.5</text>
   <text   style="font-family:'Helvetica','Nimbus Sans L'; font-style:normal; font-weight:normal; font-size:612.0000" transform="matrix(0.0277,0.0000,-0.0000,-0.0277,110.9000,30.8400)">5.6</text>
   <text   style="font-family:'Helvetica','Nimbus Sans L'; font-style:normal; font-weight:normal; font-size:612.0000" transform="matrix(0.0277,0.0000,-0.0000,-0.0277,172.1000,30.8400)">5.7</text>
   <text   style="font-family:'Helvetica','Nimbus Sans L'; font-style:normal; font-weight:normal; font-size:612.0000" transform="matrix(0.0277,0.0000,-0.0000,-0.0277,233.3000,30.8400)">5.8</text>
   <text   style="font-family:'Helvetica','Nimbus Sans L'; font-style:normal; font-weight:normal; font-size:612.0000" transform="matrix(0.0277,0.0000,-0.0000,-0.0277,294.5000,30.8400)">5.9</text>
   <text   style="font-family:'Helvetica','Nimbus Sans L'; font-style:normal; font-weight:normal; font-size:612.0000" transform="matrix(0.0277,0.0000,-0.0000,-0.0277,362.7000,30.8400)">6</text>
   <text   style="font-family:'Helvetica','Nimbus Sans L'; font-style:normal; font-weight:normal; font-size:612.0000" transform="matrix(0.0277,0.0000,-0.0000,-0.0277,418.4000,30.8400)">6.1</text>
   <text   style="font-family:'Helvetica','Nimbus Sans L'; font-style:normal; font-weight:normal; font-size:612.0000" transform="matrix(0.0277,0.0000,-0.0000,-0.0277,478.1000,30.8400)">6.2</text>
   <text   style="font-family:'Helvetica','Nimbus Sans L'; font-style:normal; font-weight:normal; font-size:612.0000" transform="matrix(0.0277,0.0000,-0.0000,-0.0277,539.3000,30.8400)">6.3</text>
  </g>
  <g style="fill:none; stroke:#000000; stroke-width:  0.9180; stroke-linecap:butt; stroke-linejoin:miter; stroke-dasharray:none">
   <path d="M61.2000,61.2000L61.2000,581.4000"/>
   <path d="M61.2000,61.2000L55.0800,61.2000"/>
   <path d="M61.2000,122.4000L55.0800,122.4000"/>
   <path d="M61.2000,183.6000L55.0800,183.6000"/>
   <path d="M61.2000,244.8000L55.0800,244.8000"/>
   <path d="M61.2000,306.0000L55.0800,306.0000"/>
   <path d="M61.2000,367.2000L55.0800,367.2000"/>
   <path d="M61.2000,428.4000L55.0800,428.4000"/>
   <path d="M61.2000,489.6000L55.0800,489.6000"/>
   <path d="M61.2000,550.8000L55.0800,550.8000"/>
   <path d="M61.2000,91.8000L48.9600,91.8000"/>
   <path d="M61.2000,153.0000L48.9600,153.0000"/>
   <path d="M61.2000,214.2000L48.9600,214.2000"/>
   <path d="M61.2000,275.4000L48.9600,275.4000"/>
   <path d="M61.2000,336.6000L48.9600,336.6000"/>
   <path d="M61.2000,397.8000L48.9600,397.8000"/>
   <path d="M61.2000,459.0000L48.9600,459.0000"/>
   <path d="M61.2000,520.2000L48.9600,520.2000"/>
  </g>
  <g style="fill:#000000; fill-rule:nonzero">
   <text   style="font-family:'Helvetica','Nimbus Sans L'; font-style:normal; font-weight:normal; font-size:612.0000" transform="matrix(0.0280,0.0000,-0.0000,-0.0280,19.8400,85.8000)">5.4</text>
   <text   style="font-family:'Helvetica','Nimbus Sans L'; font-style:normal; font-weight:normal; font-size:612.0000" transform="matrix(0.0280,0.0000,-0.0000,-0.0280,19.8400,147.0000)">5.5</text>
   <text   style="font-family:'Helvetica','Nimbus Sans L'; font-style:normal; font-weight:normal; font-size:612.0000" transform="matrix(0.0280,0.0000,-0.0000,-0.0280,19.8400,208.2000)">5.6</text>
   <text   style="font-family:'Helvetica','Nimbus Sans L'; font-style:normal; font-weight:normal; font-size:612.0000" transform="matrix(0.0280,0.0000,-0.0000,-0.0280,19.8400,269.4000)">5.7</text>
   <text   style="font-family:'Helvetica','Nimbus Sans L'; font-style:normal; font-weight:normal; font-size:612.0000" transform="matrix(0.0280,0.0000,-0.0000,-0.0280,19.8400,330.6000)">5.8</text>
   <text   style="font-family:'Helvetica','Nimbus Sans L'; font-style:normal; font-weight:normal; font-size:612.0000" transform="matrix(0.0280,0.0000,-0.0000,-0.0280,19.8400,391.8000)">5.9</text>
   <text   style="font-family:'Helvetica','Nimbus Sans L'; font-style:normal; font-weight:normal; font-size:612.0000" transform="matrix(0.0280,0.0000,-0.0000,-0.0280,33.8400,453.0000)">6</text>
   <text   style="font-family:'Helvetica','Nimbus Sans L'; font-style:normal; font-weight:normal; font-size:612.0000" transform="matrix(0.0280,0.0000,-0.0000,-0.0280,22.8400,514.2000)">6.1</text>
  </g>
  <g style="fill:none; stroke:#000000; stroke-width:  0.9180; stroke-linecap:butt; stroke-linejoin:miter; stroke-dasharray:none">
   <path d="M61.2000,61.2000L61.2000,581.4000L581.4000,581.4000L581.4000,61.2000z"/>
  </g>
 </g>
</svg>
