<?xml version="1.0" encoding="UTF-8" standalone="no"?>
<!-- generated by Grace-5.1.22 -->
<svg
   xmlns:dc="http://purl.org/dc/elements/1.1/"
   xmlns:cc="http://creativecommons.org/ns#"
   xmlns:rdf="http://www.w3.org/1999/02/22-rdf-syntax-ns#"
   xmlns:svg="http://www.w3.org/2000/svg"
   xmlns="http://www.w3.org/2000/svg"
   xmlns:xlink="http://www.w3.org/1999/xlink"
   xmlns:sodipodi="http://sodipodi.sourceforge.net/DTD/sodipodi-0.dtd"
   xmlns:inkscape="http://www.inkscape.org/namespaces/inkscape"
   xml:space="preserve"
   width="500"
   height="500"
   viewBox="0 0 792 612"
   id="svg2"
   sodipodi:version="0.32"
   inkscape:version="0.46"
   sodipodi:docname="raw_and_sample_overlay_em.svg"
   inkscape:output_extension="org.inkscape.output.svg.inkscape"
   version="1.0"><metadata
   id="metadata1081"><rdf:RDF><cc:Work
       rdf:about=""><dc:format>image/svg+xml</dc:format><dc:type
         rdf:resource="http://purl.org/dc/dcmitype/StillImage" /></cc:Work></rdf:RDF></metadata><defs
   id="defs1079"><inkscape:perspective
   sodipodi:type="inkscape:persp3d"
   inkscape:vp_x="0 : 382.5 : 1"
   inkscape:vp_y="0 : 1000 : 0"
   inkscape:vp_z="990 : 382.5 : 1"
   inkscape:persp3d-origin="495 : 255 : 1"
   id="perspective1083" />
 <desc
   id="desc6" />
  
  
  
  
  
  
  
  
  
  
  
  
  
  
  
  
  
  
  
  
  
  
  
  
  
  
  
  
  
  
  
  
  
  
  
  
  
  
  
  
  
  
  
  
  
  
  
  
  
  
  
  
  
  
  
  
  
  
  
  
  
  
  
  
  
  
  
  
  
  
  
  
  
  
  
  
  
  
  
  
  
  
  
  
  
  
  
  
  
  
  
  
  
  
  
  
  
  
  
  
  
  
  
  
  
  
  
  
  
  
  
  
  
  
  
  
  
  
  
  
  
  
  
  
  
  
  
  
  
  
  
  
  
  
  
  
  
  
  
  
  
  
  
  
  
  
  
  
  
  
  
  
  
  
  
  
  
  
  
  
  
  
  
  
  
  
  
  
  
  
  
  
  
  
  
  
  
  
  
  
  
  
  
  
  
  
  
  
  
  
  
  
  
  
  
  
  
  
  
  
  
  
  
  
  
  
  
  
  
  
  
  
  
  
  
  
  
  
  
  
  
  
  
  
  
  
 <inkscape:perspective
   id="perspective4056"
   inkscape:persp3d-origin="372.04724 : 350.78739 : 1"
   inkscape:vp_z="744.09448 : 526.18109 : 1"
   inkscape:vp_y="0 : 1000 : 0"
   inkscape:vp_x="0 : 526.18109 : 1"
   sodipodi:type="inkscape:persp3d" /></defs><sodipodi:namedview
   inkscape:window-height="1396"
   inkscape:window-width="1708"
   inkscape:pageshadow="2"
   inkscape:pageopacity="0.0"
   guidetolerance="10.0"
   gridtolerance="10.0"
   objecttolerance="10.0"
   borderopacity="1.0"
   bordercolor="#666666"
   pagecolor="#ffffff"
   id="base"
   showgrid="false"
   inkscape:zoom="1.6786715"
   inkscape:cx="218.91123"
   inkscape:cy="238.81468"
   inkscape:window-x="786"
   inkscape:window-y="69"
   inkscape:current-layer="svg2" />
 
<g
   id="g3424"><g
     id="g2903"><image
   y="-89.999992"
   x="-4.5861816e-06"
   id="image4058"
   height="792"
   width="792"
   sodipodi:absref="/netapp/cnl/home/jkinney/src/mesh_tools/reconstruct2contourtiler/doc/figures/R34CA1-B_S12.199_zoom.png"
   xlink:href="R34CA1-B_S12.199_crop.png" /><g
   id="g12"
   style="fill:none;stroke:#ff0000;stroke-width:1.37699997;stroke-linecap:butt;stroke-linejoin:miter;stroke-dasharray:none"
   transform="matrix(1.2722874,0,0,-1.2722874,6.3025994,731.96719)">
   <ellipse
   sodipodi:ry="6.1199999"
   sodipodi:rx="6.1199999"
   sodipodi:cy="227.4445"
   sodipodi:cx="145.11771"
   id="ellipse14"
   cy="227.4445"
   cx="145.11771"
   ry="6.1199999"
   rx="6.1199999" />
   <ellipse
   sodipodi:ry="6.1199999"
   sodipodi:rx="6.1199999"
   sodipodi:cy="216.2601"
   sodipodi:cx="153.1131"
   id="ellipse16"
   cy="216.2601"
   cx="153.1131"
   ry="6.1199999"
   rx="6.1199999" />
   <ellipse
   sodipodi:ry="6.1199999"
   sodipodi:rx="6.1199999"
   sodipodi:cy="195.48241"
   sodipodi:cx="177.0863"
   id="ellipse18"
   cy="195.48241"
   cx="177.0863"
   ry="6.1199999"
   rx="6.1199999" />
   <ellipse
   sodipodi:ry="6.1199999"
   sodipodi:rx="6.1199999"
   sodipodi:cy="187.487"
   sodipodi:cx="186.673"
   id="ellipse20"
   cy="187.487"
   cx="186.673"
   ry="6.1199999"
   rx="6.1199999" />
   <ellipse
   sodipodi:ry="6.1199999"
   sodipodi:rx="6.1199999"
   sodipodi:cy="184.2915"
   sodipodi:cx="191.47279"
   id="ellipse22"
   cy="184.2915"
   cx="191.47279"
   ry="6.1199999"
   rx="6.1199999" />
   <ellipse
   sodipodi:ry="6.1199999"
   sodipodi:rx="6.1199999"
   sodipodi:cy="171.5027"
   sodipodi:cx="201.05949"
   id="ellipse24"
   cy="171.5027"
   cx="201.05949"
   ry="6.1199999"
   rx="6.1199999" />
   <ellipse
   sodipodi:ry="6.1199999"
   sodipodi:rx="6.1199999"
   sodipodi:cy="161.91611"
   sodipodi:cx="210.65269"
   id="ellipse26"
   cy="161.91611"
   cx="210.65269"
   ry="6.1199999"
   rx="6.1199999" />
   <ellipse
   sodipodi:ry="6.1199999"
   sodipodi:rx="6.1199999"
   sodipodi:cy="155.5184"
   sodipodi:cx="213.84821"
   id="ellipse28"
   cy="155.5184"
   cx="213.84821"
   ry="6.1199999"
   rx="6.1199999" />
   <ellipse
   sodipodi:ry="6.1199999"
   sodipodi:rx="6.1199999"
   sodipodi:cy="152.32291"
   sodipodi:cx="213.84821"
   id="ellipse30"
   cy="152.32291"
   cx="213.84821"
   ry="6.1199999"
   rx="6.1199999" />
   <ellipse
   sodipodi:ry="6.1199999"
   sodipodi:rx="6.1199999"
   sodipodi:cy="149.1273"
   sodipodi:cx="217.04379"
   id="ellipse32"
   cy="149.1273"
   cx="217.04379"
   ry="6.1199999"
   rx="6.1199999" />
   <ellipse
   sodipodi:ry="6.1199999"
   sodipodi:rx="6.1199999"
   sodipodi:cy="123.5564"
   sodipodi:cx="220.2393"
   id="ellipse34"
   cy="123.5564"
   cx="220.2393"
   ry="6.1199999"
   rx="6.1199999" />
   <ellipse
   sodipodi:ry="6.1199999"
   sodipodi:rx="6.1199999"
   sodipodi:cy="97.978897"
   sodipodi:cx="226.63699"
   id="ellipse36"
   cy="97.978897"
   cx="226.63699"
   ry="6.1199999"
   rx="6.1199999" />
   <ellipse
   sodipodi:ry="6.1199999"
   sodipodi:rx="6.1199999"
   sodipodi:cy="91.587799"
   sodipodi:cx="226.63699"
   id="ellipse38"
   cy="91.587799"
   cx="226.63699"
   ry="6.1199999"
   rx="6.1199999" />
   <ellipse
   sodipodi:ry="6.1199999"
   sodipodi:rx="6.1199999"
   sodipodi:cy="78.799103"
   sodipodi:cx="234.6259"
   id="ellipse40"
   cy="78.799103"
   cx="234.6259"
   ry="6.1199999"
   rx="6.1199999" />
   <ellipse
   sodipodi:ry="6.1199999"
   sodipodi:rx="6.1199999"
   sodipodi:cy="78.799103"
   sodipodi:cx="247.4146"
   id="ellipse42"
   cy="78.799103"
   cx="247.4146"
   ry="6.1199999"
   rx="6.1199999" />
   <ellipse
   sodipodi:ry="6.1199999"
   sodipodi:rx="6.1199999"
   sodipodi:cy="80.396797"
   sodipodi:cx="253.80569"
   id="ellipse44"
   cy="80.396797"
   cx="253.80569"
   ry="6.1199999"
   rx="6.1199999" />
   <ellipse
   sodipodi:ry="6.1199999"
   sodipodi:rx="6.1199999"
   sodipodi:cy="89.989998"
   sodipodi:cx="264.9967"
   id="ellipse46"
   cy="89.989998"
   cx="264.9967"
   ry="6.1199999"
   rx="6.1199999" />
   <ellipse
   sodipodi:ry="6.1199999"
   sodipodi:rx="6.1199999"
   sodipodi:cy="93.1856"
   sodipodi:cx="268.1922"
   id="ellipse48"
   cy="93.1856"
   cx="268.1922"
   ry="6.1199999"
   rx="6.1199999" />
   <ellipse
   sodipodi:ry="6.1199999"
   sodipodi:rx="6.1199999"
   sodipodi:cy="99.576698"
   sodipodi:cx="269.79001"
   id="ellipse50"
   cy="99.576698"
   cx="269.79001"
   ry="6.1199999"
   rx="6.1199999" />
   <ellipse
   sodipodi:ry="6.1199999"
   sodipodi:rx="6.1199999"
   sodipodi:cy="102.7788"
   sodipodi:cx="272.9856"
   id="ellipse52"
   cy="102.7788"
   cx="272.9856"
   ry="6.1199999"
   rx="6.1199999" />
   <ellipse
   sodipodi:ry="6.1199999"
   sodipodi:rx="6.1199999"
   sodipodi:cy="153.9207"
   sodipodi:cx="280.98099"
   id="ellipse54"
   cy="153.9207"
   cx="280.98099"
   ry="6.1199999"
   rx="6.1199999" />
   <ellipse
   sodipodi:ry="6.1199999"
   sodipodi:rx="6.1199999"
   sodipodi:cy="166.7094"
   sodipodi:cx="282.5787"
   id="ellipse56"
   cy="166.7094"
   cx="282.5787"
   ry="6.1199999"
   rx="6.1199999" />
   <ellipse
   sodipodi:ry="6.1199999"
   sodipodi:rx="6.1199999"
   sodipodi:cy="173.10049"
   sodipodi:cx="287.3721"
   id="ellipse58"
   cy="173.10049"
   cx="287.3721"
   ry="6.1199999"
   rx="6.1199999" />
   <ellipse
   sodipodi:ry="6.1199999"
   sodipodi:rx="6.1199999"
   sodipodi:cy="179.49809"
   sodipodi:cx="287.3721"
   id="ellipse60"
   cy="179.49809"
   cx="287.3721"
   ry="6.1199999"
   rx="6.1199999" />
   <ellipse
   sodipodi:ry="6.1199999"
   sodipodi:rx="6.1199999"
   sodipodi:cy="185.8893"
   sodipodi:cx="290.5676"
   id="ellipse62"
   cy="185.8893"
   cx="290.5676"
   ry="6.1199999"
   rx="6.1199999" />
   <ellipse
   sodipodi:ry="6.1199999"
   sodipodi:rx="6.1199999"
   sodipodi:cy="192.2804"
   sodipodi:cx="290.5676"
   id="ellipse64"
   cy="192.2804"
   cx="290.5676"
   ry="6.1199999"
   rx="6.1199999" />
   <ellipse
   sodipodi:ry="6.1199999"
   sodipodi:rx="6.1199999"
   sodipodi:cy="198.67799"
   sodipodi:cx="293.76321"
   id="ellipse66"
   cy="198.67799"
   cx="293.76321"
   ry="6.1199999"
   rx="6.1199999" />
   <ellipse
   sodipodi:ry="6.1199999"
   sodipodi:rx="6.1199999"
   sodipodi:cy="249.8264"
   sodipodi:cx="295.36099"
   id="ellipse68"
   cy="249.8264"
   cx="295.36099"
   ry="6.1199999"
   rx="6.1199999" />
   <ellipse
   sodipodi:ry="6.1199999"
   sodipodi:rx="6.1199999"
   sodipodi:cy="299.37061"
   sodipodi:cx="327.3295"
   id="ellipse70"
   cy="299.37061"
   cx="327.3295"
   ry="6.1199999"
   rx="6.1199999" />
   <ellipse
   sodipodi:ry="6.1199999"
   sodipodi:rx="6.1199999"
   sodipodi:cy="323.35031"
   sodipodi:cx="348.10721"
   id="ellipse72"
   cy="323.35031"
   cx="348.10721"
   ry="6.1199999"
   rx="6.1199999" />
   <ellipse
   sodipodi:ry="6.1199999"
   sodipodi:rx="6.1199999"
   sodipodi:cy="332.93689"
   sodipodi:cx="359.2981"
   id="ellipse74"
   cy="332.93689"
   cx="359.2981"
   ry="6.1199999"
   rx="6.1199999" />
   <ellipse
   sodipodi:ry="6.1199999"
   sodipodi:rx="6.1199999"
   sodipodi:cy="339.33459"
   sodipodi:cx="362.49371"
   id="ellipse76"
   cy="339.33459"
   cx="362.49371"
   ry="6.1199999"
   rx="6.1199999" />
   <ellipse
   sodipodi:ry="6.1199999"
   sodipodi:rx="6.1199999"
   sodipodi:cy="352.11679"
   sodipodi:cx="364.09149"
   id="ellipse78"
   cy="352.11679"
   cx="364.09149"
   ry="6.1199999"
   rx="6.1199999" />
   <ellipse
   sodipodi:ry="6.1199999"
   sodipodi:rx="6.1199999"
   sodipodi:cy="377.69421"
   sodipodi:cx="376.88019"
   id="ellipse80"
   cy="377.69421"
   cx="376.88019"
   ry="6.1199999"
   rx="6.1199999" />
   <ellipse
   sodipodi:ry="6.1199999"
   sodipodi:rx="6.1199999"
   sodipodi:cy="401.66739"
   sodipodi:cx="394.46231"
   id="ellipse82"
   cy="401.66739"
   cx="394.46231"
   ry="6.1199999"
   rx="6.1199999" />
   <ellipse
   sodipodi:ry="6.1199999"
   sodipodi:rx="6.1199999"
   sodipodi:cy="408.0585"
   sodipodi:cx="397.65781"
   id="ellipse84"
   cy="408.0585"
   cx="397.65781"
   ry="6.1199999"
   rx="6.1199999" />
   <ellipse
   sodipodi:ry="6.1199999"
   sodipodi:rx="6.1199999"
   sodipodi:cy="411.26059"
   sodipodi:cx="397.65781"
   id="ellipse86"
   cy="411.26059"
   cx="397.65781"
   ry="6.1199999"
   rx="6.1199999" />
   <ellipse
   sodipodi:ry="6.1199999"
   sodipodi:rx="6.1199999"
   sodipodi:cy="414.45621"
   sodipodi:cx="400.85339"
   id="ellipse88"
   cy="414.45621"
   cx="400.85339"
   ry="6.1199999"
   rx="6.1199999" />
   <ellipse
   sodipodi:ry="6.1199999"
   sodipodi:rx="6.1199999"
   sodipodi:cy="427.2384"
   sodipodi:cx="400.85339"
   id="ellipse90"
   cy="427.2384"
   cx="400.85339"
   ry="6.1199999"
   rx="6.1199999" />
   <ellipse
   sodipodi:ry="6.1199999"
   sodipodi:rx="6.1199999"
   sodipodi:cy="452.81589"
   sodipodi:cx="408.84879"
   id="ellipse92"
   cy="452.81589"
   cx="408.84879"
   ry="6.1199999"
   rx="6.1199999" />
   <ellipse
   sodipodi:ry="6.1199999"
   sodipodi:rx="6.1199999"
   sodipodi:cy="459.207"
   sodipodi:cx="410.44659"
   id="ellipse94"
   cy="459.207"
   cx="410.44659"
   ry="6.1199999"
   rx="6.1199999" />
   <ellipse
   sodipodi:ry="6.1199999"
   sodipodi:rx="6.1199999"
   sodipodi:cy="471.9957"
   sodipodi:cx="418.43539"
   id="ellipse96"
   cy="471.9957"
   cx="418.43539"
   ry="6.1199999"
   rx="6.1199999" />
   <ellipse
   sodipodi:ry="6.1199999"
   sodipodi:rx="6.1199999"
   sodipodi:cy="478.38681"
   sodipodi:cx="421.63101"
   id="ellipse98"
   cy="478.38681"
   cx="421.63101"
   ry="6.1199999"
   rx="6.1199999" />
   <ellipse
   sodipodi:ry="6.1199999"
   sodipodi:rx="6.1199999"
   sodipodi:cy="529.53522"
   sodipodi:cx="431.22421"
   id="ellipse100"
   cy="529.53522"
   cx="431.22421"
   ry="6.1199999"
   rx="6.1199999" />
   <ellipse
   sodipodi:ry="6.1199999"
   sodipodi:rx="6.1199999"
   sodipodi:cy="542.32397"
   sodipodi:cx="437.6153"
   id="ellipse102"
   cy="542.32397"
   cx="437.6153"
   ry="6.1199999"
   rx="6.1199999" />
   <ellipse
   sodipodi:ry="6.1199999"
   sodipodi:rx="6.1199999"
   sodipodi:cy="567.8949"
   sodipodi:cx="439.2131"
   id="ellipse104"
   cy="567.8949"
   cx="439.2131"
   ry="6.1199999"
   rx="6.1199999" />
   <ellipse
   sodipodi:ry="6.1199999"
   sodipodi:rx="6.1199999"
   sodipodi:cy="569.49268"
   sodipodi:cx="432.82199"
   id="ellipse106"
   cy="569.49268"
   cx="432.82199"
   ry="6.1199999"
   rx="6.1199999" />
   <ellipse
   sodipodi:ry="6.1199999"
   sodipodi:rx="6.1199999"
   sodipodi:cy="561.50378"
   sodipodi:cx="423.22879"
   id="ellipse108"
   cy="561.50378"
   cx="423.22879"
   ry="6.1199999"
   rx="6.1199999" />
   <ellipse
   sodipodi:ry="6.1199999"
   sodipodi:rx="6.1199999"
   sodipodi:cy="550.31293"
   sodipodi:cx="412.04431"
   id="ellipse110"
   cy="550.31293"
   cx="412.04431"
   ry="6.1199999"
   rx="6.1199999" />
   <ellipse
   sodipodi:ry="6.1199999"
   sodipodi:rx="6.1199999"
   sodipodi:cy="535.92639"
   sodipodi:cx="389.66891"
   id="ellipse112"
   cy="535.92639"
   cx="389.66891"
   ry="6.1199999"
   rx="6.1199999" />
   <ellipse
   sodipodi:ry="6.1199999"
   sodipodi:rx="6.1199999"
   sodipodi:cy="521.54639"
   sodipodi:cx="364.09149"
   id="ellipse114"
   cy="521.54639"
   cx="364.09149"
   ry="6.1199999"
   rx="6.1199999" />
   <ellipse
   sodipodi:ry="6.1199999"
   sodipodi:rx="6.1199999"
   sodipodi:cy="513.55103"
   sodipodi:cx="351.3027"
   id="ellipse116"
   cy="513.55103"
   cx="351.3027"
   ry="6.1199999"
   rx="6.1199999" />
   <ellipse
   sodipodi:ry="6.1199999"
   sodipodi:rx="6.1199999"
   sodipodi:cy="500.76221"
   sodipodi:cx="341.71609"
   id="ellipse118"
   cy="500.76221"
   cx="341.71609"
   ry="6.1199999"
   rx="6.1199999" />
   <ellipse
   sodipodi:ry="6.1199999"
   sodipodi:rx="6.1199999"
   sodipodi:cy="494.37109"
   sodipodi:cx="336.9227"
   id="ellipse120"
   cy="494.37109"
   cx="336.9227"
   ry="6.1199999"
   rx="6.1199999" />
   <ellipse
   sodipodi:ry="6.1199999"
   sodipodi:rx="6.1199999"
   sodipodi:cy="491.1756"
   sodipodi:cx="333.7207"
   id="ellipse122"
   cy="491.1756"
   cx="333.7207"
   ry="6.1199999"
   rx="6.1199999" />
   <ellipse
   sodipodi:ry="6.1199999"
   sodipodi:rx="6.1199999"
   sodipodi:cy="487.98001"
   sodipodi:cx="333.7207"
   id="ellipse124"
   cy="487.98001"
   cx="333.7207"
   ry="6.1199999"
   rx="6.1199999" />
   <ellipse
   sodipodi:ry="6.1199999"
   sodipodi:rx="6.1199999"
   sodipodi:cy="486.3822"
   sodipodi:cx="330.52509"
   id="ellipse126"
   cy="486.3822"
   cx="330.52509"
   ry="6.1199999"
   rx="6.1199999" />
   <ellipse
   sodipodi:ry="6.1199999"
   sodipodi:rx="6.1199999"
   sodipodi:cy="462.4025"
   sodipodi:cx="319.3407"
   id="ellipse128"
   cy="462.4025"
   cx="319.3407"
   ry="6.1199999"
   rx="6.1199999" />
   <ellipse
   sodipodi:ry="6.1199999"
   sodipodi:rx="6.1199999"
   sodipodi:cy="412.8584"
   sodipodi:cx="288.96979"
   id="ellipse130"
   cy="412.8584"
   cx="288.96979"
   ry="6.1199999"
   rx="6.1199999" />
   <ellipse
   sodipodi:ry="6.1199999"
   sodipodi:rx="6.1199999"
   sodipodi:cy="392.07419"
   sodipodi:cx="269.79001"
   id="ellipse132"
   cy="392.07419"
   cx="269.79001"
   ry="6.1199999"
   rx="6.1199999" />
   <ellipse
   sodipodi:ry="6.1199999"
   sodipodi:rx="6.1199999"
   sodipodi:cy="379.29199"
   sodipodi:cx="261.79459"
   id="ellipse134"
   cy="379.29199"
   cx="261.79459"
   ry="6.1199999"
   rx="6.1199999" />
   <ellipse
   sodipodi:ry="6.1199999"
   sodipodi:rx="6.1199999"
   sodipodi:cy="376.0965"
   sodipodi:cx="261.79459"
   id="ellipse136"
   cy="376.0965"
   cx="261.79459"
   ry="6.1199999"
   rx="6.1199999" />
   <ellipse
   sodipodi:ry="6.1199999"
   sodipodi:rx="6.1199999"
   sodipodi:cy="352.11679"
   sodipodi:cx="242.6147"
   id="ellipse138"
   cy="352.11679"
   cx="242.6147"
   ry="6.1199999"
   rx="6.1199999" />
   <ellipse
   sodipodi:ry="6.1199999"
   sodipodi:rx="6.1199999"
   sodipodi:cy="331.33911"
   sodipodi:cx="218.6416"
   id="ellipse140"
   cy="331.33911"
   cx="218.6416"
   ry="6.1199999"
   rx="6.1199999" />
   <ellipse
   sodipodi:ry="6.1199999"
   sodipodi:rx="6.1199999"
   sodipodi:cy="323.35031"
   sodipodi:cx="207.45711"
   id="ellipse142"
   cy="323.35031"
   cx="207.45711"
   ry="6.1199999"
   rx="6.1199999" />
   <ellipse
   sodipodi:ry="6.1199999"
   sodipodi:rx="6.1199999"
   sodipodi:cy="320.14819"
   sodipodi:cx="201.05949"
   id="ellipse144"
   cy="320.14819"
   cx="201.05949"
   ry="6.1199999"
   rx="6.1199999" />
   <ellipse
   sodipodi:ry="6.1199999"
   sodipodi:rx="6.1199999"
   sodipodi:cy="308.96371"
   sodipodi:cx="191.47279"
   id="ellipse146"
   cy="308.96371"
   cx="191.47279"
   ry="6.1199999"
   rx="6.1199999" />
   <ellipse
   sodipodi:ry="6.1199999"
   sodipodi:rx="6.1199999"
   sodipodi:cy="286.58829"
   sodipodi:cx="177.0863"
   id="ellipse148"
   cy="286.58829"
   cx="177.0863"
   ry="6.1199999"
   rx="6.1199999" />
   <ellipse
   sodipodi:ry="6.1199999"
   sodipodi:rx="6.1199999"
   sodipodi:cy="276.99521"
   sodipodi:cx="169.0909"
   id="ellipse150"
   cy="276.99521"
   cx="169.0909"
   ry="6.1199999"
   rx="6.1199999" />
   <ellipse
   sodipodi:ry="6.1199999"
   sodipodi:rx="6.1199999"
   sodipodi:cy="267.40851"
   sodipodi:cx="157.90649"
   id="ellipse152"
   cy="267.40851"
   cx="157.90649"
   ry="6.1199999"
   rx="6.1199999" />
   <ellipse
   sodipodi:ry="6.1199999"
   sodipodi:rx="6.1199999"
   sodipodi:cy="262.60861"
   sodipodi:cx="151.5088"
   id="ellipse154"
   cy="262.60861"
   cx="151.5088"
   ry="6.1199999"
   rx="6.1199999" />
   <ellipse
   sodipodi:ry="6.1199999"
   sodipodi:rx="6.1199999"
   sodipodi:cy="259.41309"
   sodipodi:cx="148.31329"
   id="ellipse156"
   cy="259.41309"
   cx="148.31329"
   ry="6.1199999"
   rx="6.1199999" />
   <ellipse
   sodipodi:ry="6.1199999"
   sodipodi:rx="6.1199999"
   sodipodi:cy="246.6243"
   sodipodi:cx="145.11771"
   id="ellipse158"
   cy="246.6243"
   cx="145.11771"
   ry="6.1199999"
   rx="6.1199999" />
   <ellipse
   sodipodi:ry="6.1199999"
   sodipodi:rx="6.1199999"
   sodipodi:cy="233.8421"
   sodipodi:cx="145.11771"
   id="ellipse160"
   cy="233.8421"
   cx="145.11771"
   ry="6.1199999"
   rx="6.1199999" />
   <ellipse
   sodipodi:ry="6.1199999"
   sodipodi:rx="6.1199999"
   sodipodi:cy="229.0423"
   sodipodi:cx="145.11771"
   id="ellipse162"
   cy="229.0423"
   cx="145.11771"
   ry="6.1199999"
   rx="6.1199999" />
  </g><g
   id="g164"
   style="fill:none;stroke:#ffff00;stroke-width:1.37699997;stroke-linecap:butt;stroke-linejoin:miter;stroke-dasharray:none"
   transform="matrix(1.2722874,0,0,-1.2722874,6.3025994,731.96719)">
   <path
   id="path166"
   d="M 163.1172,207.7429 L 172.2343,199.7214 L 181.4818,191.8499 L 189.6338,185.3088 L 196.5727,177.5026 L 203.2899,169.5071 L 210.1962,161.6617 L 214.233,152.649 L 217.4677,143.3166 L 219.0785,133.5539 L 221.2306,121.176 L 223.8849,108.9025 L 226.3044,97.1311 L 229.6891,87.1466 L 237.3779,79.9729 L 247.8907,79.2295 L 257.3991,83.7033 L 265.3227,90.44 L 270.3052,99.518 L 273.6116,109.9394 L 275.6268,120.6869 L 277.5572,132.2887 L 279.3701,143.9231 L 281.1114,155.538 L 283.1265,165.692 L 287.1569,175.2331 L 289.8633,185.2501 L 291.6828,194.3346 L 293.248,203.4648 L 293.9849,212.7189 L 295.1588,225.1359 L 297.187,237.4812 L 300.4217,249.5656 L 304.3346,259.5696 L 309.0105,269.1041 L 314.2799,278.319 L 320.0189,287.2796 L 327.3687,297.7402 L 335.1358,307.8877 L 341.84,315.857 L 348.9419,323.4611 L 356.3765,330.7392 L 361.9785,339.4715 L 364.2415,349.0386 L 367.6066,358.3122 L 372.0543,367.5337 L 378.4193,378.6203 L 385.4756,389.283 L 391.5276,397.9567 L 396.947,407.0281 L 400.4686,416.9017 L 401.7794,427.271 L 404.1924,437.4315 L 407.1401,447.4812 L 410.2705,457.4788 L 415.1486,466.7459 L 420.0658,475.9934 L 423.0397,487.4191 L 425.4461,498.9818 L 427.8395,510.5315 L 430.422,522.042 L 433.6176,533.409 L 436.7153,543.9674 L 438.1501,554.878 L 437.6023,565.1429 L 429.7568,566.5319 L 421.9179,559.9974 L 413.8638,552.7258 L 405.2228,546.1913 L 396.1513,540.2306 L 386.7277,534.4916 L 376.4889,528.5309 L 366.224,522.6094 L 356.6634,516.6422 L 348.5702,509.4033 L 341.8204,500.8992 L 336.101,493.6342 L 331.1773,485.8214 L 326.6317,477.7999 L 321.5645,468.0371 L 316.1451,458.144 L 310.1518,447.8334 L 303.9433,437.6207 L 297.5261,427.5449 L 290.835,417.6517 L 283.7526,408.1042 L 276.2333,398.8958 L 269.7965,391.0569 L 264.0902,382.6767 L 259.4077,373.8074 L 253.3818,365.7924 L 246.019,357.1579 L 237.5801,348.3995 L 228.6391,340.1432 L 220.5785,333.3152 L 212.2374,326.8523 L 203.5507,321.1916 L 197.0618,315.2701 L 189.9533,306.0877 L 183.4253,296.488 L 176.8711,286.9144 L 169.5018,277.9538 L 161.5194,270.5584 L 153.0675,263.7108 L 147.6807,256.0349 L 145.5286,245.5418 L 145.1177,234.8334 L 147.4198,224.3794 L 155.7739,214.6623" />
  </g><g
   id="g168"
   style="fill:#ffff00;fill-rule:nonzero"
   transform="matrix(1.2722874,0,0,-1.2722874,6.3025994,731.96719)">
   <path
   id="path170"
   d="M 163.1172,209.7625 L 161.0976,207.7429 L 163.1172,205.7233 L 165.1368,207.7429 L 163.1172,209.7625 z" />
  </g><g
   id="g172"
   style="fill:none;stroke:#ffff00;stroke-width:1.37699997;stroke-linecap:butt;stroke-linejoin:miter;stroke-dasharray:none"
   transform="matrix(1.2722874,0,0,-1.2722874,6.3025994,731.96719)">
   <path
   id="path174"
   d="M 163.1172,209.7625 L 161.0976,207.7429 L 163.1172,205.7233 L 165.1368,207.7429 L 163.1172,209.7625 z" />
  </g><g
   id="g176"
   style="fill:#ffff00;fill-rule:nonzero"
   transform="matrix(1.2722874,0,0,-1.2722874,6.3025994,731.96719)">
   <path
   id="path178"
   d="M 172.2343,201.741 L 170.2147,199.7214 L 172.2343,197.7018 L 174.2539,199.7214 L 172.2343,201.741 z" />
  </g><g
   id="g180"
   style="fill:none;stroke:#ffff00;stroke-width:1.37699997;stroke-linecap:butt;stroke-linejoin:miter;stroke-dasharray:none"
   transform="matrix(1.2722874,0,0,-1.2722874,6.3025994,731.96719)">
   <path
   id="path182"
   d="M 172.2343,201.741 L 170.2147,199.7214 L 172.2343,197.7018 L 174.2539,199.7214 L 172.2343,201.741 z" />
  </g><g
   id="g184"
   style="fill:#ffff00;fill-rule:nonzero"
   transform="matrix(1.2722874,0,0,-1.2722874,6.3025994,731.96719)">
   <path
   id="path186"
   d="M 181.4818,193.8695 L 179.4622,191.8499 L 181.4818,189.8303 L 183.5014,191.8499 L 181.4818,193.8695 z" />
  </g><g
   id="g188"
   style="fill:none;stroke:#ffff00;stroke-width:1.37699997;stroke-linecap:butt;stroke-linejoin:miter;stroke-dasharray:none"
   transform="matrix(1.2722874,0,0,-1.2722874,6.3025994,731.96719)">
   <path
   id="path190"
   d="M 181.4818,193.8695 L 179.4622,191.8499 L 181.4818,189.8303 L 183.5014,191.8499 L 181.4818,193.8695 z" />
  </g><g
   id="g192"
   style="fill:#ffff00;fill-rule:nonzero"
   transform="matrix(1.2722874,0,0,-1.2722874,6.3025994,731.96719)">
   <path
   id="path194"
   d="M 189.6338,187.3284 L 187.6142,185.3088 L 189.6338,183.2892 L 191.6534,185.3088 L 189.6338,187.3284 z" />
  </g><g
   id="g196"
   style="fill:none;stroke:#ffff00;stroke-width:1.37699997;stroke-linecap:butt;stroke-linejoin:miter;stroke-dasharray:none"
   transform="matrix(1.2722874,0,0,-1.2722874,6.3025994,731.96719)">
   <path
   id="path198"
   d="M 189.6338,187.3284 L 187.6142,185.3088 L 189.6338,183.2892 L 191.6534,185.3088 L 189.6338,187.3284 z" />
  </g><g
   id="g200"
   style="fill:#ffff00;fill-rule:nonzero"
   transform="matrix(1.2722874,0,0,-1.2722874,6.3025994,731.96719)">
   <path
   id="path202"
   d="M 196.5727,179.5222 L 194.5531,177.5026 L 196.5727,175.483 L 198.5923,177.5026 L 196.5727,179.5222 z" />
  </g><g
   id="g204"
   style="fill:none;stroke:#ffff00;stroke-width:1.37699997;stroke-linecap:butt;stroke-linejoin:miter;stroke-dasharray:none"
   transform="matrix(1.2722874,0,0,-1.2722874,6.3025994,731.96719)">
   <path
   id="path206"
   d="M 196.5727,179.5222 L 194.5531,177.5026 L 196.5727,175.483 L 198.5923,177.5026 L 196.5727,179.5222 z" />
  </g><g
   id="g208"
   style="fill:#ffff00;fill-rule:nonzero"
   transform="matrix(1.2722874,0,0,-1.2722874,6.3025994,731.96719)">
   <path
   id="path210"
   d="M 203.2899,171.5267 L 201.2703,169.5071 L 203.2899,167.4875 L 205.3095,169.5071 L 203.2899,171.5267 z" />
  </g><g
   id="g212"
   style="fill:none;stroke:#ffff00;stroke-width:1.37699997;stroke-linecap:butt;stroke-linejoin:miter;stroke-dasharray:none"
   transform="matrix(1.2722874,0,0,-1.2722874,6.3025994,731.96719)">
   <path
   id="path214"
   d="M 203.2899,171.5267 L 201.2703,169.5071 L 203.2899,167.4875 L 205.3095,169.5071 L 203.2899,171.5267 z" />
  </g><g
   id="g216"
   style="fill:#ffff00;fill-rule:nonzero"
   transform="matrix(1.2722874,0,0,-1.2722874,6.3025994,731.96719)">
   <path
   id="path218"
   d="M 210.1962,163.6813 L 208.1766,161.6617 L 210.1962,159.6421 L 212.2158,161.6617 L 210.1962,163.6813 z" />
  </g><g
   id="g220"
   style="fill:none;stroke:#ffff00;stroke-width:1.37699997;stroke-linecap:butt;stroke-linejoin:miter;stroke-dasharray:none"
   transform="matrix(1.2722874,0,0,-1.2722874,6.3025994,731.96719)">
   <path
   id="path222"
   d="M 210.1962,163.6813 L 208.1766,161.6617 L 210.1962,159.6421 L 212.2158,161.6617 L 210.1962,163.6813 z" />
  </g><g
   id="g224"
   style="fill:#ffff00;fill-rule:nonzero"
   transform="matrix(1.2722874,0,0,-1.2722874,6.3025994,731.96719)">
   <path
   id="path226"
   d="M 214.233,154.6686 L 212.2134,152.649 L 214.233,150.6294 L 216.2526,152.649 L 214.233,154.6686 z" />
  </g><g
   id="g228"
   style="fill:none;stroke:#ffff00;stroke-width:1.37699997;stroke-linecap:butt;stroke-linejoin:miter;stroke-dasharray:none"
   transform="matrix(1.2722874,0,0,-1.2722874,6.3025994,731.96719)">
   <path
   id="path230"
   d="M 214.233,154.6686 L 212.2134,152.649 L 214.233,150.6294 L 216.2526,152.649 L 214.233,154.6686 z" />
  </g><g
   id="g232"
   style="fill:#ffff00;fill-rule:nonzero"
   transform="matrix(1.2722874,0,0,-1.2722874,6.3025994,731.96719)">
   <path
   id="path234"
   d="M 217.4677,145.3362 L 215.4481,143.3166 L 217.4677,141.297 L 219.4873,143.3166 L 217.4677,145.3362 z" />
  </g><g
   id="g236"
   style="fill:none;stroke:#ffff00;stroke-width:1.37699997;stroke-linecap:butt;stroke-linejoin:miter;stroke-dasharray:none"
   transform="matrix(1.2722874,0,0,-1.2722874,6.3025994,731.96719)">
   <path
   id="path238"
   d="M 217.4677,145.3362 L 215.4481,143.3166 L 217.4677,141.297 L 219.4873,143.3166 L 217.4677,145.3362 z" />
  </g><g
   id="g240"
   style="fill:#ffff00;fill-rule:nonzero"
   transform="matrix(1.2722874,0,0,-1.2722874,6.3025994,731.96719)">
   <path
   id="path242"
   d="M 219.0785,135.5735 L 217.0589,133.5539 L 219.0785,131.5343 L 221.0981,133.5539 L 219.0785,135.5735 z" />
  </g><g
   id="g244"
   style="fill:none;stroke:#ffff00;stroke-width:1.37699997;stroke-linecap:butt;stroke-linejoin:miter;stroke-dasharray:none"
   transform="matrix(1.2722874,0,0,-1.2722874,6.3025994,731.96719)">
   <path
   id="path246"
   d="M 219.0785,135.5735 L 217.0589,133.5539 L 219.0785,131.5343 L 221.0981,133.5539 L 219.0785,135.5735 z" />
  </g><g
   id="g248"
   style="fill:#ffff00;fill-rule:nonzero"
   transform="matrix(1.2722874,0,0,-1.2722874,6.3025994,731.96719)">
   <path
   id="path250"
   d="M 221.2306,123.1956 L 219.211,121.176 L 221.2306,119.1564 L 223.2502,121.176 L 221.2306,123.1956 z" />
  </g><g
   id="g252"
   style="fill:none;stroke:#ffff00;stroke-width:1.37699997;stroke-linecap:butt;stroke-linejoin:miter;stroke-dasharray:none"
   transform="matrix(1.2722874,0,0,-1.2722874,6.3025994,731.96719)">
   <path
   id="path254"
   d="M 221.2306,123.1956 L 219.211,121.176 L 221.2306,119.1564 L 223.2502,121.176 L 221.2306,123.1956 z" />
  </g><g
   id="g256"
   style="fill:#ffff00;fill-rule:nonzero"
   transform="matrix(1.2722874,0,0,-1.2722874,6.3025994,731.96719)">
   <path
   id="path258"
   d="M 223.8849,110.9221 L 221.8653,108.9025 L 223.8849,106.8829 L 225.9045,108.9025 L 223.8849,110.9221 z" />
  </g><g
   id="g260"
   style="fill:none;stroke:#ffff00;stroke-width:1.37699997;stroke-linecap:butt;stroke-linejoin:miter;stroke-dasharray:none"
   transform="matrix(1.2722874,0,0,-1.2722874,6.3025994,731.96719)">
   <path
   id="path262"
   d="M 223.8849,110.9221 L 221.8653,108.9025 L 223.8849,106.8829 L 225.9045,108.9025 L 223.8849,110.9221 z" />
  </g><g
   id="g264"
   style="fill:#ffff00;fill-rule:nonzero"
   transform="matrix(1.2722874,0,0,-1.2722874,6.3025994,731.96719)">
   <path
   id="path266"
   d="M 226.3044,99.1507 L 224.2848,97.1311 L 226.3044,95.1115 L 228.324,97.1311 L 226.3044,99.1507 z" />
  </g><g
   id="g268"
   style="fill:none;stroke:#ffff00;stroke-width:1.37699997;stroke-linecap:butt;stroke-linejoin:miter;stroke-dasharray:none"
   transform="matrix(1.2722874,0,0,-1.2722874,6.3025994,731.96719)">
   <path
   id="path270"
   d="M 226.3044,99.1507 L 224.2848,97.1311 L 226.3044,95.1115 L 228.324,97.1311 L 226.3044,99.1507 z" />
  </g><g
   id="g272"
   style="fill:#ffff00;fill-rule:nonzero"
   transform="matrix(1.2722874,0,0,-1.2722874,6.3025994,731.96719)">
   <path
   id="path274"
   d="M 229.6891,89.1662 L 227.6695,87.1466 L 229.6891,85.127 L 231.7087,87.1466 L 229.6891,89.1662 z" />
  </g><g
   id="g276"
   style="fill:none;stroke:#ffff00;stroke-width:1.37699997;stroke-linecap:butt;stroke-linejoin:miter;stroke-dasharray:none"
   transform="matrix(1.2722874,0,0,-1.2722874,6.3025994,731.96719)">
   <path
   id="path278"
   d="M 229.6891,89.1662 L 227.6695,87.1466 L 229.6891,85.127 L 231.7087,87.1466 L 229.6891,89.1662 z" />
  </g><g
   id="g280"
   style="fill:#ffff00;fill-rule:nonzero"
   transform="matrix(1.2722874,0,0,-1.2722874,6.3025994,731.96719)">
   <path
   id="path282"
   d="M 237.3779,81.9925 L 235.3583,79.9729 L 237.3779,77.9533 L 239.3975,79.9729 L 237.3779,81.9925 z" />
  </g><g
   id="g284"
   style="fill:none;stroke:#ffff00;stroke-width:1.37699997;stroke-linecap:butt;stroke-linejoin:miter;stroke-dasharray:none"
   transform="matrix(1.2722874,0,0,-1.2722874,6.3025994,731.96719)">
   <path
   id="path286"
   d="M 237.3779,81.9925 L 235.3583,79.9729 L 237.3779,77.9533 L 239.3975,79.9729 L 237.3779,81.9925 z" />
  </g><g
   id="g288"
   style="fill:#ffff00;fill-rule:nonzero"
   transform="matrix(1.2722874,0,0,-1.2722874,6.3025994,731.96719)">
   <path
   id="path290"
   d="M 247.8907,81.2491 L 245.8711,79.2295 L 247.8907,77.2099 L 249.9103,79.2295 L 247.8907,81.2491 z" />
  </g><g
   id="g292"
   style="fill:none;stroke:#ffff00;stroke-width:1.37699997;stroke-linecap:butt;stroke-linejoin:miter;stroke-dasharray:none"
   transform="matrix(1.2722874,0,0,-1.2722874,6.3025994,731.96719)">
   <path
   id="path294"
   d="M 247.8907,81.2491 L 245.8711,79.2295 L 247.8907,77.2099 L 249.9103,79.2295 L 247.8907,81.2491 z" />
  </g><g
   id="g296"
   style="fill:#ffff00;fill-rule:nonzero"
   transform="matrix(1.2722874,0,0,-1.2722874,6.3025994,731.96719)">
   <path
   id="path298"
   d="M 257.3991,85.7229 L 255.3795,83.7033 L 257.3991,81.6837 L 259.4187,83.7033 L 257.3991,85.7229 z" />
  </g><g
   id="g300"
   style="fill:none;stroke:#ffff00;stroke-width:1.37699997;stroke-linecap:butt;stroke-linejoin:miter;stroke-dasharray:none"
   transform="matrix(1.2722874,0,0,-1.2722874,6.3025994,731.96719)">
   <path
   id="path302"
   d="M 257.3991,85.7229 L 255.3795,83.7033 L 257.3991,81.6837 L 259.4187,83.7033 L 257.3991,85.7229 z" />
  </g><g
   id="g304"
   style="fill:#ffff00;fill-rule:nonzero"
   transform="matrix(1.2722874,0,0,-1.2722874,6.3025994,731.96719)">
   <path
   id="path306"
   d="M 265.3227,92.4596 L 263.3031,90.44 L 265.3227,88.4204 L 267.3423,90.44 L 265.3227,92.4596 z" />
  </g><g
   id="g308"
   style="fill:none;stroke:#ffff00;stroke-width:1.37699997;stroke-linecap:butt;stroke-linejoin:miter;stroke-dasharray:none"
   transform="matrix(1.2722874,0,0,-1.2722874,6.3025994,731.96719)">
   <path
   id="path310"
   d="M 265.3227,92.4596 L 263.3031,90.44 L 265.3227,88.4204 L 267.3423,90.44 L 265.3227,92.4596 z" />
  </g><g
   id="g312"
   style="fill:#ffff00;fill-rule:nonzero"
   transform="matrix(1.2722874,0,0,-1.2722874,6.3025994,731.96719)">
   <path
   id="path314"
   d="M 270.3052,101.5376 L 268.2856,99.518 L 270.3052,97.4984 L 272.3248,99.518 L 270.3052,101.5376 z" />
  </g><g
   id="g316"
   style="fill:none;stroke:#ffff00;stroke-width:1.37699997;stroke-linecap:butt;stroke-linejoin:miter;stroke-dasharray:none"
   transform="matrix(1.2722874,0,0,-1.2722874,6.3025994,731.96719)">
   <path
   id="path318"
   d="M 270.3052,101.5376 L 268.2856,99.518 L 270.3052,97.4984 L 272.3248,99.518 L 270.3052,101.5376 z" />
  </g><g
   id="g320"
   style="fill:#ffff00;fill-rule:nonzero"
   transform="matrix(1.2722874,0,0,-1.2722874,6.3025994,731.96719)">
   <path
   id="path322"
   d="M 273.6116,111.959 L 271.592,109.9394 L 273.6116,107.9198 L 275.6312,109.9394 L 273.6116,111.959 z" />
  </g><g
   id="g324"
   style="fill:none;stroke:#ffff00;stroke-width:1.37699997;stroke-linecap:butt;stroke-linejoin:miter;stroke-dasharray:none"
   transform="matrix(1.2722874,0,0,-1.2722874,6.3025994,731.96719)">
   <path
   id="path326"
   d="M 273.6116,111.959 L 271.592,109.9394 L 273.6116,107.9198 L 275.6312,109.9394 L 273.6116,111.959 z" />
  </g><g
   id="g328"
   style="fill:#ffff00;fill-rule:nonzero"
   transform="matrix(1.2722874,0,0,-1.2722874,6.3025994,731.96719)">
   <path
   id="path330"
   d="M 275.6268,122.7065 L 273.6072,120.6869 L 275.6268,118.6673 L 277.6464,120.6869 L 275.6268,122.7065 z" />
  </g><g
   id="g332"
   style="fill:none;stroke:#ffff00;stroke-width:1.37699997;stroke-linecap:butt;stroke-linejoin:miter;stroke-dasharray:none"
   transform="matrix(1.2722874,0,0,-1.2722874,6.3025994,731.96719)">
   <path
   id="path334"
   d="M 275.6268,122.7065 L 273.6072,120.6869 L 275.6268,118.6673 L 277.6464,120.6869 L 275.6268,122.7065 z" />
  </g><g
   id="g336"
   style="fill:#ffff00;fill-rule:nonzero"
   transform="matrix(1.2722874,0,0,-1.2722874,6.3025994,731.96719)">
   <path
   id="path338"
   d="M 277.5572,134.3083 L 275.5376,132.2887 L 277.5572,130.2691 L 279.5768,132.2887 L 277.5572,134.3083 z" />
  </g><g
   id="g340"
   style="fill:none;stroke:#ffff00;stroke-width:1.37699997;stroke-linecap:butt;stroke-linejoin:miter;stroke-dasharray:none"
   transform="matrix(1.2722874,0,0,-1.2722874,6.3025994,731.96719)">
   <path
   id="path342"
   d="M 277.5572,134.3083 L 275.5376,132.2887 L 277.5572,130.2691 L 279.5768,132.2887 L 277.5572,134.3083 z" />
  </g><g
   id="g344"
   style="fill:#ffff00;fill-rule:nonzero"
   transform="matrix(1.2722874,0,0,-1.2722874,6.3025994,731.96719)">
   <path
   id="path346"
   d="M 279.3701,145.9427 L 277.3505,143.9231 L 279.3701,141.9035 L 281.3897,143.9231 L 279.3701,145.9427 z" />
  </g><g
   id="g348"
   style="fill:none;stroke:#ffff00;stroke-width:1.37699997;stroke-linecap:butt;stroke-linejoin:miter;stroke-dasharray:none"
   transform="matrix(1.2722874,0,0,-1.2722874,6.3025994,731.96719)">
   <path
   id="path350"
   d="M 279.3701,145.9427 L 277.3505,143.9231 L 279.3701,141.9035 L 281.3897,143.9231 L 279.3701,145.9427 z" />
  </g><g
   id="g352"
   style="fill:#ffff00;fill-rule:nonzero"
   transform="matrix(1.2722874,0,0,-1.2722874,6.3025994,731.96719)">
   <path
   id="path354"
   d="M 281.1114,157.5576 L 279.0918,155.538 L 281.1114,153.5184 L 283.131,155.538 L 281.1114,157.5576 z" />
  </g><g
   id="g356"
   style="fill:none;stroke:#ffff00;stroke-width:1.37699997;stroke-linecap:butt;stroke-linejoin:miter;stroke-dasharray:none"
   transform="matrix(1.2722874,0,0,-1.2722874,6.3025994,731.96719)">
   <path
   id="path358"
   d="M 281.1114,157.5576 L 279.0918,155.538 L 281.1114,153.5184 L 283.131,155.538 L 281.1114,157.5576 z" />
  </g><g
   id="g360"
   style="fill:#ffff00;fill-rule:nonzero"
   transform="matrix(1.2722874,0,0,-1.2722874,6.3025994,731.96719)">
   <path
   id="path362"
   d="M 283.1265,167.7116 L 281.1069,165.692 L 283.1265,163.6724 L 285.1461,165.692 L 283.1265,167.7116 z" />
  </g><g
   id="g364"
   style="fill:none;stroke:#ffff00;stroke-width:1.37699997;stroke-linecap:butt;stroke-linejoin:miter;stroke-dasharray:none"
   transform="matrix(1.2722874,0,0,-1.2722874,6.3025994,731.96719)">
   <path
   id="path366"
   d="M 283.1265,167.7116 L 281.1069,165.692 L 283.1265,163.6724 L 285.1461,165.692 L 283.1265,167.7116 z" />
  </g><g
   id="g368"
   style="fill:#ffff00;fill-rule:nonzero"
   transform="matrix(1.2722874,0,0,-1.2722874,6.3025994,731.96719)">
   <path
   id="path370"
   d="M 287.1569,177.2527 L 285.1373,175.2331 L 287.1569,173.2135 L 289.1765,175.2331 L 287.1569,177.2527 z" />
  </g><g
   id="g372"
   style="fill:none;stroke:#ffff00;stroke-width:1.37699997;stroke-linecap:butt;stroke-linejoin:miter;stroke-dasharray:none"
   transform="matrix(1.2722874,0,0,-1.2722874,6.3025994,731.96719)">
   <path
   id="path374"
   d="M 287.1569,177.2527 L 285.1373,175.2331 L 287.1569,173.2135 L 289.1765,175.2331 L 287.1569,177.2527 z" />
  </g><g
   id="g376"
   style="fill:#ffff00;fill-rule:nonzero"
   transform="matrix(1.2722874,0,0,-1.2722874,6.3025994,731.96719)">
   <path
   id="path378"
   d="M 289.8633,187.2697 L 287.8437,185.2501 L 289.8633,183.2305 L 291.8829,185.2501 L 289.8633,187.2697 z" />
  </g><g
   id="g380"
   style="fill:none;stroke:#ffff00;stroke-width:1.37699997;stroke-linecap:butt;stroke-linejoin:miter;stroke-dasharray:none"
   transform="matrix(1.2722874,0,0,-1.2722874,6.3025994,731.96719)">
   <path
   id="path382"
   d="M 289.8633,187.2697 L 287.8437,185.2501 L 289.8633,183.2305 L 291.8829,185.2501 L 289.8633,187.2697 z" />
  </g><g
   id="g384"
   style="fill:#ffff00;fill-rule:nonzero"
   transform="matrix(1.2722874,0,0,-1.2722874,6.3025994,731.96719)">
   <path
   id="path386"
   d="M 291.6828,196.3542 L 289.6632,194.3346 L 291.6828,192.315 L 293.7024,194.3346 L 291.6828,196.3542 z" />
  </g><g
   id="g388"
   style="fill:none;stroke:#ffff00;stroke-width:1.37699997;stroke-linecap:butt;stroke-linejoin:miter;stroke-dasharray:none"
   transform="matrix(1.2722874,0,0,-1.2722874,6.3025994,731.96719)">
   <path
   id="path390"
   d="M 291.6828,196.3542 L 289.6632,194.3346 L 291.6828,192.315 L 293.7024,194.3346 L 291.6828,196.3542 z" />
  </g><g
   id="g392"
   style="fill:#ffff00;fill-rule:nonzero"
   transform="matrix(1.2722874,0,0,-1.2722874,6.3025994,731.96719)">
   <path
   id="path394"
   d="M 293.248,205.4844 L 291.2284,203.4648 L 293.248,201.4452 L 295.2676,203.4648 L 293.248,205.4844 z" />
  </g><g
   id="g396"
   style="fill:none;stroke:#ffff00;stroke-width:1.37699997;stroke-linecap:butt;stroke-linejoin:miter;stroke-dasharray:none"
   transform="matrix(1.2722874,0,0,-1.2722874,6.3025994,731.96719)">
   <path
   id="path398"
   d="M 293.248,205.4844 L 291.2284,203.4648 L 293.248,201.4452 L 295.2676,203.4648 L 293.248,205.4844 z" />
  </g><g
   id="g400"
   style="fill:#ffff00;fill-rule:nonzero"
   transform="matrix(1.2722874,0,0,-1.2722874,6.3025994,731.96719)">
   <path
   id="path402"
   d="M 293.9849,214.7385 L 291.9653,212.7189 L 293.9849,210.6993 L 296.0045,212.7189 L 293.9849,214.7385 z" />
  </g><g
   id="g404"
   style="fill:none;stroke:#ffff00;stroke-width:1.37699997;stroke-linecap:butt;stroke-linejoin:miter;stroke-dasharray:none"
   transform="matrix(1.2722874,0,0,-1.2722874,6.3025994,731.96719)">
   <path
   id="path406"
   d="M 293.9849,214.7385 L 291.9653,212.7189 L 293.9849,210.6993 L 296.0045,212.7189 L 293.9849,214.7385 z" />
  </g><g
   id="g408"
   style="fill:#ffff00;fill-rule:nonzero"
   transform="matrix(1.2722874,0,0,-1.2722874,6.3025994,731.96719)">
   <path
   id="path410"
   d="M 295.1588,227.1555 L 293.1392,225.1359 L 295.1588,223.1163 L 297.1784,225.1359 L 295.1588,227.1555 z" />
  </g><g
   id="g412"
   style="fill:none;stroke:#ffff00;stroke-width:1.37699997;stroke-linecap:butt;stroke-linejoin:miter;stroke-dasharray:none"
   transform="matrix(1.2722874,0,0,-1.2722874,6.3025994,731.96719)">
   <path
   id="path414"
   d="M 295.1588,227.1555 L 293.1392,225.1359 L 295.1588,223.1163 L 297.1784,225.1359 L 295.1588,227.1555 z" />
  </g><g
   id="g416"
   style="fill:#ffff00;fill-rule:nonzero"
   transform="matrix(1.2722874,0,0,-1.2722874,6.3025994,731.96719)">
   <path
   id="path418"
   d="M 297.187,239.5008 L 295.1674,237.4812 L 297.187,235.4616 L 299.2066,237.4812 L 297.187,239.5008 z" />
  </g><g
   id="g420"
   style="fill:none;stroke:#ffff00;stroke-width:1.37699997;stroke-linecap:butt;stroke-linejoin:miter;stroke-dasharray:none"
   transform="matrix(1.2722874,0,0,-1.2722874,6.3025994,731.96719)">
   <path
   id="path422"
   d="M 297.187,239.5008 L 295.1674,237.4812 L 297.187,235.4616 L 299.2066,237.4812 L 297.187,239.5008 z" />
  </g><g
   id="g424"
   style="fill:#ffff00;fill-rule:nonzero"
   transform="matrix(1.2722874,0,0,-1.2722874,6.3025994,731.96719)">
   <path
   id="path426"
   d="M 300.4217,251.5852 L 298.4021,249.5656 L 300.4217,247.546 L 302.4413,249.5656 L 300.4217,251.5852 z" />
  </g><g
   id="g428"
   style="fill:none;stroke:#ffff00;stroke-width:1.37699997;stroke-linecap:butt;stroke-linejoin:miter;stroke-dasharray:none"
   transform="matrix(1.2722874,0,0,-1.2722874,6.3025994,731.96719)">
   <path
   id="path430"
   d="M 300.4217,251.5852 L 298.4021,249.5656 L 300.4217,247.546 L 302.4413,249.5656 L 300.4217,251.5852 z" />
  </g><g
   id="g432"
   style="fill:#ffff00;fill-rule:nonzero"
   transform="matrix(1.2722874,0,0,-1.2722874,6.3025994,731.96719)">
   <path
   id="path434"
   d="M 304.3346,261.5892 L 302.315,259.5696 L 304.3346,257.55 L 306.3542,259.5696 L 304.3346,261.5892 z" />
  </g><g
   id="g436"
   style="fill:none;stroke:#ffff00;stroke-width:1.37699997;stroke-linecap:butt;stroke-linejoin:miter;stroke-dasharray:none"
   transform="matrix(1.2722874,0,0,-1.2722874,6.3025994,731.96719)">
   <path
   id="path438"
   d="M 304.3346,261.5892 L 302.315,259.5696 L 304.3346,257.55 L 306.3542,259.5696 L 304.3346,261.5892 z" />
  </g><g
   id="g440"
   style="fill:#ffff00;fill-rule:nonzero"
   transform="matrix(1.2722874,0,0,-1.2722874,6.3025994,731.96719)">
   <path
   id="path442"
   d="M 309.0105,271.1237 L 306.9909,269.1041 L 309.0105,267.0845 L 311.0301,269.1041 L 309.0105,271.1237 z" />
  </g><g
   id="g444"
   style="fill:none;stroke:#ffff00;stroke-width:1.37699997;stroke-linecap:butt;stroke-linejoin:miter;stroke-dasharray:none"
   transform="matrix(1.2722874,0,0,-1.2722874,6.3025994,731.96719)">
   <path
   id="path446"
   d="M 309.0105,271.1237 L 306.9909,269.1041 L 309.0105,267.0845 L 311.0301,269.1041 L 309.0105,271.1237 z" />
  </g><g
   id="g448"
   style="fill:#ffff00;fill-rule:nonzero"
   transform="matrix(1.2722874,0,0,-1.2722874,6.3025994,731.96719)">
   <path
   id="path450"
   d="M 314.2799,280.3386 L 312.2603,278.319 L 314.2799,276.2994 L 316.2995,278.319 L 314.2799,280.3386 z" />
  </g><g
   id="g452"
   style="fill:none;stroke:#ffff00;stroke-width:1.37699997;stroke-linecap:butt;stroke-linejoin:miter;stroke-dasharray:none"
   transform="matrix(1.2722874,0,0,-1.2722874,6.3025994,731.96719)">
   <path
   id="path454"
   d="M 314.2799,280.3386 L 312.2603,278.319 L 314.2799,276.2994 L 316.2995,278.319 L 314.2799,280.3386 z" />
  </g><g
   id="g456"
   style="fill:#ffff00;fill-rule:nonzero"
   transform="matrix(1.2722874,0,0,-1.2722874,6.3025994,731.96719)">
   <path
   id="path458"
   d="M 320.0189,289.2992 L 317.9993,287.2796 L 320.0189,285.26 L 322.0385,287.2796 L 320.0189,289.2992 z" />
  </g><g
   id="g460"
   style="fill:none;stroke:#ffff00;stroke-width:1.37699997;stroke-linecap:butt;stroke-linejoin:miter;stroke-dasharray:none"
   transform="matrix(1.2722874,0,0,-1.2722874,6.3025994,731.96719)">
   <path
   id="path462"
   d="M 320.0189,289.2992 L 317.9993,287.2796 L 320.0189,285.26 L 322.0385,287.2796 L 320.0189,289.2992 z" />
  </g><g
   id="g464"
   style="fill:#ffff00;fill-rule:nonzero"
   transform="matrix(1.2722874,0,0,-1.2722874,6.3025994,731.96719)">
   <path
   id="path466"
   d="M 327.3687,299.7598 L 325.3491,297.7402 L 327.3687,295.7206 L 329.3883,297.7402 L 327.3687,299.7598 z" />
  </g><g
   id="g468"
   style="fill:none;stroke:#ffff00;stroke-width:1.37699997;stroke-linecap:butt;stroke-linejoin:miter;stroke-dasharray:none"
   transform="matrix(1.2722874,0,0,-1.2722874,6.3025994,731.96719)">
   <path
   id="path470"
   d="M 327.3687,299.7598 L 325.3491,297.7402 L 327.3687,295.7206 L 329.3883,297.7402 L 327.3687,299.7598 z" />
  </g><g
   id="g472"
   style="fill:#ffff00;fill-rule:nonzero"
   transform="matrix(1.2722874,0,0,-1.2722874,6.3025994,731.96719)">
   <path
   id="path474"
   d="M 335.1358,309.9073 L 333.1162,307.8877 L 335.1358,305.8681 L 337.1554,307.8877 L 335.1358,309.9073 z" />
  </g><g
   id="g476"
   style="fill:none;stroke:#ffff00;stroke-width:1.37699997;stroke-linecap:butt;stroke-linejoin:miter;stroke-dasharray:none"
   transform="matrix(1.2722874,0,0,-1.2722874,6.3025994,731.96719)">
   <path
   id="path478"
   d="M 335.1358,309.9073 L 333.1162,307.8877 L 335.1358,305.8681 L 337.1554,307.8877 L 335.1358,309.9073 z" />
  </g><g
   id="g480"
   style="fill:#ffff00;fill-rule:nonzero"
   transform="matrix(1.2722874,0,0,-1.2722874,6.3025994,731.96719)">
   <path
   id="path482"
   d="M 341.84,317.8766 L 339.8204,315.857 L 341.84,313.8374 L 343.8596,315.857 L 341.84,317.8766 z" />
  </g><g
   id="g484"
   style="fill:none;stroke:#ffff00;stroke-width:1.37699997;stroke-linecap:butt;stroke-linejoin:miter;stroke-dasharray:none"
   transform="matrix(1.2722874,0,0,-1.2722874,6.3025994,731.96719)">
   <path
   id="path486"
   d="M 341.84,317.8766 L 339.8204,315.857 L 341.84,313.8374 L 343.8596,315.857 L 341.84,317.8766 z" />
  </g><g
   id="g488"
   style="fill:#ffff00;fill-rule:nonzero"
   transform="matrix(1.2722874,0,0,-1.2722874,6.3025994,731.96719)">
   <path
   id="path490"
   d="M 348.9419,325.4807 L 346.9223,323.4611 L 348.9419,321.4415 L 350.9615,323.4611 L 348.9419,325.4807 z" />
  </g><g
   id="g492"
   style="fill:none;stroke:#ffff00;stroke-width:1.37699997;stroke-linecap:butt;stroke-linejoin:miter;stroke-dasharray:none"
   transform="matrix(1.2722874,0,0,-1.2722874,6.3025994,731.96719)">
   <path
   id="path494"
   d="M 348.9419,325.4807 L 346.9223,323.4611 L 348.9419,321.4415 L 350.9615,323.4611 L 348.9419,325.4807 z" />
  </g><g
   id="g496"
   style="fill:#ffff00;fill-rule:nonzero"
   transform="matrix(1.2722874,0,0,-1.2722874,6.3025994,731.96719)">
   <path
   id="path498"
   d="M 356.3765,332.7588 L 354.3569,330.7392 L 356.3765,328.7196 L 358.3961,330.7392 L 356.3765,332.7588 z" />
  </g><g
   id="g500"
   style="fill:none;stroke:#ffff00;stroke-width:1.37699997;stroke-linecap:butt;stroke-linejoin:miter;stroke-dasharray:none"
   transform="matrix(1.2722874,0,0,-1.2722874,6.3025994,731.96719)">
   <path
   id="path502"
   d="M 356.3765,332.7588 L 354.3569,330.7392 L 356.3765,328.7196 L 358.3961,330.7392 L 356.3765,332.7588 z" />
  </g><g
   id="g504"
   style="fill:#ffff00;fill-rule:nonzero"
   transform="matrix(1.2722874,0,0,-1.2722874,6.3025994,731.96719)">
   <path
   id="path506"
   d="M 361.9785,341.4911 L 359.9589,339.4715 L 361.9785,337.4519 L 363.9981,339.4715 L 361.9785,341.4911 z" />
  </g><g
   id="g508"
   style="fill:none;stroke:#ffff00;stroke-width:1.37699997;stroke-linecap:butt;stroke-linejoin:miter;stroke-dasharray:none"
   transform="matrix(1.2722874,0,0,-1.2722874,6.3025994,731.96719)">
   <path
   id="path510"
   d="M 361.9785,341.4911 L 359.9589,339.4715 L 361.9785,337.4519 L 363.9981,339.4715 L 361.9785,341.4911 z" />
  </g><g
   id="g512"
   style="fill:#ffff00;fill-rule:nonzero"
   transform="matrix(1.2722874,0,0,-1.2722874,6.3025994,731.96719)">
   <path
   id="path514"
   d="M 364.2415,351.0582 L 362.2219,349.0386 L 364.2415,347.019 L 366.2611,349.0386 L 364.2415,351.0582 z" />
  </g><g
   id="g516"
   style="fill:none;stroke:#ffff00;stroke-width:1.37699997;stroke-linecap:butt;stroke-linejoin:miter;stroke-dasharray:none"
   transform="matrix(1.2722874,0,0,-1.2722874,6.3025994,731.96719)">
   <path
   id="path518"
   d="M 364.2415,351.0582 L 362.2219,349.0386 L 364.2415,347.019 L 366.2611,349.0386 L 364.2415,351.0582 z" />
  </g><g
   id="g520"
   style="fill:#ffff00;fill-rule:nonzero"
   transform="matrix(1.2722874,0,0,-1.2722874,6.3025994,731.96719)">
   <path
   id="path522"
   d="M 367.6066,360.3318 L 365.587,358.3122 L 367.6066,356.2926 L 369.6262,358.3122 L 367.6066,360.3318 z" />
  </g><g
   id="g524"
   style="fill:none;stroke:#ffff00;stroke-width:1.37699997;stroke-linecap:butt;stroke-linejoin:miter;stroke-dasharray:none"
   transform="matrix(1.2722874,0,0,-1.2722874,6.3025994,731.96719)">
   <path
   id="path526"
   d="M 367.6066,360.3318 L 365.587,358.3122 L 367.6066,356.2926 L 369.6262,358.3122 L 367.6066,360.3318 z" />
  </g><g
   id="g528"
   style="fill:#ffff00;fill-rule:nonzero"
   transform="matrix(1.2722874,0,0,-1.2722874,6.3025994,731.96719)">
   <path
   id="path530"
   d="M 372.0543,369.5533 L 370.0347,367.5337 L 372.0543,365.5141 L 374.0739,367.5337 L 372.0543,369.5533 z" />
  </g><g
   id="g532"
   style="fill:none;stroke:#ffff00;stroke-width:1.37699997;stroke-linecap:butt;stroke-linejoin:miter;stroke-dasharray:none"
   transform="matrix(1.2722874,0,0,-1.2722874,6.3025994,731.96719)">
   <path
   id="path534"
   d="M 372.0543,369.5533 L 370.0347,367.5337 L 372.0543,365.5141 L 374.0739,367.5337 L 372.0543,369.5533 z" />
  </g><g
   id="g536"
   style="fill:#ffff00;fill-rule:nonzero"
   transform="matrix(1.2722874,0,0,-1.2722874,6.3025994,731.96719)">
   <path
   id="path538"
   d="M 378.4193,380.6399 L 376.3997,378.6203 L 378.4193,376.6007 L 380.4389,378.6203 L 378.4193,380.6399 z" />
  </g><g
   id="g540"
   style="fill:none;stroke:#ffff00;stroke-width:1.37699997;stroke-linecap:butt;stroke-linejoin:miter;stroke-dasharray:none"
   transform="matrix(1.2722874,0,0,-1.2722874,6.3025994,731.96719)">
   <path
   id="path542"
   d="M 378.4193,380.6399 L 376.3997,378.6203 L 378.4193,376.6007 L 380.4389,378.6203 L 378.4193,380.6399 z" />
  </g><g
   id="g544"
   style="fill:#ffff00;fill-rule:nonzero"
   transform="matrix(1.2722874,0,0,-1.2722874,6.3025994,731.96719)">
   <path
   id="path546"
   d="M 385.4756,391.3026 L 383.456,389.283 L 385.4756,387.2634 L 387.4952,389.283 L 385.4756,391.3026 z" />
  </g><g
   id="g548"
   style="fill:none;stroke:#ffff00;stroke-width:1.37699997;stroke-linecap:butt;stroke-linejoin:miter;stroke-dasharray:none"
   transform="matrix(1.2722874,0,0,-1.2722874,6.3025994,731.96719)">
   <path
   id="path550"
   d="M 385.4756,391.3026 L 383.456,389.283 L 385.4756,387.2634 L 387.4952,389.283 L 385.4756,391.3026 z" />
  </g><g
   id="g552"
   style="fill:#ffff00;fill-rule:nonzero"
   transform="matrix(1.2722874,0,0,-1.2722874,6.3025994,731.96719)">
   <path
   id="path554"
   d="M 391.5276,399.9763 L 389.508,397.9567 L 391.5276,395.9371 L 393.5472,397.9567 L 391.5276,399.9763 z" />
  </g><g
   id="g556"
   style="fill:none;stroke:#ffff00;stroke-width:1.37699997;stroke-linecap:butt;stroke-linejoin:miter;stroke-dasharray:none"
   transform="matrix(1.2722874,0,0,-1.2722874,6.3025994,731.96719)">
   <path
   id="path558"
   d="M 391.5276,399.9763 L 389.508,397.9567 L 391.5276,395.9371 L 393.5472,397.9567 L 391.5276,399.9763 z" />
  </g><g
   id="g560"
   style="fill:#ffff00;fill-rule:nonzero"
   transform="matrix(1.2722874,0,0,-1.2722874,6.3025994,731.96719)">
   <path
   id="path562"
   d="M 396.947,409.0477 L 394.9274,407.0281 L 396.947,405.0085 L 398.9666,407.0281 L 396.947,409.0477 z" />
  </g><g
   id="g564"
   style="fill:none;stroke:#ffff00;stroke-width:1.37699997;stroke-linecap:butt;stroke-linejoin:miter;stroke-dasharray:none"
   transform="matrix(1.2722874,0,0,-1.2722874,6.3025994,731.96719)">
   <path
   id="path566"
   d="M 396.947,409.0477 L 394.9274,407.0281 L 396.947,405.0085 L 398.9666,407.0281 L 396.947,409.0477 z" />
  </g><g
   id="g568"
   style="fill:#ffff00;fill-rule:nonzero"
   transform="matrix(1.2722874,0,0,-1.2722874,6.3025994,731.96719)">
   <path
   id="path570"
   d="M 400.4686,418.9213 L 398.449,416.9017 L 400.4686,414.8821 L 402.4882,416.9017 L 400.4686,418.9213 z" />
  </g><g
   id="g572"
   style="fill:none;stroke:#ffff00;stroke-width:1.37699997;stroke-linecap:butt;stroke-linejoin:miter;stroke-dasharray:none"
   transform="matrix(1.2722874,0,0,-1.2722874,6.3025994,731.96719)">
   <path
   id="path574"
   d="M 400.4686,418.9213 L 398.449,416.9017 L 400.4686,414.8821 L 402.4882,416.9017 L 400.4686,418.9213 z" />
  </g><g
   id="g576"
   style="fill:#ffff00;fill-rule:nonzero"
   transform="matrix(1.2722874,0,0,-1.2722874,6.3025994,731.96719)">
   <path
   id="path578"
   d="M 401.7794,429.2906 L 399.7598,427.271 L 401.7794,425.2514 L 403.799,427.271 L 401.7794,429.2906 z" />
  </g><g
   id="g580"
   style="fill:none;stroke:#ffff00;stroke-width:1.37699997;stroke-linecap:butt;stroke-linejoin:miter;stroke-dasharray:none"
   transform="matrix(1.2722874,0,0,-1.2722874,6.3025994,731.96719)">
   <path
   id="path582"
   d="M 401.7794,429.2906 L 399.7598,427.271 L 401.7794,425.2514 L 403.799,427.271 L 401.7794,429.2906 z" />
  </g><g
   id="g584"
   style="fill:#ffff00;fill-rule:nonzero"
   transform="matrix(1.2722874,0,0,-1.2722874,6.3025994,731.96719)">
   <path
   id="path586"
   d="M 404.1924,439.4511 L 402.1728,437.4315 L 404.1924,435.4119 L 406.212,437.4315 L 404.1924,439.4511 z" />
  </g><g
   id="g588"
   style="fill:none;stroke:#ffff00;stroke-width:1.37699997;stroke-linecap:butt;stroke-linejoin:miter;stroke-dasharray:none"
   transform="matrix(1.2722874,0,0,-1.2722874,6.3025994,731.96719)">
   <path
   id="path590"
   d="M 404.1924,439.4511 L 402.1728,437.4315 L 404.1924,435.4119 L 406.212,437.4315 L 404.1924,439.4511 z" />
  </g><g
   id="g592"
   style="fill:#ffff00;fill-rule:nonzero"
   transform="matrix(1.2722874,0,0,-1.2722874,6.3025994,731.96719)">
   <path
   id="path594"
   d="M 407.1401,449.5008 L 405.1205,447.4812 L 407.1401,445.4616 L 409.1597,447.4812 L 407.1401,449.5008 z" />
  </g><g
   id="g596"
   style="fill:none;stroke:#ffff00;stroke-width:1.37699997;stroke-linecap:butt;stroke-linejoin:miter;stroke-dasharray:none"
   transform="matrix(1.2722874,0,0,-1.2722874,6.3025994,731.96719)">
   <path
   id="path598"
   d="M 407.1401,449.5008 L 405.1205,447.4812 L 407.1401,445.4616 L 409.1597,447.4812 L 407.1401,449.5008 z" />
  </g><g
   id="g600"
   style="fill:#ffff00;fill-rule:nonzero"
   transform="matrix(1.2722874,0,0,-1.2722874,6.3025994,731.96719)">
   <path
   id="path602"
   d="M 410.2705,459.4984 L 408.2509,457.4788 L 410.2705,455.4592 L 412.2901,457.4788 L 410.2705,459.4984 z" />
  </g><g
   id="g604"
   style="fill:none;stroke:#ffff00;stroke-width:1.37699997;stroke-linecap:butt;stroke-linejoin:miter;stroke-dasharray:none"
   transform="matrix(1.2722874,0,0,-1.2722874,6.3025994,731.96719)">
   <path
   id="path606"
   d="M 410.2705,459.4984 L 408.2509,457.4788 L 410.2705,455.4592 L 412.2901,457.4788 L 410.2705,459.4984 z" />
  </g><g
   id="g608"
   style="fill:#ffff00;fill-rule:nonzero"
   transform="matrix(1.2722874,0,0,-1.2722874,6.3025994,731.96719)">
   <path
   id="path610"
   d="M 415.1486,468.7655 L 413.129,466.7459 L 415.1486,464.7263 L 417.1682,466.7459 L 415.1486,468.7655 z" />
  </g><g
   id="g612"
   style="fill:none;stroke:#ffff00;stroke-width:1.37699997;stroke-linecap:butt;stroke-linejoin:miter;stroke-dasharray:none"
   transform="matrix(1.2722874,0,0,-1.2722874,6.3025994,731.96719)">
   <path
   id="path614"
   d="M 415.1486,468.7655 L 413.129,466.7459 L 415.1486,464.7263 L 417.1682,466.7459 L 415.1486,468.7655 z" />
  </g><g
   id="g616"
   style="fill:#ffff00;fill-rule:nonzero"
   transform="matrix(1.2722874,0,0,-1.2722874,6.3025994,731.96719)">
   <path
   id="path618"
   d="M 420.0658,478.013 L 418.0462,475.9934 L 420.0658,473.9738 L 422.0854,475.9934 L 420.0658,478.013 z" />
  </g><g
   id="g620"
   style="fill:none;stroke:#ffff00;stroke-width:1.37699997;stroke-linecap:butt;stroke-linejoin:miter;stroke-dasharray:none"
   transform="matrix(1.2722874,0,0,-1.2722874,6.3025994,731.96719)">
   <path
   id="path622"
   d="M 420.0658,478.013 L 418.0462,475.9934 L 420.0658,473.9738 L 422.0854,475.9934 L 420.0658,478.013 z" />
  </g><g
   id="g624"
   style="fill:#ffff00;fill-rule:nonzero"
   transform="matrix(1.2722874,0,0,-1.2722874,6.3025994,731.96719)">
   <path
   id="path626"
   d="M 423.0397,489.4387 L 421.0201,487.4191 L 423.0397,485.3995 L 425.0593,487.4191 L 423.0397,489.4387 z" />
  </g><g
   id="g628"
   style="fill:none;stroke:#ffff00;stroke-width:1.37699997;stroke-linecap:butt;stroke-linejoin:miter;stroke-dasharray:none"
   transform="matrix(1.2722874,0,0,-1.2722874,6.3025994,731.96719)">
   <path
   id="path630"
   d="M 423.0397,489.4387 L 421.0201,487.4191 L 423.0397,485.3995 L 425.0593,487.4191 L 423.0397,489.4387 z" />
  </g><g
   id="g632"
   style="fill:#ffff00;fill-rule:nonzero"
   transform="matrix(1.2722874,0,0,-1.2722874,6.3025994,731.96719)">
   <path
   id="path634"
   d="M 425.4461,501.0014 L 423.4265,498.9818 L 425.4461,496.9622 L 427.4657,498.9818 L 425.4461,501.0014 z" />
  </g><g
   id="g636"
   style="fill:none;stroke:#ffff00;stroke-width:1.37699997;stroke-linecap:butt;stroke-linejoin:miter;stroke-dasharray:none"
   transform="matrix(1.2722874,0,0,-1.2722874,6.3025994,731.96719)">
   <path
   id="path638"
   d="M 425.4461,501.0014 L 423.4265,498.9818 L 425.4461,496.9622 L 427.4657,498.9818 L 425.4461,501.0014 z" />
  </g><g
   id="g640"
   style="fill:#ffff00;fill-rule:nonzero"
   transform="matrix(1.2722874,0,0,-1.2722874,6.3025994,731.96719)">
   <path
   id="path642"
   d="M 427.8395,512.5511 L 425.8199,510.5315 L 427.8395,508.5119 L 429.8591,510.5315 L 427.8395,512.5511 z" />
  </g><g
   id="g644"
   style="fill:none;stroke:#ffff00;stroke-width:1.37699997;stroke-linecap:butt;stroke-linejoin:miter;stroke-dasharray:none"
   transform="matrix(1.2722874,0,0,-1.2722874,6.3025994,731.96719)">
   <path
   id="path646"
   d="M 427.8395,512.5511 L 425.8199,510.5315 L 427.8395,508.5119 L 429.8591,510.5315 L 427.8395,512.5511 z" />
  </g><g
   id="g648"
   style="fill:#ffff00;fill-rule:nonzero"
   transform="matrix(1.2722874,0,0,-1.2722874,6.3025994,731.96719)">
   <path
   id="path650"
   d="M 430.422,524.0616 L 428.4024,522.042 L 430.422,520.0224 L 432.4416,522.042 L 430.422,524.0616 z" />
  </g><g
   id="g652"
   style="fill:none;stroke:#ffff00;stroke-width:1.37699997;stroke-linecap:butt;stroke-linejoin:miter;stroke-dasharray:none"
   transform="matrix(1.2722874,0,0,-1.2722874,6.3025994,731.96719)">
   <path
   id="path654"
   d="M 430.422,524.0616 L 428.4024,522.042 L 430.422,520.0224 L 432.4416,522.042 L 430.422,524.0616 z" />
  </g><g
   id="g656"
   style="fill:#ffff00;fill-rule:nonzero"
   transform="matrix(1.2722874,0,0,-1.2722874,6.3025994,731.96719)">
   <path
   id="path658"
   d="M 433.6176,535.4286 L 431.598,533.409 L 433.6176,531.3894 L 435.6372,533.409 L 433.6176,535.4286 z" />
  </g><g
   id="g660"
   style="fill:none;stroke:#ffff00;stroke-width:1.37699997;stroke-linecap:butt;stroke-linejoin:miter;stroke-dasharray:none"
   transform="matrix(1.2722874,0,0,-1.2722874,6.3025994,731.96719)">
   <path
   id="path662"
   d="M 433.6176,535.4286 L 431.598,533.409 L 433.6176,531.3894 L 435.6372,533.409 L 433.6176,535.4286 z" />
  </g><g
   id="g664"
   style="fill:#ffff00;fill-rule:nonzero"
   transform="matrix(1.2722874,0,0,-1.2722874,6.3025994,731.96719)">
   <path
   id="path666"
   d="M 436.7153,545.987 L 434.6957,543.9674 L 436.7153,541.9478 L 438.7349,543.9674 L 436.7153,545.987 z" />
  </g><g
   id="g668"
   style="fill:none;stroke:#ffff00;stroke-width:1.37699997;stroke-linecap:butt;stroke-linejoin:miter;stroke-dasharray:none"
   transform="matrix(1.2722874,0,0,-1.2722874,6.3025994,731.96719)">
   <path
   id="path670"
   d="M 436.7153,545.987 L 434.6957,543.9674 L 436.7153,541.9478 L 438.7349,543.9674 L 436.7153,545.987 z" />
  </g><g
   id="g672"
   style="fill:#ffff00;fill-rule:nonzero"
   transform="matrix(1.2722874,0,0,-1.2722874,6.3025994,731.96719)">
   <path
   id="path674"
   d="M 438.1501,556.8976 L 436.1305,554.878 L 438.1501,552.8584 L 440.1697,554.878 L 438.1501,556.8976 z" />
  </g><g
   id="g676"
   style="fill:none;stroke:#ffff00;stroke-width:1.37699997;stroke-linecap:butt;stroke-linejoin:miter;stroke-dasharray:none"
   transform="matrix(1.2722874,0,0,-1.2722874,6.3025994,731.96719)">
   <path
   id="path678"
   d="M 438.1501,556.8976 L 436.1305,554.878 L 438.1501,552.8584 L 440.1697,554.878 L 438.1501,556.8976 z" />
  </g><g
   id="g680"
   style="fill:#ffff00;fill-rule:nonzero"
   transform="matrix(1.2722874,0,0,-1.2722874,6.3025994,731.96719)">
   <path
   id="path682"
   d="M 437.6023,567.1625 L 435.5827,565.1429 L 437.6023,563.1233 L 439.6219,565.1429 L 437.6023,567.1625 z" />
  </g><g
   id="g684"
   style="fill:none;stroke:#ffff00;stroke-width:1.37699997;stroke-linecap:butt;stroke-linejoin:miter;stroke-dasharray:none"
   transform="matrix(1.2722874,0,0,-1.2722874,6.3025994,731.96719)">
   <path
   id="path686"
   d="M 437.6023,567.1625 L 435.5827,565.1429 L 437.6023,563.1233 L 439.6219,565.1429 L 437.6023,567.1625 z" />
  </g><g
   id="g688"
   style="fill:#ffff00;fill-rule:nonzero"
   transform="matrix(1.2722874,0,0,-1.2722874,6.3025994,731.96719)">
   <path
   id="path690"
   d="M 429.7568,568.5515 L 427.7372,566.5319 L 429.7568,564.5123 L 431.7764,566.5319 L 429.7568,568.5515 z" />
  </g><g
   id="g692"
   style="fill:none;stroke:#ffff00;stroke-width:1.37699997;stroke-linecap:butt;stroke-linejoin:miter;stroke-dasharray:none"
   transform="matrix(1.2722874,0,0,-1.2722874,6.3025994,731.96719)">
   <path
   id="path694"
   d="M 429.7568,568.5515 L 427.7372,566.5319 L 429.7568,564.5123 L 431.7764,566.5319 L 429.7568,568.5515 z" />
  </g><g
   id="g696"
   style="fill:#ffff00;fill-rule:nonzero"
   transform="matrix(1.2722874,0,0,-1.2722874,6.3025994,731.96719)">
   <path
   id="path698"
   d="M 421.9179,562.017 L 419.8983,559.9974 L 421.9179,557.9778 L 423.9375,559.9974 L 421.9179,562.017 z" />
  </g><g
   id="g700"
   style="fill:none;stroke:#ffff00;stroke-width:1.37699997;stroke-linecap:butt;stroke-linejoin:miter;stroke-dasharray:none"
   transform="matrix(1.2722874,0,0,-1.2722874,6.3025994,731.96719)">
   <path
   id="path702"
   d="M 421.9179,562.017 L 419.8983,559.9974 L 421.9179,557.9778 L 423.9375,559.9974 L 421.9179,562.017 z" />
  </g><g
   id="g704"
   style="fill:#ffff00;fill-rule:nonzero"
   transform="matrix(1.2722874,0,0,-1.2722874,6.3025994,731.96719)">
   <path
   id="path706"
   d="M 413.8638,554.7454 L 411.8442,552.7258 L 413.8638,550.7062 L 415.8834,552.7258 L 413.8638,554.7454 z" />
  </g><g
   id="g708"
   style="fill:none;stroke:#ffff00;stroke-width:1.37699997;stroke-linecap:butt;stroke-linejoin:miter;stroke-dasharray:none"
   transform="matrix(1.2722874,0,0,-1.2722874,6.3025994,731.96719)">
   <path
   id="path710"
   d="M 413.8638,554.7454 L 411.8442,552.7258 L 413.8638,550.7062 L 415.8834,552.7258 L 413.8638,554.7454 z" />
  </g><g
   id="g712"
   style="fill:#ffff00;fill-rule:nonzero"
   transform="matrix(1.2722874,0,0,-1.2722874,6.3025994,731.96719)">
   <path
   id="path714"
   d="M 405.2228,548.2109 L 403.2032,546.1913 L 405.2228,544.1717 L 407.2424,546.1913 L 405.2228,548.2109 z" />
  </g><g
   id="g716"
   style="fill:none;stroke:#ffff00;stroke-width:1.37699997;stroke-linecap:butt;stroke-linejoin:miter;stroke-dasharray:none"
   transform="matrix(1.2722874,0,0,-1.2722874,6.3025994,731.96719)">
   <path
   id="path718"
   d="M 405.2228,548.2109 L 403.2032,546.1913 L 405.2228,544.1717 L 407.2424,546.1913 L 405.2228,548.2109 z" />
  </g><g
   id="g720"
   style="fill:#ffff00;fill-rule:nonzero"
   transform="matrix(1.2722874,0,0,-1.2722874,6.3025994,731.96719)">
   <path
   id="path722"
   d="M 396.1513,542.2502 L 394.1317,540.2306 L 396.1513,538.211 L 398.1709,540.2306 L 396.1513,542.2502 z" />
  </g><g
   id="g724"
   style="fill:none;stroke:#ffff00;stroke-width:1.37699997;stroke-linecap:butt;stroke-linejoin:miter;stroke-dasharray:none"
   transform="matrix(1.2722874,0,0,-1.2722874,6.3025994,731.96719)">
   <path
   id="path726"
   d="M 396.1513,542.2502 L 394.1317,540.2306 L 396.1513,538.211 L 398.1709,540.2306 L 396.1513,542.2502 z" />
  </g><g
   id="g728"
   style="fill:#ffff00;fill-rule:nonzero"
   transform="matrix(1.2722874,0,0,-1.2722874,6.3025994,731.96719)">
   <path
   id="path730"
   d="M 386.7277,536.5112 L 384.7081,534.4916 L 386.7277,532.472 L 388.7473,534.4916 L 386.7277,536.5112 z" />
  </g><g
   id="g732"
   style="fill:none;stroke:#ffff00;stroke-width:1.37699997;stroke-linecap:butt;stroke-linejoin:miter;stroke-dasharray:none"
   transform="matrix(1.2722874,0,0,-1.2722874,6.3025994,731.96719)">
   <path
   id="path734"
   d="M 386.7277,536.5112 L 384.7081,534.4916 L 386.7277,532.472 L 388.7473,534.4916 L 386.7277,536.5112 z" />
  </g><g
   id="g736"
   style="fill:#ffff00;fill-rule:nonzero"
   transform="matrix(1.2722874,0,0,-1.2722874,6.3025994,731.96719)">
   <path
   id="path738"
   d="M 376.4889,530.5505 L 374.4693,528.5309 L 376.4889,526.5113 L 378.5085,528.5309 L 376.4889,530.5505 z" />
  </g><g
   id="g740"
   style="fill:none;stroke:#ffff00;stroke-width:1.37699997;stroke-linecap:butt;stroke-linejoin:miter;stroke-dasharray:none"
   transform="matrix(1.2722874,0,0,-1.2722874,6.3025994,731.96719)">
   <path
   id="path742"
   d="M 376.4889,530.5505 L 374.4693,528.5309 L 376.4889,526.5113 L 378.5085,528.5309 L 376.4889,530.5505 z" />
  </g><g
   id="g744"
   style="fill:#ffff00;fill-rule:nonzero"
   transform="matrix(1.2722874,0,0,-1.2722874,6.3025994,731.96719)">
   <path
   id="path746"
   d="M 366.224,524.629 L 364.2044,522.6094 L 366.224,520.5898 L 368.2436,522.6094 L 366.224,524.629 z" />
  </g><g
   id="g748"
   style="fill:none;stroke:#ffff00;stroke-width:1.37699997;stroke-linecap:butt;stroke-linejoin:miter;stroke-dasharray:none"
   transform="matrix(1.2722874,0,0,-1.2722874,6.3025994,731.96719)">
   <path
   id="path750"
   d="M 366.224,524.629 L 364.2044,522.6094 L 366.224,520.5898 L 368.2436,522.6094 L 366.224,524.629 z" />
  </g><g
   id="g752"
   style="fill:#ffff00;fill-rule:nonzero"
   transform="matrix(1.2722874,0,0,-1.2722874,6.3025994,731.96719)">
   <path
   id="path754"
   d="M 356.6634,518.6618 L 354.6438,516.6422 L 356.6634,514.6226 L 358.683,516.6422 L 356.6634,518.6618 z" />
  </g><g
   id="g756"
   style="fill:none;stroke:#ffff00;stroke-width:1.37699997;stroke-linecap:butt;stroke-linejoin:miter;stroke-dasharray:none"
   transform="matrix(1.2722874,0,0,-1.2722874,6.3025994,731.96719)">
   <path
   id="path758"
   d="M 356.6634,518.6618 L 354.6438,516.6422 L 356.6634,514.6226 L 358.683,516.6422 L 356.6634,518.6618 z" />
  </g><g
   id="g760"
   style="fill:#ffff00;fill-rule:nonzero"
   transform="matrix(1.2722874,0,0,-1.2722874,6.3025994,731.96719)">
   <path
   id="path762"
   d="M 348.5702,511.4229 L 346.5506,509.4033 L 348.5702,507.3837 L 350.5898,509.4033 L 348.5702,511.4229 z" />
  </g><g
   id="g764"
   style="fill:none;stroke:#ffff00;stroke-width:1.37699997;stroke-linecap:butt;stroke-linejoin:miter;stroke-dasharray:none"
   transform="matrix(1.2722874,0,0,-1.2722874,6.3025994,731.96719)">
   <path
   id="path766"
   d="M 348.5702,511.4229 L 346.5506,509.4033 L 348.5702,507.3837 L 350.5898,509.4033 L 348.5702,511.4229 z" />
  </g><g
   id="g768"
   style="fill:#ffff00;fill-rule:nonzero"
   transform="matrix(1.2722874,0,0,-1.2722874,6.3025994,731.96719)">
   <path
   id="path770"
   d="M 341.8204,502.9188 L 339.8008,500.8992 L 341.8204,498.8796 L 343.84,500.8992 L 341.8204,502.9188 z" />
  </g><g
   id="g772"
   style="fill:none;stroke:#ffff00;stroke-width:1.37699997;stroke-linecap:butt;stroke-linejoin:miter;stroke-dasharray:none"
   transform="matrix(1.2722874,0,0,-1.2722874,6.3025994,731.96719)">
   <path
   id="path774"
   d="M 341.8204,502.9188 L 339.8008,500.8992 L 341.8204,498.8796 L 343.84,500.8992 L 341.8204,502.9188 z" />
  </g><g
   id="g776"
   style="fill:#ffff00;fill-rule:nonzero"
   transform="matrix(1.2722874,0,0,-1.2722874,6.3025994,731.96719)">
   <path
   id="path778"
   d="M 336.101,495.6538 L 334.0814,493.6342 L 336.101,491.6146 L 338.1206,493.6342 L 336.101,495.6538 z" />
  </g><g
   id="g780"
   style="fill:none;stroke:#ffff00;stroke-width:1.37699997;stroke-linecap:butt;stroke-linejoin:miter;stroke-dasharray:none"
   transform="matrix(1.2722874,0,0,-1.2722874,6.3025994,731.96719)">
   <path
   id="path782"
   d="M 336.101,495.6538 L 334.0814,493.6342 L 336.101,491.6146 L 338.1206,493.6342 L 336.101,495.6538 z" />
  </g><g
   id="g784"
   style="fill:#ffff00;fill-rule:nonzero"
   transform="matrix(1.2722874,0,0,-1.2722874,6.3025994,731.96719)">
   <path
   id="path786"
   d="M 331.1773,487.841 L 329.1577,485.8214 L 331.1773,483.8018 L 333.1969,485.8214 L 331.1773,487.841 z" />
  </g><g
   id="g788"
   style="fill:none;stroke:#ffff00;stroke-width:1.37699997;stroke-linecap:butt;stroke-linejoin:miter;stroke-dasharray:none"
   transform="matrix(1.2722874,0,0,-1.2722874,6.3025994,731.96719)">
   <path
   id="path790"
   d="M 331.1773,487.841 L 329.1577,485.8214 L 331.1773,483.8018 L 333.1969,485.8214 L 331.1773,487.841 z" />
  </g><g
   id="g792"
   style="fill:#ffff00;fill-rule:nonzero"
   transform="matrix(1.2722874,0,0,-1.2722874,6.3025994,731.96719)">
   <path
   id="path794"
   d="M 326.6317,479.8195 L 324.6121,477.7999 L 326.6317,475.7803 L 328.6513,477.7999 L 326.6317,479.8195 z" />
  </g><g
   id="g796"
   style="fill:none;stroke:#ffff00;stroke-width:1.37699997;stroke-linecap:butt;stroke-linejoin:miter;stroke-dasharray:none"
   transform="matrix(1.2722874,0,0,-1.2722874,6.3025994,731.96719)">
   <path
   id="path798"
   d="M 326.6317,479.8195 L 324.6121,477.7999 L 326.6317,475.7803 L 328.6513,477.7999 L 326.6317,479.8195 z" />
  </g><g
   id="g800"
   style="fill:#ffff00;fill-rule:nonzero"
   transform="matrix(1.2722874,0,0,-1.2722874,6.3025994,731.96719)">
   <path
   id="path802"
   d="M 321.5645,470.0567 L 319.5449,468.0371 L 321.5645,466.0175 L 323.5841,468.0371 L 321.5645,470.0567 z" />
  </g><g
   id="g804"
   style="fill:none;stroke:#ffff00;stroke-width:1.37699997;stroke-linecap:butt;stroke-linejoin:miter;stroke-dasharray:none"
   transform="matrix(1.2722874,0,0,-1.2722874,6.3025994,731.96719)">
   <path
   id="path806"
   d="M 321.5645,470.0567 L 319.5449,468.0371 L 321.5645,466.0175 L 323.5841,468.0371 L 321.5645,470.0567 z" />
  </g><g
   id="g808"
   style="fill:#ffff00;fill-rule:nonzero"
   transform="matrix(1.2722874,0,0,-1.2722874,6.3025994,731.96719)">
   <path
   id="path810"
   d="M 316.1451,460.1636 L 314.1255,458.144 L 316.1451,456.1244 L 318.1647,458.144 L 316.1451,460.1636 z" />
  </g><g
   id="g812"
   style="fill:none;stroke:#ffff00;stroke-width:1.37699997;stroke-linecap:butt;stroke-linejoin:miter;stroke-dasharray:none"
   transform="matrix(1.2722874,0,0,-1.2722874,6.3025994,731.96719)">
   <path
   id="path814"
   d="M 316.1451,460.1636 L 314.1255,458.144 L 316.1451,456.1244 L 318.1647,458.144 L 316.1451,460.1636 z" />
  </g><g
   id="g816"
   style="fill:#ffff00;fill-rule:nonzero"
   transform="matrix(1.2722874,0,0,-1.2722874,6.3025994,731.96719)">
   <path
   id="path818"
   d="M 310.1518,449.853 L 308.1322,447.8334 L 310.1518,445.8138 L 312.1714,447.8334 L 310.1518,449.853 z" />
  </g><g
   id="g820"
   style="fill:none;stroke:#ffff00;stroke-width:1.37699997;stroke-linecap:butt;stroke-linejoin:miter;stroke-dasharray:none"
   transform="matrix(1.2722874,0,0,-1.2722874,6.3025994,731.96719)">
   <path
   id="path822"
   d="M 310.1518,449.853 L 308.1322,447.8334 L 310.1518,445.8138 L 312.1714,447.8334 L 310.1518,449.853 z" />
  </g><g
   id="g824"
   style="fill:#ffff00;fill-rule:nonzero"
   transform="matrix(1.2722874,0,0,-1.2722874,6.3025994,731.96719)">
   <path
   id="path826"
   d="M 303.9433,439.6403 L 301.9237,437.6207 L 303.9433,435.6011 L 305.9629,437.6207 L 303.9433,439.6403 z" />
  </g><g
   id="g828"
   style="fill:none;stroke:#ffff00;stroke-width:1.37699997;stroke-linecap:butt;stroke-linejoin:miter;stroke-dasharray:none"
   transform="matrix(1.2722874,0,0,-1.2722874,6.3025994,731.96719)">
   <path
   id="path830"
   d="M 303.9433,439.6403 L 301.9237,437.6207 L 303.9433,435.6011 L 305.9629,437.6207 L 303.9433,439.6403 z" />
  </g><g
   id="g832"
   style="fill:#ffff00;fill-rule:nonzero"
   transform="matrix(1.2722874,0,0,-1.2722874,6.3025994,731.96719)">
   <path
   id="path834"
   d="M 297.5261,429.5645 L 295.5065,427.5449 L 297.5261,425.5253 L 299.5457,427.5449 L 297.5261,429.5645 z" />
  </g><g
   id="g836"
   style="fill:none;stroke:#ffff00;stroke-width:1.37699997;stroke-linecap:butt;stroke-linejoin:miter;stroke-dasharray:none"
   transform="matrix(1.2722874,0,0,-1.2722874,6.3025994,731.96719)">
   <path
   id="path838"
   d="M 297.5261,429.5645 L 295.5065,427.5449 L 297.5261,425.5253 L 299.5457,427.5449 L 297.5261,429.5645 z" />
  </g><g
   id="g840"
   style="fill:#ffff00;fill-rule:nonzero"
   transform="matrix(1.2722874,0,0,-1.2722874,6.3025994,731.96719)">
   <path
   id="path842"
   d="M 290.835,419.6713 L 288.8154,417.6517 L 290.835,415.6321 L 292.8546,417.6517 L 290.835,419.6713 z" />
  </g><g
   id="g844"
   style="fill:none;stroke:#ffff00;stroke-width:1.37699997;stroke-linecap:butt;stroke-linejoin:miter;stroke-dasharray:none"
   transform="matrix(1.2722874,0,0,-1.2722874,6.3025994,731.96719)">
   <path
   id="path846"
   d="M 290.835,419.6713 L 288.8154,417.6517 L 290.835,415.6321 L 292.8546,417.6517 L 290.835,419.6713 z" />
  </g><g
   id="g848"
   style="fill:#ffff00;fill-rule:nonzero"
   transform="matrix(1.2722874,0,0,-1.2722874,6.3025994,731.96719)">
   <path
   id="path850"
   d="M 283.7526,410.1238 L 281.733,408.1042 L 283.7526,406.0846 L 285.7722,408.1042 L 283.7526,410.1238 z" />
  </g><g
   id="g852"
   style="fill:none;stroke:#ffff00;stroke-width:1.37699997;stroke-linecap:butt;stroke-linejoin:miter;stroke-dasharray:none"
   transform="matrix(1.2722874,0,0,-1.2722874,6.3025994,731.96719)">
   <path
   id="path854"
   d="M 283.7526,410.1238 L 281.733,408.1042 L 283.7526,406.0846 L 285.7722,408.1042 L 283.7526,410.1238 z" />
  </g><g
   id="g856"
   style="fill:#ffff00;fill-rule:nonzero"
   transform="matrix(1.2722874,0,0,-1.2722874,6.3025994,731.96719)">
   <path
   id="path858"
   d="M 276.2333,400.9154 L 274.2137,398.8958 L 276.2333,396.8762 L 278.2529,398.8958 L 276.2333,400.9154 z" />
  </g><g
   id="g860"
   style="fill:none;stroke:#ffff00;stroke-width:1.37699997;stroke-linecap:butt;stroke-linejoin:miter;stroke-dasharray:none"
   transform="matrix(1.2722874,0,0,-1.2722874,6.3025994,731.96719)">
   <path
   id="path862"
   d="M 276.2333,400.9154 L 274.2137,398.8958 L 276.2333,396.8762 L 278.2529,398.8958 L 276.2333,400.9154 z" />
  </g><g
   id="g864"
   style="fill:#ffff00;fill-rule:nonzero"
   transform="matrix(1.2722874,0,0,-1.2722874,6.3025994,731.96719)">
   <path
   id="path866"
   d="M 269.7965,393.0765 L 267.7769,391.0569 L 269.7965,389.0373 L 271.8161,391.0569 L 269.7965,393.0765 z" />
  </g><g
   id="g868"
   style="fill:none;stroke:#ffff00;stroke-width:1.37699997;stroke-linecap:butt;stroke-linejoin:miter;stroke-dasharray:none"
   transform="matrix(1.2722874,0,0,-1.2722874,6.3025994,731.96719)">
   <path
   id="path870"
   d="M 269.7965,393.0765 L 267.7769,391.0569 L 269.7965,389.0373 L 271.8161,391.0569 L 269.7965,393.0765 z" />
  </g><g
   id="g872"
   style="fill:#ffff00;fill-rule:nonzero"
   transform="matrix(1.2722874,0,0,-1.2722874,6.3025994,731.96719)">
   <path
   id="path874"
   d="M 264.0902,384.6963 L 262.0706,382.6767 L 264.0902,380.6571 L 266.1098,382.6767 L 264.0902,384.6963 z" />
  </g><g
   id="g876"
   style="fill:none;stroke:#ffff00;stroke-width:1.37699997;stroke-linecap:butt;stroke-linejoin:miter;stroke-dasharray:none"
   transform="matrix(1.2722874,0,0,-1.2722874,6.3025994,731.96719)">
   <path
   id="path878"
   d="M 264.0902,384.6963 L 262.0706,382.6767 L 264.0902,380.6571 L 266.1098,382.6767 L 264.0902,384.6963 z" />
  </g><g
   id="g880"
   style="fill:#ffff00;fill-rule:nonzero"
   transform="matrix(1.2722874,0,0,-1.2722874,6.3025994,731.96719)">
   <path
   id="path882"
   d="M 259.4077,375.827 L 257.3881,373.8074 L 259.4077,371.7878 L 261.4273,373.8074 L 259.4077,375.827 z" />
  </g><g
   id="g884"
   style="fill:none;stroke:#ffff00;stroke-width:1.37699997;stroke-linecap:butt;stroke-linejoin:miter;stroke-dasharray:none"
   transform="matrix(1.2722874,0,0,-1.2722874,6.3025994,731.96719)">
   <path
   id="path886"
   d="M 259.4077,375.827 L 257.3881,373.8074 L 259.4077,371.7878 L 261.4273,373.8074 L 259.4077,375.827 z" />
  </g><g
   id="g888"
   style="fill:#ffff00;fill-rule:nonzero"
   transform="matrix(1.2722874,0,0,-1.2722874,6.3025994,731.96719)">
   <path
   id="path890"
   d="M 253.3818,367.812 L 251.3622,365.7924 L 253.3818,363.7728 L 255.4014,365.7924 L 253.3818,367.812 z" />
  </g><g
   id="g892"
   style="fill:none;stroke:#ffff00;stroke-width:1.37699997;stroke-linecap:butt;stroke-linejoin:miter;stroke-dasharray:none"
   transform="matrix(1.2722874,0,0,-1.2722874,6.3025994,731.96719)">
   <path
   id="path894"
   d="M 253.3818,367.812 L 251.3622,365.7924 L 253.3818,363.7728 L 255.4014,365.7924 L 253.3818,367.812 z" />
  </g><g
   id="g896"
   style="fill:#ffff00;fill-rule:nonzero"
   transform="matrix(1.2722874,0,0,-1.2722874,6.3025994,731.96719)">
   <path
   id="path898"
   d="M 246.019,359.1775 L 243.9994,357.1579 L 246.019,355.1383 L 248.0386,357.1579 L 246.019,359.1775 z" />
  </g><g
   id="g900"
   style="fill:none;stroke:#ffff00;stroke-width:1.37699997;stroke-linecap:butt;stroke-linejoin:miter;stroke-dasharray:none"
   transform="matrix(1.2722874,0,0,-1.2722874,6.3025994,731.96719)">
   <path
   id="path902"
   d="M 246.019,359.1775 L 243.9994,357.1579 L 246.019,355.1383 L 248.0386,357.1579 L 246.019,359.1775 z" />
  </g><g
   id="g904"
   style="fill:#ffff00;fill-rule:nonzero"
   transform="matrix(1.2722874,0,0,-1.2722874,6.3025994,731.96719)">
   <path
   id="path906"
   d="M 237.5801,350.4191 L 235.5605,348.3995 L 237.5801,346.3799 L 239.5997,348.3995 L 237.5801,350.4191 z" />
  </g><g
   id="g908"
   style="fill:none;stroke:#ffff00;stroke-width:1.37699997;stroke-linecap:butt;stroke-linejoin:miter;stroke-dasharray:none"
   transform="matrix(1.2722874,0,0,-1.2722874,6.3025994,731.96719)">
   <path
   id="path910"
   d="M 237.5801,350.4191 L 235.5605,348.3995 L 237.5801,346.3799 L 239.5997,348.3995 L 237.5801,350.4191 z" />
  </g><g
   id="g912"
   style="fill:#ffff00;fill-rule:nonzero"
   transform="matrix(1.2722874,0,0,-1.2722874,6.3025994,731.96719)">
   <path
   id="path914"
   d="M 228.6391,342.1628 L 226.6195,340.1432 L 228.6391,338.1236 L 230.6587,340.1432 L 228.6391,342.1628 z" />
  </g><g
   id="g916"
   style="fill:none;stroke:#ffff00;stroke-width:1.37699997;stroke-linecap:butt;stroke-linejoin:miter;stroke-dasharray:none"
   transform="matrix(1.2722874,0,0,-1.2722874,6.3025994,731.96719)">
   <path
   id="path918"
   d="M 228.6391,342.1628 L 226.6195,340.1432 L 228.6391,338.1236 L 230.6587,340.1432 L 228.6391,342.1628 z" />
  </g><g
   id="g920"
   style="fill:#ffff00;fill-rule:nonzero"
   transform="matrix(1.2722874,0,0,-1.2722874,6.3025994,731.96719)">
   <path
   id="path922"
   d="M 220.5785,335.3348 L 218.5589,333.3152 L 220.5785,331.2956 L 222.5981,333.3152 L 220.5785,335.3348 z" />
  </g><g
   id="g924"
   style="fill:none;stroke:#ffff00;stroke-width:1.37699997;stroke-linecap:butt;stroke-linejoin:miter;stroke-dasharray:none"
   transform="matrix(1.2722874,0,0,-1.2722874,6.3025994,731.96719)">
   <path
   id="path926"
   d="M 220.5785,335.3348 L 218.5589,333.3152 L 220.5785,331.2956 L 222.5981,333.3152 L 220.5785,335.3348 z" />
  </g><g
   id="g928"
   style="fill:#ffff00;fill-rule:nonzero"
   transform="matrix(1.2722874,0,0,-1.2722874,6.3025994,731.96719)">
   <path
   id="path930"
   d="M 212.2374,328.8719 L 210.2178,326.8523 L 212.2374,324.8327 L 214.257,326.8523 L 212.2374,328.8719 z" />
  </g><g
   id="g932"
   style="fill:none;stroke:#ffff00;stroke-width:1.37699997;stroke-linecap:butt;stroke-linejoin:miter;stroke-dasharray:none"
   transform="matrix(1.2722874,0,0,-1.2722874,6.3025994,731.96719)">
   <path
   id="path934"
   d="M 212.2374,328.8719 L 210.2178,326.8523 L 212.2374,324.8327 L 214.257,326.8523 L 212.2374,328.8719 z" />
  </g><g
   id="g936"
   style="fill:#ffff00;fill-rule:nonzero"
   transform="matrix(1.2722874,0,0,-1.2722874,6.3025994,731.96719)">
   <path
   id="path938"
   d="M 203.5507,323.2112 L 201.5311,321.1916 L 203.5507,319.172 L 205.5703,321.1916 L 203.5507,323.2112 z" />
  </g><g
   id="g940"
   style="fill:none;stroke:#ffff00;stroke-width:1.37699997;stroke-linecap:butt;stroke-linejoin:miter;stroke-dasharray:none"
   transform="matrix(1.2722874,0,0,-1.2722874,6.3025994,731.96719)">
   <path
   id="path942"
   d="M 203.5507,323.2112 L 201.5311,321.1916 L 203.5507,319.172 L 205.5703,321.1916 L 203.5507,323.2112 z" />
  </g><g
   id="g944"
   style="fill:#ffff00;fill-rule:nonzero"
   transform="matrix(1.2722874,0,0,-1.2722874,6.3025994,731.96719)">
   <path
   id="path946"
   d="M 197.0618,317.2897 L 195.0422,315.2701 L 197.0618,313.2505 L 199.0814,315.2701 L 197.0618,317.2897 z" />
  </g><g
   id="g948"
   style="fill:none;stroke:#ffff00;stroke-width:1.37699997;stroke-linecap:butt;stroke-linejoin:miter;stroke-dasharray:none"
   transform="matrix(1.2722874,0,0,-1.2722874,6.3025994,731.96719)">
   <path
   id="path950"
   d="M 197.0618,317.2897 L 195.0422,315.2701 L 197.0618,313.2505 L 199.0814,315.2701 L 197.0618,317.2897 z" />
  </g><g
   id="g952"
   style="fill:#ffff00;fill-rule:nonzero"
   transform="matrix(1.2722874,0,0,-1.2722874,6.3025994,731.96719)">
   <path
   id="path954"
   d="M 189.9533,308.1073 L 187.9337,306.0877 L 189.9533,304.0681 L 191.9729,306.0877 L 189.9533,308.1073 z" />
  </g><g
   id="g956"
   style="fill:none;stroke:#ffff00;stroke-width:1.37699997;stroke-linecap:butt;stroke-linejoin:miter;stroke-dasharray:none"
   transform="matrix(1.2722874,0,0,-1.2722874,6.3025994,731.96719)">
   <path
   id="path958"
   d="M 189.9533,308.1073 L 187.9337,306.0877 L 189.9533,304.0681 L 191.9729,306.0877 L 189.9533,308.1073 z" />
  </g><g
   id="g960"
   style="fill:#ffff00;fill-rule:nonzero"
   transform="matrix(1.2722874,0,0,-1.2722874,6.3025994,731.96719)">
   <path
   id="path962"
   d="M 183.4253,298.5076 L 181.4057,296.488 L 183.4253,294.4684 L 185.4449,296.488 L 183.4253,298.5076 z" />
  </g><g
   id="g964"
   style="fill:none;stroke:#ffff00;stroke-width:1.37699997;stroke-linecap:butt;stroke-linejoin:miter;stroke-dasharray:none"
   transform="matrix(1.2722874,0,0,-1.2722874,6.3025994,731.96719)">
   <path
   id="path966"
   d="M 183.4253,298.5076 L 181.4057,296.488 L 183.4253,294.4684 L 185.4449,296.488 L 183.4253,298.5076 z" />
  </g><g
   id="g968"
   style="fill:#ffff00;fill-rule:nonzero"
   transform="matrix(1.2722874,0,0,-1.2722874,6.3025994,731.96719)">
   <path
   id="path970"
   d="M 176.8711,288.934 L 174.8515,286.9144 L 176.8711,284.8948 L 178.8907,286.9144 L 176.8711,288.934 z" />
  </g><g
   id="g972"
   style="fill:none;stroke:#ffff00;stroke-width:1.37699997;stroke-linecap:butt;stroke-linejoin:miter;stroke-dasharray:none"
   transform="matrix(1.2722874,0,0,-1.2722874,6.3025994,731.96719)">
   <path
   id="path974"
   d="M 176.8711,288.934 L 174.8515,286.9144 L 176.8711,284.8948 L 178.8907,286.9144 L 176.8711,288.934 z" />
  </g><g
   id="g976"
   style="fill:#ffff00;fill-rule:nonzero"
   transform="matrix(1.2722874,0,0,-1.2722874,6.3025994,731.96719)">
   <path
   id="path978"
   d="M 169.5018,279.9734 L 167.4822,277.9538 L 169.5018,275.9342 L 171.5214,277.9538 L 169.5018,279.9734 z" />
  </g><g
   id="g980"
   style="fill:none;stroke:#ffff00;stroke-width:1.37699997;stroke-linecap:butt;stroke-linejoin:miter;stroke-dasharray:none"
   transform="matrix(1.2722874,0,0,-1.2722874,6.3025994,731.96719)">
   <path
   id="path982"
   d="M 169.5018,279.9734 L 167.4822,277.9538 L 169.5018,275.9342 L 171.5214,277.9538 L 169.5018,279.9734 z" />
  </g><g
   id="g984"
   style="fill:#ffff00;fill-rule:nonzero"
   transform="matrix(1.2722874,0,0,-1.2722874,6.3025994,731.96719)">
   <path
   id="path986"
   d="M 161.5194,272.578 L 159.4998,270.5584 L 161.5194,268.5388 L 163.539,270.5584 L 161.5194,272.578 z" />
  </g><g
   id="g988"
   style="fill:none;stroke:#ffff00;stroke-width:1.37699997;stroke-linecap:butt;stroke-linejoin:miter;stroke-dasharray:none"
   transform="matrix(1.2722874,0,0,-1.2722874,6.3025994,731.96719)">
   <path
   id="path990"
   d="M 161.5194,272.578 L 159.4998,270.5584 L 161.5194,268.5388 L 163.539,270.5584 L 161.5194,272.578 z" />
  </g><g
   id="g992"
   style="fill:#ffff00;fill-rule:nonzero"
   transform="matrix(1.2722874,0,0,-1.2722874,6.3025994,731.96719)">
   <path
   id="path994"
   d="M 153.0675,265.7304 L 151.0479,263.7108 L 153.0675,261.6912 L 155.0871,263.7108 L 153.0675,265.7304 z" />
  </g><g
   id="g996"
   style="fill:none;stroke:#ffff00;stroke-width:1.37699997;stroke-linecap:butt;stroke-linejoin:miter;stroke-dasharray:none"
   transform="matrix(1.2722874,0,0,-1.2722874,6.3025994,731.96719)">
   <path
   id="path998"
   d="M 153.0675,265.7304 L 151.0479,263.7108 L 153.0675,261.6912 L 155.0871,263.7108 L 153.0675,265.7304 z" />
  </g><g
   id="g1000"
   style="fill:#ffff00;fill-rule:nonzero"
   transform="matrix(1.2722874,0,0,-1.2722874,6.3025994,731.96719)">
   <path
   id="path1002"
   d="M 147.6807,258.0545 L 145.6611,256.0349 L 147.6807,254.0153 L 149.7003,256.0349 L 147.6807,258.0545 z" />
  </g><g
   id="g1004"
   style="fill:none;stroke:#ffff00;stroke-width:1.37699997;stroke-linecap:butt;stroke-linejoin:miter;stroke-dasharray:none"
   transform="matrix(1.2722874,0,0,-1.2722874,6.3025994,731.96719)">
   <path
   id="path1006"
   d="M 147.6807,258.0545 L 145.6611,256.0349 L 147.6807,254.0153 L 149.7003,256.0349 L 147.6807,258.0545 z" />
  </g><g
   id="g1008"
   style="fill:#ffff00;fill-rule:nonzero"
   transform="matrix(1.2722874,0,0,-1.2722874,6.3025994,731.96719)">
   <path
   id="path1010"
   d="M 145.5286,247.5614 L 143.509,245.5418 L 145.5286,243.5222 L 147.5482,245.5418 L 145.5286,247.5614 z" />
  </g><g
   id="g1012"
   style="fill:none;stroke:#ffff00;stroke-width:1.37699997;stroke-linecap:butt;stroke-linejoin:miter;stroke-dasharray:none"
   transform="matrix(1.2722874,0,0,-1.2722874,6.3025994,731.96719)">
   <path
   id="path1014"
   d="M 145.5286,247.5614 L 143.509,245.5418 L 145.5286,243.5222 L 147.5482,245.5418 L 145.5286,247.5614 z" />
  </g><g
   id="g1016"
   style="fill:#ffff00;fill-rule:nonzero"
   transform="matrix(1.2722874,0,0,-1.2722874,6.3025994,731.96719)">
   <path
   id="path1018"
   d="M 145.1177,236.853 L 143.0981,234.8334 L 145.1177,232.8138 L 147.1373,234.8334 L 145.1177,236.853 z" />
  </g><g
   id="g1020"
   style="fill:none;stroke:#ffff00;stroke-width:1.37699997;stroke-linecap:butt;stroke-linejoin:miter;stroke-dasharray:none"
   transform="matrix(1.2722874,0,0,-1.2722874,6.3025994,731.96719)">
   <path
   id="path1022"
   d="M 145.1177,236.853 L 143.0981,234.8334 L 145.1177,232.8138 L 147.1373,234.8334 L 145.1177,236.853 z" />
  </g><g
   id="g1024"
   style="fill:#ffff00;fill-rule:nonzero"
   transform="matrix(1.2722874,0,0,-1.2722874,6.3025994,731.96719)">
   <path
   id="path1026"
   d="M 147.4198,226.399 L 145.4002,224.3794 L 147.4198,222.3598 L 149.4394,224.3794 L 147.4198,226.399 z" />
  </g><g
   id="g1028"
   style="fill:none;stroke:#ffff00;stroke-width:1.37699997;stroke-linecap:butt;stroke-linejoin:miter;stroke-dasharray:none"
   transform="matrix(1.2722874,0,0,-1.2722874,6.3025994,731.96719)">
   <path
   id="path1030"
   d="M 147.4198,226.399 L 145.4002,224.3794 L 147.4198,222.3598 L 149.4394,224.3794 L 147.4198,226.399 z" />
  </g><g
   id="g1032"
   style="fill:#ffff00;fill-rule:nonzero"
   transform="matrix(1.2722874,0,0,-1.2722874,6.3025994,731.96719)">
   <path
   id="path1034"
   d="M 155.7739,216.6819 L 153.7543,214.6623 L 155.7739,212.6427 L 157.7935,214.6623 L 155.7739,216.6819 z" />
  </g><g
   id="g1036"
   style="fill:none;stroke:#ffff00;stroke-width:1.37699997;stroke-linecap:butt;stroke-linejoin:miter;stroke-dasharray:none"
   transform="matrix(1.2722874,0,0,-1.2722874,6.3025994,731.96719)">
   <path
   id="path1038"
   d="M 155.7739,216.6819 L 153.7543,214.6623 L 155.7739,212.6427 L 157.7935,214.6623 L 155.7739,216.6819 z" />
  </g><text
   xml:space="preserve"
   style="font-size:10px;font-style:normal;font-weight:normal;fill:#000000;fill-opacity:1;stroke:none;stroke-width:1px;stroke-linecap:butt;stroke-linejoin:miter;stroke-opacity:1;font-family:Bitstream Vera Sans"
   x="36.697556"
   y="-54.636902"
   id="text2895"><tspan
     sodipodi:role="line"
     id="tspan2897"
     x="36.697556"
     y="-54.636902"
     style="font-size:32;fill:#ff0000">Original</tspan></text>

<text
   xml:space="preserve"
   style="font-size:10px;font-style:normal;font-weight:normal;fill:#000000;fill-opacity:1;stroke:none;stroke-width:1px;stroke-linecap:butt;stroke-linejoin:miter;stroke-opacity:1;font-family:Bitstream Vera Sans"
   x="35.353806"
   y="-9.9326029"
   id="text2899"><tspan
     sodipodi:role="line"
     id="tspan2901"
     x="35.353806"
     y="-9.9326029"
     style="font-size:32px;fill:#ffff00">Filtered</tspan></text>

</g></g><path
   style="fill:none;fill-rule:evenodd;stroke:#000000;stroke-width:15.84000015;stroke-linecap:butt;stroke-linejoin:miter;stroke-miterlimit:4;stroke-dasharray:none;stroke-opacity:1"
   d="M 531.78907,659.25576 C 535.28005,659.25576 746.4846,659.25576 746.4846,659.25576"
   id="path2901" /></svg>