<?xml version="1.0" encoding="ISO-8859-1"?>
<!DOCTYPE svg PUBLIC "-//W3C//DTD SVG 1.0//EN" "http://www.w3.org/TR/2001/REC-SVG-20010904/DTD/svg10.dtd">
<!-- generated by Grace-5.1.22 -->
<svg xml:space="preserve" width="11.0000in" height="8.5000in" viewBox="0.0000 0.0000 792.0000 612.0000">
 <g transform="translate(0,612.0000) scale(1,-1)">
 <desc></desc>
  <g style="fill:#DCDCDC; fill-rule:nonzero">
   <path  d="M0.0000,0.0000L0.0000,612.0000L792.0000,612.0000L792.0000,0.0000z"/>
  </g>
  <g style="fill:none; stroke:#FF0000; stroke-width:  1.3770; stroke-linecap:butt; stroke-linejoin:miter; stroke-dasharray:none">
   <ellipse  rx="6.1200" ry="6.1200" cx="145.1177" cy="227.4445"/>
   <ellipse  rx="6.1200" ry="6.1200" cx="153.1131" cy="216.2601"/>
   <ellipse  rx="6.1200" ry="6.1200" cx="177.0863" cy="195.4824"/>
   <ellipse  rx="6.1200" ry="6.1200" cx="186.6730" cy="187.4870"/>
   <ellipse  rx="6.1200" ry="6.1200" cx="191.4728" cy="184.2915"/>
   <ellipse  rx="6.1200" ry="6.1200" cx="201.0595" cy="171.5027"/>
   <ellipse  rx="6.1200" ry="6.1200" cx="210.6527" cy="161.9161"/>
   <ellipse  rx="6.1200" ry="6.1200" cx="213.8482" cy="155.5184"/>
   <ellipse  rx="6.1200" ry="6.1200" cx="213.8482" cy="152.3229"/>
   <ellipse  rx="6.1200" ry="6.1200" cx="217.0438" cy="149.1273"/>
   <ellipse  rx="6.1200" ry="6.1200" cx="220.2393" cy="123.5564"/>
   <ellipse  rx="6.1200" ry="6.1200" cx="226.6370" cy="97.9789"/>
   <ellipse  rx="6.1200" ry="6.1200" cx="226.6370" cy="91.5878"/>
   <ellipse  rx="6.1200" ry="6.1200" cx="234.6259" cy="78.7991"/>
   <ellipse  rx="6.1200" ry="6.1200" cx="247.4146" cy="78.7991"/>
   <ellipse  rx="6.1200" ry="6.1200" cx="253.8057" cy="80.3968"/>
   <ellipse  rx="6.1200" ry="6.1200" cx="264.9967" cy="89.9900"/>
   <ellipse  rx="6.1200" ry="6.1200" cx="268.1922" cy="93.1856"/>
   <ellipse  rx="6.1200" ry="6.1200" cx="269.7900" cy="99.5767"/>
   <ellipse  rx="6.1200" ry="6.1200" cx="272.9856" cy="102.7788"/>
   <ellipse  rx="6.1200" ry="6.1200" cx="280.9810" cy="153.9207"/>
   <ellipse  rx="6.1200" ry="6.1200" cx="282.5787" cy="166.7094"/>
   <ellipse  rx="6.1200" ry="6.1200" cx="287.3721" cy="173.1005"/>
   <ellipse  rx="6.1200" ry="6.1200" cx="287.3721" cy="179.4981"/>
   <ellipse  rx="6.1200" ry="6.1200" cx="290.5676" cy="185.8893"/>
   <ellipse  rx="6.1200" ry="6.1200" cx="290.5676" cy="192.2804"/>
   <ellipse  rx="6.1200" ry="6.1200" cx="293.7632" cy="198.6780"/>
   <ellipse  rx="6.1200" ry="6.1200" cx="295.3610" cy="249.8264"/>
   <ellipse  rx="6.1200" ry="6.1200" cx="327.3295" cy="299.3706"/>
   <ellipse  rx="6.1200" ry="6.1200" cx="348.1072" cy="323.3503"/>
   <ellipse  rx="6.1200" ry="6.1200" cx="359.2981" cy="332.9369"/>
   <ellipse  rx="6.1200" ry="6.1200" cx="362.4937" cy="339.3346"/>
   <ellipse  rx="6.1200" ry="6.1200" cx="364.0915" cy="352.1168"/>
   <ellipse  rx="6.1200" ry="6.1200" cx="376.8802" cy="377.6942"/>
   <ellipse  rx="6.1200" ry="6.1200" cx="394.4623" cy="401.6674"/>
   <ellipse  rx="6.1200" ry="6.1200" cx="397.6578" cy="408.0585"/>
   <ellipse  rx="6.1200" ry="6.1200" cx="397.6578" cy="411.2606"/>
   <ellipse  rx="6.1200" ry="6.1200" cx="400.8534" cy="414.4562"/>
   <ellipse  rx="6.1200" ry="6.1200" cx="400.8534" cy="427.2384"/>
   <ellipse  rx="6.1200" ry="6.1200" cx="408.8488" cy="452.8159"/>
   <ellipse  rx="6.1200" ry="6.1200" cx="410.4466" cy="459.2070"/>
   <ellipse  rx="6.1200" ry="6.1200" cx="418.4354" cy="471.9957"/>
   <ellipse  rx="6.1200" ry="6.1200" cx="421.6310" cy="478.3868"/>
   <ellipse  rx="6.1200" ry="6.1200" cx="431.2242" cy="529.5352"/>
   <ellipse  rx="6.1200" ry="6.1200" cx="437.6153" cy="542.3240"/>
   <ellipse  rx="6.1200" ry="6.1200" cx="439.2131" cy="567.8949"/>
   <ellipse  rx="6.1200" ry="6.1200" cx="432.8220" cy="569.4927"/>
   <ellipse  rx="6.1200" ry="6.1200" cx="423.2288" cy="561.5038"/>
   <ellipse  rx="6.1200" ry="6.1200" cx="412.0443" cy="550.3129"/>
   <ellipse  rx="6.1200" ry="6.1200" cx="389.6689" cy="535.9264"/>
   <ellipse  rx="6.1200" ry="6.1200" cx="364.0915" cy="521.5464"/>
   <ellipse  rx="6.1200" ry="6.1200" cx="351.3027" cy="513.5510"/>
   <ellipse  rx="6.1200" ry="6.1200" cx="341.7161" cy="500.7622"/>
   <ellipse  rx="6.1200" ry="6.1200" cx="336.9227" cy="494.3711"/>
   <ellipse  rx="6.1200" ry="6.1200" cx="333.7207" cy="491.1756"/>
   <ellipse  rx="6.1200" ry="6.1200" cx="333.7207" cy="487.9800"/>
   <ellipse  rx="6.1200" ry="6.1200" cx="330.5251" cy="486.3822"/>
   <ellipse  rx="6.1200" ry="6.1200" cx="319.3407" cy="462.4025"/>
   <ellipse  rx="6.1200" ry="6.1200" cx="288.9698" cy="412.8584"/>
   <ellipse  rx="6.1200" ry="6.1200" cx="269.7900" cy="392.0742"/>
   <ellipse  rx="6.1200" ry="6.1200" cx="261.7946" cy="379.2920"/>
   <ellipse  rx="6.1200" ry="6.1200" cx="261.7946" cy="376.0965"/>
   <ellipse  rx="6.1200" ry="6.1200" cx="242.6147" cy="352.1168"/>
   <ellipse  rx="6.1200" ry="6.1200" cx="218.6416" cy="331.3391"/>
   <ellipse  rx="6.1200" ry="6.1200" cx="207.4571" cy="323.3503"/>
   <ellipse  rx="6.1200" ry="6.1200" cx="201.0595" cy="320.1482"/>
   <ellipse  rx="6.1200" ry="6.1200" cx="191.4728" cy="308.9637"/>
   <ellipse  rx="6.1200" ry="6.1200" cx="177.0863" cy="286.5883"/>
   <ellipse  rx="6.1200" ry="6.1200" cx="169.0909" cy="276.9952"/>
   <ellipse  rx="6.1200" ry="6.1200" cx="157.9065" cy="267.4085"/>
   <ellipse  rx="6.1200" ry="6.1200" cx="151.5088" cy="262.6086"/>
   <ellipse  rx="6.1200" ry="6.1200" cx="148.3133" cy="259.4131"/>
   <ellipse  rx="6.1200" ry="6.1200" cx="145.1177" cy="246.6243"/>
   <ellipse  rx="6.1200" ry="6.1200" cx="145.1177" cy="233.8421"/>
   <ellipse  rx="6.1200" ry="6.1200" cx="145.1177" cy="229.0423"/>
  </g>
  <g style="fill:none; stroke:#FFFF00; stroke-width:  1.3770; stroke-linecap:butt; stroke-linejoin:miter; stroke-dasharray:none">
   <path d="M163.1172,207.7429L172.2343,199.7214L181.4818,191.8499L189.6338,185.3088L196.5727,177.5026L203.2899,169.5071L210.1962,161.6617L214.2330,152.6490L217.4677,143.3166L219.0785,133.5539
            L221.2306,121.1760L223.8849,108.9025L226.3044,97.1311L229.6891,87.1466L237.3779,79.9729L247.8907,79.2295L257.3991,83.7033L265.3227,90.4400L270.3052,99.5180L273.6116,109.9394
            L275.6268,120.6869L277.5572,132.2887L279.3701,143.9231L281.1114,155.5380L283.1265,165.6920L287.1569,175.2331L289.8633,185.2501L291.6828,194.3346L293.2480,203.4648L293.9849,212.7189
            L295.1588,225.1359L297.1870,237.4812L300.4217,249.5656L304.3346,259.5696L309.0105,269.1041L314.2799,278.3190L320.0189,287.2796L327.3687,297.7402L335.1358,307.8877L341.8400,315.8570
            L348.9419,323.4611L356.3765,330.7392L361.9785,339.4715L364.2415,349.0386L367.6066,358.3122L372.0543,367.5337L378.4193,378.6203L385.4756,389.2830L391.5276,397.9567L396.9470,407.0281
            L400.4686,416.9017L401.7794,427.2710L404.1924,437.4315L407.1401,447.4812L410.2705,457.4788L415.1486,466.7459L420.0658,475.9934L423.0397,487.4191L425.4461,498.9818L427.8395,510.5315
            L430.4220,522.0420L433.6176,533.4090L436.7153,543.9674L438.1501,554.8780L437.6023,565.1429L429.7568,566.5319L421.9179,559.9974L413.8638,552.7258L405.2228,546.1913L396.1513,540.2306
            L386.7277,534.4916L376.4889,528.5309L366.2240,522.6094L356.6634,516.6422L348.5702,509.4033L341.8204,500.8992L336.1010,493.6342L331.1773,485.8214L326.6317,477.7999L321.5645,468.0371
            L316.1451,458.1440L310.1518,447.8334L303.9433,437.6207L297.5261,427.5449L290.8350,417.6517L283.7526,408.1042L276.2333,398.8958L269.7965,391.0569L264.0902,382.6767L259.4077,373.8074
            L253.3818,365.7924L246.0190,357.1579L237.5801,348.3995L228.6391,340.1432L220.5785,333.3152L212.2374,326.8523L203.5507,321.1916L197.0618,315.2701L189.9533,306.0877L183.4253,296.4880
            L176.8711,286.9144L169.5018,277.9538L161.5194,270.5584L153.0675,263.7108L147.6807,256.0349L145.5286,245.5418L145.1177,234.8334L147.4198,224.3794L155.7739,214.6623"/>
  </g>
  <g style="fill:#FFFF00; fill-rule:nonzero">
   <path  d="M163.1172,209.7625L161.0976,207.7429L163.1172,205.7233L165.1368,207.7429z"/>
  </g>
  <g style="fill:none; stroke:#FFFF00; stroke-width:  1.3770; stroke-linecap:butt; stroke-linejoin:miter; stroke-dasharray:none">
   <path d="M163.1172,209.7625L161.0976,207.7429L163.1172,205.7233L165.1368,207.7429z"/>
  </g>
  <g style="fill:#FFFF00; fill-rule:nonzero">
   <path  d="M172.2343,201.7410L170.2147,199.7214L172.2343,197.7018L174.2539,199.7214z"/>
  </g>
  <g style="fill:none; stroke:#FFFF00; stroke-width:  1.3770; stroke-linecap:butt; stroke-linejoin:miter; stroke-dasharray:none">
   <path d="M172.2343,201.7410L170.2147,199.7214L172.2343,197.7018L174.2539,199.7214z"/>
  </g>
  <g style="fill:#FFFF00; fill-rule:nonzero">
   <path  d="M181.4818,193.8695L179.4622,191.8499L181.4818,189.8303L183.5014,191.8499z"/>
  </g>
  <g style="fill:none; stroke:#FFFF00; stroke-width:  1.3770; stroke-linecap:butt; stroke-linejoin:miter; stroke-dasharray:none">
   <path d="M181.4818,193.8695L179.4622,191.8499L181.4818,189.8303L183.5014,191.8499z"/>
  </g>
  <g style="fill:#FFFF00; fill-rule:nonzero">
   <path  d="M189.6338,187.3284L187.6142,185.3088L189.6338,183.2892L191.6534,185.3088z"/>
  </g>
  <g style="fill:none; stroke:#FFFF00; stroke-width:  1.3770; stroke-linecap:butt; stroke-linejoin:miter; stroke-dasharray:none">
   <path d="M189.6338,187.3284L187.6142,185.3088L189.6338,183.2892L191.6534,185.3088z"/>
  </g>
  <g style="fill:#FFFF00; fill-rule:nonzero">
   <path  d="M196.5727,179.5222L194.5531,177.5026L196.5727,175.4830L198.5923,177.5026z"/>
  </g>
  <g style="fill:none; stroke:#FFFF00; stroke-width:  1.3770; stroke-linecap:butt; stroke-linejoin:miter; stroke-dasharray:none">
   <path d="M196.5727,179.5222L194.5531,177.5026L196.5727,175.4830L198.5923,177.5026z"/>
  </g>
  <g style="fill:#FFFF00; fill-rule:nonzero">
   <path  d="M203.2899,171.5267L201.2703,169.5071L203.2899,167.4875L205.3095,169.5071z"/>
  </g>
  <g style="fill:none; stroke:#FFFF00; stroke-width:  1.3770; stroke-linecap:butt; stroke-linejoin:miter; stroke-dasharray:none">
   <path d="M203.2899,171.5267L201.2703,169.5071L203.2899,167.4875L205.3095,169.5071z"/>
  </g>
  <g style="fill:#FFFF00; fill-rule:nonzero">
   <path  d="M210.1962,163.6813L208.1766,161.6617L210.1962,159.6421L212.2158,161.6617z"/>
  </g>
  <g style="fill:none; stroke:#FFFF00; stroke-width:  1.3770; stroke-linecap:butt; stroke-linejoin:miter; stroke-dasharray:none">
   <path d="M210.1962,163.6813L208.1766,161.6617L210.1962,159.6421L212.2158,161.6617z"/>
  </g>
  <g style="fill:#FFFF00; fill-rule:nonzero">
   <path  d="M214.2330,154.6686L212.2134,152.6490L214.2330,150.6294L216.2526,152.6490z"/>
  </g>
  <g style="fill:none; stroke:#FFFF00; stroke-width:  1.3770; stroke-linecap:butt; stroke-linejoin:miter; stroke-dasharray:none">
   <path d="M214.2330,154.6686L212.2134,152.6490L214.2330,150.6294L216.2526,152.6490z"/>
  </g>
  <g style="fill:#FFFF00; fill-rule:nonzero">
   <path  d="M217.4677,145.3362L215.4481,143.3166L217.4677,141.2970L219.4873,143.3166z"/>
  </g>
  <g style="fill:none; stroke:#FFFF00; stroke-width:  1.3770; stroke-linecap:butt; stroke-linejoin:miter; stroke-dasharray:none">
   <path d="M217.4677,145.3362L215.4481,143.3166L217.4677,141.2970L219.4873,143.3166z"/>
  </g>
  <g style="fill:#FFFF00; fill-rule:nonzero">
   <path  d="M219.0785,135.5735L217.0589,133.5539L219.0785,131.5343L221.0981,133.5539z"/>
  </g>
  <g style="fill:none; stroke:#FFFF00; stroke-width:  1.3770; stroke-linecap:butt; stroke-linejoin:miter; stroke-dasharray:none">
   <path d="M219.0785,135.5735L217.0589,133.5539L219.0785,131.5343L221.0981,133.5539z"/>
  </g>
  <g style="fill:#FFFF00; fill-rule:nonzero">
   <path  d="M221.2306,123.1956L219.2110,121.1760L221.2306,119.1564L223.2502,121.1760z"/>
  </g>
  <g style="fill:none; stroke:#FFFF00; stroke-width:  1.3770; stroke-linecap:butt; stroke-linejoin:miter; stroke-dasharray:none">
   <path d="M221.2306,123.1956L219.2110,121.1760L221.2306,119.1564L223.2502,121.1760z"/>
  </g>
  <g style="fill:#FFFF00; fill-rule:nonzero">
   <path  d="M223.8849,110.9221L221.8653,108.9025L223.8849,106.8829L225.9045,108.9025z"/>
  </g>
  <g style="fill:none; stroke:#FFFF00; stroke-width:  1.3770; stroke-linecap:butt; stroke-linejoin:miter; stroke-dasharray:none">
   <path d="M223.8849,110.9221L221.8653,108.9025L223.8849,106.8829L225.9045,108.9025z"/>
  </g>
  <g style="fill:#FFFF00; fill-rule:nonzero">
   <path  d="M226.3044,99.1507L224.2848,97.1311L226.3044,95.1115L228.3240,97.1311z"/>
  </g>
  <g style="fill:none; stroke:#FFFF00; stroke-width:  1.3770; stroke-linecap:butt; stroke-linejoin:miter; stroke-dasharray:none">
   <path d="M226.3044,99.1507L224.2848,97.1311L226.3044,95.1115L228.3240,97.1311z"/>
  </g>
  <g style="fill:#FFFF00; fill-rule:nonzero">
   <path  d="M229.6891,89.1662L227.6695,87.1466L229.6891,85.1270L231.7087,87.1466z"/>
  </g>
  <g style="fill:none; stroke:#FFFF00; stroke-width:  1.3770; stroke-linecap:butt; stroke-linejoin:miter; stroke-dasharray:none">
   <path d="M229.6891,89.1662L227.6695,87.1466L229.6891,85.1270L231.7087,87.1466z"/>
  </g>
  <g style="fill:#FFFF00; fill-rule:nonzero">
   <path  d="M237.3779,81.9925L235.3583,79.9729L237.3779,77.9533L239.3975,79.9729z"/>
  </g>
  <g style="fill:none; stroke:#FFFF00; stroke-width:  1.3770; stroke-linecap:butt; stroke-linejoin:miter; stroke-dasharray:none">
   <path d="M237.3779,81.9925L235.3583,79.9729L237.3779,77.9533L239.3975,79.9729z"/>
  </g>
  <g style="fill:#FFFF00; fill-rule:nonzero">
   <path  d="M247.8907,81.2491L245.8711,79.2295L247.8907,77.2099L249.9103,79.2295z"/>
  </g>
  <g style="fill:none; stroke:#FFFF00; stroke-width:  1.3770; stroke-linecap:butt; stroke-linejoin:miter; stroke-dasharray:none">
   <path d="M247.8907,81.2491L245.8711,79.2295L247.8907,77.2099L249.9103,79.2295z"/>
  </g>
  <g style="fill:#FFFF00; fill-rule:nonzero">
   <path  d="M257.3991,85.7229L255.3795,83.7033L257.3991,81.6837L259.4187,83.7033z"/>
  </g>
  <g style="fill:none; stroke:#FFFF00; stroke-width:  1.3770; stroke-linecap:butt; stroke-linejoin:miter; stroke-dasharray:none">
   <path d="M257.3991,85.7229L255.3795,83.7033L257.3991,81.6837L259.4187,83.7033z"/>
  </g>
  <g style="fill:#FFFF00; fill-rule:nonzero">
   <path  d="M265.3227,92.4596L263.3031,90.4400L265.3227,88.4204L267.3423,90.4400z"/>
  </g>
  <g style="fill:none; stroke:#FFFF00; stroke-width:  1.3770; stroke-linecap:butt; stroke-linejoin:miter; stroke-dasharray:none">
   <path d="M265.3227,92.4596L263.3031,90.4400L265.3227,88.4204L267.3423,90.4400z"/>
  </g>
  <g style="fill:#FFFF00; fill-rule:nonzero">
   <path  d="M270.3052,101.5376L268.2856,99.5180L270.3052,97.4984L272.3248,99.5180z"/>
  </g>
  <g style="fill:none; stroke:#FFFF00; stroke-width:  1.3770; stroke-linecap:butt; stroke-linejoin:miter; stroke-dasharray:none">
   <path d="M270.3052,101.5376L268.2856,99.5180L270.3052,97.4984L272.3248,99.5180z"/>
  </g>
  <g style="fill:#FFFF00; fill-rule:nonzero">
   <path  d="M273.6116,111.9590L271.5920,109.9394L273.6116,107.9198L275.6312,109.9394z"/>
  </g>
  <g style="fill:none; stroke:#FFFF00; stroke-width:  1.3770; stroke-linecap:butt; stroke-linejoin:miter; stroke-dasharray:none">
   <path d="M273.6116,111.9590L271.5920,109.9394L273.6116,107.9198L275.6312,109.9394z"/>
  </g>
  <g style="fill:#FFFF00; fill-rule:nonzero">
   <path  d="M275.6268,122.7065L273.6072,120.6869L275.6268,118.6673L277.6464,120.6869z"/>
  </g>
  <g style="fill:none; stroke:#FFFF00; stroke-width:  1.3770; stroke-linecap:butt; stroke-linejoin:miter; stroke-dasharray:none">
   <path d="M275.6268,122.7065L273.6072,120.6869L275.6268,118.6673L277.6464,120.6869z"/>
  </g>
  <g style="fill:#FFFF00; fill-rule:nonzero">
   <path  d="M277.5572,134.3083L275.5376,132.2887L277.5572,130.2691L279.5768,132.2887z"/>
  </g>
  <g style="fill:none; stroke:#FFFF00; stroke-width:  1.3770; stroke-linecap:butt; stroke-linejoin:miter; stroke-dasharray:none">
   <path d="M277.5572,134.3083L275.5376,132.2887L277.5572,130.2691L279.5768,132.2887z"/>
  </g>
  <g style="fill:#FFFF00; fill-rule:nonzero">
   <path  d="M279.3701,145.9427L277.3505,143.9231L279.3701,141.9035L281.3897,143.9231z"/>
  </g>
  <g style="fill:none; stroke:#FFFF00; stroke-width:  1.3770; stroke-linecap:butt; stroke-linejoin:miter; stroke-dasharray:none">
   <path d="M279.3701,145.9427L277.3505,143.9231L279.3701,141.9035L281.3897,143.9231z"/>
  </g>
  <g style="fill:#FFFF00; fill-rule:nonzero">
   <path  d="M281.1114,157.5576L279.0918,155.5380L281.1114,153.5184L283.1310,155.5380z"/>
  </g>
  <g style="fill:none; stroke:#FFFF00; stroke-width:  1.3770; stroke-linecap:butt; stroke-linejoin:miter; stroke-dasharray:none">
   <path d="M281.1114,157.5576L279.0918,155.5380L281.1114,153.5184L283.1310,155.5380z"/>
  </g>
  <g style="fill:#FFFF00; fill-rule:nonzero">
   <path  d="M283.1265,167.7116L281.1069,165.6920L283.1265,163.6724L285.1461,165.6920z"/>
  </g>
  <g style="fill:none; stroke:#FFFF00; stroke-width:  1.3770; stroke-linecap:butt; stroke-linejoin:miter; stroke-dasharray:none">
   <path d="M283.1265,167.7116L281.1069,165.6920L283.1265,163.6724L285.1461,165.6920z"/>
  </g>
  <g style="fill:#FFFF00; fill-rule:nonzero">
   <path  d="M287.1569,177.2527L285.1373,175.2331L287.1569,173.2135L289.1765,175.2331z"/>
  </g>
  <g style="fill:none; stroke:#FFFF00; stroke-width:  1.3770; stroke-linecap:butt; stroke-linejoin:miter; stroke-dasharray:none">
   <path d="M287.1569,177.2527L285.1373,175.2331L287.1569,173.2135L289.1765,175.2331z"/>
  </g>
  <g style="fill:#FFFF00; fill-rule:nonzero">
   <path  d="M289.8633,187.2697L287.8437,185.2501L289.8633,183.2305L291.8829,185.2501z"/>
  </g>
  <g style="fill:none; stroke:#FFFF00; stroke-width:  1.3770; stroke-linecap:butt; stroke-linejoin:miter; stroke-dasharray:none">
   <path d="M289.8633,187.2697L287.8437,185.2501L289.8633,183.2305L291.8829,185.2501z"/>
  </g>
  <g style="fill:#FFFF00; fill-rule:nonzero">
   <path  d="M291.6828,196.3542L289.6632,194.3346L291.6828,192.3150L293.7024,194.3346z"/>
  </g>
  <g style="fill:none; stroke:#FFFF00; stroke-width:  1.3770; stroke-linecap:butt; stroke-linejoin:miter; stroke-dasharray:none">
   <path d="M291.6828,196.3542L289.6632,194.3346L291.6828,192.3150L293.7024,194.3346z"/>
  </g>
  <g style="fill:#FFFF00; fill-rule:nonzero">
   <path  d="M293.2480,205.4844L291.2284,203.4648L293.2480,201.4452L295.2676,203.4648z"/>
  </g>
  <g style="fill:none; stroke:#FFFF00; stroke-width:  1.3770; stroke-linecap:butt; stroke-linejoin:miter; stroke-dasharray:none">
   <path d="M293.2480,205.4844L291.2284,203.4648L293.2480,201.4452L295.2676,203.4648z"/>
  </g>
  <g style="fill:#FFFF00; fill-rule:nonzero">
   <path  d="M293.9849,214.7385L291.9653,212.7189L293.9849,210.6993L296.0045,212.7189z"/>
  </g>
  <g style="fill:none; stroke:#FFFF00; stroke-width:  1.3770; stroke-linecap:butt; stroke-linejoin:miter; stroke-dasharray:none">
   <path d="M293.9849,214.7385L291.9653,212.7189L293.9849,210.6993L296.0045,212.7189z"/>
  </g>
  <g style="fill:#FFFF00; fill-rule:nonzero">
   <path  d="M295.1588,227.1555L293.1392,225.1359L295.1588,223.1163L297.1784,225.1359z"/>
  </g>
  <g style="fill:none; stroke:#FFFF00; stroke-width:  1.3770; stroke-linecap:butt; stroke-linejoin:miter; stroke-dasharray:none">
   <path d="M295.1588,227.1555L293.1392,225.1359L295.1588,223.1163L297.1784,225.1359z"/>
  </g>
  <g style="fill:#FFFF00; fill-rule:nonzero">
   <path  d="M297.1870,239.5008L295.1674,237.4812L297.1870,235.4616L299.2066,237.4812z"/>
  </g>
  <g style="fill:none; stroke:#FFFF00; stroke-width:  1.3770; stroke-linecap:butt; stroke-linejoin:miter; stroke-dasharray:none">
   <path d="M297.1870,239.5008L295.1674,237.4812L297.1870,235.4616L299.2066,237.4812z"/>
  </g>
  <g style="fill:#FFFF00; fill-rule:nonzero">
   <path  d="M300.4217,251.5852L298.4021,249.5656L300.4217,247.5460L302.4413,249.5656z"/>
  </g>
  <g style="fill:none; stroke:#FFFF00; stroke-width:  1.3770; stroke-linecap:butt; stroke-linejoin:miter; stroke-dasharray:none">
   <path d="M300.4217,251.5852L298.4021,249.5656L300.4217,247.5460L302.4413,249.5656z"/>
  </g>
  <g style="fill:#FFFF00; fill-rule:nonzero">
   <path  d="M304.3346,261.5892L302.3150,259.5696L304.3346,257.5500L306.3542,259.5696z"/>
  </g>
  <g style="fill:none; stroke:#FFFF00; stroke-width:  1.3770; stroke-linecap:butt; stroke-linejoin:miter; stroke-dasharray:none">
   <path d="M304.3346,261.5892L302.3150,259.5696L304.3346,257.5500L306.3542,259.5696z"/>
  </g>
  <g style="fill:#FFFF00; fill-rule:nonzero">
   <path  d="M309.0105,271.1237L306.9909,269.1041L309.0105,267.0845L311.0301,269.1041z"/>
  </g>
  <g style="fill:none; stroke:#FFFF00; stroke-width:  1.3770; stroke-linecap:butt; stroke-linejoin:miter; stroke-dasharray:none">
   <path d="M309.0105,271.1237L306.9909,269.1041L309.0105,267.0845L311.0301,269.1041z"/>
  </g>
  <g style="fill:#FFFF00; fill-rule:nonzero">
   <path  d="M314.2799,280.3386L312.2603,278.3190L314.2799,276.2994L316.2995,278.3190z"/>
  </g>
  <g style="fill:none; stroke:#FFFF00; stroke-width:  1.3770; stroke-linecap:butt; stroke-linejoin:miter; stroke-dasharray:none">
   <path d="M314.2799,280.3386L312.2603,278.3190L314.2799,276.2994L316.2995,278.3190z"/>
  </g>
  <g style="fill:#FFFF00; fill-rule:nonzero">
   <path  d="M320.0189,289.2992L317.9993,287.2796L320.0189,285.2600L322.0385,287.2796z"/>
  </g>
  <g style="fill:none; stroke:#FFFF00; stroke-width:  1.3770; stroke-linecap:butt; stroke-linejoin:miter; stroke-dasharray:none">
   <path d="M320.0189,289.2992L317.9993,287.2796L320.0189,285.2600L322.0385,287.2796z"/>
  </g>
  <g style="fill:#FFFF00; fill-rule:nonzero">
   <path  d="M327.3687,299.7598L325.3491,297.7402L327.3687,295.7206L329.3883,297.7402z"/>
  </g>
  <g style="fill:none; stroke:#FFFF00; stroke-width:  1.3770; stroke-linecap:butt; stroke-linejoin:miter; stroke-dasharray:none">
   <path d="M327.3687,299.7598L325.3491,297.7402L327.3687,295.7206L329.3883,297.7402z"/>
  </g>
  <g style="fill:#FFFF00; fill-rule:nonzero">
   <path  d="M335.1358,309.9073L333.1162,307.8877L335.1358,305.8681L337.1554,307.8877z"/>
  </g>
  <g style="fill:none; stroke:#FFFF00; stroke-width:  1.3770; stroke-linecap:butt; stroke-linejoin:miter; stroke-dasharray:none">
   <path d="M335.1358,309.9073L333.1162,307.8877L335.1358,305.8681L337.1554,307.8877z"/>
  </g>
  <g style="fill:#FFFF00; fill-rule:nonzero">
   <path  d="M341.8400,317.8766L339.8204,315.8570L341.8400,313.8374L343.8596,315.8570z"/>
  </g>
  <g style="fill:none; stroke:#FFFF00; stroke-width:  1.3770; stroke-linecap:butt; stroke-linejoin:miter; stroke-dasharray:none">
   <path d="M341.8400,317.8766L339.8204,315.8570L341.8400,313.8374L343.8596,315.8570z"/>
  </g>
  <g style="fill:#FFFF00; fill-rule:nonzero">
   <path  d="M348.9419,325.4807L346.9223,323.4611L348.9419,321.4415L350.9615,323.4611z"/>
  </g>
  <g style="fill:none; stroke:#FFFF00; stroke-width:  1.3770; stroke-linecap:butt; stroke-linejoin:miter; stroke-dasharray:none">
   <path d="M348.9419,325.4807L346.9223,323.4611L348.9419,321.4415L350.9615,323.4611z"/>
  </g>
  <g style="fill:#FFFF00; fill-rule:nonzero">
   <path  d="M356.3765,332.7588L354.3569,330.7392L356.3765,328.7196L358.3961,330.7392z"/>
  </g>
  <g style="fill:none; stroke:#FFFF00; stroke-width:  1.3770; stroke-linecap:butt; stroke-linejoin:miter; stroke-dasharray:none">
   <path d="M356.3765,332.7588L354.3569,330.7392L356.3765,328.7196L358.3961,330.7392z"/>
  </g>
  <g style="fill:#FFFF00; fill-rule:nonzero">
   <path  d="M361.9785,341.4911L359.9589,339.4715L361.9785,337.4519L363.9981,339.4715z"/>
  </g>
  <g style="fill:none; stroke:#FFFF00; stroke-width:  1.3770; stroke-linecap:butt; stroke-linejoin:miter; stroke-dasharray:none">
   <path d="M361.9785,341.4911L359.9589,339.4715L361.9785,337.4519L363.9981,339.4715z"/>
  </g>
  <g style="fill:#FFFF00; fill-rule:nonzero">
   <path  d="M364.2415,351.0582L362.2219,349.0386L364.2415,347.0190L366.2611,349.0386z"/>
  </g>
  <g style="fill:none; stroke:#FFFF00; stroke-width:  1.3770; stroke-linecap:butt; stroke-linejoin:miter; stroke-dasharray:none">
   <path d="M364.2415,351.0582L362.2219,349.0386L364.2415,347.0190L366.2611,349.0386z"/>
  </g>
  <g style="fill:#FFFF00; fill-rule:nonzero">
   <path  d="M367.6066,360.3318L365.5870,358.3122L367.6066,356.2926L369.6262,358.3122z"/>
  </g>
  <g style="fill:none; stroke:#FFFF00; stroke-width:  1.3770; stroke-linecap:butt; stroke-linejoin:miter; stroke-dasharray:none">
   <path d="M367.6066,360.3318L365.5870,358.3122L367.6066,356.2926L369.6262,358.3122z"/>
  </g>
  <g style="fill:#FFFF00; fill-rule:nonzero">
   <path  d="M372.0543,369.5533L370.0347,367.5337L372.0543,365.5141L374.0739,367.5337z"/>
  </g>
  <g style="fill:none; stroke:#FFFF00; stroke-width:  1.3770; stroke-linecap:butt; stroke-linejoin:miter; stroke-dasharray:none">
   <path d="M372.0543,369.5533L370.0347,367.5337L372.0543,365.5141L374.0739,367.5337z"/>
  </g>
  <g style="fill:#FFFF00; fill-rule:nonzero">
   <path  d="M378.4193,380.6399L376.3997,378.6203L378.4193,376.6007L380.4389,378.6203z"/>
  </g>
  <g style="fill:none; stroke:#FFFF00; stroke-width:  1.3770; stroke-linecap:butt; stroke-linejoin:miter; stroke-dasharray:none">
   <path d="M378.4193,380.6399L376.3997,378.6203L378.4193,376.6007L380.4389,378.6203z"/>
  </g>
  <g style="fill:#FFFF00; fill-rule:nonzero">
   <path  d="M385.4756,391.3026L383.4560,389.2830L385.4756,387.2634L387.4952,389.2830z"/>
  </g>
  <g style="fill:none; stroke:#FFFF00; stroke-width:  1.3770; stroke-linecap:butt; stroke-linejoin:miter; stroke-dasharray:none">
   <path d="M385.4756,391.3026L383.4560,389.2830L385.4756,387.2634L387.4952,389.2830z"/>
  </g>
  <g style="fill:#FFFF00; fill-rule:nonzero">
   <path  d="M391.5276,399.9763L389.5080,397.9567L391.5276,395.9371L393.5472,397.9567z"/>
  </g>
  <g style="fill:none; stroke:#FFFF00; stroke-width:  1.3770; stroke-linecap:butt; stroke-linejoin:miter; stroke-dasharray:none">
   <path d="M391.5276,399.9763L389.5080,397.9567L391.5276,395.9371L393.5472,397.9567z"/>
  </g>
  <g style="fill:#FFFF00; fill-rule:nonzero">
   <path  d="M396.9470,409.0477L394.9274,407.0281L396.9470,405.0085L398.9666,407.0281z"/>
  </g>
  <g style="fill:none; stroke:#FFFF00; stroke-width:  1.3770; stroke-linecap:butt; stroke-linejoin:miter; stroke-dasharray:none">
   <path d="M396.9470,409.0477L394.9274,407.0281L396.9470,405.0085L398.9666,407.0281z"/>
  </g>
  <g style="fill:#FFFF00; fill-rule:nonzero">
   <path  d="M400.4686,418.9213L398.4490,416.9017L400.4686,414.8821L402.4882,416.9017z"/>
  </g>
  <g style="fill:none; stroke:#FFFF00; stroke-width:  1.3770; stroke-linecap:butt; stroke-linejoin:miter; stroke-dasharray:none">
   <path d="M400.4686,418.9213L398.4490,416.9017L400.4686,414.8821L402.4882,416.9017z"/>
  </g>
  <g style="fill:#FFFF00; fill-rule:nonzero">
   <path  d="M401.7794,429.2906L399.7598,427.2710L401.7794,425.2514L403.7990,427.2710z"/>
  </g>
  <g style="fill:none; stroke:#FFFF00; stroke-width:  1.3770; stroke-linecap:butt; stroke-linejoin:miter; stroke-dasharray:none">
   <path d="M401.7794,429.2906L399.7598,427.2710L401.7794,425.2514L403.7990,427.2710z"/>
  </g>
  <g style="fill:#FFFF00; fill-rule:nonzero">
   <path  d="M404.1924,439.4511L402.1728,437.4315L404.1924,435.4119L406.2120,437.4315z"/>
  </g>
  <g style="fill:none; stroke:#FFFF00; stroke-width:  1.3770; stroke-linecap:butt; stroke-linejoin:miter; stroke-dasharray:none">
   <path d="M404.1924,439.4511L402.1728,437.4315L404.1924,435.4119L406.2120,437.4315z"/>
  </g>
  <g style="fill:#FFFF00; fill-rule:nonzero">
   <path  d="M407.1401,449.5008L405.1205,447.4812L407.1401,445.4616L409.1597,447.4812z"/>
  </g>
  <g style="fill:none; stroke:#FFFF00; stroke-width:  1.3770; stroke-linecap:butt; stroke-linejoin:miter; stroke-dasharray:none">
   <path d="M407.1401,449.5008L405.1205,447.4812L407.1401,445.4616L409.1597,447.4812z"/>
  </g>
  <g style="fill:#FFFF00; fill-rule:nonzero">
   <path  d="M410.2705,459.4984L408.2509,457.4788L410.2705,455.4592L412.2901,457.4788z"/>
  </g>
  <g style="fill:none; stroke:#FFFF00; stroke-width:  1.3770; stroke-linecap:butt; stroke-linejoin:miter; stroke-dasharray:none">
   <path d="M410.2705,459.4984L408.2509,457.4788L410.2705,455.4592L412.2901,457.4788z"/>
  </g>
  <g style="fill:#FFFF00; fill-rule:nonzero">
   <path  d="M415.1486,468.7655L413.1290,466.7459L415.1486,464.7263L417.1682,466.7459z"/>
  </g>
  <g style="fill:none; stroke:#FFFF00; stroke-width:  1.3770; stroke-linecap:butt; stroke-linejoin:miter; stroke-dasharray:none">
   <path d="M415.1486,468.7655L413.1290,466.7459L415.1486,464.7263L417.1682,466.7459z"/>
  </g>
  <g style="fill:#FFFF00; fill-rule:nonzero">
   <path  d="M420.0658,478.0130L418.0462,475.9934L420.0658,473.9738L422.0854,475.9934z"/>
  </g>
  <g style="fill:none; stroke:#FFFF00; stroke-width:  1.3770; stroke-linecap:butt; stroke-linejoin:miter; stroke-dasharray:none">
   <path d="M420.0658,478.0130L418.0462,475.9934L420.0658,473.9738L422.0854,475.9934z"/>
  </g>
  <g style="fill:#FFFF00; fill-rule:nonzero">
   <path  d="M423.0397,489.4387L421.0201,487.4191L423.0397,485.3995L425.0593,487.4191z"/>
  </g>
  <g style="fill:none; stroke:#FFFF00; stroke-width:  1.3770; stroke-linecap:butt; stroke-linejoin:miter; stroke-dasharray:none">
   <path d="M423.0397,489.4387L421.0201,487.4191L423.0397,485.3995L425.0593,487.4191z"/>
  </g>
  <g style="fill:#FFFF00; fill-rule:nonzero">
   <path  d="M425.4461,501.0014L423.4265,498.9818L425.4461,496.9622L427.4657,498.9818z"/>
  </g>
  <g style="fill:none; stroke:#FFFF00; stroke-width:  1.3770; stroke-linecap:butt; stroke-linejoin:miter; stroke-dasharray:none">
   <path d="M425.4461,501.0014L423.4265,498.9818L425.4461,496.9622L427.4657,498.9818z"/>
  </g>
  <g style="fill:#FFFF00; fill-rule:nonzero">
   <path  d="M427.8395,512.5511L425.8199,510.5315L427.8395,508.5119L429.8591,510.5315z"/>
  </g>
  <g style="fill:none; stroke:#FFFF00; stroke-width:  1.3770; stroke-linecap:butt; stroke-linejoin:miter; stroke-dasharray:none">
   <path d="M427.8395,512.5511L425.8199,510.5315L427.8395,508.5119L429.8591,510.5315z"/>
  </g>
  <g style="fill:#FFFF00; fill-rule:nonzero">
   <path  d="M430.4220,524.0616L428.4024,522.0420L430.4220,520.0224L432.4416,522.0420z"/>
  </g>
  <g style="fill:none; stroke:#FFFF00; stroke-width:  1.3770; stroke-linecap:butt; stroke-linejoin:miter; stroke-dasharray:none">
   <path d="M430.4220,524.0616L428.4024,522.0420L430.4220,520.0224L432.4416,522.0420z"/>
  </g>
  <g style="fill:#FFFF00; fill-rule:nonzero">
   <path  d="M433.6176,535.4286L431.5980,533.4090L433.6176,531.3894L435.6372,533.4090z"/>
  </g>
  <g style="fill:none; stroke:#FFFF00; stroke-width:  1.3770; stroke-linecap:butt; stroke-linejoin:miter; stroke-dasharray:none">
   <path d="M433.6176,535.4286L431.5980,533.4090L433.6176,531.3894L435.6372,533.4090z"/>
  </g>
  <g style="fill:#FFFF00; fill-rule:nonzero">
   <path  d="M436.7153,545.9870L434.6957,543.9674L436.7153,541.9478L438.7349,543.9674z"/>
  </g>
  <g style="fill:none; stroke:#FFFF00; stroke-width:  1.3770; stroke-linecap:butt; stroke-linejoin:miter; stroke-dasharray:none">
   <path d="M436.7153,545.9870L434.6957,543.9674L436.7153,541.9478L438.7349,543.9674z"/>
  </g>
  <g style="fill:#FFFF00; fill-rule:nonzero">
   <path  d="M438.1501,556.8976L436.1305,554.8780L438.1501,552.8584L440.1697,554.8780z"/>
  </g>
  <g style="fill:none; stroke:#FFFF00; stroke-width:  1.3770; stroke-linecap:butt; stroke-linejoin:miter; stroke-dasharray:none">
   <path d="M438.1501,556.8976L436.1305,554.8780L438.1501,552.8584L440.1697,554.8780z"/>
  </g>
  <g style="fill:#FFFF00; fill-rule:nonzero">
   <path  d="M437.6023,567.1625L435.5827,565.1429L437.6023,563.1233L439.6219,565.1429z"/>
  </g>
  <g style="fill:none; stroke:#FFFF00; stroke-width:  1.3770; stroke-linecap:butt; stroke-linejoin:miter; stroke-dasharray:none">
   <path d="M437.6023,567.1625L435.5827,565.1429L437.6023,563.1233L439.6219,565.1429z"/>
  </g>
  <g style="fill:#FFFF00; fill-rule:nonzero">
   <path  d="M429.7568,568.5515L427.7372,566.5319L429.7568,564.5123L431.7764,566.5319z"/>
  </g>
  <g style="fill:none; stroke:#FFFF00; stroke-width:  1.3770; stroke-linecap:butt; stroke-linejoin:miter; stroke-dasharray:none">
   <path d="M429.7568,568.5515L427.7372,566.5319L429.7568,564.5123L431.7764,566.5319z"/>
  </g>
  <g style="fill:#FFFF00; fill-rule:nonzero">
   <path  d="M421.9179,562.0170L419.8983,559.9974L421.9179,557.9778L423.9375,559.9974z"/>
  </g>
  <g style="fill:none; stroke:#FFFF00; stroke-width:  1.3770; stroke-linecap:butt; stroke-linejoin:miter; stroke-dasharray:none">
   <path d="M421.9179,562.0170L419.8983,559.9974L421.9179,557.9778L423.9375,559.9974z"/>
  </g>
  <g style="fill:#FFFF00; fill-rule:nonzero">
   <path  d="M413.8638,554.7454L411.8442,552.7258L413.8638,550.7062L415.8834,552.7258z"/>
  </g>
  <g style="fill:none; stroke:#FFFF00; stroke-width:  1.3770; stroke-linecap:butt; stroke-linejoin:miter; stroke-dasharray:none">
   <path d="M413.8638,554.7454L411.8442,552.7258L413.8638,550.7062L415.8834,552.7258z"/>
  </g>
  <g style="fill:#FFFF00; fill-rule:nonzero">
   <path  d="M405.2228,548.2109L403.2032,546.1913L405.2228,544.1717L407.2424,546.1913z"/>
  </g>
  <g style="fill:none; stroke:#FFFF00; stroke-width:  1.3770; stroke-linecap:butt; stroke-linejoin:miter; stroke-dasharray:none">
   <path d="M405.2228,548.2109L403.2032,546.1913L405.2228,544.1717L407.2424,546.1913z"/>
  </g>
  <g style="fill:#FFFF00; fill-rule:nonzero">
   <path  d="M396.1513,542.2502L394.1317,540.2306L396.1513,538.2110L398.1709,540.2306z"/>
  </g>
  <g style="fill:none; stroke:#FFFF00; stroke-width:  1.3770; stroke-linecap:butt; stroke-linejoin:miter; stroke-dasharray:none">
   <path d="M396.1513,542.2502L394.1317,540.2306L396.1513,538.2110L398.1709,540.2306z"/>
  </g>
  <g style="fill:#FFFF00; fill-rule:nonzero">
   <path  d="M386.7277,536.5112L384.7081,534.4916L386.7277,532.4720L388.7473,534.4916z"/>
  </g>
  <g style="fill:none; stroke:#FFFF00; stroke-width:  1.3770; stroke-linecap:butt; stroke-linejoin:miter; stroke-dasharray:none">
   <path d="M386.7277,536.5112L384.7081,534.4916L386.7277,532.4720L388.7473,534.4916z"/>
  </g>
  <g style="fill:#FFFF00; fill-rule:nonzero">
   <path  d="M376.4889,530.5505L374.4693,528.5309L376.4889,526.5113L378.5085,528.5309z"/>
  </g>
  <g style="fill:none; stroke:#FFFF00; stroke-width:  1.3770; stroke-linecap:butt; stroke-linejoin:miter; stroke-dasharray:none">
   <path d="M376.4889,530.5505L374.4693,528.5309L376.4889,526.5113L378.5085,528.5309z"/>
  </g>
  <g style="fill:#FFFF00; fill-rule:nonzero">
   <path  d="M366.2240,524.6290L364.2044,522.6094L366.2240,520.5898L368.2436,522.6094z"/>
  </g>
  <g style="fill:none; stroke:#FFFF00; stroke-width:  1.3770; stroke-linecap:butt; stroke-linejoin:miter; stroke-dasharray:none">
   <path d="M366.2240,524.6290L364.2044,522.6094L366.2240,520.5898L368.2436,522.6094z"/>
  </g>
  <g style="fill:#FFFF00; fill-rule:nonzero">
   <path  d="M356.6634,518.6618L354.6438,516.6422L356.6634,514.6226L358.6830,516.6422z"/>
  </g>
  <g style="fill:none; stroke:#FFFF00; stroke-width:  1.3770; stroke-linecap:butt; stroke-linejoin:miter; stroke-dasharray:none">
   <path d="M356.6634,518.6618L354.6438,516.6422L356.6634,514.6226L358.6830,516.6422z"/>
  </g>
  <g style="fill:#FFFF00; fill-rule:nonzero">
   <path  d="M348.5702,511.4229L346.5506,509.4033L348.5702,507.3837L350.5898,509.4033z"/>
  </g>
  <g style="fill:none; stroke:#FFFF00; stroke-width:  1.3770; stroke-linecap:butt; stroke-linejoin:miter; stroke-dasharray:none">
   <path d="M348.5702,511.4229L346.5506,509.4033L348.5702,507.3837L350.5898,509.4033z"/>
  </g>
  <g style="fill:#FFFF00; fill-rule:nonzero">
   <path  d="M341.8204,502.9188L339.8008,500.8992L341.8204,498.8796L343.8400,500.8992z"/>
  </g>
  <g style="fill:none; stroke:#FFFF00; stroke-width:  1.3770; stroke-linecap:butt; stroke-linejoin:miter; stroke-dasharray:none">
   <path d="M341.8204,502.9188L339.8008,500.8992L341.8204,498.8796L343.8400,500.8992z"/>
  </g>
  <g style="fill:#FFFF00; fill-rule:nonzero">
   <path  d="M336.1010,495.6538L334.0814,493.6342L336.1010,491.6146L338.1206,493.6342z"/>
  </g>
  <g style="fill:none; stroke:#FFFF00; stroke-width:  1.3770; stroke-linecap:butt; stroke-linejoin:miter; stroke-dasharray:none">
   <path d="M336.1010,495.6538L334.0814,493.6342L336.1010,491.6146L338.1206,493.6342z"/>
  </g>
  <g style="fill:#FFFF00; fill-rule:nonzero">
   <path  d="M331.1773,487.8410L329.1577,485.8214L331.1773,483.8018L333.1969,485.8214z"/>
  </g>
  <g style="fill:none; stroke:#FFFF00; stroke-width:  1.3770; stroke-linecap:butt; stroke-linejoin:miter; stroke-dasharray:none">
   <path d="M331.1773,487.8410L329.1577,485.8214L331.1773,483.8018L333.1969,485.8214z"/>
  </g>
  <g style="fill:#FFFF00; fill-rule:nonzero">
   <path  d="M326.6317,479.8195L324.6121,477.7999L326.6317,475.7803L328.6513,477.7999z"/>
  </g>
  <g style="fill:none; stroke:#FFFF00; stroke-width:  1.3770; stroke-linecap:butt; stroke-linejoin:miter; stroke-dasharray:none">
   <path d="M326.6317,479.8195L324.6121,477.7999L326.6317,475.7803L328.6513,477.7999z"/>
  </g>
  <g style="fill:#FFFF00; fill-rule:nonzero">
   <path  d="M321.5645,470.0567L319.5449,468.0371L321.5645,466.0175L323.5841,468.0371z"/>
  </g>
  <g style="fill:none; stroke:#FFFF00; stroke-width:  1.3770; stroke-linecap:butt; stroke-linejoin:miter; stroke-dasharray:none">
   <path d="M321.5645,470.0567L319.5449,468.0371L321.5645,466.0175L323.5841,468.0371z"/>
  </g>
  <g style="fill:#FFFF00; fill-rule:nonzero">
   <path  d="M316.1451,460.1636L314.1255,458.1440L316.1451,456.1244L318.1647,458.1440z"/>
  </g>
  <g style="fill:none; stroke:#FFFF00; stroke-width:  1.3770; stroke-linecap:butt; stroke-linejoin:miter; stroke-dasharray:none">
   <path d="M316.1451,460.1636L314.1255,458.1440L316.1451,456.1244L318.1647,458.1440z"/>
  </g>
  <g style="fill:#FFFF00; fill-rule:nonzero">
   <path  d="M310.1518,449.8530L308.1322,447.8334L310.1518,445.8138L312.1714,447.8334z"/>
  </g>
  <g style="fill:none; stroke:#FFFF00; stroke-width:  1.3770; stroke-linecap:butt; stroke-linejoin:miter; stroke-dasharray:none">
   <path d="M310.1518,449.8530L308.1322,447.8334L310.1518,445.8138L312.1714,447.8334z"/>
  </g>
  <g style="fill:#FFFF00; fill-rule:nonzero">
   <path  d="M303.9433,439.6403L301.9237,437.6207L303.9433,435.6011L305.9629,437.6207z"/>
  </g>
  <g style="fill:none; stroke:#FFFF00; stroke-width:  1.3770; stroke-linecap:butt; stroke-linejoin:miter; stroke-dasharray:none">
   <path d="M303.9433,439.6403L301.9237,437.6207L303.9433,435.6011L305.9629,437.6207z"/>
  </g>
  <g style="fill:#FFFF00; fill-rule:nonzero">
   <path  d="M297.5261,429.5645L295.5065,427.5449L297.5261,425.5253L299.5457,427.5449z"/>
  </g>
  <g style="fill:none; stroke:#FFFF00; stroke-width:  1.3770; stroke-linecap:butt; stroke-linejoin:miter; stroke-dasharray:none">
   <path d="M297.5261,429.5645L295.5065,427.5449L297.5261,425.5253L299.5457,427.5449z"/>
  </g>
  <g style="fill:#FFFF00; fill-rule:nonzero">
   <path  d="M290.8350,419.6713L288.8154,417.6517L290.8350,415.6321L292.8546,417.6517z"/>
  </g>
  <g style="fill:none; stroke:#FFFF00; stroke-width:  1.3770; stroke-linecap:butt; stroke-linejoin:miter; stroke-dasharray:none">
   <path d="M290.8350,419.6713L288.8154,417.6517L290.8350,415.6321L292.8546,417.6517z"/>
  </g>
  <g style="fill:#FFFF00; fill-rule:nonzero">
   <path  d="M283.7526,410.1238L281.7330,408.1042L283.7526,406.0846L285.7722,408.1042z"/>
  </g>
  <g style="fill:none; stroke:#FFFF00; stroke-width:  1.3770; stroke-linecap:butt; stroke-linejoin:miter; stroke-dasharray:none">
   <path d="M283.7526,410.1238L281.7330,408.1042L283.7526,406.0846L285.7722,408.1042z"/>
  </g>
  <g style="fill:#FFFF00; fill-rule:nonzero">
   <path  d="M276.2333,400.9154L274.2137,398.8958L276.2333,396.8762L278.2529,398.8958z"/>
  </g>
  <g style="fill:none; stroke:#FFFF00; stroke-width:  1.3770; stroke-linecap:butt; stroke-linejoin:miter; stroke-dasharray:none">
   <path d="M276.2333,400.9154L274.2137,398.8958L276.2333,396.8762L278.2529,398.8958z"/>
  </g>
  <g style="fill:#FFFF00; fill-rule:nonzero">
   <path  d="M269.7965,393.0765L267.7769,391.0569L269.7965,389.0373L271.8161,391.0569z"/>
  </g>
  <g style="fill:none; stroke:#FFFF00; stroke-width:  1.3770; stroke-linecap:butt; stroke-linejoin:miter; stroke-dasharray:none">
   <path d="M269.7965,393.0765L267.7769,391.0569L269.7965,389.0373L271.8161,391.0569z"/>
  </g>
  <g style="fill:#FFFF00; fill-rule:nonzero">
   <path  d="M264.0902,384.6963L262.0706,382.6767L264.0902,380.6571L266.1098,382.6767z"/>
  </g>
  <g style="fill:none; stroke:#FFFF00; stroke-width:  1.3770; stroke-linecap:butt; stroke-linejoin:miter; stroke-dasharray:none">
   <path d="M264.0902,384.6963L262.0706,382.6767L264.0902,380.6571L266.1098,382.6767z"/>
  </g>
  <g style="fill:#FFFF00; fill-rule:nonzero">
   <path  d="M259.4077,375.8270L257.3881,373.8074L259.4077,371.7878L261.4273,373.8074z"/>
  </g>
  <g style="fill:none; stroke:#FFFF00; stroke-width:  1.3770; stroke-linecap:butt; stroke-linejoin:miter; stroke-dasharray:none">
   <path d="M259.4077,375.8270L257.3881,373.8074L259.4077,371.7878L261.4273,373.8074z"/>
  </g>
  <g style="fill:#FFFF00; fill-rule:nonzero">
   <path  d="M253.3818,367.8120L251.3622,365.7924L253.3818,363.7728L255.4014,365.7924z"/>
  </g>
  <g style="fill:none; stroke:#FFFF00; stroke-width:  1.3770; stroke-linecap:butt; stroke-linejoin:miter; stroke-dasharray:none">
   <path d="M253.3818,367.8120L251.3622,365.7924L253.3818,363.7728L255.4014,365.7924z"/>
  </g>
  <g style="fill:#FFFF00; fill-rule:nonzero">
   <path  d="M246.0190,359.1775L243.9994,357.1579L246.0190,355.1383L248.0386,357.1579z"/>
  </g>
  <g style="fill:none; stroke:#FFFF00; stroke-width:  1.3770; stroke-linecap:butt; stroke-linejoin:miter; stroke-dasharray:none">
   <path d="M246.0190,359.1775L243.9994,357.1579L246.0190,355.1383L248.0386,357.1579z"/>
  </g>
  <g style="fill:#FFFF00; fill-rule:nonzero">
   <path  d="M237.5801,350.4191L235.5605,348.3995L237.5801,346.3799L239.5997,348.3995z"/>
  </g>
  <g style="fill:none; stroke:#FFFF00; stroke-width:  1.3770; stroke-linecap:butt; stroke-linejoin:miter; stroke-dasharray:none">
   <path d="M237.5801,350.4191L235.5605,348.3995L237.5801,346.3799L239.5997,348.3995z"/>
  </g>
  <g style="fill:#FFFF00; fill-rule:nonzero">
   <path  d="M228.6391,342.1628L226.6195,340.1432L228.6391,338.1236L230.6587,340.1432z"/>
  </g>
  <g style="fill:none; stroke:#FFFF00; stroke-width:  1.3770; stroke-linecap:butt; stroke-linejoin:miter; stroke-dasharray:none">
   <path d="M228.6391,342.1628L226.6195,340.1432L228.6391,338.1236L230.6587,340.1432z"/>
  </g>
  <g style="fill:#FFFF00; fill-rule:nonzero">
   <path  d="M220.5785,335.3348L218.5589,333.3152L220.5785,331.2956L222.5981,333.3152z"/>
  </g>
  <g style="fill:none; stroke:#FFFF00; stroke-width:  1.3770; stroke-linecap:butt; stroke-linejoin:miter; stroke-dasharray:none">
   <path d="M220.5785,335.3348L218.5589,333.3152L220.5785,331.2956L222.5981,333.3152z"/>
  </g>
  <g style="fill:#FFFF00; fill-rule:nonzero">
   <path  d="M212.2374,328.8719L210.2178,326.8523L212.2374,324.8327L214.2570,326.8523z"/>
  </g>
  <g style="fill:none; stroke:#FFFF00; stroke-width:  1.3770; stroke-linecap:butt; stroke-linejoin:miter; stroke-dasharray:none">
   <path d="M212.2374,328.8719L210.2178,326.8523L212.2374,324.8327L214.2570,326.8523z"/>
  </g>
  <g style="fill:#FFFF00; fill-rule:nonzero">
   <path  d="M203.5507,323.2112L201.5311,321.1916L203.5507,319.1720L205.5703,321.1916z"/>
  </g>
  <g style="fill:none; stroke:#FFFF00; stroke-width:  1.3770; stroke-linecap:butt; stroke-linejoin:miter; stroke-dasharray:none">
   <path d="M203.5507,323.2112L201.5311,321.1916L203.5507,319.1720L205.5703,321.1916z"/>
  </g>
  <g style="fill:#FFFF00; fill-rule:nonzero">
   <path  d="M197.0618,317.2897L195.0422,315.2701L197.0618,313.2505L199.0814,315.2701z"/>
  </g>
  <g style="fill:none; stroke:#FFFF00; stroke-width:  1.3770; stroke-linecap:butt; stroke-linejoin:miter; stroke-dasharray:none">
   <path d="M197.0618,317.2897L195.0422,315.2701L197.0618,313.2505L199.0814,315.2701z"/>
  </g>
  <g style="fill:#FFFF00; fill-rule:nonzero">
   <path  d="M189.9533,308.1073L187.9337,306.0877L189.9533,304.0681L191.9729,306.0877z"/>
  </g>
  <g style="fill:none; stroke:#FFFF00; stroke-width:  1.3770; stroke-linecap:butt; stroke-linejoin:miter; stroke-dasharray:none">
   <path d="M189.9533,308.1073L187.9337,306.0877L189.9533,304.0681L191.9729,306.0877z"/>
  </g>
  <g style="fill:#FFFF00; fill-rule:nonzero">
   <path  d="M183.4253,298.5076L181.4057,296.4880L183.4253,294.4684L185.4449,296.4880z"/>
  </g>
  <g style="fill:none; stroke:#FFFF00; stroke-width:  1.3770; stroke-linecap:butt; stroke-linejoin:miter; stroke-dasharray:none">
   <path d="M183.4253,298.5076L181.4057,296.4880L183.4253,294.4684L185.4449,296.4880z"/>
  </g>
  <g style="fill:#FFFF00; fill-rule:nonzero">
   <path  d="M176.8711,288.9340L174.8515,286.9144L176.8711,284.8948L178.8907,286.9144z"/>
  </g>
  <g style="fill:none; stroke:#FFFF00; stroke-width:  1.3770; stroke-linecap:butt; stroke-linejoin:miter; stroke-dasharray:none">
   <path d="M176.8711,288.9340L174.8515,286.9144L176.8711,284.8948L178.8907,286.9144z"/>
  </g>
  <g style="fill:#FFFF00; fill-rule:nonzero">
   <path  d="M169.5018,279.9734L167.4822,277.9538L169.5018,275.9342L171.5214,277.9538z"/>
  </g>
  <g style="fill:none; stroke:#FFFF00; stroke-width:  1.3770; stroke-linecap:butt; stroke-linejoin:miter; stroke-dasharray:none">
   <path d="M169.5018,279.9734L167.4822,277.9538L169.5018,275.9342L171.5214,277.9538z"/>
  </g>
  <g style="fill:#FFFF00; fill-rule:nonzero">
   <path  d="M161.5194,272.5780L159.4998,270.5584L161.5194,268.5388L163.5390,270.5584z"/>
  </g>
  <g style="fill:none; stroke:#FFFF00; stroke-width:  1.3770; stroke-linecap:butt; stroke-linejoin:miter; stroke-dasharray:none">
   <path d="M161.5194,272.5780L159.4998,270.5584L161.5194,268.5388L163.5390,270.5584z"/>
  </g>
  <g style="fill:#FFFF00; fill-rule:nonzero">
   <path  d="M153.0675,265.7304L151.0479,263.7108L153.0675,261.6912L155.0871,263.7108z"/>
  </g>
  <g style="fill:none; stroke:#FFFF00; stroke-width:  1.3770; stroke-linecap:butt; stroke-linejoin:miter; stroke-dasharray:none">
   <path d="M153.0675,265.7304L151.0479,263.7108L153.0675,261.6912L155.0871,263.7108z"/>
  </g>
  <g style="fill:#FFFF00; fill-rule:nonzero">
   <path  d="M147.6807,258.0545L145.6611,256.0349L147.6807,254.0153L149.7003,256.0349z"/>
  </g>
  <g style="fill:none; stroke:#FFFF00; stroke-width:  1.3770; stroke-linecap:butt; stroke-linejoin:miter; stroke-dasharray:none">
   <path d="M147.6807,258.0545L145.6611,256.0349L147.6807,254.0153L149.7003,256.0349z"/>
  </g>
  <g style="fill:#FFFF00; fill-rule:nonzero">
   <path  d="M145.5286,247.5614L143.5090,245.5418L145.5286,243.5222L147.5482,245.5418z"/>
  </g>
  <g style="fill:none; stroke:#FFFF00; stroke-width:  1.3770; stroke-linecap:butt; stroke-linejoin:miter; stroke-dasharray:none">
   <path d="M145.5286,247.5614L143.5090,245.5418L145.5286,243.5222L147.5482,245.5418z"/>
  </g>
  <g style="fill:#FFFF00; fill-rule:nonzero">
   <path  d="M145.1177,236.8530L143.0981,234.8334L145.1177,232.8138L147.1373,234.8334z"/>
  </g>
  <g style="fill:none; stroke:#FFFF00; stroke-width:  1.3770; stroke-linecap:butt; stroke-linejoin:miter; stroke-dasharray:none">
   <path d="M145.1177,236.8530L143.0981,234.8334L145.1177,232.8138L147.1373,234.8334z"/>
  </g>
  <g style="fill:#FFFF00; fill-rule:nonzero">
   <path  d="M147.4198,226.3990L145.4002,224.3794L147.4198,222.3598L149.4394,224.3794z"/>
  </g>
  <g style="fill:none; stroke:#FFFF00; stroke-width:  1.3770; stroke-linecap:butt; stroke-linejoin:miter; stroke-dasharray:none">
   <path d="M147.4198,226.3990L145.4002,224.3794L147.4198,222.3598L149.4394,224.3794z"/>
  </g>
  <g style="fill:#FFFF00; fill-rule:nonzero">
   <path  d="M155.7739,216.6819L153.7543,214.6623L155.7739,212.6427L157.7935,214.6623z"/>
  </g>
  <g style="fill:none; stroke:#FFFF00; stroke-width:  1.3770; stroke-linecap:butt; stroke-linejoin:miter; stroke-dasharray:none">
   <path d="M155.7739,216.6819L153.7543,214.6623L155.7739,212.6427L157.7935,214.6623z"/>
  </g>
  <g style="fill:none; stroke:#000000; stroke-width:  0.9180; stroke-linecap:butt; stroke-linejoin:miter; stroke-dasharray:none">
   <path d="M61.2000,61.2000L581.4000,61.2000"/>
   <path d="M244.3690,61.2000L244.3690,55.0800"/>
   <path d="M570.4460,61.2000L570.4460,55.0800"/>
   <path d="M81.3306,61.2000L81.3306,48.9600"/>
   <path d="M407.4075,61.2000L407.4075,48.9600"/>
  </g>
  <g style="fill:#000000; fill-rule:nonzero">
   <text   style="font-family:'Helvetica','Nimbus Sans L'; font-style:normal; font-weight:normal; font-size:612.0000" transform="matrix(0.0277,0.0000,-0.0000,-0.0277,69.8306,30.8400)">5.5</text>
   <text   style="font-family:'Helvetica','Nimbus Sans L'; font-style:normal; font-weight:normal; font-size:612.0000" transform="matrix(0.0277,0.0000,-0.0000,-0.0277,402.9075,30.8400)">6</text>
  </g>
  <g style="fill:none; stroke:#000000; stroke-width:  0.9180; stroke-linecap:butt; stroke-linejoin:miter; stroke-dasharray:none">
   <path d="M61.2000,61.2000L61.2000,581.4000"/>
   <path d="M61.2000,302.7226L55.0800,302.7226"/>
   <path d="M61.2000,139.6841L48.9600,139.6841"/>
   <path d="M61.2000,465.7611L48.9600,465.7611"/>
  </g>
  <g style="fill:#000000; fill-rule:nonzero">
   <text   style="font-family:'Helvetica','Nimbus Sans L'; font-style:normal; font-weight:normal; font-size:612.0000" transform="matrix(0.0280,0.0000,-0.0000,-0.0280,19.8400,133.6841)">5.5</text>
   <text   style="font-family:'Helvetica','Nimbus Sans L'; font-style:normal; font-weight:normal; font-size:612.0000" transform="matrix(0.0280,0.0000,-0.0000,-0.0280,33.8400,459.7611)">6</text>
  </g>
  <g style="fill:none; stroke:#000000; stroke-width:  0.9180; stroke-linecap:butt; stroke-linejoin:miter; stroke-dasharray:none">
   <path d="M61.2000,61.2000L61.2000,581.4000L581.4000,581.4000L581.4000,61.2000z"/>
  </g>
 </g>
</svg>
