<?xml version="1.0" encoding="UTF-8" standalone="no"?>
<!-- generated by Grace-5.1.22 -->
<svg
   xmlns:dc="http://purl.org/dc/elements/1.1/"
   xmlns:cc="http://creativecommons.org/ns#"
   xmlns:rdf="http://www.w3.org/1999/02/22-rdf-syntax-ns#"
   xmlns:svg="http://www.w3.org/2000/svg"
   xmlns="http://www.w3.org/2000/svg"
   xmlns:xlink="http://www.w3.org/1999/xlink"
   xmlns:sodipodi="http://sodipodi.sourceforge.net/DTD/sodipodi-0.dtd"
   xmlns:inkscape="http://www.inkscape.org/namespaces/inkscape"
   xml:space="preserve"
   width="765"
   height="765"
   viewBox="0 0 792 612"
   id="svg2721"
   sodipodi:version="0.32"
   inkscape:version="0.46"
   inkscape:output_extension="org.inkscape.output.svg.inkscape"
   sodipodi:docname="smoothing.svg"
   version="1.0"><metadata
   id="metadata3018"><rdf:RDF><cc:Work
       rdf:about=""><dc:format>image/svg+xml</dc:format><dc:type
         rdf:resource="http://purl.org/dc/dcmitype/StillImage" /></cc:Work></rdf:RDF></metadata><defs
   id="defs3016"><inkscape:perspective
   sodipodi:type="inkscape:persp3d"
   inkscape:vp_x="0 : 382.5 : 1"
   inkscape:vp_y="0 : 1000 : 0"
   inkscape:vp_z="990 : 382.5 : 1"
   inkscape:persp3d-origin="495 : 255 : 1"
   id="perspective3020" />
  
  
  
  
  
  
  
  
  
  
  
  
  
  
  
  
  
  
  
  
  
  
  
  
  
  
  
  
  
  
  
  
  
  
  
  
  
  
  
  
  
  
  
  
  
  
  
  
  
  
  
  
  
  
  
  
  
  
  
  
  
  
 







<clipPath
   clipPathUnits="userSpaceOnUse"
   id="clipPath8475"><g
     id="g8477"
     style="fill:none;fill-rule:nonzero;display:inline"
     transform="matrix(1,0,0,-1.2941176,0,702)">
   <path
   id="path8479"
   d="M 0,0 L 0,612 L 792,612 L 792,0 L 0,0 z"
   style="fill:none" />
  </g></clipPath></defs><sodipodi:namedview
   inkscape:window-height="1330"
   inkscape:window-width="1898"
   inkscape:pageshadow="2"
   inkscape:pageopacity="0.0"
   guidetolerance="10.0"
   gridtolerance="10.0"
   objecttolerance="10.0"
   borderopacity="1.0"
   bordercolor="#666666"
   pagecolor="#ffffff"
   id="base"
   showgrid="false"
   inkscape:zoom="0.73267974"
   inkscape:cx="433.36212"
   inkscape:cy="252.03195"
   inkscape:window-x="588"
   inkscape:window-y="30"
   inkscape:current-layer="layer2" />
 
<g
   inkscape:groupmode="layer"
   id="layer1"
   inkscape:label="em"
   style="display:inline"><image
     y="-644.85205"
     x="-1551.7406"
     id="image4058"
     height="3232.0662"
     width="3232.0662"
     sodipodi:absref="/netapp/cnl/home/jkinney/src/mesh_tools/reconstruct2contourtiler/doc/figures/R34CA1-B_S12.199_zoom.png"
     xlink:href="R34CA1-B_S12.199_crop.png"
     clip-path="url(#clipPath8475)" /></g><g
   inkscape:groupmode="layer"
   id="layer2"
   inkscape:label="nonem"
   style="display:inline"><g
   id="g2729"
   style="fill:none;stroke:#ff0000;stroke-width:1.83599997;stroke-linecap:butt;stroke-linejoin:miter;stroke-dasharray:none"
   transform="matrix(1.4992392,0,0,-1.4992392,-54.13457,788.64315)">
   <ellipse
   sodipodi:ry="6.1199999"
   sodipodi:rx="6.1199999"
   sodipodi:cy="101.2035"
   sodipodi:cx="384.63141"
   id="ellipse2731"
   cy="101.2035"
   cx="384.63141"
   ry="6.1199999"
   rx="6.1199999" />
   <ellipse
   sodipodi:ry="6.1199999"
   sodipodi:rx="6.1199999"
   sodipodi:cy="123.8325"
   sodipodi:cx="395.94601"
   id="ellipse2733"
   cy="123.8325"
   cx="395.94601"
   ry="6.1199999"
   rx="6.1199999" />
   <ellipse
   sodipodi:ry="6.1199999"
   sodipodi:rx="6.1199999"
   sodipodi:cy="135.1701"
   sodipodi:cx="395.94601"
   id="ellipse2735"
   cy="135.1701"
   cx="395.94601"
   ry="6.1199999"
   rx="6.1199999" />
   <ellipse
   sodipodi:ry="6.1199999"
   sodipodi:rx="6.1199999"
   sodipodi:cy="146.4846"
   sodipodi:cx="407.2605"
   id="ellipse2737"
   cy="146.4846"
   cx="407.2605"
   ry="6.1199999"
   rx="6.1199999" />
   <ellipse
   sodipodi:ry="6.1199999"
   sodipodi:rx="6.1199999"
   sodipodi:cy="191.74271"
   sodipodi:cx="407.2605"
   id="ellipse2739"
   cy="191.74271"
   cx="407.2605"
   ry="6.1199999"
   rx="6.1199999" />
   <ellipse
   sodipodi:ry="6.1199999"
   sodipodi:rx="6.1199999"
   sodipodi:cy="282.30499"
   sodipodi:cx="435.56989"
   id="ellipse2741"
   cy="282.30499"
   cx="435.56989"
   ry="6.1199999"
   rx="6.1199999" />
   <ellipse
   sodipodi:ry="6.1199999"
   sodipodi:rx="6.1199999"
   sodipodi:cy="304.93411"
   sodipodi:cx="441.22711"
   id="ellipse2743"
   cy="304.93411"
   cx="441.22711"
   ry="6.1199999"
   rx="6.1199999" />
   <ellipse
   sodipodi:ry="6.1199999"
   sodipodi:rx="6.1199999"
   sodipodi:cy="350.21521"
   sodipodi:cx="469.5134"
   id="ellipse2745"
   cy="350.21521"
   cx="469.5134"
   ry="6.1199999"
   rx="6.1199999" />
   <ellipse
   sodipodi:ry="6.1199999"
   sodipodi:rx="6.1199999"
   sodipodi:cy="372.8443"
   sodipodi:cx="480.82791"
   id="ellipse2747"
   cy="372.8443"
   cx="480.82791"
   ry="6.1199999"
   rx="6.1199999" />
   <ellipse
   sodipodi:ry="6.1199999"
   sodipodi:rx="6.1199999"
   sodipodi:cy="553.9458"
   sodipodi:cx="514.79462"
   id="ellipse2749"
   cy="553.9458"
   cx="514.79462"
   ry="6.1199999"
   rx="6.1199999" />
   <ellipse
   sodipodi:ry="6.1199999"
   sodipodi:rx="6.1199999"
   sodipodi:cy="576.57489"
   sodipodi:cx="367.6597"
   id="ellipse2751"
   cy="576.57489"
   cx="367.6597"
   ry="6.1199999"
   rx="6.1199999" />
   <ellipse
   sodipodi:ry="6.1199999"
   sodipodi:rx="6.1199999"
   sodipodi:cy="525.65961"
   sodipodi:cx="277.09729"
   id="ellipse2753"
   cy="525.65961"
   cx="277.09729"
   ry="6.1199999"
   rx="6.1199999" />
   <ellipse
   sodipodi:ry="6.1199999"
   sodipodi:rx="6.1199999"
   sodipodi:cy="497.35019"
   sodipodi:cx="231.81619"
   id="ellipse2755"
   cy="497.35019"
   cx="231.81619"
   ry="6.1199999"
   rx="6.1199999" />
   <ellipse
   sodipodi:ry="6.1199999"
   sodipodi:rx="6.1199999"
   sodipodi:cy="452.069"
   sodipodi:cx="197.8726"
   id="ellipse2757"
   cy="452.069"
   cx="197.8726"
   ry="6.1199999"
   rx="6.1199999" />
   <ellipse
   sodipodi:ry="6.1199999"
   sodipodi:rx="6.1199999"
   sodipodi:cy="429.44"
   sodipodi:cx="180.9008"
   id="ellipse2759"
   cy="429.44"
   cx="180.9008"
   ry="6.1199999"
   rx="6.1199999" />
   <ellipse
   sodipodi:ry="6.1199999"
   sodipodi:rx="6.1199999"
   sodipodi:cy="418.1254"
   sodipodi:cx="169.5632"
   id="ellipse2761"
   cy="418.1254"
   cx="169.5632"
   ry="6.1199999"
   rx="6.1199999" />
   <ellipse
   sodipodi:ry="6.1199999"
   sodipodi:rx="6.1199999"
   sodipodi:cy="406.81091"
   sodipodi:cx="169.5632"
   id="ellipse2763"
   cy="406.81091"
   cx="169.5632"
   ry="6.1199999"
   rx="6.1199999" />
   <ellipse
   sodipodi:ry="6.1199999"
   sodipodi:rx="6.1199999"
   sodipodi:cy="401.15369"
   sodipodi:cx="158.2487"
   id="ellipse2765"
   cy="401.15369"
   cx="158.2487"
   ry="6.1199999"
   rx="6.1199999" />
   <ellipse
   sodipodi:ry="6.1199999"
   sodipodi:rx="6.1199999"
   sodipodi:cy="316.2486"
   sodipodi:cx="118.6479"
   id="ellipse2767"
   cy="316.2486"
   cx="118.6479"
   ry="6.1199999"
   rx="6.1199999" />
  </g><g
   id="g2769"
   style="fill:none;stroke:#ffff00;stroke-width:1.83599997;stroke-linecap:butt;stroke-linejoin:miter;stroke-dasharray:none"
   transform="matrix(1.4992392,0,0,-1.4992392,-54.13457,788.64315)">
   <path
   id="path2771"
   d="M 355.5036,61.1388 L 372.2317,85.1553 L 392.644,118.2676 L 405.367,152.1419 L 409.6619,186.5934 L 417.8361,223.331 L 428.3193,259.4913 L 439.3799,295.5361 L 456.4209,329.1564 L 474.5241,362.2687 L 484.4763,398.6599 L 492.2579,435.6283 L 501.3788,479.9166 L 511.1462,524.0663 L 523.2689,567.6618 L 527.3724,581.4612" />
   <path
   id="path2773"
   d="M 373.5892,581.4612 L 358.4926,572.2338 L 323.0712,551.5906 L 289.0353,531.9864 L 255.5074,511.5279 L 225.4431,486.2666 L 200.6897,455.8328 L 179.7925,428.9089 L 161.366,400.2762 L 144.4404,370.743 L 126.5219,336.1991 L 107.3334,301.1703 L 86.0436,264.5482 L 64.1073,228.4803 L 61.1388,223.8176" />
  </g><g
   id="g2775"
   style="fill:#ffff00;fill-rule:nonzero"
   transform="matrix(1.4992392,0,0,-1.4992392,-54.13457,788.64315)">
   <path
   id="path2777"
   d="M 372.2317,88.1541 L 369.2329,85.1553 L 372.2317,82.1565 L 375.2305,85.1553 L 372.2317,88.1541 z" />
  </g><g
   id="g2779"
   style="fill:none;stroke:#ffff00;stroke-width:1.37699997;stroke-linecap:butt;stroke-linejoin:miter;stroke-dasharray:none"
   transform="matrix(1.4992392,0,0,-1.4992392,-54.13457,788.64315)">
   <path
   id="path2781"
   d="M 372.2317,88.1541 L 369.2329,85.1553 L 372.2317,82.1565 L 375.2305,85.1553 L 372.2317,88.1541 z" />
  </g><g
   id="g2783"
   style="fill:#ffff00;fill-rule:nonzero"
   transform="matrix(1.4992392,0,0,-1.4992392,-54.13457,788.64315)">
   <path
   id="path2785"
   d="M 392.644,121.2664 L 389.6452,118.2676 L 392.644,115.2688 L 395.6428,118.2676 L 392.644,121.2664 z" />
  </g><g
   id="g2787"
   style="fill:none;stroke:#ffff00;stroke-width:1.37699997;stroke-linecap:butt;stroke-linejoin:miter;stroke-dasharray:none"
   transform="matrix(1.4992392,0,0,-1.4992392,-54.13457,788.64315)">
   <path
   id="path2789"
   d="M 392.644,121.2664 L 389.6452,118.2676 L 392.644,115.2688 L 395.6428,118.2676 L 392.644,121.2664 z" />
  </g><g
   id="g2791"
   style="fill:#ffff00;fill-rule:nonzero"
   transform="matrix(1.4992392,0,0,-1.4992392,-54.13457,788.64315)">
   <path
   id="path2793"
   d="M 405.367,155.1407 L 402.3682,152.1419 L 405.367,149.1431 L 408.3658,152.1419 L 405.367,155.1407 z" />
  </g><g
   id="g2795"
   style="fill:none;stroke:#ffff00;stroke-width:1.37699997;stroke-linecap:butt;stroke-linejoin:miter;stroke-dasharray:none"
   transform="matrix(1.4992392,0,0,-1.4992392,-54.13457,788.64315)">
   <path
   id="path2797"
   d="M 405.367,155.1407 L 402.3682,152.1419 L 405.367,149.1431 L 408.3658,152.1419 L 405.367,155.1407 z" />
  </g><g
   id="g2799"
   style="fill:#ffff00;fill-rule:nonzero"
   transform="matrix(1.4992392,0,0,-1.4992392,-54.13457,788.64315)">
   <path
   id="path2801"
   d="M 409.6619,189.5922 L 406.6631,186.5934 L 409.6619,183.5946 L 412.6607,186.5934 L 409.6619,189.5922 z" />
  </g><g
   id="g2803"
   style="fill:none;stroke:#ffff00;stroke-width:1.37699997;stroke-linecap:butt;stroke-linejoin:miter;stroke-dasharray:none"
   transform="matrix(1.4992392,0,0,-1.4992392,-54.13457,788.64315)">
   <path
   id="path2805"
   d="M 409.6619,189.5922 L 406.6631,186.5934 L 409.6619,183.5946 L 412.6607,186.5934 L 409.6619,189.5922 z" />
  </g><g
   id="g2807"
   style="fill:#ffff00;fill-rule:nonzero"
   transform="matrix(1.4992392,0,0,-1.4992392,-54.13457,788.64315)">
   <path
   id="path2809"
   d="M 417.8361,226.3298 L 414.8373,223.331 L 417.8361,220.3322 L 420.8349,223.331 L 417.8361,226.3298 z" />
  </g><g
   id="g2811"
   style="fill:none;stroke:#ffff00;stroke-width:1.37699997;stroke-linecap:butt;stroke-linejoin:miter;stroke-dasharray:none"
   transform="matrix(1.4992392,0,0,-1.4992392,-54.13457,788.64315)">
   <path
   id="path2813"
   d="M 417.8361,226.3298 L 414.8373,223.331 L 417.8361,220.3322 L 420.8349,223.331 L 417.8361,226.3298 z" />
  </g><g
   id="g2815"
   style="fill:#ffff00;fill-rule:nonzero"
   transform="matrix(1.4992392,0,0,-1.4992392,-54.13457,788.64315)">
   <path
   id="path2817"
   d="M 428.3193,262.4901 L 425.3205,259.4913 L 428.3193,256.4925 L 431.3181,259.4913 L 428.3193,262.4901 z" />
  </g><g
   id="g2819"
   style="fill:none;stroke:#ffff00;stroke-width:1.37699997;stroke-linecap:butt;stroke-linejoin:miter;stroke-dasharray:none"
   transform="matrix(1.4992392,0,0,-1.4992392,-54.13457,788.64315)">
   <path
   id="path2821"
   d="M 428.3193,262.4901 L 425.3205,259.4913 L 428.3193,256.4925 L 431.3181,259.4913 L 428.3193,262.4901 z" />
  </g><g
   id="g2823"
   style="fill:#ffff00;fill-rule:nonzero"
   transform="matrix(1.4992392,0,0,-1.4992392,-54.13457,788.64315)">
   <path
   id="path2825"
   d="M 439.3799,298.5349 L 436.3811,295.5361 L 439.3799,292.5373 L 442.3787,295.5361 L 439.3799,298.5349 z" />
  </g><g
   id="g2827"
   style="fill:none;stroke:#ffff00;stroke-width:1.37699997;stroke-linecap:butt;stroke-linejoin:miter;stroke-dasharray:none"
   transform="matrix(1.4992392,0,0,-1.4992392,-54.13457,788.64315)">
   <path
   id="path2829"
   d="M 439.3799,298.5349 L 436.3811,295.5361 L 439.3799,292.5373 L 442.3787,295.5361 L 439.3799,298.5349 z" />
  </g><g
   id="g2831"
   style="fill:#ffff00;fill-rule:nonzero"
   transform="matrix(1.4992392,0,0,-1.4992392,-54.13457,788.64315)">
   <path
   id="path2833"
   d="M 456.4209,332.1552 L 453.4221,329.1564 L 456.4209,326.1576 L 459.4197,329.1564 L 456.4209,332.1552 z" />
  </g><g
   id="g2835"
   style="fill:none;stroke:#ffff00;stroke-width:1.37699997;stroke-linecap:butt;stroke-linejoin:miter;stroke-dasharray:none"
   transform="matrix(1.4992392,0,0,-1.4992392,-54.13457,788.64315)">
   <path
   id="path2837"
   d="M 456.4209,332.1552 L 453.4221,329.1564 L 456.4209,326.1576 L 459.4197,329.1564 L 456.4209,332.1552 z" />
  </g><g
   id="g2839"
   style="fill:#ffff00;fill-rule:nonzero"
   transform="matrix(1.4992392,0,0,-1.4992392,-54.13457,788.64315)">
   <path
   id="path2841"
   d="M 474.5241,365.2675 L 471.5253,362.2687 L 474.5241,359.2699 L 477.5229,362.2687 L 474.5241,365.2675 z" />
  </g><g
   id="g2843"
   style="fill:none;stroke:#ffff00;stroke-width:1.37699997;stroke-linecap:butt;stroke-linejoin:miter;stroke-dasharray:none"
   transform="matrix(1.4992392,0,0,-1.4992392,-54.13457,788.64315)">
   <path
   id="path2845"
   d="M 474.5241,365.2675 L 471.5253,362.2687 L 474.5241,359.2699 L 477.5229,362.2687 L 474.5241,365.2675 z" />
  </g><g
   id="g2847"
   style="fill:#ffff00;fill-rule:nonzero"
   transform="matrix(1.4992392,0,0,-1.4992392,-54.13457,788.64315)">
   <path
   id="path2849"
   d="M 484.4763,401.6587 L 481.4775,398.6599 L 484.4763,395.6611 L 487.4751,398.6599 L 484.4763,401.6587 z" />
  </g><g
   id="g2851"
   style="fill:none;stroke:#ffff00;stroke-width:1.37699997;stroke-linecap:butt;stroke-linejoin:miter;stroke-dasharray:none"
   transform="matrix(1.4992392,0,0,-1.4992392,-54.13457,788.64315)">
   <path
   id="path2853"
   d="M 484.4763,401.6587 L 481.4775,398.6599 L 484.4763,395.6611 L 487.4751,398.6599 L 484.4763,401.6587 z" />
  </g><g
   id="g2855"
   style="fill:#ffff00;fill-rule:nonzero"
   transform="matrix(1.4992392,0,0,-1.4992392,-54.13457,788.64315)">
   <path
   id="path2857"
   d="M 492.2579,438.6271 L 489.2591,435.6283 L 492.2579,432.6295 L 495.2567,435.6283 L 492.2579,438.6271 z" />
  </g><g
   id="g2859"
   style="fill:none;stroke:#ffff00;stroke-width:1.37699997;stroke-linecap:butt;stroke-linejoin:miter;stroke-dasharray:none"
   transform="matrix(1.4992392,0,0,-1.4992392,-54.13457,788.64315)">
   <path
   id="path2861"
   d="M 492.2579,438.6271 L 489.2591,435.6283 L 492.2579,432.6295 L 495.2567,435.6283 L 492.2579,438.6271 z" />
  </g><g
   id="g2863"
   style="fill:#ffff00;fill-rule:nonzero"
   transform="matrix(1.4992392,0,0,-1.4992392,-54.13457,788.64315)">
   <path
   id="path2865"
   d="M 501.3788,482.9154 L 498.38,479.9166 L 501.3788,476.9178 L 504.3776,479.9166 L 501.3788,482.9154 z" />
  </g><g
   id="g2867"
   style="fill:none;stroke:#ffff00;stroke-width:1.37699997;stroke-linecap:butt;stroke-linejoin:miter;stroke-dasharray:none"
   transform="matrix(1.4992392,0,0,-1.4992392,-54.13457,788.64315)">
   <path
   id="path2869"
   d="M 501.3788,482.9154 L 498.38,479.9166 L 501.3788,476.9178 L 504.3776,479.9166 L 501.3788,482.9154 z" />
  </g><g
   id="g2871"
   style="fill:#ffff00;fill-rule:nonzero"
   transform="matrix(1.4992392,0,0,-1.4992392,-54.13457,788.64315)">
   <path
   id="path2873"
   d="M 511.1462,527.0651 L 508.1474,524.0663 L 511.1462,521.0675 L 514.145,524.0663 L 511.1462,527.0651 z" />
  </g><g
   id="g2875"
   style="fill:none;stroke:#ffff00;stroke-width:1.37699997;stroke-linecap:butt;stroke-linejoin:miter;stroke-dasharray:none"
   transform="matrix(1.4992392,0,0,-1.4992392,-54.13457,788.64315)">
   <path
   id="path2877"
   d="M 511.1462,527.0651 L 508.1474,524.0663 L 511.1462,521.0675 L 514.145,524.0663 L 511.1462,527.0651 z" />
  </g><g
   id="g2879"
   style="fill:#ffff00;fill-rule:nonzero"
   transform="matrix(1.4992392,0,0,-1.4992392,-54.13457,788.64315)">
   <path
   id="path2881"
   d="M 523.2689,570.6606 L 520.2701,567.6618 L 523.2689,564.663 L 526.2677,567.6618 L 523.2689,570.6606 z" />
  </g><g
   id="g2883"
   style="fill:none;stroke:#ffff00;stroke-width:1.37699997;stroke-linecap:butt;stroke-linejoin:miter;stroke-dasharray:none"
   transform="matrix(1.4992392,0,0,-1.4992392,-54.13457,788.64315)">
   <path
   id="path2885"
   d="M 523.2689,570.6606 L 520.2701,567.6618 L 523.2689,564.663 L 526.2677,567.6618 L 523.2689,570.6606 z" />
  </g><g
   id="g2887"
   style="fill:#ffff00;fill-rule:nonzero"
   transform="matrix(1.4992392,0,0,-1.4992392,-54.13457,788.64315)">
   <path
   id="path2889"
   d="M 358.4926,575.2326 L 355.4938,572.2338 L 358.4926,569.235 L 361.4914,572.2338 L 358.4926,575.2326 z" />
  </g><g
   id="g2891"
   style="fill:none;stroke:#ffff00;stroke-width:1.37699997;stroke-linecap:butt;stroke-linejoin:miter;stroke-dasharray:none"
   transform="matrix(1.4992392,0,0,-1.4992392,-54.13457,788.64315)">
   <path
   id="path2893"
   d="M 358.4926,575.2326 L 355.4938,572.2338 L 358.4926,569.235 L 361.4914,572.2338 L 358.4926,575.2326 z" />
  </g><g
   id="g2895"
   style="fill:#ffff00;fill-rule:nonzero"
   transform="matrix(1.4992392,0,0,-1.4992392,-54.13457,788.64315)">
   <path
   id="path2897"
   d="M 323.0712,554.5894 L 320.0724,551.5906 L 323.0712,548.5918 L 326.07,551.5906 L 323.0712,554.5894 z" />
  </g><g
   id="g2899"
   style="fill:none;stroke:#ffff00;stroke-width:1.37699997;stroke-linecap:butt;stroke-linejoin:miter;stroke-dasharray:none"
   transform="matrix(1.4992392,0,0,-1.4992392,-54.13457,788.64315)">
   <path
   id="path2901"
   d="M 323.0712,554.5894 L 320.0724,551.5906 L 323.0712,548.5918 L 326.07,551.5906 L 323.0712,554.5894 z" />
  </g><g
   id="g2903"
   style="fill:#ffff00;fill-rule:nonzero"
   transform="matrix(1.4992392,0,0,-1.4992392,-54.13457,788.64315)">
   <path
   id="path2905"
   d="M 289.0353,534.9852 L 286.0365,531.9864 L 289.0353,528.9876 L 292.0341,531.9864 L 289.0353,534.9852 z" />
  </g><g
   id="g2907"
   style="fill:none;stroke:#ffff00;stroke-width:1.37699997;stroke-linecap:butt;stroke-linejoin:miter;stroke-dasharray:none"
   transform="matrix(1.4992392,0,0,-1.4992392,-54.13457,788.64315)">
   <path
   id="path2909"
   d="M 289.0353,534.9852 L 286.0365,531.9864 L 289.0353,528.9876 L 292.0341,531.9864 L 289.0353,534.9852 z" />
  </g><g
   id="g2911"
   style="fill:#ffff00;fill-rule:nonzero"
   transform="matrix(1.4992392,0,0,-1.4992392,-54.13457,788.64315)">
   <path
   id="path2913"
   d="M 255.5074,514.5267 L 252.5086,511.5279 L 255.5074,508.5291 L 258.5062,511.5279 L 255.5074,514.5267 z" />
  </g><g
   id="g2915"
   style="fill:none;stroke:#ffff00;stroke-width:1.37699997;stroke-linecap:butt;stroke-linejoin:miter;stroke-dasharray:none"
   transform="matrix(1.4992392,0,0,-1.4992392,-54.13457,788.64315)">
   <path
   id="path2917"
   d="M 255.5074,514.5267 L 252.5086,511.5279 L 255.5074,508.5291 L 258.5062,511.5279 L 255.5074,514.5267 z" />
  </g><g
   id="g2919"
   style="fill:#ffff00;fill-rule:nonzero"
   transform="matrix(1.4992392,0,0,-1.4992392,-54.13457,788.64315)">
   <path
   id="path2921"
   d="M 225.4431,489.2654 L 222.4443,486.2666 L 225.4431,483.2678 L 228.4419,486.2666 L 225.4431,489.2654 z" />
  </g><g
   id="g2923"
   style="fill:none;stroke:#ffff00;stroke-width:1.37699997;stroke-linecap:butt;stroke-linejoin:miter;stroke-dasharray:none"
   transform="matrix(1.4992392,0,0,-1.4992392,-54.13457,788.64315)">
   <path
   id="path2925"
   d="M 225.4431,489.2654 L 222.4443,486.2666 L 225.4431,483.2678 L 228.4419,486.2666 L 225.4431,489.2654 z" />
  </g><g
   id="g2927"
   style="fill:#ffff00;fill-rule:nonzero"
   transform="matrix(1.4992392,0,0,-1.4992392,-54.13457,788.64315)">
   <path
   id="path2929"
   d="M 200.6897,458.8316 L 197.6909,455.8328 L 200.6897,452.834 L 203.6885,455.8328 L 200.6897,458.8316 z" />
  </g><g
   id="g2931"
   style="fill:none;stroke:#ffff00;stroke-width:1.37699997;stroke-linecap:butt;stroke-linejoin:miter;stroke-dasharray:none"
   transform="matrix(1.4992392,0,0,-1.4992392,-54.13457,788.64315)">
   <path
   id="path2933"
   d="M 200.6897,458.8316 L 197.6909,455.8328 L 200.6897,452.834 L 203.6885,455.8328 L 200.6897,458.8316 z" />
  </g><g
   id="g2935"
   style="fill:#ffff00;fill-rule:nonzero"
   transform="matrix(1.4992392,0,0,-1.4992392,-54.13457,788.64315)">
   <path
   id="path2937"
   d="M 179.7925,431.9077 L 176.7937,428.9089 L 179.7925,425.9101 L 182.7913,428.9089 L 179.7925,431.9077 z" />
  </g><g
   id="g2939"
   style="fill:none;stroke:#ffff00;stroke-width:1.37699997;stroke-linecap:butt;stroke-linejoin:miter;stroke-dasharray:none"
   transform="matrix(1.4992392,0,0,-1.4992392,-54.13457,788.64315)">
   <path
   id="path2941"
   d="M 179.7925,431.9077 L 176.7937,428.9089 L 179.7925,425.9101 L 182.7913,428.9089 L 179.7925,431.9077 z" />
  </g><g
   id="g2943"
   style="fill:#ffff00;fill-rule:nonzero"
   transform="matrix(1.4992392,0,0,-1.4992392,-54.13457,788.64315)">
   <path
   id="path2945"
   d="M 161.366,403.275 L 158.3672,400.2762 L 161.366,397.2774 L 164.3648,400.2762 L 161.366,403.275 z" />
  </g><g
   id="g2947"
   style="fill:none;stroke:#ffff00;stroke-width:1.37699997;stroke-linecap:butt;stroke-linejoin:miter;stroke-dasharray:none"
   transform="matrix(1.4992392,0,0,-1.4992392,-54.13457,788.64315)">
   <path
   id="path2949"
   d="M 161.366,403.275 L 158.3672,400.2762 L 161.366,397.2774 L 164.3648,400.2762 L 161.366,403.275 z" />
  </g><g
   id="g2951"
   style="fill:#ffff00;fill-rule:nonzero"
   transform="matrix(1.4992392,0,0,-1.4992392,-54.13457,788.64315)">
   <path
   id="path2953"
   d="M 144.4404,373.7418 L 141.4416,370.743 L 144.4404,367.7442 L 147.4392,370.743 L 144.4404,373.7418 z" />
  </g><g
   id="g2955"
   style="fill:none;stroke:#ffff00;stroke-width:1.37699997;stroke-linecap:butt;stroke-linejoin:miter;stroke-dasharray:none"
   transform="matrix(1.4992392,0,0,-1.4992392,-54.13457,788.64315)">
   <path
   id="path2957"
   d="M 144.4404,373.7418 L 141.4416,370.743 L 144.4404,367.7442 L 147.4392,370.743 L 144.4404,373.7418 z" />
  </g><g
   id="g2959"
   style="fill:#ffff00;fill-rule:nonzero"
   transform="matrix(1.4992392,0,0,-1.4992392,-54.13457,788.64315)">
   <path
   id="path2961"
   d="M 126.5219,339.1979 L 123.5231,336.1991 L 126.5219,333.2003 L 129.5207,336.1991 L 126.5219,339.1979 z" />
  </g><g
   id="g2963"
   style="fill:none;stroke:#ffff00;stroke-width:1.37699997;stroke-linecap:butt;stroke-linejoin:miter;stroke-dasharray:none"
   transform="matrix(1.4992392,0,0,-1.4992392,-54.13457,788.64315)">
   <path
   id="path2965"
   d="M 126.5219,339.1979 L 123.5231,336.1991 L 126.5219,333.2003 L 129.5207,336.1991 L 126.5219,339.1979 z" />
  </g><g
   id="g2967"
   style="fill:#ffff00;fill-rule:nonzero"
   transform="matrix(1.4992392,0,0,-1.4992392,-54.13457,788.64315)">
   <path
   id="path2969"
   d="M 107.3334,304.1691 L 104.3346,301.1703 L 107.3334,298.1715 L 110.3322,301.1703 L 107.3334,304.1691 z" />
  </g><g
   id="g2971"
   style="fill:none;stroke:#ffff00;stroke-width:1.37699997;stroke-linecap:butt;stroke-linejoin:miter;stroke-dasharray:none"
   transform="matrix(1.4992392,0,0,-1.4992392,-54.13457,788.64315)">
   <path
   id="path2973"
   d="M 107.3334,304.1691 L 104.3346,301.1703 L 107.3334,298.1715 L 110.3322,301.1703 L 107.3334,304.1691 z" />
  </g><g
   id="g2975"
   style="fill:#ffff00;fill-rule:nonzero"
   transform="matrix(1.4992392,0,0,-1.4992392,-54.13457,788.64315)">
   <path
   id="path2977"
   d="M 86.0436,267.547 L 83.0448,264.5482 L 86.0436,261.5494 L 89.0424,264.5482 L 86.0436,267.547 z" />
  </g><g
   id="g2979"
   style="fill:none;stroke:#ffff00;stroke-width:1.37699997;stroke-linecap:butt;stroke-linejoin:miter;stroke-dasharray:none"
   transform="matrix(1.4992392,0,0,-1.4992392,-54.13457,788.64315)">
   <path
   id="path2981"
   d="M 86.0436,267.547 L 83.0448,264.5482 L 86.0436,261.5494 L 89.0424,264.5482 L 86.0436,267.547 z" />
  </g><g
   id="g2983"
   style="fill:#ffff00;fill-rule:nonzero"
   transform="matrix(1.4992392,0,0,-1.4992392,-54.13457,788.64315)">
   <path
   id="path2985"
   d="M 64.1073,231.4791 L 61.1085,228.4803 L 64.1073,225.4815 L 67.1061,228.4803 L 64.1073,231.4791 z" />
  </g><g
   id="g2987"
   style="fill:none;stroke:#ffff00;stroke-width:1.37699997;stroke-linecap:butt;stroke-linejoin:miter;stroke-dasharray:none"
   transform="matrix(1.4992392,0,0,-1.4992392,-54.13457,788.64315)">
   <path
   id="path2989"
   d="M 64.1073,231.4791 L 61.1085,228.4803 L 64.1073,225.4815 L 67.1061,228.4803 L 64.1073,231.4791 z" />
  </g><text
   xml:space="preserve"
   style="font-size:13.04674053px;font-style:normal;font-weight:normal;fill:#ff0000;fill-opacity:1;stroke:none;stroke-width:1px;stroke-linecap:butt;stroke-linejoin:miter;stroke-opacity:1;font-family:Bitstream Vera Sans"
   x="17.001078"
   y="-51.320301"
   id="text3302"><tspan
     sodipodi:role="line"
     id="tspan3304"
     x="17.001078"
     y="-51.320301"
     style="font-size:26.09348106px">Original</tspan></text>

<text
   xml:space="preserve"
   style="font-size:13.04674053px;font-style:normal;font-weight:normal;fill:#ffff00;fill-opacity:1;stroke:none;stroke-width:1px;stroke-linecap:butt;stroke-linejoin:miter;stroke-opacity:1;font-family:Bitstream Vera Sans"
   x="17.001078"
   y="-18.322487"
   id="text3306"><tspan
     sodipodi:role="line"
     id="tspan3308"
     x="17.001078"
     y="-18.322487"
     style="font-size:26.09348106px">Filtered</tspan></text>

<path
   style="fill:none;fill-rule:evenodd;stroke:#000000;stroke-width:16.19407059;stroke-linecap:butt;stroke-linejoin:miter;stroke-miterlimit:4;stroke-dasharray:none;stroke-opacity:1;display:inline"
   d="M 100.04079,636.05824 C 101.11854,636.05824 166.32243,636.05824 166.32243,636.05824"
   id="path5588" /></g></svg>